0
SECTION
2
HEADER
9
$INSUNITS
70
4
9
$ACADVER
1
AC1014
9
$HANDSEED
5
FFFF
0
ENDSEC
0
SECTION
2
TABLES
0
TABLE
2
VPORT
5
8
100
AcDbSymbolTable
0
ENDTAB
0
TABLE
2
LTYPE
5
5
100
AcDbSymbolTable
0
LTYPE
5
14
100
AcDbSymbolTableRecord
100
AcDbLinetypeTableRecord
2
BYBLOCK
70
0
0
LTYPE
5
15
100
AcDbSymbolTableRecord
100
AcDbLinetypeTableRecord
2
BYLAYER
70
0
0
ENDTAB
0
TABLE
2
LAYER
5
2
100
AcDbSymbolTable
70
2
0
LAYER
5
50
100
AcDbSymbolTableRecord
100
AcDbLayerTableRecord
2
0
70
0
6
CONTINUOUS
0
ENDTAB
0
TABLE
2
STYLE
5
3
100
AcDbSymbolTable
70
1
0
STYLE
5
11
100
AcDbSymbolTableRecord
100
AcDbTextStyleTableRecord
2
STANDARD
70
0
0
ENDTAB
0
TABLE
2
VIEW
5
6
100
AcDbSymbolTable
70
0
0
ENDTAB
0
TABLE
2
UCS
5
7
100
AcDbSymbolTable
70
0
0
ENDTAB
0
TABLE
2
APPID
5
9
100
AcDbSymbolTable
70
2
0
APPID
5
12
100
AcDbSymbolTableRecord
100
AcDbRegAppTableRecord
2
ACAD
70
0
0
ENDTAB
0
TABLE
2
DIMSTYLE
5
A
100
AcDbSymbolTable
70
1
0
ENDTAB
0
TABLE
2
BLOCK_RECORD
5
1
100
AcDbSymbolTable
70
1
0
BLOCK_RECORD
5
1F
100
AcDbSymbolTableRecord
100
AcDbBlockTableRecord
2
*MODEL_SPACE
0
BLOCK_RECORD
5
1B
100
AcDbSymbolTableRecord
100
AcDbBlockTableRecord
2
*PAPER_SPACE
0
ENDTAB
0
ENDSEC
0
SECTION
2
BLOCKS
0
BLOCK
5
20
100
AcDbEntity
100
AcDbBlockBegin
2
*MODEL_SPACE
0
ENDBLK
5
21
100
AcDbEntity
100
AcDbBlockEnd
0
BLOCK
5
1C
100
AcDbEntity
100
AcDbBlockBegin
2
*PAPER_SPACE
0
ENDBLK
5
1D
100
AcDbEntity
100
AcDbBlockEnd
0
ENDSEC
0
SECTION
2
ENTITIES
0
LWPOLYLINE
5
100
100
AcDbEntity
8
0
100
AcDbPolyline
90
12
70
1
43
0.0
10
-2.3000000000000198
20
-1.4000000000000017
42
-0.41421356237309459
10
1.5999999999999659
20
2.5
10
284.14999999999998
20
2.5000000000000937
42
-0.41421356237309542
10
288.05000000000001
20
-1.3999999999999524
10
288.05000000000013
20
-93.128023836274593
42
-0.29974572772675684
10
287.20278709847997
20
-94.414268923244578
42
0.19205844654120299
10
284.71426892324496
20
-96.902787098479592
42
-0.29974572772682351
10
283.42802383627497
20
-97.749999999999915
10
2.3219761637253207
20
-97.75
42
-0.29974572772681096
10
1.0357310767554284
20
-96.902787098479735
42
0.19205844654119977
10
-1.4527870984796949
20
-94.414268923244634
42
-0.29974572772681091
10
-2.2999999999999901
20
-93.128023836274707
0
LWPOLYLINE
5
101
100
AcDbEntity
8
0
100
AcDbPolyline
90
8
70
1
43
0.0
10
221.3125
20
-53.875
10
221.3125
20
-41.375
42
0.41421356237309159
10
220.56250000000003
20
-40.625
10
208.06250000000003
20
-40.625000000000043
42
0.41421356237309503
10
207.31250000000003
20
-41.375
10
207.31249999999994
20
-53.875
42
0.41421356237303258
10
208.06250000000003
20
-54.625
10
220.56250000000003
20
-54.625000000000057
42
0.41421356237311241
0
LWPOLYLINE
5
102
100
AcDbEntity
8
0
100
AcDbPolyline
90
8
70
1
43
0.0
10
103.28749999999999
20
-73.674999999999997
10
115.78749999999999
20
-73.674999999999997
42
0.41421356237308815
10
116.53750000000001
20
-72.925000000000011
10
116.53750000000001
20
-60.425000000000004
42
0.41421356237307771
10
115.78749999999999
20
-59.675000000000004
10
103.28749999999999
20
-59.674999999999997
42
0.41421356237308815
10
102.53749999999999
20
-60.425000000000004
10
102.53750000000004
20
-72.925000000000011
42
0.41421356237309503
0
LWPOLYLINE
5
103
100
AcDbEntity
8
0
100
AcDbPolyline
90
8
70
1
43
0.0
10
226.36250000000004
20
-41.375
10
226.36250000000004
20
-53.875
42
0.41421356237309503
10
227.11250000000004
20
-54.625
10
239.61250000000004
20
-54.62500000000005
42
0.4142135623730846
10
240.36250000000001
20
-53.875
10
240.36249999999998
20
-41.375
42
0.41421356237311241
10
239.61250000000004
20
-40.625
10
227.11250000000004
20
-40.625000000000036
42
0.41421356237306034
0
LWPOLYLINE
5
104
100
AcDbEntity
8
0
100
AcDbPolyline
90
8
70
1
43
0.0
10
65.1875
20
-73.675000000000011
42
-0.41421356237309503
10
64.4375
20
-72.925000000000011
10
64.437499999999986
20
-60.425000000000004
42
-0.41421356237310897
10
65.1875
20
-59.674999999999983
10
77.6875
20
-59.674999999999997
42
-0.41421356237309503
10
78.437500000000014
20
-60.425000000000004
10
78.4375
20
-72.925000000000011
42
-0.41421356237310197
10
77.6875
20
-73.674999999999997
0
LWPOLYLINE
5
105
100
AcDbEntity
8
0
100
AcDbPolyline
90
8
70
1
43
0.0
10
188.26249999999999
20
-41.375
10
188.26249999999999
20
-53.875
42
0.41421356237310542
10
189.01250000000002
20
-54.625
10
201.51250000000002
20
-54.624999999999993
42
0.41421356237309159
10
202.26249999999999
20
-53.875
10
202.2625000000001
20
-41.375
42
0.41421356237302914
10
201.51250000000002
20
-40.625
10
189.01250000000002
20
-40.625000000000007
42
0.41421356237309159
0
LWPOLYLINE
5
106
100
AcDbEntity
8
0
100
AcDbPolyline
90
8
70
1
43
0.0
10
97.487500000000011
20
-72.925000000000011
42
-0.41421356237308116
10
96.737499999999997
20
-73.675000000000011
10
84.237499999999997
20
-73.67499999999994
42
-0.41421356237308116
10
83.487500000000068
20
-72.925000000000011
10
83.487500000000068
20
-60.425000000000004
42
-0.41421356237308815
10
84.237499999999997
20
-59.67500000000004
10
96.737499999999983
20
-59.675000000000018
42
-0.41421356237309159
10
97.487499999999997
20
-60.425000000000004
0
LWPOLYLINE
5
107
100
AcDbEntity
8
0
100
AcDbPolyline
90
8
70
1
43
0.0
10
159.6875
20
-60.425000000000004
42
-0.41421356237309159
10
160.4375
20
-59.675000000000011
10
172.9375
20
-59.675000000000018
42
-0.41421356237310542
10
173.68749999999994
20
-60.425000000000004
10
173.68750000000003
20
-72.925000000000011
42
-0.41421356237309853
10
172.9375
20
-73.67500000000004
10
160.4375
20
-73.675000000000026
42
-0.41421356237307078
10
159.68749999999997
20
-72.925000000000011
0
LWPOLYLINE
5
108
100
AcDbEntity
8
0
100
AcDbPolyline
90
8
70
1
43
0.0
10
46.137500000000003
20
-73.675000000000082
42
-0.41421356237312623
10
45.387500000000031
20
-72.925000000000011
10
45.387499999999996
20
-60.425000000000004
42
-0.41421356237309503
10
46.137500000000003
20
-59.674999999999997
10
58.637500000000003
20
-59.675000000000018
42
-0.41421356237309159
10
59.387499999999982
20
-60.425000000000004
10
59.387500000000003
20
-72.925000000000011
42
-0.41421356237310542
10
58.637500000000003
20
-73.674999999999997
0
LWPOLYLINE
5
109
100
AcDbEntity
8
0
100
AcDbPolyline
90
8
70
1
43
0.0
10
198.53750000000002
20
-73.674999999999955
42
-0.41421356237309503
10
197.78750000000005
20
-72.925000000000011
10
197.78749999999999
20
-60.425000000000004
42
-0.41421356237309853
10
198.53750000000002
20
-59.674999999999976
10
211.03749999999997
20
-59.675000000000026
42
-0.41421356237308815
10
211.78750000000002
20
-60.425000000000004
10
211.78750000000005
20
-72.925000000000011
42
-0.41421356237310197
10
211.03750000000002
20
-73.67500000000004
0
LWPOLYLINE
5
110
100
AcDbEntity
8
0
100
AcDbPolyline
90
8
70
1
43
0.0
10
141.38750000000002
20
-73.674999999999983
42
-0.41421356237309853
10
140.63750000000002
20
-72.925000000000011
10
140.63749999999999
20
-60.425000000000004
42
-0.41421356237309159
10
141.38749999999999
20
-59.675000000000011
10
153.88749999999999
20
-59.674999999999997
42
-0.41421356237308116
10
154.63750000000002
20
-60.425000000000004
10
154.63750000000002
20
-72.925000000000011
42
-0.41421356237310542
10
153.88749999999999
20
-73.675000000000011
0
LWPOLYLINE
5
111
100
AcDbEntity
8
0
100
AcDbPolyline
90
8
70
1
43
0.0
10
122.33750000000001
20
-73.674999999999955
42
-0.41421356237310542
10
121.58750000000005
20
-72.925000000000011
10
121.58750000000001
20
-60.425000000000004
42
-0.41421356237309159
10
122.33750000000001
20
-59.675000000000011
10
134.83750000000001
20
-59.674999999999969
42
-0.41421356237309853
10
135.58750000000003
20
-60.425000000000004
10
135.58750000000001
20
-72.925000000000011
42
-0.41421356237307771
10
134.83750000000001
20
-73.675000000000011
0
LWPOLYLINE
5
112
100
AcDbEntity
8
0
100
AcDbPolyline
90
8
70
1
43
0.0
10
93.762500000000003
20
-54.624999999999993
42
-0.41421356237309503
10
93.012500000000017
20
-53.875
10
93.012499999999989
20
-41.375
42
-0.41421356237310542
10
93.762500000000003
20
-40.624999999999993
10
106.2625
20
-40.625
42
-0.4142135623730846
10
107.01250000000003
20
-41.375
10
107.01249999999999
20
-53.875
42
-0.41421356237309503
10
106.2625
20
-54.624999999999979
0
LWPOLYLINE
5
113
100
AcDbEntity
8
0
100
AcDbPolyline
90
8
70
1
43
0.0
10
169.96250000000001
20
-54.624999999999986
42
-0.41421356237309159
10
169.21250000000001
20
-53.875
10
169.21249999999998
20
-41.375
42
-0.41421356237309853
10
169.96250000000001
20
-40.624999999999964
10
182.46250000000001
20
-40.625000000000014
42
-0.41421356237309159
10
183.21249999999998
20
-41.375
10
183.21250000000006
20
-53.875
42
-0.41421356237306034
10
182.46250000000001
20
-54.624999999999972
0
LWPOLYLINE
5
114
100
AcDbEntity
8
0
100
AcDbPolyline
90
8
70
1
43
0.0
10
145.11250000000001
20
-53.875
10
145.11250000000001
20
-41.375
42
0.41421356237308815
10
144.36250000000001
20
-40.625
10
131.86250000000001
20
-40.625
42
0.41421356237307771
10
131.11250000000001
20
-41.375
10
131.11250000000001
20
-53.875
42
0.41421356237308815
10
131.86250000000001
20
-54.625
10
144.36250000000001
20
-54.625
42
0.41421356237307771
0
LWPOLYLINE
5
115
100
AcDbEntity
8
0
100
AcDbPolyline
90
8
70
1
43
0.0
10
27.681249999999999
20
-59.675000000000004
10
15.181250000000002
20
-59.675000000000004
42
0.4142135623730942
10
14.431250000000002
20
-60.425000000000004
10
14.43125
20
-72.925000000000011
42
0.41421356237308982
10
15.181250000000002
20
-73.674999999999997
10
27.681249999999999
20
-73.675000000000082
42
0.41421356237313839
10
28.431250000000002
20
-72.925000000000011
10
28.431250000000009
20
-60.425000000000004
42
0.41421356237309503
0
LWPOLYLINE
5
116
100
AcDbEntity
8
0
100
AcDbPolyline
90
8
70
1
43
0.0
10
271.31875000000002
20
-53.875
42
-0.41421356237309853
10
270.56875000000002
20
-54.624999999999993
10
258.06875000000002
20
-54.625000000000071
42
-0.41421356237311241
10
257.31875000000008
20
-53.875
10
257.31875000000002
20
-41.375
42
-0.41421356237309853
10
258.06875000000002
20
-40.624999999999957
10
270.56875000000002
20
-40.625
42
-0.41421356237309853
10
271.31875000000002
20
-41.375
0
LWPOLYLINE
5
117
100
AcDbEntity
8
0
100
AcDbPolyline
90
8
70
1
43
0.0
10
55.662500000000001
20
-54.625
42
-0.41421356237310542
10
54.912500000000009
20
-53.875
10
54.912500000000016
20
-41.375
42
-0.41421356237310542
10
55.662500000000001
20
-40.625000000000007
10
68.162499999999994
20
-40.624999999999986
42
-0.41421356237310197
10
68.912500000000023
20
-41.375
10
68.91249999999998
20
-53.875
42
-0.41421356237310542
10
68.162499999999994
20
-54.624999999999993
0
LWPOLYLINE
5
118
100
AcDbEntity
8
0
100
AcDbPolyline
90
8
70
1
43
0.0
10
150.16249999999999
20
-41.375
42
-0.41421356237308116
10
150.91249999999999
20
-40.625
10
163.41249999999999
20
-40.625000000000014
42
-0.41421356237309159
10
164.16249999999997
20
-41.375
10
164.16250000000002
20
-53.875
42
-0.41421356237309853
10
163.41249999999999
20
-54.625000000000043
10
150.91249999999999
20
-54.624999999999979
42
-0.41421356237309503
10
150.16250000000002
20
-53.875
0
LWPOLYLINE
5
119
100
AcDbEntity
8
0
100
AcDbPolyline
90
8
70
1
43
0.0
10
22.324999999999999
20
-16.524999999999999
10
34.825000000000003
20
-16.524999999999999
42
0.41421356237309853
10
35.575000000000003
20
-15.775000000000002
10
35.57500000000001
20
-3.2750000000000004
42
0.41421356237309204
10
34.825000000000003
20
-2.5249999999999999
10
22.324999999999999
20
-2.525000000000003
42
0.41421356237309548
10
21.575000000000003
20
-3.2750000000000012
10
21.574999999999996
20
-15.775000000000002
42
0.41421356237309764
0
LWPOLYLINE
5
120
100
AcDbEntity
8
0
100
AcDbPolyline
90
8
70
1
43
0.0
10
15.774999999999999
20
-2.5249999999999972
42
-0.41421356237309287
10
16.525000000000006
20
-3.2750000000000012
10
16.525000000000002
20
-15.775000000000002
42
-0.41421356237309331
10
15.775000000000002
20
-16.525000000000002
10
3.2750000000000012
20
-16.524999999999999
42
-0.41421356237309631
10
2.5249999999999999
20
-15.775000000000002
10
2.5249999999999986
20
-3.2750000000000012
42
-0.41421356237309548
10
3.2750000000000012
20
-2.5249999999999986
0
LWPOLYLINE
5
121
100
AcDbEntity
8
0
100
AcDbPolyline
90
8
70
1
43
0.0
10
117.575
20
-16.525000000000027
42
-0.41421356237308637
10
116.82499999999999
20
-15.775000000000002
10
116.82500000000003
20
-3.2750000000000012
42
-0.41421356237310503
10
117.575
20
-2.5250000000000048
10
130.07499999999999
20
-2.5249999999999995
42
-0.41421356237309809
10
130.82499999999999
20
-3.2750000000000012
10
130.82499999999999
20
-15.775000000000002
42
-0.41421356237308637
10
130.07499999999999
20
-16.525000000000013
0
LWPOLYLINE
5
122
100
AcDbEntity
8
0
100
AcDbPolyline
90
8
70
1
43
0.0
10
91.974999999999994
20
-2.5250000000000066
42
-0.4142135623731022
10
92.725000000000009
20
-3.2750000000000012
10
92.725000000000009
20
-15.775000000000002
42
-0.41421356237310458
10
91.974999999999994
20
-16.525000000000006
10
79.474999999999994
20
-16.525000000000002
42
-0.41421356237309764
10
78.725000000000009
20
-15.775000000000002
10
78.725000000000009
20
-3.2750000000000012
42
-0.41421356237309959
10
79.474999999999994
20
-2.5249999999999999
0
LWPOLYLINE
5
123
100
AcDbEntity
8
0
100
AcDbPolyline
90
8
70
1
43
0.0
10
40.625
20
-3.2750000000000012
10
40.625
20
-15.775000000000002
42
0.41421356237310114
10
41.375
20
-16.524999999999999
10
53.875
20
-16.524999999999984
42
0.41421356237310114
10
54.625
20
-15.775000000000002
10
54.625
20
-3.2750000000000004
42
0.41421356237309631
10
53.875
20
-2.5250000000000101
10
41.375
20
-2.5249999999999972
42
0.4142135623731098
0
LWPOLYLINE
5
124
100
AcDbEntity
8
0
100
AcDbPolyline
90
8
70
1
43
0.0
10
136.625
20
-16.524999999999977
42
-0.41421356237310897
10
135.87500000000003
20
-15.775000000000002
10
135.87500000000003
20
-3.2750000000000012
42
-0.41421356237310047
10
136.625
20
-2.5250000000000021
10
149.125
20
-2.5249999999999977
42
-0.41421356237309176
10
149.87500000000003
20
-3.2750000000000012
10
149.87500000000003
20
-15.775000000000002
42
-0.4142135623730942
10
149.125
20
-16.525000000000006
0
LWPOLYLINE
5
125
100
AcDbEntity
8
0
100
AcDbPolyline
90
8
70
1
43
0.0
10
231.125
20
-3.2750000000000004
42
-0.41421356237309481
10
231.875
20
-2.525000000000003
10
244.375
20
-2.5250000000000394
42
-0.41421356237312412
10
245.12499999999994
20
-3.2750000000000012
10
245.12500000000006
20
-15.775000000000002
42
-0.41421356237302653
10
244.375
20
-16.524999999999963
10
231.875
20
-16.524999999999995
42
-0.41421356237309503
10
231.125
20
-15.775000000000002
0
LWPOLYLINE
5
126
100
AcDbEntity
8
0
100
AcDbPolyline
90
8
70
1
43
0.0
10
98.524999999999991
20
-16.524999999999967
42
-0.41421356237309853
10
97.775000000000034
20
-15.775000000000002
10
97.77500000000002
20
-3.2750000000000012
42
-0.4142135623730922
10
98.525000000000006
20
-2.5250000000000075
10
111.02500000000001
20
-2.5250000000000048
42
-0.41421356237308204
10
111.77500000000003
20
-3.2750000000000012
10
111.77499999999998
20
-15.775000000000002
42
-0.4142135623730846
10
111.02500000000001
20
-16.524999999999995
0
LWPOLYLINE
5
127
100
AcDbEntity
8
0
100
AcDbPolyline
90
8
70
1
43
0.0
10
154.92500000000004
20
-3.2750000000000004
42
-0.41421356237310003
10
155.67500000000001
20
-2.5250000000000021
10
168.17500000000001
20
-2.5250000000000066
42
-0.41421356237309531
10
168.92500000000001
20
-3.2750000000000012
10
168.92500000000001
20
-15.775000000000002
42
-0.41421356237309592
10
168.17500000000001
20
-16.524999999999999
10
155.67500000000001
20
-16.524999999999977
42
-0.41421356237310897
10
154.92500000000004
20
-15.775000000000002
0
LWPOLYLINE
5
128
100
AcDbEntity
8
0
100
AcDbPolyline
90
8
70
1
43
0.0
10
226.07500000000002
20
-15.775000000000002
10
226.07500000000002
20
-3.2750000000000004
42
0.41421356237308854
10
225.32499999999999
20
-2.5250000000000101
10
212.82499999999999
20
-2.5250000000000075
42
0.4142135623730957
10
212.07499999999999
20
-3.2750000000000012
10
212.07499999999999
20
-15.775000000000002
42
0.41421356237309503
10
212.82499999999999
20
-16.524999999999999
10
225.32499999999999
20
-16.524999999999959
42
0.41421356237306473
0
LWPOLYLINE
5
129
100
AcDbEntity
8
0
100
AcDbPolyline
90
8
70
1
43
0.0
10
59.674999999999997
20
-3.2750000000000004
42
-0.41421356237309698
10
60.425000000000004
20
-2.524999999999999
10
72.925000000000011
20
-2.524999999999999
42
-0.41421356237309481
10
73.674999999999983
20
-3.2750000000000012
10
73.674999999999983
20
-15.775000000000002
42
-0.41421356237309764
10
72.925000000000011
20
-16.524999999999995
10
60.425000000000004
20
-16.525000000000013
42
-0.41421356237309503
10
59.674999999999997
20
-15.775000000000002
0
LWPOLYLINE
5
130
100
AcDbEntity
8
0
100
AcDbPolyline
90
8
70
1
43
0.0
10
193.77500000000001
20
-16.525000000000034
42
-0.41421356237311063
10
193.02500000000003
20
-15.775000000000002
10
193.02500000000006
20
-3.2750000000000012
42
-0.41421356237311674
10
193.77500000000001
20
-2.5249999999999928
10
206.27500000000001
20
-2.5249999999999795
42
-0.41421356237309204
10
207.02500000000003
20
-3.2750000000000012
10
207.02500000000001
20
-15.775000000000002
42
-0.41421356237308815
10
206.27500000000001
20
-16.524999999999995
0
LWPOLYLINE
5
131
100
AcDbEntity
8
0
100
AcDbPolyline
90
8
70
1
43
0.0
10
2.9375
20
-21.574999999999996
42
-0.41421356237309725
10
3.6874999999999969
20
-22.324999999999999
10
3.6875000000000084
20
-34.825000000000003
42
-0.41421356237309243
10
2.9375
20
-35.57500000000001
10
2.4375
20
-35.575000000000003
42
-0.41421356237309548
10
1.6874999999999982
20
-34.825000000000003
10
1.6874999999999964
20
-22.324999999999999
42
-0.41421356237309925
10
2.4375
20
-21.575000000000006
0
LWPOLYLINE
5
132
100
AcDbEntity
8
0
100
AcDbPolyline
90
8
70
1
43
0.0
10
187.97499999999999
20
-15.775000000000002
10
187.97499999999999
20
-3.2750000000000004
42
0.41421356237309204
10
187.22499999999999
20
-2.5250000000000101
10
174.72499999999999
20
-2.5249999999999928
42
0.41421356237311674
10
173.97500000000002
20
-3.2750000000000012
10
173.97500000000002
20
-15.775000000000002
42
0.41421356237311063
10
174.72499999999999
20
-16.524999999999999
10
187.22499999999999
20
-16.524999999999995
42
0.41421356237308815
0
LWPOLYLINE
5
133
100
AcDbEntity
8
0
100
AcDbPolyline
90
8
70
1
43
0.0
10
24.887499999999982
20
-22.324999999999999
42
-0.41421356237309159
10
25.637500000000003
20
-21.574999999999982
10
26.137499999999999
20
-21.574999999999992
42
-0.41421356237310025
10
26.887500000000003
20
-22.324999999999999
10
26.887500000000017
20
-34.825000000000003
42
-0.41421356237310197
10
26.137499999999999
20
-35.575000000000017
10
25.637500000000003
20
-35.57500000000001
42
-0.41421356237308815
10
24.887499999999996
20
-34.825000000000003
0
LWPOLYLINE
5
134
100
AcDbEntity
8
0
100
AcDbPolyline
90
8
70
1
43
0.0
10
45.100000000000009
20
-34.825000000000003
10
45.100000000000009
20
-22.324999999999999
42
0.41421356237309681
10
44.350000000000009
20
-21.575000000000003
10
31.850000000000005
20
-21.574999999999996
42
0.41421356237310542
10
31.100000000000001
20
-22.324999999999999
10
31.100000000000001
20
-34.825000000000003
42
0.41421356237310025
10
31.850000000000005
20
-35.575000000000003
10
44.350000000000009
20
-35.575000000000003
42
0.41421356237308982
0
LWPOLYLINE
5
135
100
AcDbEntity
8
0
100
AcDbPolyline
90
8
70
1
43
0.0
10
50.899999999999999
20
-35.57500000000001
42
-0.41421356237308982
10
50.149999999999999
20
-34.825000000000003
10
50.149999999999999
20
-22.324999999999999
42
-0.41421356237309503
10
50.899999999999999
20
-21.574999999999996
10
63.399999999999999
20
-21.575000000000003
42
-0.41421356237309681
10
64.149999999999991
20
-22.324999999999999
10
64.150000000000006
20
-34.825000000000003
42
-0.41421356237309503
10
63.399999999999999
20
-35.575000000000017
0
LWPOLYLINE
5
136
100
AcDbEntity
8
0
100
AcDbPolyline
90
8
70
1
43
0.0
10
83.200000000000003
20
-34.825000000000003
10
83.200000000000003
20
-22.324999999999999
42
0.41421356237310719
10
82.450000000000017
20
-21.575000000000003
10
69.950000000000017
20
-21.575000000000006
42
0.41421356237309681
10
69.200000000000003
20
-22.324999999999999
10
69.200000000000003
20
-34.825000000000003
42
0.41421356237309503
10
69.950000000000017
20
-35.575000000000003
10
82.450000000000017
20
-35.575000000000017
42
0.41421356237308637
0
LWPOLYLINE
5
137
100
AcDbEntity
8
0
100
AcDbPolyline
90
8
70
1
43
0.0
10
8.0374999999999996
20
-35.575000000000003
10
20.537500000000005
20
-35.575000000000003
42
0.41421356237309503
10
21.287500000000001
20
-34.825000000000003
10
21.287500000000005
20
-22.324999999999999
42
0.41421356237310025
10
20.537500000000005
20
-21.575000000000003
10
8.0374999999999996
20
-21.575000000000003
42
0.41421356237309465
10
7.2874999999999996
20
-22.324999999999999
10
7.2874999999999988
20
-34.825000000000003
42
0.41421356237308898
0
LWPOLYLINE
5
138
100
AcDbEntity
8
0
100
AcDbPolyline
90
8
70
1
43
0.0
10
101.5
20
-21.575000000000038
42
-0.41421356237310375
10
102.24999999999997
20
-22.324999999999999
10
102.25000000000001
20
-34.825000000000003
42
-0.41421356237310542
10
101.5
20
-35.57500000000001
10
89
20
-35.575000000000003
42
-0.41421356237310375
10
88.25
20
-34.825000000000003
10
88.25
20
-22.324999999999999
42
-0.41421356237307944
10
89
20
-21.574999999999996
0
LWPOLYLINE
5
139
100
AcDbEntity
8
0
100
AcDbPolyline
90
8
70
1
43
0.0
10
197.5
20
-34.825000000000003
42
-0.4142135623730846
10
196.75
20
-35.575000000000045
10
184.25000000000006
20
-35.574999999999982
42
-0.41421356237308815
10
183.5
20
-34.825000000000003
10
183.49999999999997
20
-22.324999999999999
42
-0.41421356237309853
10
184.25
20
-21.574999999999967
10
196.75
20
-21.575000000000028
42
-0.41421356237308637
10
197.5
20
-22.324999999999999
0
LWPOLYLINE
5
140
100
AcDbEntity
8
0
100
AcDbPolyline
90
8
70
1
43
0.0
10
165.19999999999999
20
-35.575000000000038
42
-0.41421356237309681
10
164.44999999999996
20
-34.825000000000003
10
164.44999999999996
20
-22.324999999999999
42
-0.41421356237308637
10
165.19999999999999
20
-21.575000000000006
10
177.69999999999996
20
-21.574999999999989
42
-0.41421356237306034
10
178.45000000000002
20
-22.324999999999999
10
178.44999999999999
20
-34.825000000000003
42
-0.41421356237308815
10
177.69999999999999
20
-35.574999999999996
0
LWPOLYLINE
5
141
100
AcDbEntity
8
0
100
AcDbPolyline
90
8
70
1
43
0.0
10
127.10000000000001
20
-35.57500000000001
42
-0.41421356237310025
10
126.35000000000002
20
-34.825000000000003
10
126.35000000000004
20
-22.324999999999999
42
-0.41421356237310719
10
127.10000000000001
20
-21.575000000000024
10
139.60000000000002
20
-21.575000000000028
42
-0.41421356237310719
10
140.34999999999999
20
-22.324999999999999
10
140.34999999999999
20
-34.825000000000003
42
-0.41421356237308637
10
139.60000000000002
20
-35.575000000000017
0
LWPOLYLINE
5
142
100
AcDbEntity
8
0
100
AcDbPolyline
90
8
70
1
43
0.0
10
145.40000000000001
20
-22.324999999999999
10
145.40000000000001
20
-34.825000000000003
42
0.41421356237308637
10
146.15000000000003
20
-35.575000000000003
10
158.65000000000003
20
-35.575000000000053
42
0.41421356237314183
10
159.40000000000001
20
-34.825000000000003
10
159.40000000000001
20
-22.324999999999999
42
0.41421356237308293
10
158.65000000000003
20
-21.575000000000003
10
146.15000000000003
20
-21.574999999999974
42
0.41421356237307255
0
LWPOLYLINE
5
143
100
AcDbEntity
8
0
100
AcDbPolyline
90
8
70
1
43
0.0
10
120.55
20
-21.575000000000003
42
-0.41421356237308293
10
121.29999999999998
20
-22.324999999999999
10
121.29999999999998
20
-34.825000000000003
42
-0.41421356237308637
10
120.55
20
-35.575000000000017
10
108.05
20
-35.574999999999989
42
-0.41421356237309331
10
107.30000000000001
20
-34.825000000000003
10
107.30000000000001
20
-22.324999999999999
42
-0.41421356237308637
10
108.05
20
-21.574999999999989
0
LWPOLYLINE
5
144
100
AcDbEntity
8
0
100
AcDbPolyline
90
8
70
1
43
0.0
10
265.21250000000003
20
-35.574999999999982
42
-0.41421356237310197
10
264.46249999999998
20
-34.825000000000003
10
264.46249999999998
20
-22.324999999999999
42
-0.41421356237309853
10
265.21249999999998
20
-21.574999999999967
10
277.71249999999998
20
-21.575000000000028
42
-0.41421356237308637
10
278.46249999999998
20
-22.324999999999999
10
278.46249999999998
20
-34.825000000000003
42
-0.4142135623730846
10
277.71249999999998
20
-35.575000000000045
0
LWPOLYLINE
5
145
100
AcDbEntity
8
0
100
AcDbPolyline
90
8
70
1
43
0.0
10
234.84999999999999
20
-21.575000000000003
10
222.34999999999999
20
-21.575000000000003
42
0.41421356237309331
10
221.59999999999999
20
-22.324999999999999
10
221.59999999999997
20
-34.825000000000003
42
0.41421356237311241
10
222.34999999999999
20
-35.575000000000003
10
234.84999999999999
20
-35.575000000000017
42
0.41421356237306212
10
235.60000000000002
20
-34.825000000000003
10
235.59999999999997
20
-22.324999999999999
42
0.41421356237304996
0
LWPOLYLINE
5
146
100
AcDbEntity
8
0
100
AcDbPolyline
90
8
70
1
43
0.0
10
202.55000000000001
20
-22.324999999999999
10
202.55000000000001
20
-34.825000000000003
42
0.41421356237309681
10
203.30000000000001
20
-35.575000000000003
10
215.80000000000001
20
-35.574999999999996
42
0.41421356237308815
10
216.55000000000001
20
-34.825000000000003
10
216.55000000000004
20
-22.324999999999999
42
0.41421356237306034
10
215.80000000000001
20
-21.575000000000003
10
203.30000000000001
20
-21.575000000000006
42
0.41421356237308637
0
LWPOLYLINE
5
147
100
AcDbEntity
8
0
100
AcDbPolyline
90
8
70
1
43
0.0
10
112.8125
20
-54.625
10
125.3125
20
-54.625
42
0.41421356237308815
10
126.06250000000001
20
-53.875
10
126.0625
20
-41.375
42
0.41421356237309503
10
125.3125
20
-40.625
10
112.8125
20
-40.624999999999993
42
0.41421356237308815
10
112.0625
20
-41.375
10
112.0625
20
-53.875
42
0.41421356237309503
0
LWPOLYLINE
5
148
100
AcDbEntity
8
0
100
AcDbPolyline
90
8
70
1
43
0.0
10
254.65000000000001
20
-34.825000000000003
42
-0.41421356237309503
10
253.90000000000001
20
-35.574999999999996
10
241.40000000000001
20
-35.574999999999996
42
-0.41421356237309503
10
240.65000000000001
20
-34.825000000000003
10
240.65000000000001
20
-22.324999999999999
42
-0.41421356237309331
10
241.40000000000001
20
-21.575000000000006
10
253.90000000000001
20
-21.57500000000001
42
-0.41421356237310719
10
254.64999999999998
20
-22.324999999999999
0
LWPOLYLINE
5
149
100
AcDbEntity
8
0
100
AcDbPolyline
90
8
70
1
43
0.0
10
36.612499999999997
20
-54.625
42
-0.41421356237310025
10
35.862499999999997
20
-53.875
10
35.862500000000011
20
-41.375000000000014
42
-0.41421356237308293
10
36.612499999999997
20
-40.625000000000014
10
49.112499999999997
20
-40.625000000000028
42
-0.41421356237308116
10
49.862499999999976
20
-41.375
10
49.862499999999976
20
-53.875
42
-0.41421356237308116
10
49.112499999999997
20
-54.624999999999979
0
LWPOLYLINE
5
150
100
AcDbEntity
8
0
100
AcDbPolyline
90
8
70
1
43
0.0
10
30.018750000000001
20
-40.625
42
-0.41421356237310025
10
30.768750000000004
20
-41.375
10
30.768750000000011
20
-53.875
42
-0.41421356237310542
10
30.018750000000001
20
-54.625
10
29.518750000000004
20
-54.625
42
-0.41421356237310025
10
28.768750000000001
20
-53.875
10
28.768750000000015
20
-41.375000000000014
42
-0.41421356237310025
10
29.518750000000004
20
-40.625000000000007
0
LWPOLYLINE
5
151
100
AcDbEntity
8
0
100
AcDbPolyline
90
8
70
1
43
0.0
10
260.61250000000001
20
-35.574999999999996
42
-0.41421356237309503
10
259.86250000000001
20
-34.825000000000003
10
259.86250000000001
20
-22.324999999999999
42
-0.41421356237309331
10
260.61250000000001
20
-21.575000000000006
10
261.11249999999995
20
-21.574999999999989
42
-0.41421356237306034
10
261.86250000000007
20
-22.324999999999999
10
261.86250000000001
20
-34.825000000000003
42
-0.41421356237308815
10
261.11250000000001
20
-35.574999999999996
0
LWPOLYLINE
5
152
100
AcDbEntity
8
0
100
AcDbPolyline
90
8
70
1
43
0.0
10
284.0625
20
-34.825000000000003
10
284.0625
20
-22.324999999999999
42
0.41421356237306034
10
283.3125
20
-21.575000000000003
10
282.8125
20
-21.575000000000006
42
0.41421356237309331
10
282.0625
20
-22.324999999999999
10
282.0625
20
-34.825000000000003
42
0.41421356237309503
10
282.8125
20
-35.575000000000003
10
283.3125
20
-35.574999999999996
42
0.41421356237308815
0
LWPOLYLINE
5
153
100
AcDbEntity
8
0
100
AcDbPolyline
90
8
70
1
43
0.0
10
243.78125
20
-73.674999999999997
10
256.28125
20
-73.674999999999997
42
0.41421356237309503
10
257.03125
20
-72.925000000000011
10
257.03125000000006
20
-60.425000000000004
42
0.41421356237306384
10
256.28125
20
-59.675000000000004
10
243.78125
20
-59.675000000000011
42
0.41421356237308815
10
243.03125
20
-60.425000000000004
10
243.03125
20
-72.925000000000011
42
0.41421356237308815
0
LWPOLYLINE
5
154
100
AcDbEntity
8
0
100
AcDbPolyline
90
8
70
1
43
0.0
10
74.712500000000006
20
-54.625
10
87.212500000000006
20
-54.625
42
0.41421356237308815
10
87.962500000000006
20
-53.875
10
87.962500000000006
20
-41.375
42
0.41421356237309503
10
87.212500000000006
20
-40.625
10
74.712500000000006
20
-40.625000000000028
42
0.41421356237309159
10
73.962500000000006
20
-41.375
10
73.962500000000006
20
-53.875
42
0.41421356237309503
0
LWPOLYLINE
5
155
100
AcDbEntity
8
0
100
AcDbPolyline
90
8
70
1
43
0.0
10
21.287500000000005
20
-91.975000000000023
42
-0.41421356237307771
10
20.537500000000005
20
-92.724999999999994
10
8.0374999999999996
20
-92.725000000000009
42
-0.41421356237310375
10
7.287499999999997
20
-91.974999999999994
10
7.2874999999999943
20
-79.474999999999994
42
-0.41421356237310331
10
8.0374999999999996
20
-78.724999999999994
10
20.537500000000005
20
-78.725000000000009
42
-0.41421356237309853
10
21.287499999999998
20
-79.474999999999994
0
LWPOLYLINE
5
156
100
AcDbEntity
8
0
100
AcDbPolyline
90
8
70
1
43
0.0
10
282.47500000000002
20
-59.67500000000004
42
-0.4142135623730846
10
283.22500000000008
20
-60.425000000000004
10
283.22499999999997
20
-72.925000000000011
42
-0.41421356237310897
10
282.47500000000002
20
-73.675000000000054
10
269.97500000000002
20
-73.674999999999955
42
-0.41421356237306733
10
269.22500000000008
20
-72.925000000000011
10
269.22500000000002
20
-60.425000000000004
42
-0.41421356237309503
10
269.97500000000002
20
-59.675000000000011
0
LWPOLYLINE
5
157
100
AcDbEntity
8
0
100
AcDbPolyline
90
8
70
1
43
0.0
10
191.98750000000001
20
-59.675000000000004
10
179.48750000000001
20
-59.675000000000004
42
0.41421356237308815
10
178.73750000000001
20
-60.425000000000004
10
178.73750000000001
20
-72.925000000000011
42
0.41421356237308815
10
179.48750000000001
20
-73.674999999999997
10
191.98750000000001
20
-73.67500000000004
42
0.41421356237309853
10
192.73750000000004
20
-72.925000000000011
10
192.73749999999995
20
-60.425000000000004
42
0.41421356237310542
0
LWPOLYLINE
5
158
100
AcDbEntity
8
0
100
AcDbPolyline
90
8
70
1
43
0.0
10
50.062500000000007
20
-92.725000000000023
42
-0.41421356237309503
10
49.312499999999979
20
-91.974999999999994
10
49.3125
20
-79.474999999999994
42
-0.41421356237310542
10
50.062500000000007
20
-78.725000000000009
10
50.5625
20
-78.724999999999994
42
-0.41421356237308116
10
51.312500000000007
20
-79.474999999999994
10
51.312499999999972
20
-91.97499999999998
42
-0.41421356237310542
10
50.5625
20
-92.724999999999966
0
LWPOLYLINE
5
159
100
AcDbEntity
8
0
100
AcDbPolyline
90
8
70
1
43
0.0
10
230.83750000000003
20
-72.925000000000011
10
230.83750000000003
20
-60.425000000000004
42
0.41421356237308815
10
230.08750000000003
20
-59.675000000000004
10
217.58750000000003
20
-59.675000000000011
42
0.41421356237308815
10
216.83750000000003
20
-60.425000000000004
10
216.83750000000001
20
-72.925000000000011
42
0.41421356237309853
10
217.58750000000003
20
-73.674999999999997
10
230.08750000000003
20
-73.674999999999997
42
0.41421356237308815
0
LWPOLYLINE
5
160
100
AcDbEntity
8
0
100
AcDbPolyline
90
8
70
1
43
0.0
10
265.21249999999998
20
-92.724999999999994
10
277.71249999999998
20
-92.724999999999994
42
0.4142135623730257
10
278.46249999999998
20
-91.974999999999994
10
278.46249999999998
20
-79.474999999999994
42
0.41421356237308815
10
277.71249999999998
20
-78.724999999999994
10
265.21249999999998
20
-78.725000000000023
42
0.41421356237306384
10
264.46249999999998
20
-79.474999999999994
10
264.46250000000003
20
-91.974999999999994
42
0.41421356237308815
0
LWPOLYLINE
5
161
100
AcDbEntity
8
0
100
AcDbPolyline
90
8
70
1
43
0.0
10
25.637500000000003
20
-92.725000000000051
42
-0.41421356237310542
10
24.887499999999974
20
-91.974999999999994
10
24.887499999999996
20
-79.474999999999994
42
-0.41421356237308982
10
25.637500000000003
20
-78.724999999999994
10
26.137499999999999
20
-78.724999999999994
42
-0.41421356237309503
10
26.88750000000001
20
-79.474999999999994
10
26.887499999999996
20
-91.974999999999994
42
-0.41421356237307599
10
26.137499999999999
20
-92.725000000000009
0
LWPOLYLINE
5
162
100
AcDbEntity
8
0
100
AcDbPolyline
90
8
70
1
43
0.0
10
31.100000000000001
20
-79.474999999999994
10
31.100000000000001
20
-91.974999999999994
42
0.41421356237310719
10
31.850000000000005
20
-92.724999999999994
10
44.350000000000009
20
-92.724999999999994
42
0.41421356237309159
10
45.100000000000009
20
-91.974999999999994
10
45.099999999999987
20
-79.474999999999994
42
0.41421356237309503
10
44.350000000000009
20
-78.724999999999994
10
31.850000000000005
20
-78.725000000000009
42
0.41421356237309681
0
LWPOLYLINE
5
163
100
AcDbEntity
8
0
100
AcDbPolyline
90
8
70
1
43
0.0
10
68.912500000000009
20
-91.974999999999994
42
-0.41421356237308116
10
68.162499999999994
20
-92.725000000000009
10
55.662500000000001
20
-92.725000000000009
42
-0.41421356237310542
10
54.912499999999994
20
-91.974999999999994
10
54.912500000000016
20
-79.474999999999994
42
-0.41421356237309503
10
55.662500000000001
20
-78.725000000000009
10
68.162499999999994
20
-78.724999999999994
42
-0.41421356237308116
10
68.912500000000009
20
-79.474999999999994
0
LWPOLYLINE
5
164
100
AcDbEntity
8
0
100
AcDbPolyline
90
8
70
1
43
0.0
10
82.974999999999994
20
-94.724999999999994
10
88.474999999999994
20
-94.724999999999994
42
0.41421356237309503
10
89.224999999999994
20
-93.974999999999994
10
89.225000000000009
20
-78.474999999999994
42
0.41421356237308815
10
88.474999999999994
20
-77.724999999999994
10
82.974999999999994
20
-77.725000000000023
42
0.41421356237310897
10
82.224999999999994
20
-78.474999999999994
10
82.22499999999998
20
-93.974999999999994
42
0.41421356237309503
0
LWPOLYLINE
5
165
100
AcDbEntity
8
0
100
AcDbPolyline
90
8
70
1
43
0.0
10
73.262500000000003
20
-92.725000000000009
42
-0.41421356237310542
10
72.512500000000003
20
-91.974999999999994
10
72.512500000000003
20
-79.474999999999994
42
-0.41421356237310542
10
73.262500000000003
20
-78.725000000000009
10
73.762500000000003
20
-78.724999999999994
42
-0.41421356237308116
10
74.512500000000003
20
-79.474999999999994
10
74.512499999999974
20
-91.97499999999998
42
-0.41421356237310542
10
73.762500000000003
20
-92.724999999999966
0
LWPOLYLINE
5
166
100
AcDbEntity
8
0
100
AcDbPolyline
90
8
70
1
43
0.0
10
197.27500000000003
20
-94.72499999999998
42
-0.41421356237306733
10
196.52499999999998
20
-93.974999999999994
10
196.52500000000003
20
-78.474999999999994
42
-0.41421356237308815
10
197.27500000000003
20
-77.725000000000009
10
202.77500000000003
20
-77.725000000000037
42
-0.4142135623730846
10
203.52500000000009
20
-78.474999999999994
10
203.52500000000003
20
-93.974999999999994
42
-0.41421356237309503
10
202.77500000000003
20
-94.72499999999998
0
LWPOLYLINE
5
167
100
AcDbEntity
8
0
100
AcDbPolyline
90
8
70
1
43
0.0
10
254.65000000000003
20
-91.974999999999994
10
254.65000000000003
20
-79.474999999999994
42
0.41421356237306733
10
253.90000000000001
20
-78.724999999999994
10
241.40000000000001
20
-78.725000000000009
42
0.41421356237309503
10
240.65000000000001
20
-79.474999999999994
10
240.65000000000001
20
-91.974999999999994
42
0.41421356237309503
10
241.40000000000001
20
-92.724999999999994
10
253.90000000000001
20
-92.724999999999952
42
0.41421356237301876
0
LWPOLYLINE
5
168
100
AcDbEntity
8
0
100
AcDbPolyline
90
8
70
1
43
0.0
10
235.1875
20
-92.724999999999952
42
-0.4142135623730257
10
234.43749999999994
20
-91.974999999999994
10
234.4375
20
-79.474999999999994
42
-0.41421356237308815
10
235.1875
20
-78.725000000000009
10
235.68749999999997
20
-78.725000000000051
42
-0.41421356237306034
10
236.43749999999997
20
-79.474999999999994
10
236.4375
20
-91.974999999999994
42
-0.41421356237309503
10
235.6875
20
-92.724999999999994
0
LWPOLYLINE
5
169
100
AcDbEntity
8
0
100
AcDbPolyline
90
8
70
1
43
0.0
10
30.494250000000001
20
-74.675000000000026
42
-0.41421356237310281
10
29.994249999999987
20
-74.175000000000011
10
29.994250000000001
20
-59.175000000000004
42
-0.41421356237308204
10
30.494250000000001
20
-58.674999999999997
10
36.244250000000008
20
-58.67499999999999
42
-0.41421356237310025
10
36.744250000000008
20
-59.175000000000004
10
36.744249999999994
20
-74.175000000000011
42
-0.4142135623730846
10
36.244250000000008
20
-74.674999999999997
0
LWPOLYLINE
5
170
100
AcDbEntity
8
0
100
AcDbPolyline
90
8
70
1
43
0.0
10
230.08749999999998
20
-78.725000000000051
42
-0.41421356237310197
10
230.83749999999998
20
-79.474999999999994
10
230.83750000000003
20
-91.974999999999994
42
-0.41421356237307422
10
230.08750000000003
20
-92.724999999999994
10
217.58750000000003
20
-92.724999999999952
42
-0.4142135623730257
10
216.83749999999998
20
-91.974999999999994
10
216.83750000000006
20
-79.474999999999994
42
-0.41421356237309503
10
217.58750000000003
20
-78.725000000000037
0
LWPOLYLINE
5
171
100
AcDbEntity
8
0
100
AcDbPolyline
90
8
70
1
43
0.0
10
3.6874999999999902
20
-91.974999999999994
10
3.6875000000000102
20
-79.474999999999994
42
0.41421356237310003
10
2.9375
20
-78.724999999999994
10
2.4375
20
-78.725000000000009
42
0.41421356237309953
10
1.6875
20
-79.474999999999994
10
1.6874999999999991
20
-91.974999999999994
42
0.41421356237310231
10
2.4375
20
-92.724999999999994
10
2.9375
20
-92.724999999999994
42
0.4142135623731189
0
LWPOLYLINE
5
172
100
AcDbEntity
8
0
100
AcDbPolyline
90
8
70
1
43
0.0
10
212.48750000000001
20
-78.724999999999994
10
211.98750000000004
20
-78.724999999999994
42
0.41421356237309503
10
211.23750000000001
20
-79.474999999999994
10
211.23750000000004
20
-91.974999999999994
42
0.41421356237309503
10
211.98750000000004
20
-92.724999999999994
10
212.48750000000001
20
-92.724999999999952
42
0.41421356237301876
10
213.23750000000004
20
-91.974999999999994
10
213.23749999999995
20
-79.474999999999994
42
0.41421356237306733
0
LWPOLYLINE
5
173
100
AcDbEntity
8
0
100
AcDbPolyline
90
8
70
1
43
0.0
10
23.668749999999999
20
-53.875
10
23.668749999999999
20
-41.375
42
0.41421356237310025
10
22.918750000000003
20
-40.625
10
5.65625
20
-40.625
42
0.4142135623730942
10
4.90625
20
-41.375
10
4.90625
20
-53.875
42
0.41421356237309465
10
5.65625
20
-54.625
10
22.918750000000003
20
-54.625
42
0.41421356237310025
0
LWPOLYLINE
5
174
100
AcDbEntity
8
0
100
AcDbPolyline
90
8
70
1
43
0.0
10
258.86250000000007
20
-79.474999999999994
42
-0.41421356237307422
10
259.61250000000001
20
-78.724999999999994
10
260.11250000000007
20
-78.724999999999937
42
-0.41421356237310897
10
260.86250000000001
20
-79.474999999999994
10
260.86250000000001
20
-91.974999999999994
42
-0.41421356237309503
10
260.11250000000007
20
-92.724999999999994
10
259.61250000000007
20
-92.724999999999937
42
-0.41421356237308815
10
258.86250000000007
20
-91.974999999999994
0
LWPOLYLINE
5
175
100
AcDbEntity
8
0
100
AcDbPolyline
90
8
70
1
43
0.0
10
12.868250000000002
20
-74.175000000000011
10
12.868250000000002
20
-59.175000000000004
42
0.4142135623730846
10
12.36825
20
-58.674999999999997
10
6.6182500000000113
20
-58.675000000000011
42
0.41421356237308204
10
6.1182500000000104
20
-59.175000000000004
10
6.1182500000000148
20
-74.175000000000011
42
0.41421356237308721
10
6.6182500000000113
20
-74.674999999999997
10
12.36825
20
-74.674999999999997
42
0.41421356237307555
0
LWPOLYLINE
5
176
100
AcDbEntity
8
0
100
AcDbPolyline
90
8
70
1
43
0.0
10
273.38175000000001
20
-55.624999999999943
42
-0.4142135623730378
10
272.88175000000007
20
-55.125
10
272.88175000000012
20
-40.125
42
-0.41421356237314705
10
273.38175000000001
20
-39.624999999999972
10
279.13175000000001
20
-39.624999999999915
42
-0.41421356237310025
10
279.63175000000012
20
-40.125
10
279.63175000000007
20
-55.125
42
-0.41421356237312101
10
279.13175000000001
20
-55.625000000000007
0
LWPOLYLINE
5
177
100
AcDbEntity
8
0
100
AcDbPolyline
90
8
70
1
43
0.0
10
282.8125
20
-92.724999999999994
42
-0.41421356237309503
10
282.0625
20
-91.974999999999994
10
282.0625
20
-79.474999999999994
42
-0.41421356237309503
10
282.8125
20
-78.725000000000009
10
283.3125
20
-78.725000000000023
42
-0.41421356237308815
10
284.0625
20
-79.474999999999994
10
284.0625
20
-91.974999999999994
42
-0.41421356237308815
10
283.3125
20
-92.724999999999952
0
LWPOLYLINE
5
178
100
AcDbEntity
8
0
100
AcDbPolyline
90
8
70
1
43
0.0
10
255.75575000000009
20
-55.125
42
-0.41421356237312101
10
255.25575000000003
20
-55.625000000000007
10
249.50575000000001
20
-55.624999999999986
42
-0.41421356237312101
10
249.00575000000001
20
-55.125
10
249.00575000000006
20
-40.125
42
-0.41421356237311585
10
249.50575000000001
20
-39.624999999999972
10
255.25575000000003
20
-39.624999999999986
42
-0.41421356237310025
10
255.75575000000003
20
-40.125
0
LWPOLYLINE
5
179
100
AcDbEntity
8
0
100
AcDbPolyline
90
8
70
1
43
0.0
10
245.56875000000002
20
-54.625
10
246.56874999999999
20
-54.625
42
0.41421356237304302
10
247.06874999999999
20
-54.125000000000007
10
247.06874999999991
20
-41.125
42
0.41421356237315748
10
246.56874999999999
20
-40.625
10
245.56875000000002
20
-40.624999999999929
42
0.41421356237315227
10
245.06875000000002
20
-41.125
10
245.06874999999994
20
-54.125000000000007
42
0.41421356237303258
0
LWPOLYLINE
5
180
100
AcDbEntity
8
0
100
AcDbPolyline
90
8
70
1
43
0.0
10
236.53743580380902
20
-73.674999999999912
42
-0.41421356237307944
10
236.03743580380896
20
-73.174999999999898
10
236.03743580380899
20
-60.174999999999997
42
-0.41421356237313667
10
236.53743580380902
20
-59.674999999999997
10
237.53743580380899
20
-59.67499999999994
42
-0.41421356237252271
10
238.03743580380802
20
-60.174999999999997
10
238.03743580380808
20
-73.174999999999898
42
-0.41421356237250712
10
237.53743580380899
20
-73.674999999999983
0
LWPOLYLINE
5
181
100
AcDbEntity
8
0
100
AcDbPolyline
90
8
70
1
43
0.0
10
4.1812500000000075
20
-73.174999999999997
42
-0.4142135623731048
10
3.6812500000000101
20
-73.674999999999983
10
2.6812500000000199
20
-73.674999999999983
42
-0.41421356237312135
10
2.1812500000000101
20
-73.174999999999997
10
2.181250000000019
20
-60.174999999999997
42
-0.41421356237309664
10
2.6812500000000199
20
-59.675000000000004
10
3.6812500000000004
20
-59.675000000000011
42
-0.4142135623730937
10
4.1812500000000083
20
-60.174999999999997
0
LWPOLYLINE
5
182
100
AcDbEntity
8
0
100
AcDbPolyline
90
8
70
1
43
0.0
10
281.56875000000002
20
-41.125
42
-0.41421356237305862
10
282.06875000000002
20
-40.624999999999957
10
283.06875000000002
20
-40.624999999999972
42
-0.4142135623730846
10
283.56875000000008
20
-41.125
10
283.56875000000008
20
-54.125000000000007
42
-0.41421356237312101
10
283.06875000000002
20
-54.625000000000014
10
282.06875000000002
20
-54.624999999999979
42
-0.4142135623730534
10
281.56875000000002
20
-54.125000000000007
0
LWPOLYLINE
5
183
100
AcDbEntity
8
0
100
AcDbPolyline
90
32
70
1
43
0.0
10
250.17500000000001
20
-3.2750000000000012
10
250.17500000000001
20
-15.775000000000002
42
0.41421356237309503
10
250.92500000000001
20
-16.524999999999999
10
251.262
20
-16.524999999999999
10
251.262
20
-16.774999999999999
42
0.41421356237309503
10
252.012
20
-17.524999999999999
10
257.512
20
-17.525000000000002
42
0.41421356237307422
10
258.262
20
-16.774999999999999
10
258.262
20
-16.524999999999999
10
275.13799999999998
20
-16.524999999999999
10
275.13799999999998
20
-16.774999999999999
42
0.41421356237309503
10
275.88799999999998
20
-17.524999999999999
10
281.38799999999998
20
-17.525000000000002
42
0.41421356237307422
10
282.13799999999998
20
-16.774999999999999
10
282.13799999999998
20
-16.524999999999999
10
282.47500000000002
20
-16.524999999999999
42
0.41421356237309592
10
283.22500000000002
20
-15.775000000000002
10
283.22500000000002
20
-3.2750000000000004
42
0.41421356237311258
10
282.47500000000002
20
-2.5249999999999702
10
282.13799999999998
20
-2.5249999999999999
10
282.13799999999998
20
-2.2749999999999999
42
0.41421356237308821
10
281.38799999999998
20
-1.5250000000000099
10
275.88799999999998
20
-1.5249999999999999
42
0.41421356237309498
10
275.13799999999998
20
-2.2749999999999999
10
275.13799999999998
20
-2.5249999999999999
10
258.262
20
-2.5249999999999999
10
258.262
20
-2.2749999999999999
42
0.41421356237308821
10
257.512
20
-1.5250000000000099
10
252.012
20
-1.5249999999999999
42
0.41421356237309498
10
251.262
20
-2.2749999999999999
10
251.262
20
-2.5249999999999999
10
250.92500000000001
20
-2.525000000000003
42
0.41421356237309531
0
LWPOLYLINE
5
184
100
AcDbEntity
8
0
100
AcDbPolyline
90
8
70
1
43
0.0
10
264.08430521274897
20
-73.174999999999898
42
-0.41421356237315748
10
263.58430521274897
20
-73.674999999999969
10
262.58430521274897
20
-73.675000000000026
42
-0.41421356237316265
10
262.08430521274897
20
-73.174999999999898
10
262.08430521274897
20
-60.174999999999905
42
-0.41421356237307944
10
262.58430521274897
20
-59.674999999999997
10
263.58430521274897
20
-59.674999999999947
42
-0.41421356237312101
10
264.08430521274892
20
-60.174999999999997
0
LWPOLYLINE
5
185
100
AcDbEntity
8
0
100
AcDbPolyline
90
20
70
1
43
0.0
10
136.375
20
-92.725000000000023
42
-0.41421356237310542
10
135.87499999999997
20
-92.224999999999994
10
135.875
20
-87.855990898818504
10
107.79193991247801
20
-87.855990898818575
42
-0.41421356237310025
10
105.79193991247794
20
-85.855990898818519
10
105.79193991247803
20
-85.594009101181413
42
-0.41421356237310281
10
107.79193991247801
20
-83.594009101181399
10
135.875
20
-83.594009101181399
10
135.87500000000003
20
-79.224999999999994
42
-0.41421356237307944
10
136.375
20
-78.724999999999994
10
149.375
20
-78.724999999999994
42
-0.41421356237312101
10
149.875
20
-79.224999999999994
10
149.875
20
-83.594009101181399
10
177.95806008752203
20
-83.594009101181413
42
-0.41421356237309503
10
179.958060087522
20
-85.594009101181413
10
179.95806008752197
20
-85.855990898818519
42
-0.41421356237309764
10
177.95806008752203
20
-87.855990898818504
10
149.875
20
-87.855990898818504
10
149.875
20
-92.224999999999994
42
-0.41421356237309503
10
149.375
20
-92.725000000000009
0
LWPOLYLINE
5
186
100
AcDbEntity
8
0
100
AcDbPolyline
90
8
70
1
43
0.0
10
40.181250000000006
20
-59.67499999999994
42
-0.41421356237314183
10
40.681249999999963
20
-60.174999999999997
10
40.681250000000006
20
-73.174999999999997
42
-0.41421356237309503
10
40.181250000000006
20
-73.674999999999997
10
39.181249999999999
20
-73.674999999999997
42
-0.41421356237309503
10
38.681249999999999
20
-73.174999999999997
10
38.681250000000006
20
-60.174999999999997
42
-0.41421356237308204
10
39.181249999999999
20
-59.675000000000004
0
ENDSEC
0
SECTION
2
OBJECTS
0
DICTIONARY
5
C
100
AcDbDictionary
3
ACAD_GROUP
350
D
3
ACAD_MLINESTYLE
350
17
0
DICTIONARY
5
D
100
AcDbDictionary
0
DICTIONARY
5
1A
330
C
100
AcDbDictionary
0
DICTIONARY
5
17
100
AcDbDictionary
0
ENDSEC
0
EOF
