0
SECTION
2
HEADER
9
$INSUNITS
70
4
9
$ACADVER
1
AC1014
9
$HANDSEED
5
FFFF
0
ENDSEC
0
SECTION
2
TABLES
0
TABLE
2
VPORT
5
8
100
AcDbSymbolTable
0
ENDTAB
0
TABLE
2
LTYPE
5
5
100
AcDbSymbolTable
0
LTYPE
5
14
100
AcDbSymbolTableRecord
100
AcDbLinetypeTableRecord
2
BYBLOCK
70
0
0
LTYPE
5
15
100
AcDbSymbolTableRecord
100
AcDbLinetypeTableRecord
2
BYLAYER
70
0
0
ENDTAB
0
TABLE
2
LAYER
5
2
100
AcDbSymbolTable
70
2
0
LAYER
5
50
100
AcDbSymbolTableRecord
100
AcDbLayerTableRecord
2
0
70
0
6
CONTINUOUS
0
ENDTAB
0
TABLE
2
STYLE
5
3
100
AcDbSymbolTable
70
1
0
STYLE
5
11
100
AcDbSymbolTableRecord
100
AcDbTextStyleTableRecord
2
STANDARD
70
0
0
ENDTAB
0
TABLE
2
VIEW
5
6
100
AcDbSymbolTable
70
0
0
ENDTAB
0
TABLE
2
UCS
5
7
100
AcDbSymbolTable
70
0
0
ENDTAB
0
TABLE
2
APPID
5
9
100
AcDbSymbolTable
70
2
0
APPID
5
12
100
AcDbSymbolTableRecord
100
AcDbRegAppTableRecord
2
ACAD
70
0
0
ENDTAB
0
TABLE
2
DIMSTYLE
5
A
100
AcDbSymbolTable
70
1
0
ENDTAB
0
TABLE
2
BLOCK_RECORD
5
1
100
AcDbSymbolTable
70
1
0
BLOCK_RECORD
5
1F
100
AcDbSymbolTableRecord
100
AcDbBlockTableRecord
2
*MODEL_SPACE
0
BLOCK_RECORD
5
1B
100
AcDbSymbolTableRecord
100
AcDbBlockTableRecord
2
*PAPER_SPACE
0
ENDTAB
0
ENDSEC
0
SECTION
2
BLOCKS
0
BLOCK
5
20
100
AcDbEntity
100
AcDbBlockBegin
2
*MODEL_SPACE
0
ENDBLK
5
21
100
AcDbEntity
100
AcDbBlockEnd
0
BLOCK
5
1C
100
AcDbEntity
100
AcDbBlockBegin
2
*PAPER_SPACE
0
ENDBLK
5
1D
100
AcDbEntity
100
AcDbBlockEnd
0
ENDSEC
0
SECTION
2
ENTITIES
0
LWPOLYLINE
5
100
100
AcDbEntity
8
0
100
AcDbPolyline
90
12
70
1
43
0.0
10
-2.3219761637250267
20
97.749999999999901
42
-0.29974572772673308
10
-1.0357310767552224
20
96.902787098479905
42
0.19205844654120241
10
1.4527870984799696
20
94.414268923244506
42
-0.29974572772672947
10
2.2999999999999687
20
93.12802383627465
10
2.3000000000000229
20
1.4000000000000001
42
-0.41421356237309509
10
-1.6000000000000369
20
-2.5000000000000613
10
-284.15000000000009
20
-2.5000000000000213
42
-0.41421356237309531
10
-288.05000000000001
20
1.3999999999999524
10
-288.05000000000052
20
93.12802383627465
42
-0.29974572772691221
10
-287.20278709847929
20
94.414268923245217
42
0.19205844654114951
10
-284.71426892324405
20
96.902787098479564
42
-0.29974572772661207
10
-283.42802383627509
20
97.749999999999943
0
LWPOLYLINE
5
101
100
AcDbEntity
8
0
100
AcDbPolyline
90
32
70
1
43
0.0
10
-282.13800000000003
20
16.525000000000038
10
-282.47500000000008
20
16.525000000000038
42
0.41421356237309503
10
-283.22500000000002
20
15.775000000000041
10
-283.22500000000008
20
3.2750000000000092
42
0.41421356237309503
10
-282.47500000000008
20
2.5249999999999897
10
-282.13800000000003
20
2.5250000000000092
10
-282.13800000000003
20
2.275000000000019
42
0.41421356237309892
10
-281.38800000000009
20
1.5250000000000297
10
-275.88800000000003
20
1.5250000000000021
42
0.41421356237311063
10
-275.13800000000009
20
2.2749999999999995
10
-275.13800000000009
20
2.5249999999999995
10
-258.26200000000006
20
2.5249999999999995
10
-258.26200000000011
20
2.2749999999999995
42
0.4142135623730599
10
-257.51200000000006
20
1.5250000000000086
10
-252.012
20
1.5250000000000064
42
0.41421356237309503
10
-251.26200000000006
20
2.2749999999999995
10
-251.26200000000006
20
2.5249999999999995
10
-250.92500000000001
20
2.5250000000000021
42
0.41421356237309548
10
-250.17500000000007
20
3.2750000000000012
10
-250.17500000000001
20
15.775000000000041
42
0.41421356237309503
10
-250.92500000000001
20
16.525000000000038
10
-251.26200000000006
20
16.525000000000038
10
-251.26199999999994
20
16.775000000000041
42
0.4142135623730534
10
-252.012
20
17.525000000000041
10
-257.51200000000006
20
17.525000000000034
42
0.41421356237309503
10
-258.26200000000006
20
16.775000000000041
10
-258.26200000000006
20
16.525000000000038
10
-275.13800000000009
20
16.525000000000038
10
-275.13800000000009
20
16.775000000000041
42
0.41421356237309503
10
-275.88800000000003
20
17.525000000000041
10
-281.38800000000009
20
17.525000000000034
42
0.41421356237309503
10
-282.13800000000003
20
16.775000000000041
0
LWPOLYLINE
5
102
100
AcDbEntity
8
0
100
AcDbPolyline
90
8
70
1
43
0.0
10
-197.27500000000006
20
94.724999999999952
10
-202.77500000000003
20
94.724999999999952
42
0.41421356237309503
10
-203.52500000000006
20
93.975000000000051
10
-203.52500000000003
20
78.475000000000023
42
0.41421356237309503
10
-202.77500000000003
20
77.725000000000037
10
-197.27500000000006
20
77.725000000000051
42
0.41421356237312978
10
-196.52500000000003
20
78.475000000000023
10
-196.52500000000006
20
93.975000000000051
42
0.41421356237309503
0
LWPOLYLINE
5
103
100
AcDbEntity
8
0
100
AcDbPolyline
90
8
70
1
43
0.0
10
-88.475000000000037
20
77.724999999999923
42
-0.41421356237309503
10
-89.225000000000051
20
78.474999999999937
10
-89.225000000000051
20
93.975000000000051
42
-0.41421356237306034
10
-88.475000000000037
20
94.724999999999966
10
-82.975000000000065
20
94.724999999999966
42
-0.41421356237306034
10
-82.225000000000051
20
93.975000000000051
10
-82.22500000000008
20
78.474999999999937
42
-0.41421356237309503
10
-82.975000000000065
20
77.724999999999937
0
LWPOLYLINE
5
104
100
AcDbEntity
8
0
100
AcDbPolyline
90
8
70
1
43
0.0
10
-31.600000000000037
20
35.574999999999939
10
-44.600000000000009
20
35.574999999999939
42
0.41421356237309503
10
-45.100000000000051
20
35.074999999999939
10
-45.099999999999994
20
22.074999999999939
42
0.41421356237309503
10
-44.600000000000009
20
21.574999999999939
10
-31.600000000000037
20
21.574999999999935
42
0.41421356237309503
10
-31.100000000000065
20
22.074999999999939
10
-31.10000000000003
20
35.074999999999939
42
0.41421356237309503
0
LWPOLYLINE
5
105
100
AcDbEntity
8
0
100
AcDbPolyline
90
8
70
1
43
0.0
10
-102.25000000000006
20
35.074999999999939
42
-0.41421356237309503
10
-101.75000000000004
20
35.574999999999946
10
-88.75
20
35.574999999999932
42
-0.41421356237309503
10
-88.250000000000014
20
35.074999999999939
10
-88.249999999999972
20
22.074999999999939
42
-0.41421356237309503
10
-88.75
20
21.574999999999914
10
-101.75000000000004
20
21.574999999999932
42
-0.41421356237309503
10
-102.25000000000006
20
22.074999999999939
0
LWPOLYLINE
5
106
100
AcDbEntity
8
0
100
AcDbPolyline
90
8
70
1
43
0.0
10
-4.906250000000032
20
41.374999999999943
42
-0.41421356237309503
10
-5.6562500000000426
20
40.624999999999929
10
-22.918750000000045
20
40.624999999999936
42
-0.41421356237309503
10
-23.668750000000045
20
41.374999999999943
10
-23.668750000000038
20
53.874999999999943
42
-0.41421356237309503
10
-22.918750000000045
20
54.624999999999929
10
-5.6562500000000426
20
54.624999999999943
42
-0.41421356237309503
10
-4.9062500000000409
20
53.874999999999943
0
LWPOLYLINE
5
107
100
AcDbEntity
8
0
100
AcDbPolyline
90
8
70
1
43
0.0
10
-83.200000000000045
20
35.074999999999939
42
-0.41421356237309503
10
-82.700000000000031
20
35.574999999999946
10
-69.70000000000006
20
35.57499999999996
42
-0.41421356237309503
10
-69.200000000000045
20
35.074999999999939
10
-69.200000000000074
20
22.074999999999939
42
-0.41421356237309503
10
-69.70000000000006
20
21.574999999999957
10
-82.700000000000031
20
21.574999999999967
42
-0.41421356237309503
10
-83.200000000000003
20
22.074999999999939
0
LWPOLYLINE
5
108
100
AcDbEntity
8
0
100
AcDbPolyline
90
8
70
1
43
0.0
10
-63.65000000000002
20
21.574999999999932
42
-0.41421356237309503
10
-64.150000000000034
20
22.074999999999939
10
-64.150000000000006
20
35.074999999999939
42
-0.41421356237309503
10
-63.65000000000002
20
35.574999999999918
10
-50.649999999999977
20
35.574999999999939
42
-0.41421356237309503
10
-50.149999999999977
20
35.074999999999939
10
-50.150000000000006
20
22.074999999999939
42
-0.41421356237309503
10
-50.649999999999977
20
21.574999999999967
0
LWPOLYLINE
5
109
100
AcDbEntity
8
0
100
AcDbPolyline
90
8
70
1
43
0.0
10
-198.28750000000008
20
73.67500000000004
10
-211.28750000000002
20
73.67499999999994
42
0.41421356237309503
10
-211.78750000000008
20
73.17499999999994
10
-211.78750000000002
20
60.17499999999994
42
0.41421356237309503
10
-211.28750000000002
20
59.67499999999994
10
-198.28750000000008
20
59.674999999999969
42
0.41421356237309503
10
-197.78750000000002
20
60.17499999999994
10
-197.78750000000002
20
73.17499999999994
42
0.41421356237309503
0
LWPOLYLINE
5
110
100
AcDbEntity
8
0
100
AcDbPolyline
90
8
70
1
43
0.0
10
-21.287500000000037
20
92.224999999999952
10
-21.287500000000037
20
79.224999999999937
42
0.41421356237309503
10
-20.787500000000065
20
78.724999999999937
10
-7.7875000000000227
20
78.724999999999952
42
0.41421356237309503
10
-7.2875000000000512
20
79.224999999999937
10
-7.2875000000000156
20
92.224999999999952
42
0.41421356237309503
10
-7.7875000000000227
20
92.725000000000051
10
-20.787500000000065
20
92.724999999999952
42
0.41421356237309503
0
LWPOLYLINE
5
111
100
AcDbEntity
8
0
100
AcDbPolyline
90
8
70
1
43
0.0
10
-256.53125
20
59.67499999999994
10
-243.53125000000006
20
59.67499999999994
42
0.4142135623730378
10
-243.03125
20
60.17499999999994
10
-243.03124999999994
20
73.17499999999994
42
0.41421356237309503
10
-243.53125000000006
20
73.67500000000004
10
-256.53125
20
73.674999999999955
42
0.41421356237309503
10
-257.03125000000006
20
73.17499999999994
10
-257.03125000000006
20
60.17499999999994
42
0.41421356237309503
0
LWPOLYLINE
5
112
100
AcDbEntity
8
0
100
AcDbPolyline
90
8
70
1
43
0.0
10
-78.4375
20
73.17499999999994
10
-78.4375
20
60.17499999999994
42
0.41421356237309503
10
-77.937500000000028
20
59.67499999999994
10
-64.937499999999986
20
59.67499999999994
42
0.41421356237309503
10
-64.437500000000014
20
60.17499999999994
10
-64.437499999999957
20
73.17499999999994
42
0.41421356237309503
10
-64.937499999999986
20
73.67499999999994
10
-77.937500000000028
20
73.67499999999994
42
0.41421356237309503
0
LWPOLYLINE
5
113
100
AcDbEntity
8
0
100
AcDbPolyline
90
8
70
1
43
0.0
10
-116.53750000000002
20
73.17499999999994
10
-116.53750000000002
20
60.17499999999994
42
0.41421356237309503
10
-116.03750000000005
20
59.67499999999994
10
-103.03750000000001
20
59.674999999999947
42
0.41421356237309503
10
-102.53750000000004
20
60.17499999999994
10
-102.53749999999999
20
73.17499999999994
42
0.41421356237309503
10
-103.03750000000001
20
73.67499999999994
10
-116.03750000000005
20
73.674999999999955
42
0.41421356237309503
0
LWPOLYLINE
5
114
100
AcDbEntity
8
0
100
AcDbPolyline
90
8
70
1
43
0.0
10
-216.83750000000009
20
60.17499999999994
42
-0.41421356237309503
10
-217.33750000000009
20
59.674999999999969
10
-230.33750000000003
20
59.674999999999955
42
-0.4142135623730378
10
-230.83750000000012
20
60.17499999999994
10
-230.83750000000009
20
73.17499999999994
42
-0.41421356237309503
10
-230.33750000000003
20
73.674999999999983
10
-217.33750000000009
20
73.674999999999983
42
-0.41421356237309503
10
-216.83750000000003
20
73.17499999999994
0
LWPOLYLINE
5
115
100
AcDbEntity
8
0
100
AcDbPolyline
90
8
70
1
43
0.0
10
-59.387500000000088
20
73.17499999999994
42
-0.41421356237309503
10
-58.887500000000088
20
73.67499999999994
10
-45.887500000000045
20
73.674999999999912
42
-0.41421356237309503
10
-45.387500000000074
20
73.17499999999994
10
-45.387500000000074
20
60.17499999999994
42
-0.41421356237309503
10
-45.887500000000045
20
59.674999999999969
10
-58.887500000000088
20
59.67499999999994
42
-0.41421356237309503
10
-59.387500000000088
20
60.17499999999994
0
LWPOLYLINE
5
116
100
AcDbEntity
8
0
100
AcDbPolyline
90
8
70
1
43
0.0
10
-226.86250000000001
20
54.624999999999986
42
-0.41421356237309503
10
-226.36249999999995
20
54.124999999999943
10
-226.36250000000001
20
41.124999999999936
42
-0.41421356237309503
10
-226.86250000000001
20
40.624999999999929
10
-239.86250000000007
20
40.624999999999964
42
-0.41421356237309503
10
-240.36250000000001
20
41.124999999999936
10
-240.36249999999998
20
54.124999999999943
42
-0.41421356237315227
10
-239.86250000000007
20
54.624999999999979
0
LWPOLYLINE
5
117
100
AcDbEntity
8
0
100
AcDbPolyline
90
8
70
1
43
0.0
10
-173.1875
20
59.674999999999997
42
-0.4142135623730378
10
-173.68750000000006
20
60.17499999999994
10
-173.68750000000009
20
73.17499999999994
42
-0.4142135623730378
10
-173.1875
20
73.674999999999912
10
-160.18750000000006
20
73.67499999999994
42
-0.41421356237309503
10
-159.68750000000003
20
73.17499999999994
10
-159.68750000000006
20
60.17499999999994
42
-0.41421356237309503
10
-160.18750000000006
20
59.674999999999969
0
LWPOLYLINE
5
118
100
AcDbEntity
8
0
100
AcDbPolyline
90
8
70
1
43
0.0
10
-179.23750000000007
20
73.67499999999994
42
-0.41421356237309503
10
-178.73750000000004
20
73.17499999999994
10
-178.73750000000007
20
60.17499999999994
42
-0.41421356237309503
10
-179.23750000000007
20
59.674999999999969
10
-192.23750000000001
20
59.675000000000026
42
-0.4142135623730378
10
-192.73750000000004
20
60.17499999999994
10
-192.73750000000004
20
73.17499999999994
42
-0.41421356237309503
10
-192.23750000000001
20
73.67499999999994
0
LWPOLYLINE
5
119
100
AcDbEntity
8
0
100
AcDbPolyline
90
8
70
1
43
0.0
10
-135.08750000000006
20
59.674999999999933
42
-0.41421356237309503
10
-135.58750000000006
20
60.17499999999994
10
-135.58750000000009
20
73.17499999999994
42
-0.41421356237309503
10
-135.08750000000006
20
73.674999999999955
10
-122.08750000000002
20
73.67499999999994
42
-0.41421356237309503
10
-121.58750000000001
20
73.17499999999994
10
-121.58750000000003
20
60.17499999999994
42
-0.41421356237309503
10
-122.08750000000002
20
59.674999999999947
0
LWPOLYLINE
5
120
100
AcDbEntity
8
0
100
AcDbPolyline
90
8
70
1
43
0.0
10
-154.13750000000007
20
59.674999999999912
42
-0.41421356237309503
10
-154.6375000000001
20
60.17499999999994
10
-154.6375000000001
20
73.17499999999994
42
-0.41421356237309503
10
-154.13750000000007
20
73.674999999999955
10
-141.13750000000005
20
73.67499999999994
42
-0.41421356237309503
10
-140.63750000000002
20
73.17499999999994
10
-140.63750000000005
20
60.17499999999994
42
-0.41421356237309503
10
-141.13750000000005
20
59.674999999999947
0
LWPOLYLINE
5
121
100
AcDbEntity
8
0
100
AcDbPolyline
90
8
70
1
43
0.0
10
-220.81250000000006
20
40.624999999999936
10
-207.8125
20
40.624999999999936
42
0.41421356237309503
10
-207.31250000000003
20
41.124999999999936
10
-207.31249999999994
20
54.124999999999943
42
0.41421356237309503
10
-207.8125
20
54.625000000000043
10
-220.81250000000006
20
54.624999999999979
42
0.41421356237315227
10
-221.3125
20
54.124999999999943
10
-221.3125
20
41.124999999999936
42
0.41421356237309503
0
LWPOLYLINE
5
122
100
AcDbEntity
8
0
100
AcDbPolyline
90
8
70
1
43
0.0
10
-96.98750000000004
20
59.674999999999969
42
-0.41421356237309503
10
-97.487500000000011
20
60.17499999999994
10
-97.487500000000026
20
73.17499999999994
42
-0.41421356237309503
10
-96.98750000000004
20
73.674999999999926
10
-83.987499999999997
20
73.674999999999983
42
-0.41421356237309503
10
-83.487499999999955
20
73.17499999999994
10
-83.487500000000011
20
60.17499999999994
42
-0.41421356237309503
10
-83.987499999999997
20
59.674999999999947
0
LWPOLYLINE
5
123
100
AcDbEntity
8
0
100
AcDbPolyline
90
8
70
1
43
0.0
10
-201.7625000000001
20
40.624999999999964
42
-0.41421356237309503
10
-202.26250000000007
20
41.124999999999936
10
-202.26250000000005
20
54.124999999999943
42
-0.41421356237315227
10
-201.7625000000001
20
54.624999999999979
10
-188.76250000000005
20
54.625000000000014
42
-0.41421356237315227
10
-188.2625000000001
20
54.124999999999943
10
-188.2625000000001
20
41.124999999999936
42
-0.41421356237309503
10
-188.76250000000005
20
40.624999999999964
0
LWPOLYLINE
5
124
100
AcDbEntity
8
0
100
AcDbPolyline
90
8
70
1
43
0.0
10
-164.16250000000005
20
54.124999999999943
10
-164.16250000000005
20
41.124999999999936
42
0.41421356237309503
10
-163.66250000000002
20
40.624999999999936
10
-150.66250000000002
20
40.624999999999929
42
0.41421356237309503
10
-150.16250000000008
20
41.124999999999936
10
-150.16250000000002
20
54.124999999999943
42
0.41421356237309503
10
-150.66250000000002
20
54.624999999999943
10
-163.66250000000002
20
54.624999999999979
42
0.41421356237315227
0
LWPOLYLINE
5
125
100
AcDbEntity
8
0
100
AcDbPolyline
90
8
70
1
43
0.0
10
-1.6874999999999973
20
22.074999999999939
42
-0.41421356237309503
10
-2.1875
20
21.574999999999935
10
-3.1875000000000142
20
21.574999999999946
42
-0.41421356237309503
10
-3.687500000000008
20
22.074999999999939
10
-3.6875000000000124
20
35.074999999999939
42
-0.41421356237309503
10
-3.1875000000000142
20
35.574999999999939
10
-2.1875
20
35.574999999999946
42
-0.41421356237309503
10
-1.6874999999999971
20
35.074999999999939
0
LWPOLYLINE
5
126
100
AcDbEntity
8
0
100
AcDbPolyline
90
8
70
1
43
0.0
10
-169.21250000000009
20
41.124999999999936
42
-0.41421356237309503
10
-169.71250000000003
20
40.624999999999964
10
-182.71250000000003
20
40.624999999999929
42
-0.41421356237309503
10
-183.21250000000003
20
41.124999999999936
10
-183.21249999999998
20
54.124999999999943
42
-0.41421356237315227
10
-182.71250000000003
20
54.625000000000014
10
-169.71250000000003
20
54.625000000000014
42
-0.41421356237315227
10
-169.21250000000009
20
54.124999999999943
0
LWPOLYLINE
5
127
100
AcDbEntity
8
0
100
AcDbPolyline
90
8
70
1
43
0.0
10
-125.56249999999999
20
40.624999999999936
10
-112.56250000000001
20
40.624999999999936
42
0.41421356237309503
10
-112.06250000000004
20
41.124999999999936
10
-112.0625
20
54.124999999999943
42
0.41421356237309503
10
-112.56250000000001
20
54.624999999999943
10
-125.56249999999999
20
54.62499999999995
42
0.41421356237309503
10
-126.06250000000003
20
54.124999999999943
10
-126.06250000000003
20
41.124999999999936
42
0.41421356237309503
0
LWPOLYLINE
5
128
100
AcDbEntity
8
0
100
AcDbPolyline
90
8
70
1
43
0.0
10
-26.387500000000088
20
21.574999999999939
10
-25.387500000000074
20
21.574999999999939
42
0.41421356237309503
10
-24.887500000000031
20
22.074999999999939
10
-24.887500000000067
20
35.074999999999939
42
0.41421356237309503
10
-25.387500000000074
20
35.574999999999939
10
-26.387500000000088
20
35.57499999999996
42
0.41421356237309503
10
-26.88750000000006
20
35.074999999999939
10
-26.887500000000088
20
22.074999999999939
42
0.41421356237309503
0
LWPOLYLINE
5
129
100
AcDbEntity
8
0
100
AcDbPolyline
90
8
70
1
43
0.0
10
-144.61250000000001
20
40.624999999999936
10
-131.61250000000001
20
40.624999999999936
42
0.41421356237309503
10
-131.11250000000007
20
41.124999999999936
10
-131.11250000000001
20
54.124999999999943
42
0.41421356237309503
10
-131.61250000000001
20
54.624999999999943
10
-144.61250000000001
20
54.62499999999995
42
0.41421356237309503
10
-145.11250000000004
20
54.124999999999943
10
-145.11250000000004
20
41.124999999999936
42
0.41421356237309503
0
LWPOLYLINE
5
130
100
AcDbEntity
8
0
100
AcDbPolyline
90
8
70
1
43
0.0
10
-7.7875000000000227
20
35.574999999999939
10
-20.787500000000065
20
35.574999999999939
42
0.41421356237309503
10
-21.287500000000037
20
35.074999999999939
10
-21.287500000000065
20
22.074999999999939
42
0.41421356237309503
10
-20.787500000000065
20
21.574999999999939
10
-7.7875000000000227
20
21.57499999999995
42
0.41421356237309503
10
-7.2875000000000512
20
22.074999999999939
10
-7.2875000000000201
20
35.074999999999939
42
0.41421356237309503
0
LWPOLYLINE
5
131
100
AcDbEntity
8
0
100
AcDbPolyline
90
8
70
1
43
0.0
10
-244.62500000000006
20
2.5249999999999293
10
-231.625
20
2.5249999999999595
42
0.41421356237311974
10
-231.12500000000006
20
3.024999999999971
10
-231.12499999999997
20
16.024999999999938
42
0.41421356237309503
10
-231.625
20
16.524999999999935
10
-244.62500000000006
20
16.524999999999942
42
0.41421356237315488
10
-245.12500000000003
20
16.024999999999938
10
-245.12500000000011
20
3.0249999999999702
42
0.41421356237308332
0
LWPOLYLINE
5
132
100
AcDbEntity
8
0
100
AcDbPolyline
90
8
70
1
43
0.0
10
-225.57500000000005
20
2.5249999999999382
42
-0.41421356237313017
10
-226.07500000000002
20
3.024999999999971
10
-226.07500000000002
20
16.024999999999938
42
-0.41421356237315488
10
-225.57500000000005
20
16.525000000000013
10
-212.57500000000007
20
16.524999999999981
42
-0.41421356237309503
10
-212.07500000000005
20
16.024999999999938
10
-212.0750000000001
20
3.024999999999971
42
-0.41421356237311974
10
-212.57500000000007
20
2.5249999999999568
0
LWPOLYLINE
5
133
100
AcDbEntity
8
0
100
AcDbPolyline
90
8
70
1
43
0.0
10
-135.875
20
3.0249999999999586
42
-0.41421356237308332
10
-136.37500000000003
20
2.5249999999999542
10
-149.375
20
2.5249999999999515
42
-0.41421356237309503
10
-149.875
20
3.0249999999999577
10
-149.875
20
16.024999999999938
42
-0.41421356237309503
10
-149.375
20
16.524999999999945
10
-136.37500000000003
20
16.524999999999981
42
-0.41421356237309503
10
-135.875
20
16.024999999999938
0
LWPOLYLINE
5
134
100
AcDbEntity
8
0
100
AcDbPolyline
90
8
70
1
43
0.0
10
-187.47500000000002
20
2.5249999999999395
10
-174.47500000000005
20
2.5249999999999595
42
0.41421356237311713
10
-173.97500000000002
20
3.0249999999999577
10
-173.97500000000002
20
16.024999999999938
42
0.41421356237309503
10
-174.47500000000005
20
16.524999999999935
10
-187.47500000000002
20
16.525000000000013
42
0.41421356237315488
10
-187.97500000000008
20
16.024999999999938
10
-187.97499999999999
20
3.0249999999999586
42
0.41421356237312362
0
LWPOLYLINE
5
135
100
AcDbEntity
8
0
100
AcDbPolyline
90
8
70
1
43
0.0
10
-168.92500000000007
20
16.024999999999938
10
-168.92500000000007
20
3.0249999999999586
42
0.41421356237305407
10
-168.42500000000001
20
2.5249999999999395
10
-155.42500000000004
20
2.5249999999999648
42
0.41421356237307616
10
-154.92500000000001
20
3.0249999999999577
10
-154.92500000000001
20
16.024999999999938
42
0.41421356237309503
10
-155.42500000000004
20
16.524999999999935
10
-168.42500000000001
20
16.52499999999991
42
0.41421356237309503
0
LWPOLYLINE
5
136
100
AcDbEntity
8
0
100
AcDbPolyline
90
8
70
1
43
0.0
10
-117.32500000000009
20
16.524999999999928
42
-0.41421356237309503
10
-116.8250000000001
20
16.024999999999938
10
-116.82500000000007
20
3.0249999999999577
42
-0.41421356237309437
10
-117.32500000000009
20
2.5249999999999515
10
-130.32500000000005
20
2.5249999999999515
42
-0.41421356237309503
10
-130.82500000000007
20
3.0249999999999577
10
-130.82500000000007
20
16.024999999999938
42
-0.41421356237309503
10
-130.32500000000005
20
16.524999999999945
0
LWPOLYLINE
5
137
100
AcDbEntity
8
0
100
AcDbPolyline
90
8
70
1
43
0.0
10
-206.52500000000003
20
2.5249999999999395
10
-193.52500000000006
20
2.5249999999999595
42
0.41421356237311974
10
-193.02500000000009
20
3.024999999999971
10
-193.02500000000009
20
16.024999999999938
42
0.41421356237309503
10
-193.52500000000006
20
16.524999999999935
10
-206.52500000000003
20
16.52499999999991
42
0.41421356237309503
10
-207.02500000000009
20
16.024999999999938
10
-207.02500000000012
20
3.0249999999999702
42
0.41421356237306056
0
LWPOLYLINE
5
138
100
AcDbEntity
8
0
100
AcDbPolyline
90
8
70
1
43
0.0
10
-16.524999999999963
20
16.024999999999938
10
-16.524999999999963
20
3.02499999999994
42
0.41421356237308982
10
-16.024999999999991
20
2.5249999999999395
10
-3.0250000000000199
20
2.52499999999994
42
0.41421356237309503
10
-2.5249999999999773
20
3.02499999999994
10
-2.5250000000000168
20
16.024999999999938
42
0.41421356237309503
10
-3.0250000000000199
20
16.524999999999935
10
-16.024999999999991
20
16.524999999999945
42
0.41421356237309503
0
LWPOLYLINE
5
139
100
AcDbEntity
8
0
100
AcDbPolyline
90
8
70
1
43
0.0
10
-41.125000000000043
20
16.524999999999935
10
-54.125000000000014
20
16.524999999999935
42
0.41421356237309503
10
-54.624999999999986
20
16.024999999999938
10
-54.625
20
3.0249999999999488
42
0.41421356237310025
10
-54.125000000000014
20
2.5249999999999595
10
-41.125000000000043
20
2.5249999999999453
42
0.41421356237308915
10
-40.625
20
3.0249999999999488
10
-40.625000000000064
20
16.024999999999938
42
0.41421356237309503
0
LWPOLYLINE
5
140
100
AcDbEntity
8
0
100
AcDbPolyline
90
8
70
1
43
0.0
10
-92.725000000000051
20
16.024999999999938
42
-0.41421356237309503
10
-92.225000000000037
20
16.524999999999942
10
-79.225000000000065
20
16.524999999999945
42
-0.41421356237309503
10
-78.725000000000051
20
16.024999999999938
10
-78.725000000000051
20
3.0249999999999488
42
-0.41421356237308915
10
-79.225000000000065
20
2.5249999999999408
10
-92.225000000000037
20
2.5249999999999515
42
-0.41421356237308915
10
-92.725000000000051
20
3.0249999999999488
0
LWPOLYLINE
5
141
100
AcDbEntity
8
0
100
AcDbPolyline
90
8
70
1
43
0.0
10
-35.075000000000074
20
2.5249999999999395
10
-22.075000000000031
20
2.5249999999999395
42
0.41421356237308982
10
-21.57500000000006
20
3.02499999999994
10
-21.575000000000031
20
16.024999999999938
42
0.41421356237309503
10
-22.075000000000031
20
16.524999999999935
10
-35.075000000000074
20
16.524999999999945
42
0.41421356237309503
10
-35.575000000000045
20
16.024999999999938
10
-35.575000000000074
20
3.0249999999999488
42
0.41421356237309503
0
LWPOLYLINE
5
142
100
AcDbEntity
8
0
100
AcDbPolyline
90
8
70
1
43
0.0
10
-73.674999999999997
20
16.024999999999938
10
-73.674999999999997
20
3.0249999999999488
42
0.41421356237310025
10
-73.175000000000026
20
2.5249999999999395
10
-60.175000000000054
20
2.5249999999999426
42
0.41421356237310025
10
-59.675000000000082
20
3.0249999999999488
10
-59.675000000000054
20
16.024999999999938
42
0.41421356237309503
10
-60.175000000000054
20
16.524999999999935
10
-73.175000000000026
20
16.524999999999945
42
0.41421356237309503
0
LWPOLYLINE
5
143
100
AcDbEntity
8
0
100
AcDbPolyline
90
8
70
1
43
0.0
10
-264.08430521274903
20
73.17499999999994
10
-264.08430521274903
20
60.17500000000004
42
0.41421356237315227
10
-263.58430521274903
20
59.67499999999994
10
-262.58430521274909
20
59.674999999999997
42
0.4142135623730378
10
-262.08430521274909
20
60.17499999999994
10
-262.08430521274909
20
73.17499999999994
42
0.41421356237315227
10
-262.58430521274909
20
73.67500000000004
10
-263.58430521274903
20
73.67499999999994
42
0.41421356237309503
0
LWPOLYLINE
5
144
100
AcDbEntity
8
0
100
AcDbPolyline
90
8
70
1
43
0.0
10
-111.77500000000006
20
16.024999999999938
42
-0.41421356237309503
10
-111.27500000000005
20
16.524999999999945
10
-98.275000000000077
20
16.524999999999928
42
-0.41421356237309503
10
-97.775000000000091
20
16.024999999999938
10
-97.775000000000063
20
3.0249999999999488
42
-0.41421356237308915
10
-98.275000000000077
20
2.5249999999999515
10
-111.27500000000005
20
2.5249999999999515
42
-0.41421356237309503
10
-111.77500000000006
20
3.0249999999999577
0
LWPOLYLINE
5
145
100
AcDbEntity
8
0
100
AcDbPolyline
90
8
70
1
43
0.0
10
-282.72500000000002
20
59.674999999999969
42
-0.41421356237309503
10
-283.22500000000002
20
60.17499999999994
10
-283.22500000000002
20
73.17499999999994
42
-0.41421356237315227
10
-282.72500000000002
20
73.675000000000011
10
-269.72500000000002
20
73.674999999999983
42
-0.41421356237309503
10
-269.22500000000002
20
73.17499999999994
10
-269.22500000000002
20
60.17499999999994
42
-0.4142135623730378
10
-269.72500000000002
20
59.674999999999997
0
LWPOLYLINE
5
146
100
AcDbEntity
8
0
100
AcDbPolyline
90
8
70
1
43
0.0
10
-259.86250000000007
20
35.575000000000017
42
-0.41421356237309503
10
-259.36249999999995
20
35.074999999999939
10
-259.36250000000007
20
22.074999999999939
42
-0.41421356237309503
10
-259.86250000000007
20
21.574999999999967
10
-260.86250000000001
20
21.574999999999967
42
-0.41421356237309503
10
-261.36250000000001
20
22.074999999999939
10
-261.36250000000013
20
35.074999999999939
42
-0.4142135623730378
10
-260.86250000000001
20
35.57499999999996
0
LWPOLYLINE
5
147
100
AcDbEntity
8
0
100
AcDbPolyline
90
8
70
1
43
0.0
10
-245.91250000000002
20
54.624999999999943
10
-258.91250000000008
20
54.624999999999943
42
0.41421356237309503
10
-259.41250000000002
20
54.125000000000043
10
-259.41250000000002
20
41.124999999999936
42
0.41421356237309503
10
-258.91250000000008
20
40.624999999999936
10
-245.91250000000002
20
40.624999999999964
42
0.41421356237309503
10
-245.41250000000005
20
41.124999999999936
10
-245.41250000000005
20
54.124999999999943
42
0.41421356237315227
0
LWPOLYLINE
5
148
100
AcDbEntity
8
0
100
AcDbPolyline
90
8
70
1
43
0.0
10
-40.337500000000006
20
73.17499999999994
42
-0.41421356237309503
10
-39.837500000000006
20
73.67499999999994
10
-26.837499999999963
20
73.67499999999994
42
-0.41421356237309503
10
-26.337499999999963
20
73.17499999999994
10
-26.337499999999956
20
60.17499999999994
42
-0.41421356237309503
10
-26.837499999999963
20
59.674999999999933
10
-39.837500000000006
20
59.674999999999955
42
-0.41421356237309503
10
-40.337499999999984
20
60.17499999999994
0
LWPOLYLINE
5
149
100
AcDbEntity
8
0
100
AcDbPolyline
90
8
70
1
43
0.0
10
-280.34375000000006
20
31.099999999999941
10
-267.34375000000006
20
31.099999999999941
42
0.41421356237309503
10
-266.84375
20
31.599999999999937
10
-266.84375000000006
20
44.599999999999945
42
0.41421356237309503
10
-267.34375000000006
20
45.099999999999945
10
-280.34375000000006
20
45.099999999999994
42
0.41421356237315227
10
-280.84375
20
44.599999999999945
10
-280.84375
20
31.599999999999937
42
0.41421356237309503
0
LWPOLYLINE
5
150
100
AcDbEntity
8
0
100
AcDbPolyline
90
8
70
1
43
0.0
10
-4.9062500000000142
20
60.17499999999994
10
-4.9062500000000142
20
73.17499999999994
42
0.41421356237309503
10
-5.4062499999999858
20
73.67499999999994
10
-18.406250000000028
20
73.67499999999994
42
0.41421356237309503
10
-18.90625
20
73.17499999999994
10
-18.906250000000036
20
60.17499999999994
42
0.41421356237309503
10
-18.406250000000028
20
59.67499999999994
10
-5.4062499999999858
20
59.674999999999969
42
0.41421356237309503
0
LWPOLYLINE
5
151
100
AcDbEntity
8
0
100
AcDbPolyline
90
8
70
1
43
0.0
10
-266.34375
20
53.41299999999994
10
-281.34375
20
53.413000000000046
42
0.41421356237309503
10
-281.84375
20
52.912999999999933
10
-281.84374999999994
20
47.16299999999994
42
0.41421356237309503
10
-281.34375
20
46.663000000000039
10
-266.34375
20
46.66299999999999
42
0.41421356237303258
10
-265.84375
20
47.16299999999994
10
-265.84375000000006
20
52.912999999999933
42
0.41421356237315748
0
LWPOLYLINE
5
152
100
AcDbEntity
8
0
100
AcDbPolyline
90
8
70
1
43
0.0
10
-281.84375000000006
20
29.036999999999939
42
-0.41421356237309503
10
-281.34375
20
29.536999999999978
10
-266.34375
20
29.53700000000001
42
-0.41421356237315227
10
-265.84375000000006
20
29.036999999999939
10
-265.84375000000011
20
23.286999999999939
42
-0.41421356237309503
10
-266.34375
20
22.786999999999988
10
-281.34375
20
22.786999999999999
42
-0.41421356237303519
10
-281.84375000000006
20
23.286999999999939
0
LWPOLYLINE
5
153
100
AcDbEntity
8
0
100
AcDbPolyline
90
8
70
1
43
0.0
10
-264.46250000000009
20
79.224999999999937
10
-264.46250000000009
20
92.224999999999952
42
0.41421356237315748
10
-264.96250000000009
20
92.725000000000051
10
-277.96250000000009
20
92.725000000000023
42
0.41421356237309503
10
-278.46250000000003
20
92.224999999999952
10
-278.46250000000009
20
79.224999999999937
42
0.41421356237303258
10
-277.96250000000009
20
78.724999999999937
10
-264.96250000000009
20
78.724999999999966
42
0.41421356237309503
0
LWPOLYLINE
5
154
100
AcDbEntity
8
0
100
AcDbPolyline
90
8
70
1
43
0.0
10
-234.4375
20
79.224999999999937
10
-234.4375
20
92.224999999999952
42
0.41421356237303258
10
-234.93750000000006
20
92.725000000000051
10
-235.9375
20
92.725000000000065
42
0.41421356237309503
10
-236.43750000000006
20
92.224999999999952
10
-236.43749999999994
20
79.224999999999937
42
0.41421356237309503
10
-235.9375
20
78.725000000000037
10
-234.93750000000006
20
78.724999999999895
42
0.41421356237309503
0
LWPOLYLINE
5
155
100
AcDbEntity
8
0
100
AcDbPolyline
90
8
70
1
43
0.0
10
-230.83750000000012
20
92.224999999999952
42
-0.41421356237309503
10
-230.33750000000003
20
92.725000000000023
10
-217.33750000000009
20
92.724999999999994
42
-0.41421356237309503
10
-216.83750000000003
20
92.224999999999952
10
-216.83750000000006
20
79.224999999999937
42
-0.41421356237309503
10
-217.33750000000009
20
78.724999999999923
10
-230.33750000000003
20
78.724999999999923
42
-0.41421356237303258
10
-230.83750000000015
20
79.224999999999937
0
LWPOLYLINE
5
156
100
AcDbEntity
8
0
100
AcDbPolyline
90
20
70
1
43
0.0
10
-149.87499999999997
20
92.224999999999952
42
-0.41421356237315748
10
-149.375
20
92.725000000000023
10
-136.37500000000003
20
92.725000000000065
42
-0.41421356237315748
10
-135.87500000000003
20
92.224999999999952
10
-135.875
20
87.855990898818561
10
-107.79193991247801
20
87.855990898818575
42
-0.41421356237309503
10
-105.79193991247799
20
85.855990898818547
10
-105.79193991247803
20
85.594009101181356
42
-0.41421356237309503
10
-107.79193991247801
20
83.594009101181371
10
-135.875
20
83.594009101181456
10
-135.87500000000003
20
79.224999999999937
42
-0.41421356237309503
10
-136.37500000000003
20
78.724999999999937
10
-149.375
20
78.724999999999923
42
-0.41421356237309503
10
-149.875
20
79.224999999999937
10
-149.87500000000006
20
83.594009101181456
10
-177.95806008752203
20
83.594009101181371
42
-0.41421356237309503
10
-179.958060087522
20
85.594009101181356
10
-179.958060087522
20
85.855990898818547
42
-0.41421356237309503
10
-177.95806008752203
20
87.855990898818547
10
-149.87500000000006
20
87.855990898818561
0
LWPOLYLINE
5
157
100
AcDbEntity
8
0
100
AcDbPolyline
90
8
70
1
43
0.0
10
-55.412500000000051
20
92.724999999999952
10
-68.412500000000023
20
92.724999999999952
42
0.41421356237309503
10
-68.912500000000065
20
92.224999999999952
10
-68.912500000000023
20
79.224999999999937
42
0.41421356237309503
10
-68.412500000000023
20
78.724999999999937
10
-55.412500000000051
20
78.724999999999909
42
0.41421356237309503
10
-54.912500000000009
20
79.224999999999937
10
-54.912500000000044
20
92.224999999999952
42
0.41421356237309503
0
LWPOLYLINE
5
158
100
AcDbEntity
8
0
100
AcDbPolyline
90
8
70
1
43
0.0
10
-241.15000000000009
20
92.725000000000051
10
-254.15000000000006
20
92.725000000000051
42
0.41421356237315748
10
-254.65000000000003
20
92.224999999999952
10
-254.65000000000009
20
79.224999999999937
42
0.41421356237309503
10
-254.15000000000006
20
78.724999999999937
10
-241.15000000000009
20
78.724999999999923
42
0.41421356237309503
10
-240.65000000000003
20
79.224999999999937
10
-240.65000000000003
20
92.224999999999952
42
0.41421356237309503
0
LWPOLYLINE
5
159
100
AcDbEntity
8
0
100
AcDbPolyline
90
8
70
1
43
0.0
10
-74.512500000000031
20
92.224999999999952
42
-0.41421356237315748
10
-74.012500000000045
20
92.725000000000051
10
-73.012500000000031
20
92.724999999999952
42
-0.41421356237309503
10
-72.512500000000017
20
92.224999999999952
10
-72.512500000000031
20
79.224999999999937
42
-0.41421356237309503
10
-73.012500000000031
20
78.724999999999937
10
-74.012500000000045
20
78.724999999999952
42
-0.41421356237309503
10
-74.512500000000031
20
79.224999999999937
0
LWPOLYLINE
5
160
100
AcDbEntity
8
0
100
AcDbPolyline
90
8
70
1
43
0.0
10
-212.73750000000007
20
78.724999999999895
42
-0.41421356237309503
10
-213.23750000000013
20
79.224999999999937
10
-213.23750000000013
20
92.224999999999952
42
-0.41421356237309503
10
-212.73750000000007
20
92.724999999999994
10
-211.73750000000007
20
92.725000000000023
42
-0.41421356237315748
10
-211.23750000000007
20
92.224999999999952
10
-211.23750000000007
20
79.224999999999937
42
-0.41421356237309503
10
-211.73750000000007
20
78.724999999999966
0
LWPOLYLINE
5
161
100
AcDbEntity
8
0
100
AcDbPolyline
90
8
70
1
43
0.0
10
-50.812500000000043
20
78.724999999999895
42
-0.41421356237309503
10
-51.312500000000078
20
79.224999999999937
10
-51.312500000000071
20
92.224999999999952
42
-0.41421356237309503
10
-50.812500000000043
20
92.724999999999966
10
-49.812500000000028
20
92.724999999999952
42
-0.41421356237309503
10
-49.312500000000021
20
92.224999999999952
10
-49.312500000000021
20
79.224999999999937
42
-0.41421356237309503
10
-49.812500000000028
20
78.724999999999923
0
LWPOLYLINE
5
162
100
AcDbEntity
8
0
100
AcDbPolyline
90
8
70
1
43
0.0
10
-31.100000000000012
20
79.224999999999937
42
-0.41421356237309503
10
-31.600000000000037
20
78.724999999999909
10
-44.600000000000009
20
78.724999999999937
42
-0.41421356237309503
10
-45.100000000000009
20
79.224999999999937
10
-45.100000000000037
20
92.224999999999952
42
-0.41421356237309503
10
-44.600000000000009
20
92.724999999999966
10
-31.600000000000037
20
92.724999999999952
42
-0.41421356237309503
10
-31.10000000000003
20
92.224999999999952
0
LWPOLYLINE
5
163
100
AcDbEntity
8
0
100
AcDbPolyline
90
8
70
1
43
0.0
10
-24.88750000000006
20
79.224999999999937
42
-0.41421356237309503
10
-25.387500000000074
20
78.724999999999909
10
-26.387500000000088
20
78.724999999999923
42
-0.41421356237309503
10
-26.887500000000095
20
79.224999999999937
10
-26.887500000000095
20
92.224999999999952
42
-0.41421356237309503
10
-26.387500000000088
20
92.724999999999952
10
-25.387500000000074
20
92.724999999999952
42
-0.41421356237309503
10
-24.887500000000067
20
92.224999999999952
0
LWPOLYLINE
5
164
100
AcDbEntity
8
0
100
AcDbPolyline
90
8
70
1
43
0.0
10
-1.6875000000000284
20
79.224999999999937
10
-1.6875000000000284
20
92.224999999999952
42
0.41421356237309503
10
-2.1875
20
92.724999999999952
10
-3.1875000000000142
20
92.724999999999952
42
0.41421356237309503
10
-3.6874999999999858
20
92.224999999999952
10
-3.6875000000000124
20
79.224999999999937
42
0.41421356237309503
10
-3.1875000000000142
20
78.724999999999937
10
-2.1875
20
78.724999999999909
42
0.41421356237309503
0
LWPOLYLINE
5
165
100
AcDbEntity
8
0
100
AcDbPolyline
90
8
70
1
43
0.0
10
-87.962500000000006
20
54.124999999999943
42
-0.41421356237309503
10
-87.462500000000034
20
54.624999999999915
10
-74.462500000000063
20
54.624999999999922
42
-0.41421356237309503
10
-73.962500000000077
20
54.124999999999943
10
-73.962500000000077
20
41.124999999999936
42
-0.41421356237309503
10
-74.462500000000063
20
40.624999999999957
10
-87.462500000000034
20
40.624999999999964
42
-0.41421356237309503
10
-87.962500000000006
20
41.124999999999936
0
LWPOLYLINE
5
166
100
AcDbEntity
8
0
100
AcDbPolyline
90
8
70
1
43
0.0
10
-106.51250000000005
20
40.624999999999936
10
-93.512500000000074
20
40.624999999999936
42
0.41421356237309503
10
-93.012500000000031
20
41.124999999999936
10
-93.012500000000102
20
54.124999999999943
42
0.41421356237309503
10
-93.512500000000074
20
54.624999999999943
10
-106.51250000000005
20
54.624999999999915
42
0.41421356237309503
10
-107.01250000000009
20
54.124999999999943
10
-107.01250000000003
20
41.124999999999936
42
0.41421356237309503
0
LWPOLYLINE
5
167
100
AcDbEntity
8
0
100
AcDbPolyline
90
8
70
1
43
0.0
10
-283.5625
20
78.724999999999937
10
-282.5625
20
78.724999999999937
42
0.41421356237309503
10
-282.06250000000006
20
79.224999999999937
10
-282.0625
20
92.224999999999952
42
0.41421356237309503
10
-282.5625
20
92.725000000000051
10
-283.5625
20
92.725000000000023
42
0.41421356237309503
10
-284.06250000000006
20
92.224999999999952
10
-284.06250000000006
20
79.224999999999937
42
0.41421356237303258
0
LWPOLYLINE
5
168
100
AcDbEntity
8
0
100
AcDbPolyline
90
8
70
1
43
0.0
10
-68.412500000000023
20
40.624999999999936
10
-55.412500000000051
20
40.624999999999936
42
0.41421356237309503
10
-54.912500000000009
20
41.124999999999936
10
-54.912500000000087
20
54.124999999999943
42
0.41421356237309503
10
-55.412500000000051
20
54.624999999999943
10
-68.412500000000023
20
54.62499999999995
42
0.41421356237309503
10
-68.912500000000065
20
54.124999999999943
10
-68.912500000000023
20
41.124999999999936
42
0.41421356237309503
0
LWPOLYLINE
5
169
100
AcDbEntity
8
0
100
AcDbPolyline
90
8
70
1
43
0.0
10
-260.36250000000001
20
78.724999999999994
42
-0.41421356237309503
10
-260.86249999999995
20
79.224999999999937
10
-260.86250000000013
20
92.224999999999952
42
-0.41421356237309503
10
-260.36250000000001
20
92.725000000000065
10
-259.36250000000007
20
92.725000000000023
42
-0.41421356237315748
10
-258.86250000000007
20
92.224999999999952
10
-258.86250000000007
20
79.224999999999937
42
-0.41421356237309503
10
-259.36250000000007
20
78.724999999999923
0
LWPOLYLINE
5
170
100
AcDbEntity
8
0
100
AcDbPolyline
90
8
70
1
43
0.0
10
-238.03743580380811
20
73.17499999999994
42
-0.41421356237251233
10
-237.53743580380905
20
73.674999999999983
10
-236.53743580380905
20
73.67499999999994
42
-0.41421356237309503
10
-236.03743580380905
20
73.17499999999994
10
-236.03743580380907
20
60.17499999999994
42
-0.41421356237309503
10
-236.53743580380905
20
59.674999999999969
10
-237.53743580380905
20
59.674999999999997
42
-0.4142135623724551
10
-238.03743580380811
20
60.17499999999994
0
LWPOLYLINE
5
171
100
AcDbEntity
8
0
100
AcDbPolyline
90
8
70
1
43
0.0
10
-30.268750000000111
20
40.624999999999929
42
-0.41421356237309503
10
-30.768750000000118
20
41.124999999999936
10
-30.768750000000118
20
54.124999999999943
42
-0.41421356237309503
10
-30.268750000000111
20
54.62499999999995
10
-29.268750000000097
20
54.624999999999915
42
-0.41421356237309503
10
-28.768750000000125
20
54.124999999999943
10
-28.768750000000082
20
41.124999999999936
42
-0.41421356237309503
10
-29.268750000000097
20
40.624999999999922
0
LWPOLYLINE
5
172
100
AcDbEntity
8
0
100
AcDbPolyline
90
8
70
1
43
0.0
10
-126.85000000000002
20
35.574999999999982
42
-0.41421356237309503
10
-126.34999999999998
20
35.074999999999939
10
-126.35000000000007
20
22.074999999999939
42
-0.41421356237309503
10
-126.85000000000002
20
21.574999999999985
10
-139.85000000000008
20
21.574999999999932
42
-0.41421356237309503
10
-140.35000000000008
20
22.074999999999939
10
-140.35000000000008
20
35.074999999999939
42
-0.41421356237309503
10
-139.85000000000008
20
35.574999999999946
0
LWPOLYLINE
5
173
100
AcDbEntity
8
0
100
AcDbPolyline
90
8
70
1
43
0.0
10
-145.90000000000003
20
35.574999999999939
10
-158.90000000000009
20
35.574999999999939
42
0.41421356237309503
10
-159.40000000000003
20
35.074999999999939
10
-159.40000000000009
20
22.074999999999939
42
0.41421356237309503
10
-158.90000000000009
20
21.574999999999939
10
-145.90000000000003
20
21.57499999999995
42
0.41421356237309503
10
-145.40000000000006
20
22.074999999999939
10
-145.39999999999998
20
35.074999999999939
42
0.41421356237309503
0
LWPOLYLINE
5
174
100
AcDbEntity
8
0
100
AcDbPolyline
90
8
70
1
43
0.0
10
-36.362500000000111
20
54.62499999999995
42
-0.41421356237309503
10
-35.862500000000104
20
54.124999999999943
10
-35.862500000000097
20
41.124999999999936
42
-0.41421356237309503
10
-36.362500000000111
20
40.624999999999922
10
-49.362500000000082
20
40.624999999999922
42
-0.41421356237309503
10
-49.862500000000097
20
41.124999999999936
10
-49.862500000000054
20
54.124999999999943
42
-0.41421356237309503
10
-49.362500000000082
20
54.624999999999915
0
LWPOLYLINE
5
175
100
AcDbEntity
8
0
100
AcDbPolyline
90
8
70
1
43
0.0
10
-164.45000000000007
20
22.074999999999939
10
-164.45000000000007
20
35.074999999999939
42
0.41421356237309503
10
-164.95000000000005
20
35.574999999999939
10
-177.9500000000001
20
35.57500000000001
42
0.41421356237315227
10
-178.45000000000005
20
35.074999999999939
10
-178.45000000000005
20
22.074999999999939
42
0.41421356237309503
10
-177.9500000000001
20
21.574999999999939
10
-164.95000000000005
20
21.574999999999932
42
0.41421356237309503
0
LWPOLYLINE
5
176
100
AcDbEntity
8
0
100
AcDbPolyline
90
8
70
1
43
0.0
10
-216.05000000000004
20
21.574999999999932
42
-0.41421356237309503
10
-216.55000000000004
20
22.074999999999939
10
-216.55000000000001
20
35.074999999999939
42
-0.41421356237309503
10
-216.05000000000004
20
35.57499999999991
10
-203.05000000000007
20
35.574999999999982
42
-0.41421356237309503
10
-202.55000000000001
20
35.074999999999939
10
-202.55000000000007
20
22.074999999999939
42
-0.41421356237303519
10
-203.05000000000007
20
21.575000000000031
0
LWPOLYLINE
5
177
100
AcDbEntity
8
0
100
AcDbPolyline
90
8
70
1
43
0.0
10
-254.15000000000006
20
21.574999999999896
42
-0.41421356237309503
10
-254.65000000000009
20
22.074999999999939
10
-254.65000000000006
20
35.074999999999939
42
-0.41421356237309503
10
-254.15000000000006
20
35.574999999999946
10
-241.15000000000009
20
35.574999999999946
42
-0.41421356237309503
10
-240.65000000000009
20
35.074999999999939
10
-240.65000000000009
20
22.074999999999939
42
-0.41421356237309503
10
-241.15000000000009
20
21.574999999999932
0
LWPOLYLINE
5
178
100
AcDbEntity
8
0
100
AcDbPolyline
90
8
70
1
43
0.0
10
-107.30000000000004
20
22.074999999999939
10
-107.30000000000004
20
35.074999999999939
42
0.41421356237309503
10
-107.80000000000001
20
35.574999999999939
10
-120.80000000000005
20
35.574999999999946
42
0.41421356237309503
10
-121.30000000000003
20
35.074999999999939
10
-121.30000000000007
20
22.074999999999939
42
0.41421356237309503
10
-120.80000000000005
20
21.574999999999939
10
-107.80000000000001
20
21.57499999999995
42
0.41421356237309503
0
LWPOLYLINE
5
179
100
AcDbEntity
8
0
100
AcDbPolyline
90
8
70
1
43
0.0
10
-235.60000000000002
20
35.074999999999939
42
-0.41421356237315227
10
-235.10000000000005
20
35.57500000000001
10
-222.10000000000008
20
35.575000000000045
42
-0.41421356237315227
10
-221.60000000000008
20
35.074999999999939
10
-221.59999999999999
20
22.074999999999939
42
-0.41421356237303519
10
-222.10000000000008
20
21.57499999999996
10
-235.10000000000005
20
21.574999999999967
42
-0.41421356237309503
10
-235.60000000000002
20
22.074999999999939
0
LWPOLYLINE
5
180
100
AcDbEntity
8
0
100
AcDbPolyline
90
8
70
1
43
0.0
10
-197.5
20
35.074999999999939
10
-197.5
20
22.074999999999939
42
0.41421356237309503
10
-197.00000000000003
20
21.574999999999939
10
-184
20
21.575000000000003
42
0.41421356237309503
10
-183.5
20
22.074999999999939
10
-183.5
20
35.074999999999939
42
0.41421356237315227
10
-184
20
35.574999999999939
10
-197.00000000000003
20
35.57499999999991
42
0.41421356237309503
0
LWPOLYLINE
5
181
100
AcDbEntity
8
0
100
AcDbPolyline
90
12
70
1
43
0.0
10
-2.3219761637250231
20
97.749999999999901
42
-0.29974572772673252
10
-1.0357310767552219
20
96.902787098479905
42
0.19205844654119991
10
1.4527870984799696
20
94.414268923244506
42
-0.29974572772672947
10
2.2999999999999687
20
93.12802383627465
10
2.3000000000000229
20
1.4000000000000001
42
-0.41421356237309509
10
-1.6000000000000369
20
-2.5000000000000613
10
-284.15000000000009
20
-2.5000000000000213
42
-0.41421356237309531
10
-288.05000000000001
20
1.3999999999999524
10
-288.05000000000052
20
93.12802383627465
42
-0.29974572772691221
10
-287.20278709847929
20
94.414268923245217
42
0.19205844654115159
10
-284.71426892324405
20
96.902787098479564
42
-0.29974572772661207
10
-283.42802383627509
20
97.749999999999943
0
LWPOLYLINE
5
182
100
AcDbEntity
8
0
100
AcDbPolyline
90
32
70
1
43
0.0
10
-282.13800000000003
20
16.525000000000038
10
-282.47500000000008
20
16.525000000000038
42
0.41421356237308898
10
-283.22500000000002
20
15.775000000000041
10
-283.22500000000008
20
3.2750000000000092
42
0.41421356237309875
10
-282.47500000000008
20
2.5249999999999897
10
-282.13800000000003
20
2.5250000000000092
10
-282.13800000000003
20
2.2750000000000195
42
0.41421356237309009
10
-281.38800000000009
20
1.5250000000000297
10
-275.88800000000003
20
1.5250000000000021
42
0.4142135623731148
10
-275.13800000000009
20
2.2749999999999995
10
-275.13800000000009
20
2.5249999999999995
10
-258.26200000000006
20
2.5249999999999995
10
-258.26200000000011
20
2.2749999999999995
42
0.41421356237308488
10
-257.51200000000006
20
1.5250000000000086
10
-252.012
20
1.5250000000000064
42
0.41421356237309531
10
-251.26200000000006
20
2.2749999999999995
10
-251.26200000000006
20
2.5249999999999995
10
-250.92500000000001
20
2.5250000000000021
42
0.41421356237309548
10
-250.17500000000007
20
3.2750000000000012
10
-250.17500000000001
20
15.775000000000041
42
0.4142135623730942
10
-250.92500000000001
20
16.525000000000038
10
-251.26200000000006
20
16.525000000000038
10
-251.26199999999994
20
16.775000000000041
42
0.41421356237308293
10
-252.012
20
17.525000000000041
10
-257.51200000000006
20
17.525000000000034
42
0.41421356237309503
10
-258.26200000000006
20
16.775000000000041
10
-258.26200000000006
20
16.525000000000038
10
-275.13800000000009
20
16.525000000000038
10
-275.13800000000009
20
16.775000000000041
42
0.41421356237306473
10
-275.88800000000003
20
17.525000000000041
10
-281.38800000000009
20
17.525000000000034
42
0.41421356237308815
10
-282.13800000000003
20
16.775000000000041
0
LWPOLYLINE
5
183
100
AcDbEntity
8
0
100
AcDbPolyline
90
8
70
1
43
0.0
10
-197.27500000000006
20
94.724999999999952
10
-202.77500000000003
20
94.724999999999952
42
0.41421356237309503
10
-203.52500000000006
20
93.975000000000051
10
-203.52500000000003
20
78.475000000000023
42
0.41421356237309853
10
-202.77500000000003
20
77.725000000000037
10
-197.27500000000006
20
77.725000000000051
42
0.41421356237313323
10
-196.52500000000003
20
78.475000000000023
10
-196.52500000000006
20
93.975000000000051
42
0.41421356237309503
0
LWPOLYLINE
5
184
100
AcDbEntity
8
0
100
AcDbPolyline
90
8
70
1
43
0.0
10
-88.475000000000037
20
77.724999999999909
42
-0.41421356237308815
10
-89.225000000000051
20
78.474999999999937
10
-89.225000000000065
20
93.975000000000051
42
-0.41421356237306733
10
-88.475000000000037
20
94.724999999999966
10
-82.975000000000065
20
94.724999999999952
42
-0.41421356237306733
10
-82.225000000000051
20
93.975000000000051
10
-82.225000000000051
20
78.474999999999937
42
-0.41421356237307771
10
-82.975000000000065
20
77.724999999999937
0
LWPOLYLINE
5
185
100
AcDbEntity
8
0
100
AcDbPolyline
90
8
70
1
43
0.0
10
-31.600000000000037
20
35.574999999999939
10
-44.600000000000009
20
35.574999999999939
42
0.41421356237308204
10
-45.100000000000051
20
35.074999999999939
10
-45.099999999999994
20
22.074999999999939
42
0.41421356237308204
10
-44.600000000000009
20
21.574999999999939
10
-31.600000000000037
20
21.574999999999935
42
0.41421356237310281
10
-31.100000000000065
20
22.074999999999939
10
-31.10000000000003
20
35.074999999999939
42
0.41421356237308982
0
LWPOLYLINE
5
186
100
AcDbEntity
8
0
100
AcDbPolyline
90
8
70
1
43
0.0
10
-102.25000000000006
20
35.074999999999939
42
-0.41421356237309243
10
-101.75000000000004
20
35.574999999999946
10
-88.75
20
35.574999999999925
42
-0.41421356237307161
10
-88.250000000000014
20
35.074999999999939
10
-88.249999999999972
20
22.074999999999939
42
-0.41421356237309243
10
-88.75
20
21.574999999999914
10
-101.75000000000004
20
21.574999999999932
42
-0.41421356237309503
10
-102.25000000000006
20
22.074999999999939
0
LWPOLYLINE
5
187
100
AcDbEntity
8
0
100
AcDbPolyline
90
8
70
1
43
0.0
10
-4.906250000000032
20
41.374999999999943
42
-0.41421356237309503
10
-5.6562500000000426
20
40.624999999999929
10
-22.918750000000045
20
40.624999999999936
42
-0.41421356237309503
10
-23.668750000000045
20
41.374999999999943
10
-23.668750000000042
20
53.874999999999943
42
-0.41421356237309681
10
-22.918750000000045
20
54.624999999999929
10
-5.6562500000000426
20
54.624999999999943
42
-0.41421356237308898
10
-4.9062500000000409
20
53.874999999999943
0
LWPOLYLINE
5
188
100
AcDbEntity
8
0
100
AcDbPolyline
90
8
70
1
43
0.0
10
-83.200000000000045
20
35.074999999999939
42
-0.41421356237309243
10
-82.700000000000031
20
35.574999999999946
10
-69.70000000000006
20
35.574999999999953
42
-0.41421356237310281
10
-69.200000000000045
20
35.074999999999939
10
-69.200000000000088
20
22.074999999999939
42
-0.41421356237308721
10
-69.70000000000006
20
21.574999999999957
10
-82.700000000000031
20
21.57499999999996
42
-0.41421356237309764
10
-83.200000000000003
20
22.074999999999939
0
LWPOLYLINE
5
189
100
AcDbEntity
8
0
100
AcDbPolyline
90
8
70
1
43
0.0
10
-63.65000000000002
20
21.574999999999935
42
-0.41421356237310281
10
-64.150000000000034
20
22.074999999999939
10
-64.150000000000006
20
35.074999999999939
42
-0.4142135623730846
10
-63.65000000000002
20
35.574999999999918
10
-50.649999999999977
20
35.574999999999932
42
-0.41421356237308204
10
-50.149999999999977
20
35.074999999999939
10
-50.150000000000006
20
22.074999999999939
42
-0.41421356237310281
10
-50.649999999999977
20
21.574999999999967
0
LWPOLYLINE
5
190
100
AcDbEntity
8
0
100
AcDbPolyline
90
8
70
1
43
0.0
10
-198.28750000000008
20
73.67500000000004
10
-211.28750000000002
20
73.67499999999994
42
0.41421356237310025
10
-211.78750000000008
20
73.17499999999994
10
-211.78750000000002
20
60.17499999999994
42
0.41421356237308982
10
-211.28750000000002
20
59.67499999999994
10
-198.28750000000008
20
59.674999999999969
42
0.41421356237310025
10
-197.78750000000002
20
60.17499999999994
10
-197.78750000000002
20
73.17499999999994
42
0.41421356237314705
0
LWPOLYLINE
5
191
100
AcDbEntity
8
0
100
AcDbPolyline
90
8
70
1
43
0.0
10
-21.287500000000037
20
92.224999999999952
10
-21.287500000000037
20
79.224999999999937
42
0.41421356237309503
10
-20.787500000000065
20
78.724999999999937
10
-7.7875000000000227
20
78.724999999999952
42
0.41421356237308399
10
-7.2875000000000512
20
79.224999999999937
10
-7.2875000000000156
20
92.224999999999952
42
0.41421356237307294
10
-7.7875000000000227
20
92.725000000000051
10
-20.787500000000065
20
92.724999999999952
42
0.41421356237311846
0
LWPOLYLINE
5
192
100
AcDbEntity
8
0
100
AcDbPolyline
90
8
70
1
43
0.0
10
-256.53125
20
59.67499999999994
10
-243.53125000000006
20
59.67499999999994
42
0.41421356237304302
10
-243.03125
20
60.17499999999994
10
-243.03124999999994
20
73.17499999999994
42
0.41421356237310542
10
-243.53125000000006
20
73.67500000000004
10
-256.53125
20
73.674999999999955
42
0.41421356237307944
10
-257.03125000000006
20
73.17499999999994
10
-257.03125000000006
20
60.17499999999994
42
0.41421356237312101
0
LWPOLYLINE
5
193
100
AcDbEntity
8
0
100
AcDbPolyline
90
8
70
1
43
0.0
10
-78.4375
20
73.17499999999994
10
-78.4375
20
60.17499999999994
42
0.41421356237309503
10
-77.937500000000028
20
59.67499999999994
10
-64.937499999999986
20
59.67499999999994
42
0.41421356237309503
10
-64.437500000000014
20
60.17499999999994
10
-64.437499999999957
20
73.17499999999994
42
0.41421356237309503
10
-64.937499999999986
20
73.67499999999994
10
-77.937500000000028
20
73.67499999999994
42
0.41421356237310542
0
LWPOLYLINE
5
194
100
AcDbEntity
8
0
100
AcDbPolyline
90
8
70
1
43
0.0
10
-116.53750000000002
20
73.17499999999994
10
-116.53750000000002
20
60.17499999999994
42
0.4142135623730846
10
-116.03750000000005
20
59.67499999999994
10
-103.03750000000001
20
59.674999999999947
42
0.41421356237311585
10
-102.53750000000004
20
60.17499999999994
10
-102.53749999999999
20
73.17499999999994
42
0.41421356237312101
10
-103.03750000000001
20
73.67499999999994
10
-116.03750000000005
20
73.674999999999955
42
0.41421356237308982
0
LWPOLYLINE
5
195
100
AcDbEntity
8
0
100
AcDbPolyline
90
8
70
1
43
0.0
10
-216.83750000000009
20
60.17499999999994
42
-0.41421356237310025
10
-217.33750000000009
20
59.674999999999969
10
-230.33750000000003
20
59.674999999999947
42
-0.41421356237304302
10
-230.83750000000012
20
60.17499999999994
10
-230.83750000000009
20
73.17499999999994
42
-0.4142135623730846
10
-230.33750000000003
20
73.674999999999983
10
-217.33750000000009
20
73.674999999999997
42
-0.41421356237314705
10
-216.83750000000003
20
73.17499999999994
0
LWPOLYLINE
5
196
100
AcDbEntity
8
0
100
AcDbPolyline
90
8
70
1
43
0.0
10
-59.387500000000088
20
73.17499999999994
42
-0.41421356237310542
10
-58.887500000000088
20
73.67499999999994
10
-45.887500000000045
20
73.674999999999912
42
-0.41421356237310542
10
-45.387500000000074
20
73.17499999999994
10
-45.387500000000074
20
60.17499999999994
42
-0.41421356237310542
10
-45.887500000000045
20
59.674999999999969
10
-58.887500000000088
20
59.67499999999994
42
-0.41421356237309503
10
-59.387500000000088
20
60.17499999999994
0
LWPOLYLINE
5
197
100
AcDbEntity
8
0
100
AcDbPolyline
90
8
70
1
43
0.0
10
-226.86250000000001
20
54.624999999999972
42
-0.4142135623730846
10
-226.36249999999995
20
54.124999999999943
10
-226.36249999999995
20
41.124999999999936
42
-0.41421356237312623
10
-226.86250000000001
20
40.624999999999929
10
-239.86250000000007
20
40.624999999999986
42
-0.41421356237304302
10
-240.36250000000001
20
41.124999999999936
10
-240.36249999999998
20
54.124999999999943
42
-0.41421356237311585
10
-239.86250000000007
20
54.624999999999979
0
LWPOLYLINE
5
198
100
AcDbEntity
8
0
100
AcDbPolyline
90
8
70
1
43
0.0
10
-173.1875
20
59.674999999999997
42
-0.41421356237307944
10
-173.68750000000006
20
60.17499999999994
10
-173.68750000000009
20
73.17499999999994
42
-0.41421356237303258
10
-173.1875
20
73.674999999999912
10
-160.18750000000006
20
73.674999999999969
42
-0.41421356237311063
10
-159.68750000000003
20
73.17499999999994
10
-159.68750000000006
20
60.17499999999994
42
-0.41421356237309503
10
-160.18750000000006
20
59.674999999999969
0
LWPOLYLINE
5
199
100
AcDbEntity
8
0
100
AcDbPolyline
90
8
70
1
43
0.0
10
-179.23750000000007
20
73.674999999999926
42
-0.41421356237312623
10
-178.73750000000004
20
73.17499999999994
10
-178.73750000000007
20
60.17499999999994
42
-0.41421356237310025
10
-179.23750000000007
20
59.674999999999969
10
-192.23750000000001
20
59.675000000000018
42
-0.41421356237304302
10
-192.73750000000004
20
60.17499999999994
10
-192.73750000000007
20
73.17499999999994
42
-0.41421356237312623
10
-192.23750000000001
20
73.67499999999994
0
LWPOLYLINE
5
200
100
AcDbEntity
8
0
100
AcDbPolyline
90
8
70
1
43
0.0
10
-135.08750000000006
20
59.674999999999912
42
-0.41421356237310542
10
-135.58750000000006
20
60.17499999999994
10
-135.58750000000009
20
73.17499999999994
42
-0.41421356237308982
10
-135.08750000000006
20
73.674999999999955
10
-122.08750000000002
20
73.674999999999955
42
-0.41421356237312101
10
-121.58750000000001
20
73.17499999999994
10
-121.58750000000003
20
60.17499999999994
42
-0.41421356237311585
10
-122.08750000000002
20
59.674999999999947
0
LWPOLYLINE
5
201
100
AcDbEntity
8
0
100
AcDbPolyline
90
8
70
1
43
0.0
10
-154.13750000000007
20
59.674999999999926
42
-0.41421356237308982
10
-154.6375000000001
20
60.17499999999994
10
-154.6375000000001
20
73.17499999999994
42
-0.41421356237308982
10
-154.13750000000007
20
73.674999999999955
10
-141.13750000000005
20
73.674999999999955
42
-0.41421356237312101
10
-140.63750000000002
20
73.17499999999994
10
-140.63750000000005
20
60.17499999999994
42
-0.41421356237311585
10
-141.13750000000005
20
59.674999999999947
0
LWPOLYLINE
5
202
100
AcDbEntity
8
0
100
AcDbPolyline
90
8
70
1
43
0.0
10
-220.81250000000006
20
40.624999999999936
10
-207.8125
20
40.624999999999936
42
0.41421356237305862
10
-207.31250000000003
20
41.124999999999936
10
-207.31249999999994
20
54.124999999999943
42
0.4142135623730846
10
-207.8125
20
54.625000000000043
10
-220.81250000000006
20
54.624999999999979
42
0.41421356237311585
10
-221.3125
20
54.124999999999943
10
-221.3125
20
41.124999999999936
42
0.41421356237304302
0
LWPOLYLINE
5
203
100
AcDbEntity
8
0
100
AcDbPolyline
90
8
70
1
43
0.0
10
-96.98750000000004
20
59.674999999999947
42
-0.4142135623730846
10
-97.487500000000011
20
60.17499999999994
10
-97.48750000000004
20
73.17499999999994
42
-0.41421356237311063
10
-96.98750000000004
20
73.674999999999926
10
-83.987499999999997
20
73.674999999999969
42
-0.414213562373069
10
-83.487499999999955
20
73.17499999999994
10
-83.487500000000011
20
60.17499999999994
42
-0.41421356237311585
10
-83.987499999999997
20
59.674999999999947
0
LWPOLYLINE
5
204
100
AcDbEntity
8
0
100
AcDbPolyline
90
8
70
1
43
0.0
10
-201.7625000000001
20
40.624999999999986
42
-0.41421356237304302
10
-202.26250000000007
20
41.124999999999936
10
-202.26250000000005
20
54.124999999999943
42
-0.41421356237311585
10
-201.7625000000001
20
54.624999999999979
10
-188.76250000000005
20
54.624999999999993
42
-0.41421356237318346
10
-188.2625000000001
20
54.124999999999943
10
-188.2625000000001
20
41.124999999999936
42
-0.41421356237310025
10
-188.76250000000005
20
40.624999999999964
0
LWPOLYLINE
5
205
100
AcDbEntity
8
0
100
AcDbPolyline
90
8
70
1
43
0.0
10
-164.16250000000005
20
54.124999999999943
10
-164.16250000000005
20
41.124999999999936
42
0.41421356237304302
10
-163.66250000000002
20
40.624999999999936
10
-150.66250000000002
20
40.624999999999929
42
0.41421356237310025
10
-150.16250000000008
20
41.124999999999936
10
-150.16250000000002
20
54.124999999999943
42
0.41421356237310025
10
-150.66250000000002
20
54.624999999999943
10
-163.66250000000002
20
54.624999999999979
42
0.41421356237311585
0
LWPOLYLINE
5
206
100
AcDbEntity
8
0
100
AcDbPolyline
90
8
70
1
43
0.0
10
-1.6874999999999973
20
22.074999999999939
42
-0.41421356237310025
10
-2.1875
20
21.574999999999935
10
-3.1875000000000142
20
21.57499999999995
42
-0.41421356237309148
10
-3.687500000000008
20
22.074999999999939
10
-3.6875000000000129
20
35.074999999999939
42
-0.41421356237309537
10
-3.1875000000000142
20
35.574999999999939
10
-2.1875
20
35.574999999999946
42
-0.41421356237309631
10
-1.6874999999999971
20
35.074999999999939
0
LWPOLYLINE
5
207
100
AcDbEntity
8
0
100
AcDbPolyline
90
8
70
1
43
0.0
10
-169.21250000000009
20
41.124999999999936
42
-0.41421356237310025
10
-169.71250000000003
20
40.624999999999964
10
-182.71250000000003
20
40.624999999999915
42
-0.4142135623730222
10
-183.21250000000003
20
41.124999999999936
10
-183.21249999999998
20
54.124999999999943
42
-0.41421356237315748
10
-182.71250000000003
20
54.625000000000014
10
-169.71250000000003
20
54.624999999999993
42
-0.41421356237318346
10
-169.21250000000009
20
54.124999999999943
0
LWPOLYLINE
5
208
100
AcDbEntity
8
0
100
AcDbPolyline
90
8
70
1
43
0.0
10
-125.56249999999999
20
40.624999999999936
10
-112.56250000000001
20
40.624999999999936
42
0.41421356237310025
10
-112.06250000000004
20
41.124999999999936
10
-112.0625
20
54.124999999999943
42
0.41421356237310025
10
-112.56250000000001
20
54.624999999999943
10
-125.56249999999999
20
54.62499999999995
42
0.41421356237310025
10
-126.06250000000003
20
54.124999999999943
10
-126.06250000000003
20
41.124999999999936
42
0.414213562373069
0
LWPOLYLINE
5
209
100
AcDbEntity
8
0
100
AcDbPolyline
90
8
70
1
43
0.0
10
-26.387500000000088
20
21.574999999999939
10
-25.387500000000074
20
21.574999999999939
42
0.41421356237309243
10
-24.887500000000031
20
22.074999999999939
10
-24.887500000000067
20
35.074999999999939
42
0.41421356237308982
10
-25.387500000000074
20
35.574999999999939
10
-26.387500000000088
20
35.57499999999996
42
0.41421356237308982
10
-26.88750000000006
20
35.074999999999939
10
-26.887500000000088
20
22.074999999999939
42
0.41421356237309503
0
LWPOLYLINE
5
210
100
AcDbEntity
8
0
100
AcDbPolyline
90
8
70
1
43
0.0
10
-144.61250000000001
20
40.624999999999936
10
-131.61250000000001
20
40.624999999999936
42
0.41421356237310025
10
-131.11250000000007
20
41.124999999999936
10
-131.11250000000001
20
54.124999999999943
42
0.41421356237310025
10
-131.61250000000001
20
54.624999999999943
10
-144.61250000000001
20
54.62499999999995
42
0.41421356237310025
10
-145.11250000000004
20
54.124999999999943
10
-145.11250000000004
20
41.124999999999936
42
0.414213562373069
0
LWPOLYLINE
5
211
100
AcDbEntity
8
0
100
AcDbPolyline
90
8
70
1
43
0.0
10
-7.7875000000000227
20
35.574999999999939
10
-20.787500000000065
20
35.574999999999939
42
0.41421356237308982
10
-21.287500000000037
20
35.074999999999939
10
-21.287500000000065
20
22.074999999999939
42
0.41421356237309503
10
-20.787500000000065
20
21.574999999999939
10
-7.7875000000000227
20
21.57499999999995
42
0.41421356237308982
10
-7.2875000000000512
20
22.074999999999939
10
-7.2875000000000201
20
35.074999999999939
42
0.41421356237309764
0
LWPOLYLINE
5
212
100
AcDbEntity
8
0
100
AcDbPolyline
90
8
70
1
43
0.0
10
-244.62500000000006
20
2.5249999999999293
10
-231.625
20
2.5249999999999595
42
0.4142135623730856
10
-231.12500000000006
20
3.024999999999971
10
-231.12499999999997
20
16.024999999999938
42
0.4142135623730599
10
-231.625
20
16.524999999999935
10
-244.62500000000006
20
16.524999999999942
42
0.41421356237316265
10
-245.12500000000003
20
16.024999999999938
10
-245.12500000000011
20
3.0249999999999702
42
0.41421356237316431
0
LWPOLYLINE
5
213
100
AcDbEntity
8
0
100
AcDbPolyline
90
8
70
1
43
0.0
10
-225.57500000000005
20
2.5249999999999355
42
-0.41421356237309015
10
-226.07500000000002
20
3.024999999999971
10
-226.07500000000002
20
16.024999999999938
42
-0.41421356237315488
10
-225.57500000000005
20
16.525000000000013
10
-212.57500000000007
20
16.524999999999991
42
-0.4142135623730599
10
-212.07500000000005
20
16.024999999999938
10
-212.0750000000001
20
3.024999999999971
42
-0.4142135623730856
10
-212.57500000000007
20
2.5249999999999568
0
LWPOLYLINE
5
214
100
AcDbEntity
8
0
100
AcDbPolyline
90
8
70
1
43
0.0
10
-135.875
20
3.0249999999999586
42
-0.41421356237309798
10
-136.37500000000003
20
2.5249999999999542
10
-149.375
20
2.5249999999999528
42
-0.41421356237309437
10
-149.875
20
3.0249999999999577
10
-149.875
20
16.024999999999938
42
-0.41421356237309631
10
-149.375
20
16.524999999999945
10
-136.37500000000003
20
16.524999999999977
42
-0.41421356237307161
10
-135.875
20
16.024999999999938
0
LWPOLYLINE
5
215
100
AcDbEntity
8
0
100
AcDbPolyline
90
8
70
1
43
0.0
10
-187.47500000000002
20
2.5249999999999395
10
-174.47500000000005
20
2.5249999999999595
42
0.4142135623730846
10
-173.97500000000002
20
3.0249999999999577
10
-173.97500000000002
20
16.024999999999938
42
0.4142135623730599
10
-174.47500000000005
20
16.524999999999935
10
-187.47500000000002
20
16.525000000000013
42
0.41421356237315488
10
-187.97500000000008
20
16.024999999999938
10
-187.97499999999999
20
3.0249999999999586
42
0.41421356237308787
0
LWPOLYLINE
5
216
100
AcDbEntity
8
0
100
AcDbPolyline
90
8
70
1
43
0.0
10
-168.92500000000007
20
16.024999999999938
10
-168.92500000000007
20
3.0249999999999586
42
0.41421356237310186
10
-168.42500000000001
20
2.5249999999999395
10
-155.42500000000004
20
2.5249999999999648
42
0.41421356237307161
10
-154.92500000000001
20
3.0249999999999577
10
-154.92500000000001
20
16.024999999999938
42
0.41421356237307161
10
-155.42500000000004
20
16.524999999999935
10
-168.42500000000001
20
16.52499999999991
42
0.41421356237309631
0
LWPOLYLINE
5
217
100
AcDbEntity
8
0
100
AcDbPolyline
90
8
70
1
43
0.0
10
-117.32500000000009
20
16.52499999999992
42
-0.41421356237307033
10
-116.8250000000001
20
16.024999999999938
10
-116.82500000000007
20
3.0249999999999577
42
-0.4142135623730937
10
-117.32500000000009
20
2.5249999999999515
10
-130.32500000000005
20
2.5249999999999528
42
-0.41421356237309437
10
-130.82500000000007
20
3.0249999999999577
10
-130.82500000000007
20
16.024999999999938
42
-0.41421356237309631
10
-130.32500000000005
20
16.524999999999945
0
LWPOLYLINE
5
218
100
AcDbEntity
8
0
100
AcDbPolyline
90
8
70
1
43
0.0
10
-206.52500000000003
20
2.5249999999999395
10
-193.52500000000006
20
2.5249999999999595
42
0.4142135623730856
10
-193.02500000000009
20
3.024999999999971
10
-193.02500000000009
20
16.024999999999938
42
0.41421356237307555
10
-193.52500000000006
20
16.524999999999935
10
-206.52500000000003
20
16.52499999999991
42
0.41421356237309631
10
-207.02500000000009
20
16.024999999999938
10
-207.02500000000012
20
3.0249999999999702
42
0.41421356237310447
0
LWPOLYLINE
5
219
100
AcDbEntity
8
0
100
AcDbPolyline
90
8
70
1
43
0.0
10
-16.524999999999963
20
16.024999999999938
10
-16.524999999999963
20
3.02499999999994
42
0.41421356237308982
10
-16.024999999999991
20
2.5249999999999395
10
-3.0250000000000199
20
2.52499999999994
42
0.41421356237309437
10
-2.5249999999999773
20
3.02499999999994
10
-2.5250000000000168
20
16.024999999999938
42
0.41421356237309243
10
-3.0250000000000199
20
16.524999999999935
10
-16.024999999999991
20
16.524999999999945
42
0.41421356237310025
0
LWPOLYLINE
5
220
100
AcDbEntity
8
0
100
AcDbPolyline
90
8
70
1
43
0.0
10
-41.125000000000043
20
16.524999999999935
10
-54.125000000000014
20
16.524999999999935
42
0.41421356237310281
10
-54.624999999999986
20
16.024999999999938
10
-54.625
20
3.0249999999999488
42
0.41421356237310936
10
-54.125000000000014
20
2.5249999999999595
10
-41.125000000000043
20
2.5249999999999453
42
0.41421356237309631
10
-40.625
20
3.0249999999999488
10
-40.625000000000064
20
16.024999999999938
42
0.41421356237308593
0
LWPOLYLINE
5
221
100
AcDbEntity
8
0
100
AcDbPolyline
90
8
70
1
43
0.0
10
-92.725000000000051
20
16.024999999999938
42
-0.4142135623730937
10
-92.225000000000037
20
16.524999999999942
10
-79.225000000000065
20
16.524999999999945
42
-0.41421356237310542
10
-78.725000000000051
20
16.024999999999938
10
-78.725000000000051
20
3.0249999999999488
42
-0.41421356237309082
10
-79.225000000000065
20
2.5249999999999408
10
-92.225000000000037
20
2.5249999999999471
42
-0.41421356237309176
10
-92.725000000000051
20
3.0249999999999488
0
LWPOLYLINE
5
222
100
AcDbEntity
8
0
100
AcDbPolyline
90
8
70
1
43
0.0
10
-35.075000000000074
20
2.5249999999999395
10
-22.075000000000031
20
2.5249999999999395
42
0.4142135623730846
10
-21.57500000000006
20
3.02499999999994
10
-21.575000000000031
20
16.024999999999938
42
0.41421356237309631
10
-22.075000000000031
20
16.524999999999935
10
-35.075000000000074
20
16.524999999999945
42
0.41421356237309243
10
-35.575000000000045
20
16.024999999999938
10
-35.575000000000074
20
3.0249999999999488
42
0.41421356237309598
0
LWPOLYLINE
5
223
100
AcDbEntity
8
0
100
AcDbPolyline
90
8
70
1
43
0.0
10
-73.674999999999997
20
16.024999999999938
10
-73.674999999999997
20
3.0249999999999488
42
0.41421356237310936
10
-73.175000000000026
20
2.5249999999999395
10
-60.175000000000054
20
2.5249999999999426
42
0.41421356237309859
10
-59.675000000000082
20
3.0249999999999488
10
-59.675000000000054
20
16.024999999999938
42
0.41421356237309764
10
-60.175000000000054
20
16.524999999999935
10
-73.175000000000026
20
16.524999999999945
42
0.41421356237310542
0
LWPOLYLINE
5
224
100
AcDbEntity
8
0
100
AcDbPolyline
90
8
70
1
43
0.0
10
-264.08430521274903
20
73.17499999999994
10
-264.08430521274903
20
60.17500000000004
42
0.41421356237309503
10
-263.58430521274903
20
59.67499999999994
10
-262.58430521274909
20
59.674999999999997
42
0.41421356237303258
10
-262.08430521274909
20
60.17499999999994
10
-262.08430521274909
20
73.17499999999994
42
0.41421356237316265
10
-262.58430521274909
20
73.67500000000004
10
-263.58430521274903
20
73.67499999999994
42
0.41421356237312623
0
LWPOLYLINE
5
225
100
AcDbEntity
8
0
100
AcDbPolyline
90
8
70
1
43
0.0
10
-111.77500000000006
20
16.024999999999938
42
-0.41421356237309631
10
-111.27500000000005
20
16.524999999999945
10
-98.275000000000077
20
16.52499999999992
42
-0.41421356237307033
10
-97.775000000000091
20
16.024999999999938
10
-97.775000000000063
20
3.0249999999999488
42
-0.41421356237309176
10
-98.275000000000077
20
2.5249999999999515
10
-111.27500000000005
20
2.5249999999999528
42
-0.41421356237309437
10
-111.77500000000006
20
3.0249999999999577
0
LWPOLYLINE
5
226
100
AcDbEntity
8
0
100
AcDbPolyline
90
8
70
1
43
0.0
10
-282.72500000000002
20
59.675000000000011
42
-0.41421356237311063
10
-283.22500000000002
20
60.17499999999994
10
-283.22500000000002
20
73.17499999999994
42
-0.41421356237315748
10
-282.72500000000002
20
73.675000000000011
10
-269.72500000000002
20
73.674999999999955
42
-0.41421356237316787
10
-269.22500000000002
20
73.17499999999994
10
-269.22500000000002
20
60.17499999999994
42
-0.41421356237299095
10
-269.72500000000002
20
59.674999999999997
0
LWPOLYLINE
5
227
100
AcDbEntity
8
0
100
AcDbPolyline
90
8
70
1
43
0.0
10
-259.86250000000007
20
35.574999999999989
42
-0.41421356237312101
10
-259.36249999999995
20
35.074999999999939
10
-259.36250000000007
20
22.074999999999939
42
-0.41421356237309764
10
-259.86250000000007
20
21.574999999999967
10
-260.86250000000001
20
21.57499999999996
42
-0.41421356237309764
10
-261.36250000000001
20
22.074999999999939
10
-261.36250000000013
20
35.074999999999939
42
-0.41421356237304563
10
-260.86250000000001
20
35.57499999999996
0
LWPOLYLINE
5
228
100
AcDbEntity
8
0
100
AcDbPolyline
90
8
70
1
43
0.0
10
-245.91250000000002
20
54.624999999999943
10
-258.91250000000008
20
54.624999999999943
42
0.41421356237306384
10
-259.41250000000002
20
54.125000000000043
10
-259.41250000000002
20
41.124999999999936
42
0.41421356237304302
10
-258.91250000000008
20
40.624999999999936
10
-245.91250000000002
20
40.624999999999964
42
0.41421356237310025
10
-245.41250000000005
20
41.124999999999936
10
-245.41250000000005
20
54.124999999999943
42
0.41421356237318346
0
LWPOLYLINE
5
229
100
AcDbEntity
8
0
100
AcDbPolyline
90
8
70
1
43
0.0
10
-40.337499999999991
20
73.17499999999994
42
-0.41421356237310281
10
-39.837500000000006
20
73.67499999999994
10
-26.837499999999963
20
73.674999999999926
42
-0.41421356237309764
10
-26.337499999999963
20
73.17499999999994
10
-26.337499999999959
20
60.174999999999947
42
-0.41421356237308204
10
-26.837499999999963
20
59.674999999999933
10
-39.837500000000006
20
59.674999999999955
42
-0.41421356237307422
10
-40.337499999999984
20
60.17499999999994
0
LWPOLYLINE
5
230
100
AcDbEntity
8
0
100
AcDbPolyline
90
8
70
1
43
0.0
10
-280.34375000000006
20
31.099999999999941
10
-267.34375000000006
20
31.099999999999941
42
0.41421356237313406
10
-266.84375
20
31.599999999999937
10
-266.84375000000006
20
44.599999999999945
42
0.41421356237312101
10
-267.34375000000006
20
45.099999999999945
10
-280.34375000000006
20
45.099999999999994
42
0.41421356237307944
10
-280.84375
20
44.599999999999945
10
-280.84375
20
31.599999999999937
42
0.41421356237309764
0
LWPOLYLINE
5
231
100
AcDbEntity
8
0
100
AcDbPolyline
90
8
70
1
43
0.0
10
-4.9062500000000142
20
60.17499999999994
10
-4.9062500000000142
20
73.17499999999994
42
0.41421356237309698
10
-5.4062499999999858
20
73.67499999999994
10
-18.406250000000028
20
73.67499999999994
42
0.41421356237309631
10
-18.90625
20
73.17499999999994
10
-18.906250000000036
20
60.17499999999994
42
0.41421356237310025
10
-18.406250000000028
20
59.67499999999994
10
-5.4062499999999858
20
59.674999999999969
42
0.41421356237309698
0
LWPOLYLINE
5
232
100
AcDbEntity
8
0
100
AcDbPolyline
90
8
70
1
43
0.0
10
-266.34375
20
53.41299999999994
10
-281.34375
20
53.413000000000046
42
0.41421356237310542
10
-281.84375
20
52.912999999999933
10
-281.84374999999994
20
47.16299999999994
42
0.41421356237309503
10
-281.34375
20
46.663000000000039
10
-266.34375
20
46.66299999999999
42
0.4142135623730534
10
-265.84375
20
47.16299999999994
10
-265.84375000000006
20
52.912999999999933
42
0.41421356237316265
0
LWPOLYLINE
5
233
100
AcDbEntity
8
0
100
AcDbPolyline
90
8
70
1
43
0.0
10
-281.84375000000011
20
29.036999999999939
42
-0.41421356237308204
10
-281.34375
20
29.536999999999978
10
-266.34375
20
29.537000000000013
42
-0.41421356237315488
10
-265.84375000000006
20
29.036999999999939
10
-265.84375000000011
20
23.286999999999939
42
-0.41421356237314444
10
-266.34375
20
22.786999999999988
10
-281.34375
20
22.787000000000003
42
-0.41421356237303258
10
-281.84375000000006
20
23.286999999999939
0
LWPOLYLINE
5
234
100
AcDbEntity
8
0
100
AcDbPolyline
90
8
70
1
43
0.0
10
-264.46250000000009
20
79.224999999999937
10
-264.46250000000009
20
92.224999999999952
42
0.41421356237310542
10
-264.96250000000009
20
92.725000000000051
10
-277.96250000000009
20
92.725000000000023
42
0.41421356237309503
10
-278.46250000000003
20
92.224999999999952
10
-278.46250000000009
20
79.224999999999937
42
0.41421356237299095
10
-277.96250000000009
20
78.724999999999937
10
-264.96250000000009
20
78.724999999999966
42
0.41421356237312101
0
LWPOLYLINE
5
235
100
AcDbEntity
8
0
100
AcDbPolyline
90
8
70
1
43
0.0
10
-234.4375
20
79.224999999999937
10
-234.4375
20
92.224999999999952
42
0.41421356237306384
10
-234.93750000000006
20
92.725000000000051
10
-235.9375
20
92.725000000000065
42
0.41421356237312623
10
-236.43750000000006
20
92.224999999999952
10
-236.43749999999994
20
79.224999999999937
42
0.41421356237306384
10
-235.9375
20
78.725000000000037
10
-234.93750000000006
20
78.724999999999895
42
0.41421356237305862
0
LWPOLYLINE
5
236
100
AcDbEntity
8
0
100
AcDbPolyline
90
8
70
1
43
0.0
10
-230.83750000000012
20
92.224999999999952
42
-0.41421356237309503
10
-230.33750000000003
20
92.725000000000023
10
-217.33750000000009
20
92.724999999999952
42
-0.41421356237307422
10
-216.83750000000003
20
92.224999999999952
10
-216.83750000000003
20
79.224999999999937
42
-0.41421356237312101
10
-217.33750000000009
20
78.724999999999923
10
-230.33750000000003
20
78.724999999999952
42
-0.41421356237305862
10
-230.83750000000015
20
79.224999999999937
0
LWPOLYLINE
5
237
100
AcDbEntity
8
0
100
AcDbPolyline
90
20
70
1
43
0.0
10
-149.87499999999997
20
92.224999999999952
42
-0.41421356237315748
10
-149.375
20
92.725000000000023
10
-136.37500000000003
20
92.725000000000065
42
-0.41421356237311585
10
-135.87500000000003
20
92.224999999999952
10
-135.875
20
87.855990898818561
10
-107.79193991247801
20
87.85599089881859
42
-0.41421356237309243
10
-105.79193991247799
20
85.855990898818547
10
-105.79193991247803
20
85.594009101181356
42
-0.41421356237309503
10
-107.79193991247801
20
83.594009101181371
10
-135.875
20
83.594009101181456
10
-135.87500000000003
20
79.224999999999937
42
-0.41421356237311585
10
-136.37500000000003
20
78.724999999999937
10
-149.375
20
78.724999999999923
42
-0.41421356237309503
10
-149.875
20
79.224999999999937
10
-149.87500000000006
20
83.594009101181456
10
-177.95806008752203
20
83.594009101181328
42
-0.41421356237308982
10
-179.958060087522
20
85.594009101181356
10
-179.95806008752197
20
85.855990898818547
42
-0.41421356237309764
10
-177.95806008752203
20
87.855990898818547
10
-149.87500000000006
20
87.855990898818561
0
LWPOLYLINE
5
238
100
AcDbEntity
8
0
100
AcDbPolyline
90
8
70
1
43
0.0
10
-55.412500000000051
20
92.724999999999952
10
-68.412500000000023
20
92.724999999999952
42
0.41421356237309503
10
-68.912500000000065
20
92.224999999999952
10
-68.912500000000023
20
79.224999999999937
42
0.41421356237309503
10
-68.412500000000023
20
78.724999999999937
10
-55.412500000000051
20
78.724999999999909
42
0.41421356237307944
10
-54.912500000000009
20
79.224999999999937
10
-54.912500000000044
20
92.224999999999952
42
0.41421356237307944
0
LWPOLYLINE
5
239
100
AcDbEntity
8
0
100
AcDbPolyline
90
8
70
1
43
0.0
10
-241.15000000000009
20
92.725000000000051
10
-254.15000000000006
20
92.725000000000051
42
0.41421356237318868
10
-254.65000000000003
20
92.224999999999952
10
-254.65000000000009
20
79.224999999999937
42
0.41421356237305862
10
-254.15000000000006
20
78.724999999999937
10
-241.15000000000009
20
78.724999999999923
42
0.41421356237312101
10
-240.65000000000003
20
79.224999999999937
10
-240.65000000000003
20
92.224999999999952
42
0.41421356237307422
0
LWPOLYLINE
5
240
100
AcDbEntity
8
0
100
AcDbPolyline
90
8
70
1
43
0.0
10
-74.512500000000031
20
92.224999999999952
42
-0.41421356237311585
10
-74.012500000000045
20
92.725000000000051
10
-73.012500000000031
20
92.724999999999937
42
-0.41421356237307944
10
-72.512500000000017
20
92.224999999999952
10
-72.512500000000031
20
79.224999999999937
42
-0.41421356237309503
10
-73.012500000000031
20
78.724999999999937
10
-74.012500000000045
20
78.724999999999952
42
-0.41421356237307422
10
-74.512500000000031
20
79.224999999999937
0
LWPOLYLINE
5
241
100
AcDbEntity
8
0
100
AcDbPolyline
90
8
70
1
43
0.0
10
-212.73750000000007
20
78.724999999999881
42
-0.41421356237305862
10
-213.23750000000013
20
79.224999999999937
10
-213.23750000000013
20
92.224999999999952
42
-0.41421356237309503
10
-212.73750000000007
20
92.724999999999994
10
-211.73750000000007
20
92.725000000000051
42
-0.4142135623730846
10
-211.23750000000007
20
92.224999999999952
10
-211.23750000000007
20
79.224999999999937
42
-0.41421356237310025
10
-211.73750000000007
20
78.724999999999966
0
LWPOLYLINE
5
242
100
AcDbEntity
8
0
100
AcDbPolyline
90
8
70
1
43
0.0
10
-50.812500000000043
20
78.724999999999895
42
-0.41421356237310025
10
-51.312500000000078
20
79.224999999999937
10
-51.312500000000071
20
92.224999999999952
42
-0.41421356237309503
10
-50.812500000000043
20
92.724999999999966
10
-49.812500000000028
20
92.724999999999937
42
-0.41421356237307944
10
-49.312500000000021
20
92.224999999999952
10
-49.312500000000014
20
79.224999999999937
42
-0.41421356237311063
10
-49.812500000000028
20
78.724999999999923
0
LWPOLYLINE
5
243
100
AcDbEntity
8
0
100
AcDbPolyline
90
8
70
1
43
0.0
10
-31.100000000000012
20
79.224999999999937
42
-0.41421356237309503
10
-31.600000000000037
20
78.724999999999909
10
-44.600000000000009
20
78.724999999999937
42
-0.41421356237309503
10
-45.100000000000009
20
79.224999999999937
10
-45.100000000000023
20
92.224999999999937
42
-0.414213562373069
10
-44.600000000000009
20
92.724999999999966
10
-31.600000000000037
20
92.724999999999952
42
-0.41421356237307161
10
-31.10000000000003
20
92.224999999999952
0
LWPOLYLINE
5
244
100
AcDbEntity
8
0
100
AcDbPolyline
90
8
70
1
43
0.0
10
-24.887500000000049
20
79.224999999999937
42
-0.41421356237308982
10
-25.387500000000074
20
78.724999999999909
10
-26.387500000000088
20
78.724999999999923
42
-0.41421356237309503
10
-26.887500000000095
20
79.224999999999937
10
-26.887500000000092
20
92.224999999999952
42
-0.41421356237307161
10
-26.387500000000088
20
92.724999999999952
10
-25.387500000000074
20
92.724999999999952
42
-0.41421356237307161
10
-24.887500000000067
20
92.224999999999952
0
LWPOLYLINE
5
245
100
AcDbEntity
8
0
100
AcDbPolyline
90
8
70
1
43
0.0
10
-1.6875000000000284
20
79.224999999999937
10
-1.6875000000000284
20
92.224999999999952
42
0.41421356237307355
10
-2.1875
20
92.724999999999952
10
-3.1875000000000142
20
92.724999999999952
42
0.41421356237307355
10
-3.6874999999999858
20
92.224999999999952
10
-3.6875000000000124
20
79.224999999999937
42
0.41421356237309437
10
-3.1875000000000142
20
78.724999999999937
10
-2.1875
20
78.724999999999909
42
0.41421356237309404
0
LWPOLYLINE
5
246
100
AcDbEntity
8
0
100
AcDbPolyline
90
8
70
1
43
0.0
10
-87.962500000000006
20
54.124999999999943
42
-0.41421356237310025
10
-87.462500000000034
20
54.624999999999915
10
-74.462500000000063
20
54.624999999999922
42
-0.4142135623730846
10
-73.962500000000077
20
54.124999999999943
10
-73.962500000000077
20
41.124999999999936
42
-0.4142135623730846
10
-74.462500000000063
20
40.624999999999957
10
-87.462500000000034
20
40.624999999999964
42
-0.41421356237309503
10
-87.962500000000006
20
41.124999999999936
0
LWPOLYLINE
5
247
100
AcDbEntity
8
0
100
AcDbPolyline
90
8
70
1
43
0.0
10
-106.51250000000005
20
40.624999999999936
10
-93.512500000000074
20
40.624999999999936
42
0.41421356237308982
10
-93.012500000000031
20
41.124999999999936
10
-93.012500000000102
20
54.124999999999943
42
0.41421356237309503
10
-93.512500000000074
20
54.624999999999943
10
-106.51250000000005
20
54.624999999999915
42
0.41421356237310025
10
-107.01250000000009
20
54.124999999999943
10
-107.01250000000003
20
41.124999999999936
42
0.41421356237311063
0
LWPOLYLINE
5
248
100
AcDbEntity
8
0
100
AcDbPolyline
90
8
70
1
43
0.0
10
-283.5625
20
78.724999999999937
10
-282.5625
20
78.724999999999937
42
0.41421356237310025
10
-282.06250000000006
20
79.224999999999937
10
-282.0625
20
92.224999999999952
42
0.41421356237315748
10
-282.5625
20
92.725000000000051
10
-283.5625
20
92.725000000000023
42
0.41421356237309503
10
-284.06250000000006
20
92.224999999999952
10
-284.06250000000006
20
79.224999999999937
42
0.41421356237299095
0
LWPOLYLINE
5
249
100
AcDbEntity
8
0
100
AcDbPolyline
90
8
70
1
43
0.0
10
-68.412500000000023
20
40.624999999999936
10
-55.412500000000051
20
40.624999999999936
42
0.41421356237309503
10
-54.912500000000009
20
41.124999999999936
10
-54.912500000000087
20
54.124999999999943
42
0.41421356237309503
10
-55.412500000000051
20
54.624999999999943
10
-68.412500000000023
20
54.62499999999995
42
0.41421356237311585
10
-68.912500000000065
20
54.124999999999943
10
-68.912500000000023
20
41.124999999999936
42
0.41421356237310542
0
LWPOLYLINE
5
250
100
AcDbEntity
8
0
100
AcDbPolyline
90
8
70
1
43
0.0
10
-260.36250000000001
20
78.72499999999998
42
-0.41421356237306384
10
-260.86249999999995
20
79.224999999999937
10
-260.86250000000013
20
92.224999999999952
42
-0.41421356237312623
10
-260.36250000000001
20
92.725000000000065
10
-259.36250000000007
20
92.725000000000023
42
-0.41421356237315748
10
-258.86250000000007
20
92.224999999999952
10
-258.86250000000007
20
79.224999999999937
42
-0.41421356237313145
10
-259.36250000000007
20
78.724999999999923
0
LWPOLYLINE
5
251
100
AcDbEntity
8
0
100
AcDbPolyline
90
8
70
1
43
0.0
10
-238.03743580380811
20
73.17499999999994
42
-0.4142135623725019
10
-237.53743580380905
20
73.674999999999983
10
-236.53743580380905
20
73.674999999999955
42
-0.4142135623730222
10
-236.03743580380905
20
73.17499999999994
10
-236.03743580380907
20
60.17499999999994
42
-0.41421356237310025
10
-236.53743580380905
20
59.674999999999969
10
-237.53743580380905
20
59.674999999999997
42
-0.41421356237249668
10
-238.03743580380811
20
60.17499999999994
0
LWPOLYLINE
5
252
100
AcDbEntity
8
0
100
AcDbPolyline
90
8
70
1
43
0.0
10
-30.268750000000111
20
40.624999999999922
42
-0.41421356237310025
10
-30.768750000000118
20
41.124999999999936
10
-30.768750000000114
20
54.124999999999943
42
-0.41421356237308204
10
-30.268750000000111
20
54.62499999999995
10
-29.268750000000097
20
54.624999999999915
42
-0.41421356237310281
10
-28.768750000000125
20
54.124999999999943
10
-28.768750000000086
20
41.124999999999936
42
-0.41421356237310281
10
-29.268750000000097
20
40.624999999999922
0
LWPOLYLINE
5
253
100
AcDbEntity
8
0
100
AcDbPolyline
90
8
70
1
43
0.0
10
-126.85000000000002
20
35.574999999999982
42
-0.41421356237307161
10
-126.34999999999998
20
35.074999999999939
10
-126.35000000000008
20
22.074999999999939
42
-0.41421356237307944
10
-126.85000000000002
20
21.574999999999985
10
-139.85000000000008
20
21.574999999999932
42
-0.41421356237309503
10
-140.35000000000008
20
22.074999999999939
10
-140.35000000000008
20
35.074999999999939
42
-0.41421356237309243
10
-139.85000000000008
20
35.574999999999946
0
LWPOLYLINE
5
254
100
AcDbEntity
8
0
100
AcDbPolyline
90
8
70
1
43
0.0
10
-145.90000000000003
20
35.574999999999939
10
-158.90000000000009
20
35.574999999999939
42
0.41421356237309243
10
-159.40000000000003
20
35.074999999999939
10
-159.40000000000009
20
22.074999999999939
42
0.41421356237309503
10
-158.90000000000009
20
21.574999999999939
10
-145.90000000000003
20
21.57499999999995
42
0.41421356237311324
10
-145.40000000000006
20
22.074999999999939
10
-145.39999999999998
20
35.074999999999939
42
0.41421356237307161
0
LWPOLYLINE
5
255
100
AcDbEntity
8
0
100
AcDbPolyline
90
8
70
1
43
0.0
10
-36.362500000000111
20
54.624999999999957
42
-0.41421356237310025
10
-35.862500000000104
20
54.124999999999943
10
-35.862500000000097
20
41.124999999999936
42
-0.41421356237309243
10
-36.362500000000111
20
40.624999999999922
10
-49.362500000000082
20
40.624999999999922
42
-0.41421356237309503
10
-49.862500000000097
20
41.124999999999936
10
-49.862500000000054
20
54.124999999999943
42
-0.41421356237310542
10
-49.362500000000082
20
54.624999999999915
0
LWPOLYLINE
5
256
100
AcDbEntity
8
0
100
AcDbPolyline
90
8
70
1
43
0.0
10
-164.45000000000007
20
22.074999999999939
10
-164.45000000000007
20
35.074999999999939
42
0.41421356237314705
10
-164.95000000000005
20
35.574999999999939
10
-177.9500000000001
20
35.57500000000001
42
0.41421356237315488
10
-178.45000000000005
20
35.074999999999939
10
-178.45000000000005
20
22.074999999999939
42
0.41421356237309764
10
-177.9500000000001
20
21.574999999999939
10
-164.95000000000005
20
21.574999999999932
42
0.41421356237310281
0
LWPOLYLINE
5
257
100
AcDbEntity
8
0
100
AcDbPolyline
90
8
70
1
43
0.0
10
-216.05000000000004
20
21.574999999999953
42
-0.41421356237312362
10
-216.55000000000004
20
22.074999999999939
10
-216.55000000000001
20
35.074999999999939
42
-0.41421356237309764
10
-216.05000000000004
20
35.57499999999991
10
-203.05000000000007
20
35.575000000000003
42
-0.41421356237314705
10
-202.55000000000001
20
35.074999999999939
10
-202.55000000000007
20
22.074999999999939
42
-0.41421356237304041
10
-203.05000000000007
20
21.575000000000031
0
LWPOLYLINE
5
258
100
AcDbEntity
8
0
100
AcDbPolyline
90
8
70
1
43
0.0
10
-254.15000000000006
20
21.574999999999918
42
-0.41421356237308204
10
-254.65000000000009
20
22.074999999999939
10
-254.65000000000006
20
35.074999999999939
42
-0.41421356237310025
10
-254.15000000000006
20
35.574999999999946
10
-241.15000000000009
20
35.57499999999996
42
-0.41421356237310281
10
-240.65000000000009
20
35.074999999999939
10
-240.65000000000009
20
22.074999999999939
42
-0.41421356237310281
10
-241.15000000000009
20
21.574999999999932
0
LWPOLYLINE
5
259
100
AcDbEntity
8
0
100
AcDbPolyline
90
8
70
1
43
0.0
10
-107.30000000000004
20
22.074999999999939
10
-107.30000000000004
20
35.074999999999939
42
0.41421356237311846
10
-107.80000000000001
20
35.574999999999939
10
-120.80000000000005
20
35.574999999999946
42
0.41421356237309243
10
-121.30000000000003
20
35.074999999999939
10
-121.30000000000007
20
22.074999999999939
42
0.41421356237311846
10
-120.80000000000005
20
21.574999999999939
10
-107.80000000000001
20
21.57499999999995
42
0.41421356237311324
0
LWPOLYLINE
5
260
100
AcDbEntity
8
0
100
AcDbPolyline
90
8
70
1
43
0.0
10
-235.60000000000002
20
35.074999999999939
42
-0.41421356237315488
10
-235.10000000000005
20
35.57500000000001
10
-222.10000000000008
20
35.575000000000031
42
-0.41421356237310281
10
-221.60000000000008
20
35.074999999999939
10
-221.59999999999999
20
22.074999999999939
42
-0.41421356237304041
10
-222.10000000000008
20
21.57499999999996
10
-235.10000000000005
20
21.57499999999996
42
-0.41421356237309764
10
-235.60000000000002
20
22.074999999999939
0
LWPOLYLINE
5
261
100
AcDbEntity
8
0
100
AcDbPolyline
90
8
70
1
43
0.0
10
-197.5
20
35.074999999999939
10
-197.5
20
22.074999999999939
42
0.41421356237312362
10
-197.00000000000003
20
21.574999999999939
10
-184
20
21.575000000000003
42
0.41421356237306123
10
-183.5
20
22.074999999999939
10
-183.5
20
35.074999999999939
42
0.41421356237315488
10
-184
20
35.574999999999939
10
-197.00000000000003
20
35.57499999999991
42
0.41421356237309764
0
ENDSEC
0
SECTION
2
OBJECTS
0
DICTIONARY
5
C
100
AcDbDictionary
3
ACAD_GROUP
350
D
3
ACAD_MLINESTYLE
350
17
0
DICTIONARY
5
D
100
AcDbDictionary
0
DICTIONARY
5
1A
330
C
100
AcDbDictionary
0
DICTIONARY
5
17
100
AcDbDictionary
0
ENDSEC
0
EOF
