0
SECTION
2
HEADER
9
$INSUNITS
70
4
9
$ACADVER
1
AC1014
9
$HANDSEED
5
FFFF
0
ENDSEC
0
SECTION
2
TABLES
0
TABLE
2
VPORT
5
8
100
AcDbSymbolTable
0
ENDTAB
0
TABLE
2
LTYPE
5
5
100
AcDbSymbolTable
0
LTYPE
5
14
100
AcDbSymbolTableRecord
100
AcDbLinetypeTableRecord
2
BYBLOCK
70
0
0
LTYPE
5
15
100
AcDbSymbolTableRecord
100
AcDbLinetypeTableRecord
2
BYLAYER
70
0
0
ENDTAB
0
TABLE
2
LAYER
5
2
100
AcDbSymbolTable
70
2
0
LAYER
5
50
100
AcDbSymbolTableRecord
100
AcDbLayerTableRecord
2
0
70
0
6
CONTINUOUS
0
ENDTAB
0
TABLE
2
STYLE
5
3
100
AcDbSymbolTable
70
1
0
STYLE
5
11
100
AcDbSymbolTableRecord
100
AcDbTextStyleTableRecord
2
STANDARD
70
0
0
ENDTAB
0
TABLE
2
VIEW
5
6
100
AcDbSymbolTable
70
0
0
ENDTAB
0
TABLE
2
UCS
5
7
100
AcDbSymbolTable
70
0
0
ENDTAB
0
TABLE
2
APPID
5
9
100
AcDbSymbolTable
70
2
0
APPID
5
12
100
AcDbSymbolTableRecord
100
AcDbRegAppTableRecord
2
ACAD
70
0
0
ENDTAB
0
TABLE
2
DIMSTYLE
5
A
100
AcDbSymbolTable
70
1
0
ENDTAB
0
TABLE
2
BLOCK_RECORD
5
1
100
AcDbSymbolTable
70
1
0
BLOCK_RECORD
5
1F
100
AcDbSymbolTableRecord
100
AcDbBlockTableRecord
2
*MODEL_SPACE
0
BLOCK_RECORD
5
1B
100
AcDbSymbolTableRecord
100
AcDbBlockTableRecord
2
*PAPER_SPACE
0
ENDTAB
0
ENDSEC
0
SECTION
2
BLOCKS
0
BLOCK
5
20
100
AcDbEntity
100
AcDbBlockBegin
2
*MODEL_SPACE
0
ENDBLK
5
21
100
AcDbEntity
100
AcDbBlockEnd
0
BLOCK
5
1C
100
AcDbEntity
100
AcDbBlockBegin
2
*PAPER_SPACE
0
ENDBLK
5
1D
100
AcDbEntity
100
AcDbBlockEnd
0
ENDSEC
0
SECTION
2
ENTITIES
0
LWPOLYLINE
5
100
100
AcDbEntity
8
0
100
AcDbPolyline
90
8
70
1
43
0.0
10
359.42500000000001
20
-41.375
42
0.41421356237311935
10
358.67500000000001
20
-40.625000000000057
10
346.17500000000001
20
-40.624999999999972
42
0.41421356237303958
10
345.42500000000013
20
-41.375
10
345.4249999999999
20
-53.875
42
0.41421356237316787
10
346.17500000000001
20
-54.625000000000021
10
358.67500000000001
20
-54.625
42
0.4142135623730846
10
359.42500000000001
20
-53.875
0
LWPOLYLINE
5
101
100
AcDbEntity
8
0
100
AcDbPolyline
90
8
70
1
43
0.0
10
306.28750000000002
20
-54.625
42
0.41421356237309853
10
307.03750000000002
20
-53.875
10
307.03750000000002
20
-41.375
42
0.41421356237309853
10
306.28750000000002
20
-40.625
10
293.78750000000002
20
-40.625
42
0.41421356237309853
10
293.03750000000002
20
-41.375
10
293.03750000000002
20
-53.875
42
0.41421356237309853
10
293.78750000000002
20
-54.625
0
LWPOLYLINE
5
102
100
AcDbEntity
8
0
100
AcDbPolyline
90
8
70
1
43
0.0
10
22.324999999999999
20
-73.675000000000054
42
-0.41421356237310197
10
21.575000000000017
20
-72.925000000000026
10
21.57500000000001
20
-60.425000000000004
42
-0.41421356237308637
10
22.324999999999999
20
-59.675000000000011
10
34.825000000000003
20
-59.675000000000004
42
-0.41421356237307944
10
35.575000000000017
20
-60.425000000000004
10
35.575000000000017
20
-72.925000000000026
42
-0.41421356237309681
10
34.825000000000003
20
-73.674999999999983
0
LWPOLYLINE
5
103
100
AcDbEntity
8
0
100
AcDbPolyline
90
8
70
1
43
0.0
10
287.98750000000001
20
-41.375
42
0.41421356237309853
10
287.23750000000001
20
-40.625
10
274.73750000000001
20
-40.625
42
0.41421356237309853
10
273.98750000000001
20
-41.375
10
273.98750000000001
20
-53.875
42
0.41421356237309853
10
274.73750000000001
20
-54.625
10
287.23750000000001
20
-54.625
42
0.41421356237309853
10
287.98750000000001
20
-53.875
0
LWPOLYLINE
5
104
100
AcDbEntity
8
0
100
AcDbPolyline
90
8
70
1
43
0.0
10
268.9375
20
-41.375
42
0.41421356237309853
10
268.1875
20
-40.625
10
255.6875
20
-40.625
42
0.41421356237307078
10
254.93750000000009
20
-41.375
10
254.93750000000009
20
-53.875
42
0.41421356237308116
10
255.6875
20
-54.625000000000021
10
268.1875
20
-54.625
42
0.41421356237309853
10
268.9375
20
-53.875
0
LWPOLYLINE
5
105
100
AcDbEntity
8
0
100
AcDbPolyline
90
8
70
1
43
0.0
10
140.63749999999999
20
-41.375
42
-0.41421356237313323
10
141.38750000000005
20
-40.625000000000014
10
153.88749999999999
20
-40.625000000000007
42
-0.41421356237309503
10
154.63749999999999
20
-41.375
10
154.63750000000005
20
-53.875
42
-0.41421356237310197
10
153.88749999999999
20
-54.625000000000021
10
141.38750000000002
20
-54.624999999999986
42
-0.41421356237311241
10
140.63749999999999
20
-53.875
0
LWPOLYLINE
5
106
100
AcDbEntity
8
0
100
AcDbPolyline
90
8
70
1
43
0.0
10
249.88749999999999
20
-41.375
10
249.88749999999999
20
-53.875
42
-0.41421356237309853
10
249.13749999999999
20
-54.625
10
236.63749999999999
20
-54.624999999999986
42
-0.41421356237309159
10
235.88750000000002
20
-53.875
10
235.88750000000002
20
-41.375
42
-0.41421356237309853
10
236.63749999999999
20
-40.625
10
249.13749999999999
20
-40.625000000000014
42
-0.41421356237309159
0
LWPOLYLINE
5
107
100
AcDbEntity
8
0
100
AcDbPolyline
90
8
70
1
43
0.0
10
282.47500000000002
20
-35.57500000000001
10
269.97500000000002
20
-35.575000000000031
42
-0.41421356237307944
10
269.22500000000002
20
-34.825000000000003
10
269.22500000000002
20
-22.324999999999999
42
-0.41421356237309331
10
269.97500000000002
20
-21.57500000000001
10
282.47500000000002
20
-21.575000000000021
42
-0.41421356237313145
10
283.22500000000002
20
-22.324999999999999
10
283.22500000000008
20
-34.825000000000003
42
-0.41421356237312978
0
LWPOLYLINE
5
108
100
AcDbEntity
8
0
100
AcDbPolyline
90
8
70
1
43
0.0
10
135.87500000000006
20
-22.324999999999999
42
-0.41421356237310375
10
136.625
20
-21.57500000000001
10
149.125
20
-21.575000000000003
42
-0.41421356237308293
10
149.875
20
-22.324999999999999
10
149.875
20
-34.825000000000003
42
-0.41421356237308293
10
149.125
20
-35.57500000000001
10
136.625
20
-35.575000000000017
42
-0.41421356237311063
10
135.87500000000003
20
-34.825000000000003
0
LWPOLYLINE
5
109
100
AcDbEntity
8
0
100
AcDbPolyline
90
8
70
1
43
0.0
10
155.67500000000001
20
-21.575000000000006
10
168.17500000000001
20
-21.574999999999992
42
-0.41421356237318346
10
168.9250000000001
20
-22.324999999999999
10
168.92500000000001
20
-34.825000000000003
42
-0.41421356237307944
10
168.17500000000001
20
-35.575000000000031
10
155.67500000000001
20
-35.575000000000017
42
-0.41421356237309681
10
154.92500000000004
20
-34.825000000000003
10
154.92500000000004
20
-22.324999999999999
42
-0.41421356237310375
0
LWPOLYLINE
5
110
100
AcDbEntity
8
0
100
AcDbPolyline
90
8
70
1
43
0.0
10
230.08750000000006
20
-54.624999999999979
42
0.41421356237312978
10
230.83750000000009
20
-53.875
10
230.83750000000009
20
-41.375
42
0.4142135623730569
10
230.08750000000006
20
-40.625
10
217.58750000000006
20
-40.624999999999993
42
0.41421356237303258
10
216.83750000000003
20
-41.375
10
216.83750000000001
20
-53.875
42
0.41421356237314705
10
217.58750000000006
20
-54.624999999999986
0
LWPOLYLINE
5
111
100
AcDbEntity
8
0
100
AcDbPolyline
90
8
70
1
43
0.0
10
107.01250000000002
20
-60.425000000000004
10
107.01250000000003
20
-72.925000000000026
42
-0.41421356237311241
10
106.2625
20
-73.67500000000004
10
93.762500000000003
20
-73.674999999999983
42
-0.41421356237309503
10
93.012500000000017
20
-72.925000000000026
10
93.012500000000017
20
-60.425000000000004
42
-0.4142135623730846
10
93.762500000000003
20
-59.675000000000004
10
106.2625
20
-59.675000000000004
42
-0.4142135623730569
0
LWPOLYLINE
5
112
100
AcDbEntity
8
0
100
AcDbPolyline
90
8
70
1
43
0.0
10
111.77500000000003
20
-34.825000000000003
10
111.77500000000002
20
-22.324999999999999
42
0.41421356237308637
10
111.02500000000001
20
-21.57500000000001
10
98.525000000000034
20
-21.575000000000017
42
0.41421356237310542
10
97.775000000000034
20
-22.324999999999999
10
97.775000000000034
20
-34.825000000000003
42
0.4142135623730846
10
98.525000000000006
20
-35.575000000000017
10
111.02500000000001
20
-35.57500000000001
42
0.41421356237311413
0
LWPOLYLINE
5
113
100
AcDbEntity
8
0
100
AcDbPolyline
90
8
70
1
43
0.0
10
68.91249999999998
20
-34.825000000000003
10
68.912500000000009
20
-22.324999999999999
42
0.41421356237308815
10
68.162499999999994
20
-21.57500000000001
10
55.662500000000001
20
-21.575000000000003
42
0.41421356237310375
10
54.912500000000009
20
-22.324999999999999
10
54.912500000000016
20
-34.825000000000003
42
0.41421356237308637
10
55.662500000000001
20
-35.575000000000017
10
68.162499999999994
20
-35.57500000000001
42
0.41421356237308293
0
LWPOLYLINE
5
114
100
AcDbEntity
8
0
100
AcDbPolyline
90
8
70
1
43
0.0
10
212.07499999999999
20
-22.324999999999999
10
212.07499999999999
20
-34.825000000000003
42
0.41421356237307944
10
212.82499999999999
20
-35.575000000000031
10
225.32499999999999
20
-35.57500000000001
42
0.41421356237311413
10
226.07500000000002
20
-34.825000000000003
10
226.07500000000005
20
-22.324999999999999
42
0.41421356237314705
10
225.32499999999999
20
-21.575000000000028
10
212.82499999999999
20
-21.574999999999992
42
0.41421356237307255
0
LWPOLYLINE
5
115
100
AcDbEntity
8
0
100
AcDbPolyline
90
8
70
1
43
0.0
10
328.46875000000006
20
-44.350000000000016
10
328.46875000000006
20
-31.850000000000005
42
0.41421356237308637
10
327.71875
20
-31.099999999999994
10
315.21875
20
-31.100000000000012
42
0.41421356237309503
10
314.46875
20
-31.850000000000005
10
314.46875
20
-44.350000000000016
42
0.41421356237309853
10
315.21875
20
-45.100000000000016
10
327.71875
20
-45.100000000000016
42
0.4142135623730846
0
LWPOLYLINE
5
116
100
AcDbEntity
8
0
100
AcDbPolyline
90
8
70
1
43
0.0
10
187.97499999999999
20
-22.324999999999999
10
187.97499999999999
20
-34.825000000000003
42
-0.41421356237306733
10
187.22499999999999
20
-35.57500000000001
10
174.72499999999999
20
-35.57500000000001
42
-0.41421356237305862
10
173.97500000000005
20
-34.825000000000003
10
173.97500000000005
20
-22.324999999999999
42
-0.41421356237311757
10
174.72499999999999
20
-21.574999999999992
10
187.22499999999999
20
-21.575000000000003
42
-0.41421356237309681
0
LWPOLYLINE
5
117
100
AcDbEntity
8
0
100
AcDbPolyline
90
8
70
1
43
0.0
10
327.46875
20
-52.788000000000004
10
327.46875
20
-47.287999999999997
42
0.41421356237299095
10
326.71875
20
-46.537999999999982
10
313.21875
20
-46.538000000000011
42
0.41421356237306384
10
312.46875
20
-47.287999999999997
10
312.46875
20
-52.788000000000004
42
0.41421356237308815
10
313.21875
20
-53.537999999999997
10
326.71875
20
-53.538000000000032
42
0.41421356237298407
0
LWPOLYLINE
5
118
100
AcDbEntity
8
0
100
AcDbPolyline
90
8
70
1
43
0.0
10
250.17500000000001
20
-34.825000000000003
10
250.17500000000001
20
-22.324999999999999
42
-0.41421356237309331
10
250.92500000000001
20
-21.57500000000001
10
263.42500000000001
20
-21.575000000000006
42
-0.41421356237309503
10
264.17500000000007
20
-22.324999999999999
10
264.17500000000007
20
-34.825000000000003
42
-0.41421356237309681
10
263.42500000000001
20
-35.57500000000001
10
250.92500000000001
20
-35.575000000000031
42
-0.41421356237307944
0
LWPOLYLINE
5
119
100
AcDbEntity
8
0
100
AcDbPolyline
90
8
70
1
43
0.0
10
301.52499999999998
20
-21.575000000000003
42
-0.41421356237309681
10
302.27499999999998
20
-22.324999999999999
10
302.27499999999998
20
-34.825000000000003
42
-0.41421356237306733
10
301.52499999999998
20
-35.57500000000001
10
289.02499999999998
20
-35.57500000000001
42
-0.41421356237307255
10
288.27499999999998
20
-34.825000000000003
10
288.27499999999998
20
-22.324999999999999
42
-0.41421356237308637
10
289.02499999999998
20
-21.575000000000006
0
LWPOLYLINE
5
120
100
AcDbEntity
8
0
100
AcDbPolyline
90
8
70
1
43
0.0
10
231.125
20
-22.324999999999999
42
-0.41421356237309331
10
231.875
20
-21.57500000000001
10
244.375
20
-21.575000000000021
42
-0.41421356237313145
10
245.12500000000003
20
-22.324999999999999
10
245.12500000000006
20
-34.825000000000003
42
-0.41421356237312978
10
244.375
20
-35.57500000000001
10
231.875
20
-35.575000000000031
42
-0.41421356237307944
10
231.125
20
-34.825000000000003
0
LWPOLYLINE
5
121
100
AcDbEntity
8
0
100
AcDbPolyline
90
8
70
1
43
0.0
10
313.21875
20
-29.662000000000003
10
326.71875
20
-29.662000000000027
42
0.41421356237298407
10
327.46875
20
-28.911999999999999
10
327.46875
20
-23.41200000000001
42
0.41421356237298929
10
326.71875
20
-22.661999999999995
10
313.21875000000006
20
-22.661999999999999
42
0.41421356237307422
10
312.46875
20
-23.41200000000001
10
312.46875
20
-28.911999999999999
42
0.414213562373069
0
LWPOLYLINE
5
122
100
AcDbEntity
8
0
100
AcDbPolyline
90
8
70
1
43
0.0
10
22.324999999999999
20
-40.625
10
34.825000000000003
20
-40.625
42
-0.41421356237308982
10
35.57500000000001
20
-41.375000000000021
10
35.57500000000001
20
-53.875
42
-0.41421356237310375
10
34.825000000000003
20
-54.625
10
22.324999999999999
20
-54.625
42
-0.41421356237309503
10
21.575000000000017
20
-53.875
10
21.575000000000006
20
-41.375
42
-0.41421356237311241
0
LWPOLYLINE
5
123
100
AcDbEntity
8
0
100
AcDbPolyline
90
8
70
1
43
0.0
10
198.53750000000002
20
-40.624999999999986
42
0.41421356237307771
10
197.78750000000002
20
-41.375
10
197.78750000000002
20
-53.875
42
0.41421356237306733
10
198.53750000000002
20
-54.625
10
211.03750000000002
20
-54.625000000000021
42
0.41421356237307771
10
211.78750000000002
20
-53.875
10
211.78750000000002
20
-41.375
42
0.41421356237306733
10
211.03750000000002
20
-40.625
0
LWPOLYLINE
5
124
100
AcDbEntity
8
0
100
AcDbPolyline
90
8
70
1
43
0.0
10
103.28749999999999
20
-54.625000000000021
10
115.78749999999999
20
-54.625
42
0.41421356237309159
10
116.53750000000001
20
-53.875
10
116.53750000000001
20
-41.375
42
0.41421356237309159
10
115.78749999999999
20
-40.625
10
103.28749999999999
20
-40.624999999999993
42
0.41421356237308815
10
102.53749999999999
20
-41.375
10
102.53749999999999
20
-53.875
42
0.41421356237309503
0
LWPOLYLINE
5
125
100
AcDbEntity
8
0
100
AcDbPolyline
90
8
70
1
43
0.0
10
122.33750000000001
20
-54.625000000000021
10
134.83750000000001
20
-54.625
42
0.41421356237309159
10
135.58750000000001
20
-53.875
10
135.58750000000001
20
-41.375
42
0.41421356237309159
10
134.83750000000001
20
-40.625
10
122.33750000000001
20
-40.624999999999993
42
0.41421356237308815
10
121.58750000000001
20
-41.375
10
121.58750000000001
20
-53.875
42
0.41421356237309503
0
LWPOLYLINE
5
126
100
AcDbEntity
8
0
100
AcDbPolyline
90
8
70
1
43
0.0
10
83.487500000000026
20
-53.875
10
83.487499999999983
20
-41.375
42
-0.41421356237307771
10
84.237499999999983
20
-40.624999999999993
10
96.737499999999983
20
-40.625000000000014
42
-0.41421356237311935
10
97.487500000000011
20
-41.375
10
97.487500000000011
20
-53.875
42
-0.41421356237309503
10
96.737499999999983
20
-54.624999999999993
10
84.237499999999983
20
-54.624999999999993
42
-0.41421356237309503
0
LWPOLYLINE
5
127
100
AcDbEntity
8
0
100
AcDbPolyline
90
8
70
1
43
0.0
10
358.67499999999995
20
-21.575000000000006
42
-0.41421356237310897
10
359.42500000000001
20
-22.324999999999999
10
359.42500000000001
20
-34.825000000000003
42
-0.41421356237308815
10
358.67500000000001
20
-35.575000000000031
10
346.17500000000001
20
-35.57500000000001
42
-0.41421356237303092
10
345.42499999999984
20
-34.825000000000003
10
345.4249999999999
20
-22.324999999999999
42
-0.41421356237316265
10
346.17500000000001
20
-21.574999999999992
0
LWPOLYLINE
5
128
100
AcDbEntity
8
0
100
AcDbPolyline
90
8
70
1
43
0.0
10
16.525000000000006
20
-53.875
42
-0.41421356237310802
10
15.775000000000006
20
-54.625
10
3.2750000000000012
20
-54.625000000000014
42
-0.41421356237309681
10
2.5250000000000057
20
-53.875
10
2.5250000000000017
20
-41.375
42
-0.4142135623730942
10
3.2750000000000012
20
-40.625
10
15.775000000000006
20
-40.625
42
-0.41421356237310114
10
16.524999999999991
20
-41.375
0
LWPOLYLINE
5
129
100
AcDbEntity
8
0
100
AcDbPolyline
90
8
70
1
43
0.0
10
173.68750000000003
20
-53.875
42
-0.41421356237310197
10
172.93750000000003
20
-54.625000000000021
10
160.4375
20
-54.624999999999979
42
-0.4142135623730534
10
159.68749999999997
20
-53.875
10
159.6875
20
-41.375
42
-0.41421356237312279
10
160.4375
20
-40.625000000000007
10
172.9375
20
-40.624999999999986
42
-0.41421356237311935
10
173.68750000000003
20
-41.375
0
LWPOLYLINE
5
130
100
AcDbEntity
8
0
100
AcDbPolyline
90
8
70
1
43
0.0
10
53.28125
20
-78.724999999999994
10
68.162499999999994
20
-78.724999999999994
42
-0.41421356237310197
10
68.912499999999994
20
-79.47499999999998
10
68.91249999999998
20
-91.974999999999994
42
-0.41421356237308815
10
68.162499999999994
20
-92.725000000000023
10
53.28125
20
-92.725000000000051
42
-0.41421356237309503
10
52.531250000000028
20
-91.974999999999994
10
52.531250000000007
20
-79.47499999999998
42
-0.41421356237310197
0
LWPOLYLINE
5
131
100
AcDbEntity
8
0
100
AcDbPolyline
90
8
70
1
43
0.0
10
354.66250000000008
20
-84.237499999999983
10
354.66250000000002
20
-96.737499999999997
42
-0.4142135623732407
10
353.91250000000008
20
-97.487500000000011
10
341.41250000000008
20
-97.487500000000026
42
-0.41421356237309503
10
340.66250000000002
20
-96.737499999999997
10
340.66250000000019
20
-84.237499999999983
42
-0.41421356237306034
10
341.41250000000008
20
-83.487500000000068
10
353.91250000000002
20
-83.487499999999983
42
-0.41421356237308116
0
LWPOLYLINE
5
132
100
AcDbEntity
8
0
100
AcDbPolyline
90
8
70
1
43
0.0
10
179.48750000000001
20
-40.625
10
191.98750000000001
20
-40.624999999999993
42
-0.41421356237304652
10
192.73750000000007
20
-41.375
10
192.73750000000007
20
-53.875
42
-0.41421356237311241
10
191.98750000000004
20
-54.625000000000021
10
179.48750000000001
20
-54.624999999999986
42
-0.41421356237306384
10
178.73750000000001
20
-53.875
10
178.73750000000001
20
-41.375
42
-0.41421356237306733
0
LWPOLYLINE
5
133
100
AcDbEntity
8
0
100
AcDbPolyline
90
8
70
1
43
0.0
10
335.61250000000007
20
-84.237499999999983
10
335.61250000000001
20
-96.737499999999997
42
-0.4142135623732407
10
334.86250000000007
20
-97.487500000000011
10
322.36250000000007
20
-97.487500000000026
42
-0.41421356237309503
10
321.61250000000001
20
-96.737499999999997
10
321.61250000000007
20
-84.237499999999983
42
-0.41421356237318524
10
322.36250000000007
20
-83.487500000000068
10
334.86249999999995
20
-83.487499999999983
42
-0.41421356237308116
0
LWPOLYLINE
5
134
100
AcDbEntity
8
0
100
AcDbPolyline
90
8
70
1
43
0.0
10
35.575000000000017
20
-79.47499999999998
10
35.575000000000003
20
-91.97499999999998
42
-0.41421356237312623
10
34.825000000000003
20
-92.724999999999994
10
22.324999999999999
20
-92.725000000000009
42
-0.41421356237310197
10
21.575000000000017
20
-91.97499999999998
10
21.575000000000003
20
-79.47499999999998
42
-0.41421356237310375
10
22.324999999999999
20
-78.724999999999994
10
34.825000000000003
20
-78.724999999999994
42
-0.41421356237308637
0
LWPOLYLINE
5
135
100
AcDbEntity
8
0
100
AcDbPolyline
90
8
70
1
43
0.0
10
206.27500000000001
20
-21.575000000000006
10
193.77500000000003
20
-21.575000000000024
42
0.41421356237308815
10
193.02500000000009
20
-22.324999999999999
10
193.02500000000009
20
-34.825000000000003
42
0.41421356237315576
10
193.77500000000001
20
-35.57500000000001
10
206.27500000000001
20
-35.57500000000001
42
0.41421356237307255
10
207.02500000000001
20
-34.825000000000003
10
207.02500000000003
20
-22.324999999999999
42
0.41421356237308637
0
LWPOLYLINE
5
136
100
AcDbEntity
8
0
100
AcDbPolyline
90
8
70
1
43
0.0
10
92.724999999999994
20
-34.825000000000003
10
92.724999999999994
20
-22.324999999999999
42
0.41421356237308116
10
91.974999999999994
20
-21.575000000000006
10
79.47499999999998
20
-21.575000000000003
42
0.41421356237310375
10
78.724999999999994
20
-22.324999999999999
10
78.724999999999994
20
-34.825000000000003
42
0.41421356237308637
10
79.47499999999998
20
-35.575000000000017
10
91.975000000000023
20
-35.575000000000003
42
0.41421356237311935
0
LWPOLYLINE
5
137
100
AcDbEntity
8
0
100
AcDbPolyline
90
8
70
1
43
0.0
10
76.34375
20
-79.47499999999998
42
-0.41421356237309853
10
77.09375
20
-78.724999999999994
10
91.974999999999994
20
-78.725000000000023
42
-0.41421356237310897
10
92.724999999999994
20
-79.47499999999998
10
92.724999999999994
20
-91.974999999999994
42
-0.41421356237308116
10
91.974999999999994
20
-92.724999999999994
10
77.09375
20
-92.725000000000051
42
-0.41421356237310197
10
76.343750000000028
20
-91.974999999999994
0
LWPOLYLINE
5
138
100
AcDbEntity
8
0
100
AcDbPolyline
90
8
70
1
43
0.0
10
216.55000000000001
20
-3.2750000000000012
10
216.55000000000001
20
-15.775000000000006
42
-0.41421356237306733
10
215.80000000000001
20
-16.525000000000002
10
203.30000000000001
20
-16.524999999999995
42
-0.41421356237306556
10
202.55000000000001
20
-15.775000000000006
10
202.55000000000001
20
-3.2750000000000012
42
-0.41421356237306667
10
203.30000000000001
20
-2.5250000000000048
10
215.80000000000001
20
-2.5250000000000226
42
-0.41421356237308943
0
LWPOLYLINE
5
139
100
AcDbEntity
8
0
100
AcDbPolyline
90
8
70
1
43
0.0
10
316.5625
20
-84.237499999999983
10
316.5625
20
-96.737499999999997
42
-0.41421356237306733
10
315.8125
20
-97.487500000000011
10
303.3125
20
-97.487499999999997
42
-0.41421356237306733
10
302.5625
20
-96.737499999999997
10
302.5625
20
-84.237499999999983
42
-0.41421356237310897
10
303.3125
20
-83.487500000000026
10
315.8125
20
-83.487500000000026
42
-0.41421356237310897
0
LWPOLYLINE
5
140
100
AcDbEntity
8
0
100
AcDbPolyline
90
8
70
1
43
0.0
10
121.29999999999998
20
-15.775000000000006
42
-0.41421356237308204
10
120.55
20
-16.525000000000006
10
108.05
20
-16.525000000000002
42
-0.41421356237308293
10
107.30000000000001
20
-15.775000000000006
10
107.30000000000001
20
-3.2750000000000012
42
-0.41421356237308293
10
108.05
20
-2.5249999999999995
10
120.55
20
-2.5249999999999932
42
-0.41421356237309398
10
121.30000000000001
20
-3.2750000000000012
0
LWPOLYLINE
5
141
100
AcDbEntity
8
0
100
AcDbPolyline
90
8
70
1
43
0.0
10
64.150000000000006
20
-15.775000000000006
42
-0.41421356237309764
10
63.399999999999999
20
-16.525000000000002
10
50.899999999999999
20
-16.525000000000006
42
-0.4142135623730942
10
50.150000000000013
20
-15.775000000000006
10
50.15000000000002
20
-3.2750000000000012
42
-0.41421356237309986
10
50.899999999999999
20
-2.5249999999999928
10
63.399999999999999
20
-2.5249999999999941
42
-0.41421356237307294
10
64.150000000000006
20
-3.2750000000000012
0
LWPOLYLINE
5
142
100
AcDbEntity
8
0
100
AcDbPolyline
90
8
70
1
43
0.0
10
3.2750000000000012
20
-16.525000000000002
42
-0.4142135623730942
10
2.5249999999999999
20
-15.775000000000004
10
2.5250000000000004
20
-3.2750000000000012
42
-0.41421356237309531
10
3.2750000000000012
20
-2.5249999999999999
10
15.775000000000006
20
-2.5249999999999999
42
-0.41421356237309137
10
16.525000000000002
20
-3.2750000000000012
10
16.525000000000002
20
-15.775000000000006
42
-0.41421356237309331
10
15.775000000000006
20
-16.524999999999999
0
LWPOLYLINE
5
143
100
AcDbEntity
8
0
100
AcDbPolyline
90
8
70
1
43
0.0
10
116.53749999999999
20
-91.974999999999994
42
-0.41421356237308116
10
115.78749999999999
20
-92.725000000000023
10
100.90625000000001
20
-92.724999999999966
42
-0.41421356237309503
10
100.15625
20
-91.974999999999994
10
100.15625
20
-79.47499999999998
42
-0.41421356237309159
10
100.90625000000001
20
-78.725000000000023
10
115.78749999999999
20
-78.725000000000023
42
-0.41421356237308815
10
116.53750000000001
20
-79.47499999999998
0
LWPOLYLINE
5
144
100
AcDbEntity
8
0
100
AcDbPolyline
90
8
70
1
43
0.0
10
89
20
-2.5249999999999959
42
0.41421356237312756
10
88.250000000000014
20
-3.2750000000000012
10
88.250000000000014
20
-15.775000000000006
42
0.41421356237308116
10
89
20
-16.525000000000002
10
101.5
20
-16.524999999999999
42
0.41421356237311585
10
102.25000000000001
20
-15.775000000000006
10
102.25000000000003
20
-3.2750000000000012
42
0.41421356237311285
10
101.5
20
-2.5250000000000012
0
LWPOLYLINE
5
145
100
AcDbEntity
8
0
100
AcDbPolyline
90
8
70
1
43
0.0
10
183.5
20
-3.2750000000000012
10
183.49999999999997
20
-15.775000000000006
42
0.41421356237308637
10
184.25
20
-16.524999999999995
10
196.75
20
-16.524999999999984
42
0.41421356237308982
10
197.5
20
-15.775000000000006
10
197.5
20
-3.2750000000000012
42
0.41421356237306667
10
196.75
20
-2.5250000000000048
10
184.25
20
-2.5250000000000226
42
0.41421356237308943
0
LWPOLYLINE
5
146
100
AcDbEntity
8
0
100
AcDbPolyline
90
8
70
1
43
0.0
10
165.19999999999999
20
-2.5250000000000048
10
177.69999999999999
20
-2.5250000000000226
42
-0.41421356237308943
10
178.44999999999999
20
-3.2750000000000012
10
178.44999999999999
20
-15.775000000000006
42
-0.41421356237306733
10
177.69999999999999
20
-16.525000000000002
10
165.19999999999999
20
-16.524999999999995
42
-0.41421356237306556
10
164.44999999999999
20
-15.775000000000006
10
164.44999999999999
20
-3.2750000000000012
42
-0.41421356237306667
0
LWPOLYLINE
5
147
100
AcDbEntity
8
0
100
AcDbPolyline
90
8
70
1
43
0.0
10
34.825000000000003
20
-16.525000000000002
42
0.41421356237308815
10
35.57500000000001
20
-15.775000000000006
10
35.57500000000001
20
-3.2750000000000012
42
0.41421356237308443
10
34.825000000000003
20
-2.5249999999999968
10
22.324999999999999
20
-2.5249999999999968
42
0.41421356237309093
10
21.57500000000001
20
-3.2750000000000012
10
21.575000000000006
20
-15.775000000000006
42
0.41421356237310114
10
22.324999999999999
20
-16.525000000000002
0
LWPOLYLINE
5
148
100
AcDbEntity
8
0
100
AcDbPolyline
90
8
70
1
43
0.0
10
158.65000000000003
20
-16.525000000000002
10
146.15000000000003
20
-16.525000000000002
42
-0.41421356237308982
10
145.40000000000006
20
-15.775000000000006
10
145.40000000000003
20
-3.2750000000000012
42
-0.41421356237308293
10
146.15000000000006
20
-2.5249999999999995
10
158.65000000000003
20
-2.5250000000000119
42
-0.4142135623731007
10
159.40000000000001
20
-3.2750000000000012
10
159.40000000000001
20
-15.775000000000006
42
-0.41421356237310375
0
LWPOLYLINE
5
149
100
AcDbEntity
8
0
100
AcDbPolyline
90
8
70
1
43
0.0
10
22.324999999999999
20
-21.575000000000006
42
0.41421356237309159
10
21.575000000000006
20
-22.324999999999999
10
21.575000000000006
20
-34.825000000000003
42
0.41421356237309331
10
22.324999999999999
20
-35.57500000000001
10
34.825000000000003
20
-35.57500000000001
42
0.41421356237308815
10
35.57500000000001
20
-34.825000000000003
10
35.575000000000017
20
-22.324999999999999
42
0.41421356237308982
10
34.825000000000003
20
-21.57500000000001
0
LWPOLYLINE
5
150
100
AcDbEntity
8
0
100
AcDbPolyline
90
8
70
1
43
0.0
10
140.34999999999999
20
-15.775000000000006
10
140.34999999999999
20
-3.2750000000000012
42
0.41421356237310242
10
139.60000000000002
20
-2.5250000000000035
10
127.10000000000001
20
-2.5250000000000168
42
0.41421356237309176
10
126.35000000000005
20
-3.2750000000000012
10
126.35000000000005
20
-15.775000000000006
42
0.41421356237312279
10
127.10000000000001
20
-16.525000000000002
10
139.60000000000002
20
-16.524999999999999
42
0.41421356237310197
0
LWPOLYLINE
5
151
100
AcDbEntity
8
0
100
AcDbPolyline
90
8
70
1
43
0.0
10
82.450000000000031
20
-16.525000000000002
10
69.950000000000017
20
-16.525000000000002
42
-0.41421356237310281
10
69.200000000000003
20
-15.775000000000006
10
69.200000000000003
20
-3.2750000000000012
42
-0.41421356237309853
10
69.950000000000017
20
-2.5250000000000021
10
82.450000000000031
20
-2.5250000000000119
42
-0.4142135623731007
10
83.200000000000003
20
-3.2750000000000012
10
83.200000000000003
20
-15.775000000000006
42
-0.41421356237309159
0
LWPOLYLINE
5
152
100
AcDbEntity
8
0
100
AcDbPolyline
90
8
70
1
43
0.0
10
16.525000000000002
20
-22.324999999999999
42
0.41421356237308721
10
15.775000000000006
20
-21.57500000000001
10
3.2750000000000012
20
-21.575000000000006
42
0.41421356237309137
10
2.5250000000000017
20
-22.324999999999999
10
2.5249999999999968
20
-34.825000000000003
42
0.41421356237309437
10
3.2750000000000012
20
-35.57500000000001
10
15.775000000000006
20
-35.57500000000001
42
0.41421356237309243
10
16.525000000000002
20
-34.825000000000003
0
LWPOLYLINE
5
153
100
AcDbEntity
8
0
100
AcDbPolyline
90
8
70
1
43
0.0
10
241.40000000000001
20
-2.5250000000000083
10
253.90000000000001
20
-2.525000000000019
42
-0.41421356237304929
10
254.65000000000003
20
-3.2750000000000012
10
254.65000000000006
20
-15.775000000000006
42
-0.41421356237314361
10
253.90000000000001
20
-16.524999999999974
10
241.40000000000001
20
-16.525000000000013
42
-0.41421356237307255
10
240.65000000000001
20
-15.775000000000006
10
240.65000000000001
20
-3.2750000000000012
42
-0.41421356237309531
0
LWPOLYLINE
5
154
100
AcDbEntity
8
0
100
AcDbPolyline
90
8
70
1
43
0.0
10
345.42500000000013
20
-3.2750000000000012
10
345.4249999999999
20
-15.775000000000006
42
0.41421356237316265
10
346.17500000000001
20
-16.525000000000013
10
358.67500000000001
20
-16.525000000000006
42
0.4142135623730846
10
359.42500000000001
20
-15.775000000000006
10
359.42500000000001
20
-3.2750000000000012
42
0.41421356237308704
10
358.67500000000001
20
-2.5249999999999839
10
346.17500000000001
20
-2.5249999999999808
42
0.41421356237303647
0
LWPOLYLINE
5
155
100
AcDbEntity
8
0
100
AcDbPolyline
90
8
70
1
43
0.0
10
221.59999999999999
20
-3.2750000000000012
10
221.59999999999999
20
-15.775000000000006
42
0.41421356237309331
10
222.34999999999999
20
-16.524999999999995
10
234.84999999999999
20
-16.524999999999991
42
0.41421356237305079
10
235.60000000000002
20
-15.775000000000006
10
235.60000000000005
20
-3.2750000000000012
42
0.41421356237314538
10
234.84999999999999
20
-2.5250000000000301
10
222.34999999999999
20
-2.5250000000000061
42
0.41421356237309592
0
LWPOLYLINE
5
156
100
AcDbEntity
8
0
100
AcDbPolyline
90
8
70
1
43
0.0
10
259.70000000000005
20
-15.775000000000006
10
259.70000000000005
20
-3.2750000000000012
42
-0.41421356237306667
10
260.45000000000005
20
-2.5250000000000048
10
272.95000000000005
20
-2.5250000000000283
42
-0.41421356237307339
10
273.69999999999999
20
-3.2750000000000012
10
273.69999999999999
20
-15.775000000000006
42
-0.41421356237311674
10
272.95000000000005
20
-16.525000000000013
10
260.45000000000005
20
-16.524999999999974
42
-0.41421356237308554
0
LWPOLYLINE
5
157
100
AcDbEntity
8
0
100
AcDbPolyline
90
8
70
1
43
0.0
10
65.78125
20
-73.674999999999983
10
53.28125
20
-73.675000000000054
42
-0.41421356237310542
10
52.531250000000007
20
-72.925000000000026
10
52.531250000000007
20
-60.425000000000004
42
-0.41421356237309159
10
53.28125
20
-59.675000000000004
10
65.78125
20
-59.675000000000004
42
-0.41421356237308116
10
66.53125
20
-60.425000000000004
10
66.531250000000014
20
-72.925000000000026
42
-0.41421356237309503
0
LWPOLYLINE
5
158
100
AcDbEntity
8
0
100
AcDbPolyline
90
8
70
1
43
0.0
10
292.75
20
-15.775000000000006
10
292.75
20
-3.2750000000000012
42
0.41421356237309531
10
292
20
-2.5250000000000083
10
279.5
20
-2.5250000000000172
42
0.41421356237304996
10
278.75
20
-3.2750000000000012
10
278.75000000000006
20
-15.775000000000006
42
0.41421356237311674
10
279.5
20
-16.525000000000013
10
292
20
-16.525000000000002
42
0.41421356237309681
0
LWPOLYLINE
5
159
100
AcDbEntity
8
0
100
AcDbPolyline
90
8
70
1
43
0.0
10
125.3125
20
-73.675000000000054
42
0.4142135623730846
10
126.06250000000001
20
-72.925000000000026
10
126.0625
20
-60.425000000000004
42
0.41421356237308116
10
125.3125
20
-59.675000000000004
10
112.8125
20
-59.675000000000004
42
0.4142135623730846
10
112.0625
20
-60.425000000000004
10
112.0625
20
-72.925000000000026
42
0.41421356237310542
10
112.8125
20
-73.674999999999983
0
LWPOLYLINE
5
160
100
AcDbEntity
8
0
100
AcDbPolyline
90
8
70
1
43
0.0
10
116.82500000000003
20
-34.825000000000003
42
0.4142135623730846
10
117.575
20
-35.575000000000017
10
130.07499999999999
20
-35.57500000000001
42
0.41421356237310025
10
130.82499999999999
20
-34.825000000000003
10
130.82499999999999
20
-22.324999999999999
42
0.41421356237308116
10
130.07499999999999
20
-21.575000000000006
10
117.575
20
-21.575000000000017
42
0.41421356237309159
10
116.82500000000005
20
-22.324999999999999
0
LWPOLYLINE
5
161
100
AcDbEntity
8
0
100
AcDbPolyline
90
8
70
1
43
0.0
10
188.26249999999999
20
-72.925000000000026
42
0.41421356237310542
10
189.01250000000005
20
-73.675000000000054
10
201.51249999999999
20
-73.67500000000004
42
0.41421356237307422
10
202.26249999999999
20
-72.925000000000026
10
202.26249999999999
20
-60.425000000000004
42
0.41421356237303608
10
201.51250000000002
20
-59.675000000000011
10
189.01250000000002
20
-59.674999999999983
42
0.41421356237303608
10
188.26249999999999
20
-60.425000000000004
0
LWPOLYLINE
5
162
100
AcDbEntity
8
0
100
AcDbPolyline
90
8
70
1
43
0.0
10
87.962500000000006
20
-72.925000000000026
10
87.962500000000006
20
-60.425000000000004
42
0.4142135623730846
10
87.212500000000006
20
-59.675000000000004
10
74.712500000000006
20
-59.675000000000004
42
0.41421356237308116
10
73.962500000000006
20
-60.425000000000004
10
73.962500000000006
20
-72.925000000000026
42
0.41421356237309503
10
74.712500000000006
20
-73.674999999999983
10
87.212499999999991
20
-73.675000000000068
42
0.41421356237307078
0
LWPOLYLINE
5
163
100
AcDbEntity
8
0
100
AcDbPolyline
90
8
70
1
43
0.0
10
145.11250000000004
20
-72.925000000000026
42
-0.4142135623730846
10
144.36250000000001
20
-73.674999999999983
10
131.86250000000001
20
-73.674999999999983
42
-0.41421356237309503
10
131.11250000000001
20
-72.925000000000026
10
131.11250000000001
20
-60.425000000000004
42
-0.4142135623730846
10
131.86250000000001
20
-59.675000000000004
10
144.36250000000001
20
-59.674999999999997
42
-0.41421356237308116
10
145.11250000000001
20
-60.425000000000004
0
LWPOLYLINE
5
164
100
AcDbEntity
8
0
100
AcDbPolyline
90
8
70
1
43
0.0
10
239.61250000000007
20
-59.675000000000011
10
227.11250000000007
20
-59.674999999999983
42
0.41421356237303608
10
226.36250000000004
20
-60.425000000000004
10
226.36250000000004
20
-72.925000000000026
42
0.41421356237306384
10
227.11250000000007
20
-73.674999999999983
10
239.61250000000007
20
-73.675000000000054
42
0.41421356237300833
10
240.36250000000001
20
-72.925000000000026
10
240.36250000000001
20
-60.425000000000004
42
0.41421356237311241
0
LWPOLYLINE
5
165
100
AcDbEntity
8
0
100
AcDbPolyline
90
8
70
1
43
0.0
10
277.71249999999998
20
-59.675000000000011
10
265.21249999999998
20
-59.675000000000018
42
0.41421356237306384
10
264.46249999999998
20
-60.425000000000004
10
264.46250000000003
20
-72.925000000000026
42
0.41421356237309159
10
265.21250000000003
20
-73.674999999999983
10
277.71249999999998
20
-73.67500000000004
42
0.41421356237307422
10
278.46249999999998
20
-72.925000000000026
10
278.46249999999998
20
-60.425000000000004
42
0.41421356237303608
0
LWPOLYLINE
5
166
100
AcDbEntity
8
0
100
AcDbPolyline
90
8
70
1
43
0.0
10
208.06250000000011
20
-73.675000000000011
42
-0.41421356237307422
10
207.31250000000003
20
-72.925000000000026
10
207.31250000000003
20
-60.425000000000004
42
-0.41421356237314705
10
208.06250000000009
20
-59.675000000000004
10
220.56250000000009
20
-59.675000000000004
42
-0.41421356237309853
10
221.3125
20
-60.425000000000004
10
221.3125
20
-72.925000000000026
42
-0.41421356237310197
10
220.56250000000009
20
-73.674999999999983
0
LWPOLYLINE
5
167
100
AcDbEntity
8
0
100
AcDbPolyline
90
8
70
1
43
0.0
10
2.5249999999999968
20
-60.425000000000004
10
2.5249999999999941
20
-72.925000000000026
42
0.4142135623731007
10
3.2750000000000012
20
-73.675000000000054
10
15.775000000000006
20
-73.675000000000054
42
0.41421356237309681
10
16.524999999999995
20
-72.925000000000026
10
16.525000000000006
20
-60.425000000000004
42
0.41421356237308815
10
15.775000000000006
20
-59.675000000000004
10
3.2750000000000012
20
-59.675000000000004
42
0.4142135623730745
0
LWPOLYLINE
5
168
100
AcDbEntity
8
0
100
AcDbPolyline
90
8
70
1
43
0.0
10
163.41249999999999
20
-59.674999999999997
42
-0.41421356237304652
10
164.16250000000005
20
-60.425000000000004
10
164.16249999999997
20
-72.925000000000026
42
-0.41421356237307422
10
163.41249999999999
20
-73.675000000000054
10
150.91249999999999
20
-73.674999999999983
42
-0.41421356237308815
10
150.16249999999999
20
-72.925000000000026
10
150.16249999999999
20
-60.425000000000004
42
-0.41421356237309503
10
150.91250000000005
20
-59.675000000000018
0
LWPOLYLINE
5
169
100
AcDbEntity
8
0
100
AcDbPolyline
90
8
70
1
43
0.0
10
182.46250000000001
20
-59.674999999999976
10
169.96250000000001
20
-59.675000000000018
42
0.41421356237306384
10
169.21250000000001
20
-60.425000000000004
10
169.21250000000001
20
-72.925000000000026
42
0.41421356237314705
10
169.96250000000003
20
-73.674999999999983
10
182.46250000000001
20
-73.675000000000054
42
0.41421356237303958
10
183.21250000000003
20
-72.925000000000026
10
183.21250000000003
20
-60.425000000000004
42
0.41421356237309853
0
LWPOLYLINE
5
170
100
AcDbEntity
8
0
100
AcDbPolyline
90
8
70
1
43
0.0
10
322.36250000000007
20
-64.4375
10
334.86250000000007
20
-64.437500000000014
42
-0.41421356237319218
10
335.61250000000007
20
-65.1875
10
335.61250000000007
20
-77.6875
42
-0.41421356237311935
10
334.86250000000007
20
-78.437499999999972
10
322.36250000000007
20
-78.437500000000014
42
-0.41421356237308815
10
321.61250000000001
20
-77.6875
10
321.61250000000001
20
-65.1875
42
-0.41421356237308116
0
LWPOLYLINE
5
171
100
AcDbEntity
8
0
100
AcDbPolyline
90
8
70
1
43
0.0
10
3.2750000000000012
20
-92.724999999999994
10
15.775000000000006
20
-92.724999999999994
42
0.41421356237307078
10
16.525000000000006
20
-91.975000000000037
10
16.525000000000009
20
-79.47499999999998
42
0.41421356237309936
10
15.775000000000006
20
-78.724999999999994
10
3.2750000000000012
20
-78.724999999999994
42
0.41421356237309481
10
2.5249999999999928
20
-79.47499999999998
10
2.5249999999999959
20
-91.974999999999994
42
0.41421356237312756
0
LWPOLYLINE
5
172
100
AcDbEntity
8
0
100
AcDbPolyline
90
8
70
1
43
0.0
10
136.85000021537778
20
-78.475001632690379
10
136.85000021537778
20
-91.975001632690407
42
-0.41421356237311585
10
136.1000002153778
20
-92.725001632690351
10
125.84375021537781
20
-92.725001632690351
42
-0.41421356237307422
10
125.09375021537785
20
-91.975001632690407
10
125.09375021537785
20
-78.475001632690379
42
-0.4142135623730846
10
125.84375021537781
20
-77.725001632690379
10
136.1000002153778
20
-77.725001632690407
42
-0.41421356237310197
0
LWPOLYLINE
5
173
100
AcDbEntity
8
0
100
AcDbPolyline
90
18
70
1
43
0.0
10
2.6584286762966869
20
-101.81125705907077
10
176.94742719546292
20
-101.81126859378664
42
0.41421356237307422
10
177.69742719546286
20
-101.06126859378662
10
177.69742719546284
20
-100.81498799683287
42
-0.99999999999999989
10
184.19742719546289
20
-100.81498799683294
10
184.19742719546269
20
-101.11908599378665
42
0.41421356237312279
10
184.94742719546281
20
-101.8690859937867
10
358.95628181710885
20
-101.86907445907104
42
0.16403955425195044
10
359.38564521975854
20
-101.65623179998471
10
363.80056942798552
20
-97.241307591757632
42
0.14789699522348962
10
364.00557580281088
20
-96.858558973344458
10
364.00557198986741
20
2.000505436535196
42
0.41421356237305729
10
363.25557198986769
20
2.7505054365349242
10
-1.544362655416833
20
2.750505436535029
42
0.41421356237308715
10
-2.2943626554167071
20
2.0005054365351604
10
-2.2943588424736552
20
-96.858488234267455
42
0.14792157102959255
10
-2.089338273909624
20
-97.241307591753937
10
2.2755859343207883
20
-101.60623179998437
42
0.14792969508320722
0
LWPOLYLINE
5
174
100
AcDbEntity
8
0
100
AcDbPolyline
90
8
70
1
43
0.0
10
246.16250000000002
20
-73.67500000000004
10
258.66250000000002
20
-73.67500000000004
42
0.41421356237307422
10
259.41250000000002
20
-72.925000000000026
10
259.41250000000002
20
-60.425000000000004
42
0.41421356237303608
10
258.66250000000002
20
-59.675000000000011
10
246.16250000000002
20
-59.675000000000011
42
0.41421356237309503
10
245.41250000000002
20
-60.425000000000004
10
245.41250000000002
20
-72.925000000000026
42
0.41421356237309853
0
LWPOLYLINE
5
175
100
AcDbEntity
8
0
100
AcDbPolyline
90
8
70
1
43
0.0
10
346.17500000000007
20
-59.675000000000011
10
358.67500000000001
20
-59.674999999999983
42
-0.41421356237309159
10
359.42500000000001
20
-60.425000000000004
10
359.42500000000001
20
-72.925000000000026
42
-0.41421356237311241
10
358.67500000000001
20
-73.67499999999994
10
346.17500000000001
20
-73.675000000000054
42
-0.41421356237303608
10
345.42500000000013
20
-72.925000000000026
10
345.42499999999973
20
-60.425000000000004
42
-0.41421356237315055
0
LWPOLYLINE
5
176
100
AcDbEntity
8
0
100
AcDbPolyline
90
8
70
1
43
0.0
10
291.40625
20
-73.675000000000011
42
-0.41421356237309159
10
290.65625
20
-72.925000000000026
10
290.65625
20
-60.425000000000004
42
-0.41421356237309503
10
291.40625
20
-59.675000000000011
10
303.90625
20
-59.675000000000018
42
-0.41421356237304996
10
304.65625
20
-60.425000000000004
10
304.65625
20
-72.925000000000026
42
-0.41421356237313667
10
303.90625
20
-73.67500000000004
0
LWPOLYLINE
5
177
100
AcDbEntity
8
0
100
AcDbPolyline
90
9
70
1
43
0.0
10
70.543750000000003
20
-40.624999999999993
42
-0.41421356237309853
10
71.293750000000003
20
-41.375
10
71.293750000000003
20
-53.875
42
-0.41421356237311935
10
70.543750000000003
20
-54.624999999999993
10
53.28125
20
-54.625
42
-0.41421356237309853
10
52.531250000000007
20
-53.875
10
52.531250000000007
20
-41.375
42
-0.41421356237309853
10
53.28125
20
-40.625
10
53.589602784895114
20
-40.625
0
LWPOLYLINE
5
178
100
AcDbEntity
8
0
100
AcDbPolyline
90
8
70
1
43
0.0
10
197.50000021537772
20
-91.975001632690407
42
-0.41421356237309503
10
196.75000021537784
20
-92.725001632690436
10
172.34375021537772
20
-92.725001632690422
42
-0.41421356237306034
10
171.59375021537784
20
-91.975001632690407
10
171.59375021537781
20
-79.475001632690379
42
-0.41421356237307078
10
172.34375021537772
20
-78.725001632690379
10
196.75000021537784
20
-78.725001632690365
42
-0.41421356237311935
10
197.50000021537772
20
-79.475001632690379
0
LWPOLYLINE
5
179
100
AcDbEntity
8
0
100
AcDbPolyline
90
20
70
1
43
0.0
10
297.80000021537768
20
-15.775001632690396
10
297.80000021537774
20
-3.2750016326903975
42
-0.41421356237304979
10
298.55000021537774
20
-2.5250016326903975
10
330.10000021537786
20
-2.5250016326903713
42
-0.41421356237303608
10
330.85000021537775
20
-3.2750016326903908
10
330.8500002153778
20
-15.775001632690389
42
-0.41421356237315921
10
330.10000021537786
20
-16.525001632690358
10
329.76300021537782
20
-16.525001632690383
10
329.76300021537782
20
-17.775001632690387
42
-0.41421356237316359
10
329.01300021537787
20
-18.525001632690369
10
323.51300021537776
20
-18.525001632690454
42
-0.41421356237316526
10
322.76300021537787
20
-17.775001632690387
10
322.76300021537787
20
-16.525001632690383
10
305.88700021537767
20
-16.525001632690383
10
305.88700021537767
20
-17.775001632690387
42
-0.41421356237306817
10
305.13700021537767
20
-18.52500163269038
10
299.63700021537767
20
-18.525001632690355
42
-0.41421356237311241
10
298.88700021537767
20
-17.775001632690387
10
298.88700021537767
20
-16.525001632690387
10
298.55000021537774
20
-16.525001632690408
42
-0.41421356237315837
0
LWPOLYLINE
5
180
100
AcDbEntity
8
0
100
AcDbPolyline
90
8
70
1
43
0.0
10
231.34375021537775
20
-92.725001632690351
10
225.8437502153777
20
-92.725001632690351
42
-0.41421356237314361
10
225.09375021537775
20
-91.975001632690407
10
225.09375021537772
20
-78.475001632690379
42
-0.41421356237307771
10
225.8437502153777
20
-77.725001632690379
10
231.34375021537772
20
-77.725001632690407
42
-0.41421356237307422
10
232.0937502153777
20
-78.475001632690379
10
232.0937502153777
20
-91.975001632690407
42
-0.41421356237314361
0
LWPOLYLINE
5
181
100
AcDbEntity
8
0
100
AcDbPolyline
90
13
70
1
43
0.0
10
292.75000021537772
20
-91.975001632690407
42
-0.41421356237316442
10
292.00000021537767
20
-92.725001632690379
10
246.16250021537775
20
-92.725001632690436
10
244.90000021537776
20
-92.725001632690422
42
-0.41421356237307422
10
244.15000021537776
20
-91.975001632690407
10
244.15000021537776
20
-90.975001632690407
10
244.15000021537776
20
-78.475001632690407
42
-0.41421356237313323
10
244.90000021537784
20
-77.725001632690422
10
250.40000021537776
20
-77.725001632690464
42
-0.41421356237314017
10
251.15000021537776
20
-78.475001632690351
10
251.15000021537776
20
-78.725001632690407
10
292.00000021537767
20
-78.725001632690365
42
-0.41421356237307422
10
292.75000021537767
20
-79.475001632690379
0
ENDSEC
0
SECTION
2
OBJECTS
0
DICTIONARY
5
C
100
AcDbDictionary
3
ACAD_GROUP
350
D
3
ACAD_MLINESTYLE
350
17
0
DICTIONARY
5
D
100
AcDbDictionary
0
DICTIONARY
5
1A
330
C
100
AcDbDictionary
0
DICTIONARY
5
17
100
AcDbDictionary
0
ENDSEC
0
EOF
