0
SECTION
2
HEADER
9
$INSUNITS
70
4
9
$ACADVER
1
AC1014
9
$HANDSEED
5
FFFF
0
ENDSEC
0
SECTION
2
TABLES
0
TABLE
2
VPORT
5
8
100
AcDbSymbolTable
0
ENDTAB
0
TABLE
2
LTYPE
5
5
100
AcDbSymbolTable
0
LTYPE
5
14
100
AcDbSymbolTableRecord
100
AcDbLinetypeTableRecord
2
BYBLOCK
70
0
0
LTYPE
5
15
100
AcDbSymbolTableRecord
100
AcDbLinetypeTableRecord
2
BYLAYER
70
0
0
ENDTAB
0
TABLE
2
LAYER
5
2
100
AcDbSymbolTable
70
2
0
LAYER
5
50
100
AcDbSymbolTableRecord
100
AcDbLayerTableRecord
2
0
70
0
6
CONTINUOUS
0
ENDTAB
0
TABLE
2
STYLE
5
3
100
AcDbSymbolTable
70
1
0
STYLE
5
11
100
AcDbSymbolTableRecord
100
AcDbTextStyleTableRecord
2
STANDARD
70
0
0
ENDTAB
0
TABLE
2
VIEW
5
6
100
AcDbSymbolTable
70
0
0
ENDTAB
0
TABLE
2
UCS
5
7
100
AcDbSymbolTable
70
0
0
ENDTAB
0
TABLE
2
APPID
5
9
100
AcDbSymbolTable
70
2
0
APPID
5
12
100
AcDbSymbolTableRecord
100
AcDbRegAppTableRecord
2
ACAD
70
0
0
ENDTAB
0
TABLE
2
DIMSTYLE
5
A
100
AcDbSymbolTable
70
1
0
ENDTAB
0
TABLE
2
BLOCK_RECORD
5
1
100
AcDbSymbolTable
70
1
0
BLOCK_RECORD
5
1F
100
AcDbSymbolTableRecord
100
AcDbBlockTableRecord
2
*MODEL_SPACE
0
BLOCK_RECORD
5
1B
100
AcDbSymbolTableRecord
100
AcDbBlockTableRecord
2
*PAPER_SPACE
0
ENDTAB
0
ENDSEC
0
SECTION
2
BLOCKS
0
BLOCK
5
20
100
AcDbEntity
100
AcDbBlockBegin
2
*MODEL_SPACE
0
ENDBLK
5
21
100
AcDbEntity
100
AcDbBlockEnd
0
BLOCK
5
1C
100
AcDbEntity
100
AcDbBlockBegin
2
*PAPER_SPACE
0
ENDBLK
5
1D
100
AcDbEntity
100
AcDbBlockEnd
0
ENDSEC
0
SECTION
2
ENTITIES
0
LWPOLYLINE
5
100
100
AcDbEntity
8
0
100
AcDbPolyline
90
8
70
1
43
0.0
10
202.55000000000001
20
-3.2750000000000012
42
-0.41421356237306667
10
203.30000000000001
20
-2.5250000000000048
10
215.80000000000001
20
-2.5250000000000226
42
-0.41421356237308943
10
216.55000000000001
20
-3.2750000000000012
10
216.55000000000001
20
-15.775000000000006
42
-0.41421356237306733
10
215.80000000000001
20
-16.525000000000006
10
203.30000000000001
20
-16.524999999999995
42
-0.41421356237306556
10
202.55000000000001
20
-15.775000000000006
0
LWPOLYLINE
5
101
100
AcDbEntity
8
0
100
AcDbPolyline
90
8
70
1
43
0.0
10
83.744250000000022
20
-60.675000000000033
42
-0.41421356237309853
10
84.49424999999998
20
-61.424999999999997
10
84.494250000000051
20
-74.924999999999983
42
-0.41421356237309503
10
83.744250000000008
20
-75.674999999999983
10
78.24424999999998
20
-75.674999999999983
42
-0.41421356237309853
10
77.494249999999994
20
-74.924999999999983
10
77.494249999999994
20
-61.424999999999997
42
-0.41421356237309159
10
78.24424999999998
20
-60.674999999999997
0
LWPOLYLINE
5
102
100
AcDbEntity
8
0
100
AcDbPolyline
90
8
70
1
43
0.0
10
22.324999999999999
20
-73.675000000000054
10
34.825000000000003
20
-73.675000000000068
42
0.4142135623730846
10
35.57500000000001
20
-72.925000000000026
10
35.575000000000003
20
-60.425000000000004
42
0.41421356237307771
10
34.825000000000003
20
-59.675000000000011
10
22.324999999999999
20
-59.675000000000011
42
0.41421356237308116
10
21.575000000000003
20
-60.425000000000004
10
21.574999999999996
20
-72.925000000000026
42
0.41421356237310542
0
LWPOLYLINE
5
103
100
AcDbEntity
8
0
100
AcDbPolyline
90
8
70
1
43
0.0
10
75.306250000000006
20
-59.675000000000004
42
-0.41421356237308116
10
76.056250000000006
20
-60.425000000000004
10
76.05625000000002
20
-72.925000000000026
42
-0.41421356237309503
10
75.306250000000006
20
-73.674999999999983
10
62.806250000000013
20
-73.675000000000054
42
-0.41421356237311935
10
62.056250000000013
20
-72.925000000000026
10
62.056250000000006
20
-60.425000000000004
42
-0.41421356237309853
10
62.806250000000013
20
-59.675000000000004
0
LWPOLYLINE
5
104
100
AcDbEntity
8
0
100
AcDbPolyline
90
8
70
1
43
0.0
10
53.618250000000003
20
-74.924999999999983
10
53.618250000000003
20
-61.424999999999997
42
-0.41421356237308116
10
54.368250000000003
20
-60.674999999999997
10
59.868250000000003
20
-60.675000000000011
42
-0.41421356237309853
10
60.618250000000003
20
-61.424999999999997
10
60.618250000000003
20
-74.924999999999983
42
-0.41421356237311585
10
59.868250000000003
20
-75.674999999999983
10
54.368250000000003
20
-75.674999999999997
42
-0.41421356237309853
0
LWPOLYLINE
5
105
100
AcDbEntity
8
0
100
AcDbPolyline
90
8
70
1
43
0.0
10
126.0625
20
-60.425000000000004
42
0.41421356237308116
10
125.3125
20
-59.675000000000004
10
112.8125
20
-59.675000000000004
42
0.4142135623730846
10
112.0625
20
-60.425000000000004
10
112.0625
20
-72.925000000000026
42
0.41421356237309503
10
112.8125
20
-73.675000000000054
10
125.3125
20
-73.675000000000054
42
0.4142135623730846
10
126.06250000000001
20
-72.925000000000026
0
LWPOLYLINE
5
106
100
AcDbEntity
8
0
100
AcDbPolyline
90
8
70
1
43
0.0
10
3.2750000000000012
20
-59.675000000000004
42
0.4142135623730745
10
2.5249999999999968
20
-60.425000000000004
10
2.5249999999999941
20
-72.925000000000026
42
0.4142135623731007
10
3.2750000000000012
20
-73.675000000000054
10
15.775000000000006
20
-73.675000000000054
42
0.41421356237310197
10
16.524999999999991
20
-72.925000000000026
10
16.525000000000006
20
-60.425000000000004
42
0.41421356237308815
10
15.775000000000006
20
-59.675000000000004
0
LWPOLYLINE
5
107
100
AcDbEntity
8
0
100
AcDbPolyline
90
8
70
1
43
0.0
10
93.012500000000017
20
-60.425000000000004
42
-0.4142135623730846
10
93.762500000000003
20
-59.675000000000004
10
106.26249999999999
20
-59.675000000000004
42
-0.41421356237306384
10
107.01250000000002
20
-60.425000000000004
10
107.01250000000003
20
-72.925000000000026
42
-0.41421356237311241
10
106.2625
20
-73.67500000000004
10
93.762500000000003
20
-73.674999999999983
42
-0.41421356237309503
10
93.012500000000017
20
-72.925000000000026
0
LWPOLYLINE
5
108
100
AcDbEntity
8
0
100
AcDbPolyline
90
8
70
1
43
0.0
10
145.11250000000001
20
-72.925000000000026
10
145.11250000000001
20
-60.425000000000004
42
0.41421356237308116
10
144.36250000000001
20
-59.675000000000004
10
131.86250000000001
20
-59.675000000000004
42
0.4142135623730846
10
131.11250000000001
20
-60.425000000000004
10
131.11250000000001
20
-72.925000000000026
42
0.41421356237310542
10
131.86250000000001
20
-73.674999999999983
10
144.36250000000001
20
-73.675000000000054
42
0.4142135623730846
0
LWPOLYLINE
5
109
100
AcDbEntity
8
0
100
AcDbPolyline
90
8
70
1
43
0.0
10
345.42500000000013
20
-53.875
10
345.4249999999999
20
-41.375
42
-0.41421356237316442
10
346.17500000000001
20
-40.624999999999993
10
358.67499999999995
20
-40.625000000000007
42
-0.41421356237308116
10
359.42500000000001
20
-41.375
10
359.42500000000001
20
-53.875
42
-0.41421356237311935
10
358.67500000000001
20
-54.62499999999995
10
346.17500000000001
20
-54.625000000000021
42
-0.41421356237303608
0
LWPOLYLINE
5
110
100
AcDbEntity
8
0
100
AcDbPolyline
90
8
70
1
43
0.0
10
189.01250000000002
20
-73.674999999999983
42
-0.41421356237306384
10
188.26249999999999
20
-72.925000000000026
10
188.26249999999999
20
-60.425000000000004
42
-0.41421356237309853
10
189.01250000000002
20
-59.674999999999976
10
201.51250000000002
20
-59.675000000000004
42
-0.41421356237307078
10
202.26249999999999
20
-60.425000000000004
10
202.26249999999999
20
-72.925000000000026
42
-0.41421356237310197
10
201.51250000000002
20
-73.674999999999983
0
LWPOLYLINE
5
111
100
AcDbEntity
8
0
100
AcDbPolyline
90
8
70
1
43
0.0
10
164.16249999999997
20
-60.425000000000004
42
0.41421356237303608
10
163.41249999999999
20
-59.675000000000011
10
150.91249999999999
20
-59.675000000000011
42
0.41421356237308116
10
150.16250000000011
20
-60.425000000000004
10
150.16250000000011
20
-72.925000000000026
42
0.41421356237310197
10
150.91249999999999
20
-73.674999999999983
10
163.41249999999997
20
-73.67500000000004
42
0.41421356237307422
10
164.16249999999997
20
-72.925000000000026
0
LWPOLYLINE
5
112
100
AcDbEntity
8
0
100
AcDbPolyline
90
8
70
1
43
0.0
10
208.06250000000009
20
-59.674999999999997
42
0.41421356237304652
10
207.31250000000003
20
-60.425000000000004
10
207.31250000000003
20
-72.925000000000026
42
0.41421356237315748
10
208.06250000000009
20
-73.67500000000004
10
220.56250000000009
20
-73.675000000000054
42
0.4142135623730534
10
221.3125
20
-72.925000000000026
10
221.3125
20
-60.425000000000004
42
0.41421356237315404
10
220.56250000000009
20
-59.675000000000011
0
LWPOLYLINE
5
113
100
AcDbEntity
8
0
100
AcDbPolyline
90
18
70
1
43
0.0
10
359.38564521975854
20
-101.65623179998475
42
-0.16403955425187597
10
358.95628181710885
20
-101.86907445907107
10
184.94742719546281
20
-101.86908599378668
42
-0.41421356237313667
10
184.19742719546275
20
-101.11908599378673
10
184.19742719546281
20
-100.81498799683285
42
0.99999999999999989
10
177.69742719546289
20
-100.81498799683285
10
177.69742719546284
20
-101.06126859378662
42
-0.41421356237307422
10
176.94742719546295
20
-101.81126859378662
10
2.6584286762966931
20
-101.81125705907077
42
-0.14792969508320913
10
2.2755859343207883
20
-101.60623179998437
10
-2.0893382739096245
20
-97.241307591753952
42
-0.14792157102958473
10
-2.2943588424736552
20
-96.858488234267455
10
-2.2943626554167076
20
2.0005054365351604
42
-0.41421356237308782
10
-1.5443626554168333
20
2.750505436535029
10
363.25557198986769
20
2.7505054365349029
42
-0.41421356237309725
10
364.00557198986741
20
2.000505436535196
10
364.00557580281082
20
-96.858558973344429
42
-0.14789699522341646
10
363.80056942798552
20
-97.241307591757632
0
LWPOLYLINE
5
114
100
AcDbEntity
8
0
100
AcDbPolyline
90
8
70
1
43
0.0
10
183.21249999999998
20
-72.925000000000026
42
-0.41421356237310897
10
182.46250000000001
20
-73.675000000000054
10
169.96250000000003
20
-73.674999999999969
42
-0.41421356237310197
10
169.21250000000001
20
-72.925000000000026
10
169.21250000000001
20
-60.425000000000004
42
-0.41421356237303608
10
169.96250000000001
20
-59.675000000000011
10
182.46250000000001
20
-59.674999999999976
42
-0.41421356237312279
10
183.21250000000003
20
-60.425000000000004
0
LWPOLYLINE
5
115
100
AcDbEntity
8
0
100
AcDbPolyline
90
8
70
1
43
0.0
10
226.36250000000004
20
-72.925000000000026
42
0.41421356237313667
10
227.11250000000007
20
-73.67500000000004
10
239.61250000000007
20
-73.675000000000054
42
0.41421356237300833
10
240.36250000000001
20
-72.925000000000026
10
240.36250000000001
20
-60.425000000000004
42
0.41421356237311241
10
239.61250000000007
20
-59.675000000000011
10
227.11250000000007
20
-59.674999999999983
42
0.41421356237303608
10
226.36250000000004
20
-60.425000000000004
0
LWPOLYLINE
5
116
100
AcDbEntity
8
0
100
AcDbPolyline
90
8
70
1
43
0.0
10
258.66250000000002
20
-59.675000000000011
10
246.16250000000002
20
-59.675000000000011
42
0.41421356237309503
10
245.41250000000002
20
-60.425000000000004
10
245.41250000000002
20
-72.925000000000026
42
0.41421356237309853
10
246.16250000000002
20
-73.67500000000004
10
258.66250000000002
20
-73.67500000000004
42
0.41421356237307422
10
259.41250000000002
20
-72.925000000000026
10
259.41250000000002
20
-60.425000000000004
42
0.41421356237303608
0
LWPOLYLINE
5
117
100
AcDbEntity
8
0
100
AcDbPolyline
90
8
70
1
43
0.0
10
264.46249999999998
20
-72.925000000000026
10
264.46249999999998
20
-60.425000000000004
42
-0.41421356237303608
10
265.21249999999998
20
-59.675000000000011
10
277.71249999999998
20
-59.675000000000004
42
-0.41421356237307078
10
278.46249999999998
20
-60.425000000000004
10
278.46249999999998
20
-72.925000000000026
42
-0.41421356237310197
10
277.71249999999998
20
-73.674999999999983
10
265.21250000000003
20
-73.674999999999969
42
-0.41421356237311585
0
LWPOLYLINE
5
118
100
AcDbEntity
8
0
100
AcDbPolyline
90
8
70
1
43
0.0
10
303.90625
20
-73.675000000000054
42
0.41421356237303958
10
304.65625
20
-72.925000000000026
10
304.65625
20
-60.425000000000004
42
0.41421356237313323
10
303.90625
20
-59.675000000000004
10
291.40625
20
-59.675000000000011
42
0.41421356237309503
10
290.65625
20
-60.425000000000004
10
290.65625
20
-72.925000000000026
42
0.41421356237309853
10
291.40625
20
-73.67500000000004
0
LWPOLYLINE
5
119
100
AcDbEntity
8
0
100
AcDbPolyline
90
8
70
1
43
0.0
10
34.825000000000003
20
-78.724999999999994
42
-0.41421356237308637
10
35.575000000000017
20
-79.47499999999998
10
35.575000000000003
20
-91.97499999999998
42
-0.41421356237312623
10
34.825000000000003
20
-92.724999999999994
10
22.324999999999999
20
-92.725000000000023
42
-0.41421356237309159
10
21.57500000000001
20
-91.974999999999994
10
21.575000000000003
20
-79.47499999999998
42
-0.41421356237310375
10
22.324999999999999
20
-78.724999999999994
0
LWPOLYLINE
5
120
100
AcDbEntity
8
0
100
AcDbPolyline
90
8
70
1
43
0.0
10
335.61250000000007
20
-77.6875
42
-0.41421356237308815
10
334.86250000000007
20
-78.437500000000028
10
322.36250000000007
20
-78.437500000000014
42
-0.41421356237308815
10
321.61250000000001
20
-77.6875
10
321.61250000000001
20
-65.1875
42
-0.41421356237308116
10
322.36250000000007
20
-64.4375
10
334.86250000000007
20
-64.437500000000014
42
-0.41421356237319218
10
335.61250000000007
20
-65.1875
0
LWPOLYLINE
5
121
100
AcDbEntity
8
0
100
AcDbPolyline
90
8
70
1
43
0.0
10
3.2750000000000012
20
-78.724999999999994
10
15.775000000000006
20
-78.724999999999994
42
-0.41421356237309936
10
16.525000000000002
20
-79.47499999999998
10
16.525000000000002
20
-91.974999999999994
42
-0.41421356237308982
10
15.775000000000006
20
-92.724999999999966
10
3.2750000000000012
20
-92.724999999999994
42
-0.41421356237309243
10
2.5249999999999995
20
-91.97499999999998
10
2.5249999999999955
20
-79.47499999999998
42
-0.41421356237307921
0
LWPOLYLINE
5
122
100
AcDbEntity
8
0
100
AcDbPolyline
90
8
70
1
43
0.0
10
316.5625
20
-96.737499999999997
10
316.5625
20
-84.237499999999983
42
0.41421356237310897
10
315.8125
20
-83.487500000000026
10
303.3125
20
-83.487500000000026
42
0.41421356237310897
10
302.5625
20
-84.237499999999983
10
302.5625
20
-96.737499999999997
42
0.41421356237306733
10
303.3125
20
-97.487500000000011
10
315.8125
20
-97.487499999999997
42
0.41421356237306733
0
LWPOLYLINE
5
123
100
AcDbEntity
8
0
100
AcDbPolyline
90
8
70
1
43
0.0
10
358.67500000000001
20
-59.674999999999983
42
-0.41421356237309159
10
359.42500000000001
20
-60.425000000000004
10
359.42500000000001
20
-72.925000000000026
42
-0.41421356237312279
10
358.67500000000001
20
-73.674999999999983
10
346.17500000000001
20
-73.675000000000054
42
-0.41421356237303958
10
345.42499999999984
20
-72.925000000000026
10
345.42499999999973
20
-60.425000000000004
42
-0.41421356237315055
10
346.17500000000007
20
-59.675000000000011
0
LWPOLYLINE
5
124
100
AcDbEntity
8
0
100
AcDbPolyline
90
8
70
1
43
0.0
10
335.61250000000001
20
-96.737499999999997
42
-0.4142135623732407
10
334.86250000000007
20
-97.487500000000011
10
322.36250000000007
20
-97.487500000000026
42
-0.41421356237309503
10
321.61250000000001
20
-96.737499999999997
10
321.61250000000007
20
-84.237499999999983
42
-0.41421356237318524
10
322.36250000000007
20
-83.487500000000068
10
334.86250000000007
20
-83.487499999999983
42
-0.41421356237319218
10
335.61250000000007
20
-84.237499999999983
0
LWPOLYLINE
5
125
100
AcDbEntity
8
0
100
AcDbPolyline
90
8
70
1
43
0.0
10
354.66250000000008
20
-84.237499999999983
10
354.66250000000002
20
-96.737499999999997
42
-0.4142135623732407
10
353.91250000000008
20
-97.487500000000011
10
341.41250000000008
20
-97.487500000000026
42
-0.41421356237309503
10
340.66250000000002
20
-96.737499999999997
10
340.66250000000019
20
-84.237499999999983
42
-0.41421356237306034
10
341.41250000000008
20
-83.487500000000068
10
353.91250000000002
20
-83.487499999999983
42
-0.41421356237321988
0
LWPOLYLINE
5
126
100
AcDbEntity
8
0
100
AcDbPolyline
90
8
70
1
43
0.0
10
15.775000000000006
20
-2.5249999999999999
42
-0.41421356237309137
10
16.525000000000002
20
-3.2750000000000012
10
16.525000000000002
20
-15.775000000000006
42
-0.41421356237309331
10
15.775000000000006
20
-16.525000000000002
10
3.2750000000000012
20
-16.525000000000002
42
-0.41421356237309631
10
2.5249999999999999
20
-15.775000000000006
10
2.5250000000000004
20
-3.2750000000000012
42
-0.41421356237309531
10
3.2750000000000012
20
-2.5249999999999999
0
LWPOLYLINE
5
127
100
AcDbEntity
8
0
100
AcDbPolyline
90
8
70
1
43
0.0
10
35.57500000000001
20
-15.775000000000006
42
-0.41421356237308815
10
34.825000000000003
20
-16.525000000000002
10
22.325000000000003
20
-16.525000000000002
42
-0.41421356237308377
10
21.57500000000001
20
-15.775000000000006
10
21.575000000000006
20
-3.2750000000000012
42
-0.41421356237310047
10
22.324999999999999
20
-2.5250000000000017
10
34.825000000000003
20
-2.5249999999999955
42
-0.41421356237309137
10
35.57500000000001
20
-3.2750000000000012
0
LWPOLYLINE
5
128
100
AcDbEntity
8
0
100
AcDbPolyline
90
8
70
1
43
0.0
10
50.899999999999999
20
-2.5250000000000039
42
0.41421356237310375
10
50.15000000000002
20
-3.2750000000000012
10
50.15000000000002
20
-15.775000000000006
42
0.41421356237310375
10
50.899999999999999
20
-16.525000000000002
10
63.399999999999999
20
-16.525000000000002
42
0.41421356237310281
10
64.150000000000006
20
-15.775000000000006
10
64.150000000000006
20
-3.2750000000000012
42
0.41421356237309853
10
63.399999999999999
20
-2.5250000000000021
0
LWPOLYLINE
5
129
100
AcDbEntity
8
0
100
AcDbPolyline
90
8
70
1
43
0.0
10
69.200000000000003
20
-15.775000000000006
10
69.200000000000003
20
-3.2750000000000012
42
-0.41421356237309853
10
69.950000000000017
20
-2.5250000000000021
10
82.450000000000031
20
-2.5250000000000119
42
-0.4142135623731007
10
83.200000000000003
20
-3.2750000000000012
10
83.200000000000003
20
-15.775000000000006
42
-0.41421356237310375
10
82.450000000000031
20
-16.525000000000002
10
69.950000000000017
20
-16.525000000000002
42
-0.41421356237310281
0
LWPOLYLINE
5
130
100
AcDbEntity
8
0
100
AcDbPolyline
90
8
70
1
43
0.0
10
127.10000000000001
20
-16.525000000000006
42
-0.41421356237309076
10
126.34999999999999
20
-15.775000000000006
10
126.35000000000004
20
-3.2750000000000012
42
-0.41421356237309243
10
127.10000000000001
20
-2.5250000000000017
10
139.60000000000002
20
-2.5250000000000119
42
-0.4142135623731007
10
140.34999999999999
20
-3.2750000000000012
10
140.34999999999999
20
-15.775000000000006
42
-0.41421356237310375
10
139.60000000000002
20
-16.525000000000002
0
LWPOLYLINE
5
131
100
AcDbEntity
8
0
100
AcDbPolyline
90
8
70
1
43
0.0
10
108.05
20
-2.5250000000000044
42
0.41421356237311047
10
107.30000000000001
20
-3.2750000000000012
10
107.30000000000001
20
-15.775000000000006
42
0.41421356237308204
10
108.05
20
-16.525000000000006
10
120.55
20
-16.525000000000006
42
0.41421356237309076
10
121.30000000000001
20
-15.775000000000006
10
121.29999999999998
20
-3.2750000000000012
42
0.41421356237308293
10
120.55
20
-2.5249999999999995
0
LWPOLYLINE
5
132
100
AcDbEntity
8
0
100
AcDbPolyline
90
8
70
1
43
0.0
10
145.39999999999995
20
-15.775000000000006
10
145.40000000000003
20
-3.2750000000000012
42
-0.41421356237308293
10
146.15000000000003
20
-2.5249999999999995
10
158.65000000000003
20
-2.5250000000000119
42
-0.4142135623731007
10
159.40000000000001
20
-3.2750000000000012
10
159.40000000000001
20
-15.775000000000006
42
-0.41421356237309159
10
158.65000000000003
20
-16.525000000000002
10
146.15000000000003
20
-16.525000000000009
42
-0.41421356237309243
0
LWPOLYLINE
5
133
100
AcDbEntity
8
0
100
AcDbPolyline
90
8
70
1
43
0.0
10
183.5
20
-3.2750000000000012
42
-0.41421356237306667
10
184.25
20
-2.5250000000000048
10
196.75
20
-2.5250000000000226
42
-0.41421356237308943
10
197.5
20
-3.2750000000000012
10
197.5
20
-15.775000000000006
42
-0.41421356237306733
10
196.75
20
-16.525000000000002
10
184.25
20
-16.524999999999995
42
-0.41421356237306556
10
183.5
20
-15.775000000000006
0
LWPOLYLINE
5
134
100
AcDbEntity
8
0
100
AcDbPolyline
90
8
70
1
43
0.0
10
178.44999999999999
20
-15.775000000000006
10
178.44999999999999
20
-3.2750000000000012
42
0.41421356237306667
10
177.69999999999999
20
-2.5250000000000048
10
165.19999999999999
20
-2.5250000000000226
42
0.41421356237308943
10
164.44999999999999
20
-3.2750000000000012
10
164.44999999999999
20
-15.775000000000006
42
0.41421356237308815
10
165.19999999999999
20
-16.524999999999999
10
177.69999999999999
20
-16.524999999999984
42
0.41421356237308982
0
LWPOLYLINE
5
135
100
AcDbEntity
8
0
100
AcDbPolyline
90
8
70
1
43
0.0
10
226.07500000000002
20
-22.324999999999999
10
226.07500000000005
20
-34.825000000000003
42
-0.41421356237312978
10
225.32499999999999
20
-35.57500000000001
10
212.82499999999999
20
-35.575000000000031
42
-0.41421356237307944
10
212.07499999999999
20
-34.825000000000003
10
212.07499999999999
20
-22.324999999999999
42
-0.41421356237309331
10
212.82499999999999
20
-21.57500000000001
10
225.32499999999999
20
-21.575000000000021
42
-0.41421356237313145
0
LWPOLYLINE
5
136
100
AcDbEntity
8
0
100
AcDbPolyline
90
8
70
1
43
0.0
10
231.125
20
-22.324999999999999
10
231.125
20
-34.825000000000003
42
0.41421356237307944
10
231.875
20
-35.575000000000031
10
244.375
20
-35.57500000000001
42
0.41421356237311413
10
245.12500000000003
20
-34.825000000000003
10
245.12500000000006
20
-22.324999999999999
42
0.41421356237314361
10
244.375
20
-21.575000000000038
10
231.875
20
-21.574999999999992
42
0.41421356237307255
0
LWPOLYLINE
5
137
100
AcDbEntity
8
0
100
AcDbPolyline
90
8
70
1
43
0.0
10
168.17500000000001
20
-21.57500000000001
10
155.67500000000001
20
-21.575000000000003
42
0.41421356237310375
10
154.92500000000004
20
-22.324999999999999
10
154.92500000000004
20
-34.825000000000003
42
0.41421356237306733
10
155.67500000000001
20
-35.575000000000017
10
168.17500000000001
20
-35.575000000000031
42
0.41421356237307944
10
168.92500000000001
20
-34.825000000000003
10
168.92500000000001
20
-22.324999999999999
42
0.41421356237309331
0
LWPOLYLINE
5
138
100
AcDbEntity
8
0
100
AcDbPolyline
90
8
70
1
43
0.0
10
207.02500000000001
20
-34.825000000000003
42
-0.41421356237306733
10
206.27500000000001
20
-35.57500000000001
10
193.77500000000001
20
-35.57500000000001
42
-0.41421356237305862
10
193.02500000000006
20
-34.825000000000003
10
193.02500000000009
20
-22.324999999999999
42
-0.41421356237315404
10
193.77500000000001
20
-21.575000000000003
10
206.27500000000001
20
-21.575000000000003
42
-0.41421356237309681
10
207.02500000000001
20
-22.324999999999999
0
LWPOLYLINE
5
139
100
AcDbEntity
8
0
100
AcDbPolyline
90
8
70
1
43
0.0
10
250.92500000000001
20
-21.574999999999992
42
0.41421356237307255
10
250.17500000000001
20
-22.324999999999999
10
250.17500000000001
20
-34.825000000000003
42
0.41421356237307944
10
250.92500000000001
20
-35.575000000000031
10
263.42500000000001
20
-35.574999999999996
42
0.41421356237306733
10
264.17500000000013
20
-34.825000000000003
10
264.17500000000007
20
-22.324999999999999
42
0.41421356237311241
10
263.42500000000001
20
-21.575000000000028
0
LWPOLYLINE
5
140
100
AcDbEntity
8
0
100
AcDbPolyline
90
8
70
1
43
0.0
10
283.22500000000008
20
-34.825000000000003
42
-0.41421356237312978
10
282.47500000000002
20
-35.57500000000001
10
269.97500000000002
20
-35.575000000000031
42
-0.41421356237307944
10
269.22500000000002
20
-34.825000000000003
10
269.22500000000002
20
-22.324999999999999
42
-0.41421356237309331
10
269.97500000000002
20
-21.57500000000001
10
282.47500000000002
20
-21.575000000000021
42
-0.41421356237313145
10
283.22500000000002
20
-22.324999999999999
0
LWPOLYLINE
5
141
100
AcDbEntity
8
0
100
AcDbPolyline
90
8
70
1
43
0.0
10
346.17500000000001
20
-21.574999999999985
42
0.41421356237303436
10
345.42500000000013
20
-22.324999999999999
10
345.42499999999984
20
-34.825000000000003
42
0.41421356237304302
10
346.17500000000001
20
-35.57500000000001
10
358.67499999999995
20
-35.574999999999996
42
0.41421356237308116
10
359.42500000000001
20
-34.825000000000003
10
359.42500000000001
20
-22.324999999999999
42
0.41421356237311757
10
358.67500000000001
20
-21.575000000000056
0
LWPOLYLINE
5
142
100
AcDbEntity
8
0
100
AcDbPolyline
90
8
70
1
43
0.0
10
325.33749999999998
20
-21.574999999999967
42
-0.41421356237298579
10
326.08749999999998
20
-22.324999999999999
10
326.08749999999998
20
-34.825000000000003
42
-0.41421356237299273
10
325.33749999999998
20
-35.575000000000031
10
312.83749999999998
20
-35.575000000000031
42
-0.41421356237307944
10
312.08749999999998
20
-34.825000000000003
10
312.08749999999998
20
-22.324999999999999
42
-0.41421356237309331
10
312.83749999999998
20
-21.57500000000001
0
LWPOLYLINE
5
143
100
AcDbEntity
8
0
100
AcDbPolyline
90
8
70
1
43
0.0
10
15.775000000000006
20
-40.625
10
3.2750000000000012
20
-40.625000000000007
42
0.41421356237310869
10
2.5250000000000057
20
-41.375
10
2.5249999999999995
20
-53.875
42
0.41421356237310897
10
3.2750000000000012
20
-54.625
10
15.775000000000006
20
-54.625
42
0.41421356237310114
10
16.524999999999991
20
-53.875
10
16.525000000000006
20
-41.375
42
0.41421356237310802
0
LWPOLYLINE
5
144
100
AcDbEntity
8
0
100
AcDbPolyline
90
8
70
1
43
0.0
10
301.52499999999998
20
-35.57500000000001
10
289.02499999999998
20
-35.57500000000001
42
-0.41421356237307255
10
288.27499999999998
20
-34.825000000000003
10
288.27499999999998
20
-22.324999999999999
42
-0.41421356237308637
10
289.02499999999998
20
-21.575000000000006
10
301.52499999999998
20
-21.575000000000003
42
-0.41421356237309681
10
302.27499999999998
20
-22.324999999999999
10
302.27499999999998
20
-34.825000000000003
42
-0.41421356237306733
0
LWPOLYLINE
5
145
100
AcDbEntity
8
0
100
AcDbPolyline
90
8
70
1
43
0.0
10
21.575000000000006
20
-41.375
42
-0.41421356237311241
10
22.324999999999999
20
-40.625
10
34.825000000000003
20
-40.625
42
-0.41421356237308293
10
35.57500000000001
20
-41.375000000000021
10
35.57500000000001
20
-53.875
42
-0.41421356237310375
10
34.825000000000003
20
-54.625
10
22.324999999999999
20
-54.625
42
-0.41421356237309503
10
21.575000000000017
20
-53.875
0
LWPOLYLINE
5
146
100
AcDbEntity
8
0
100
AcDbPolyline
90
8
70
1
43
0.0
10
97.487500000000011
20
-41.375
42
0.41421356237312279
10
96.737499999999983
20
-40.625000000000014
10
84.237499999999983
20
-40.625
42
0.4142135623730846
10
83.487500000000026
20
-41.375
10
83.487500000000026
20
-53.875
42
0.4142135623730846
10
84.237499999999983
20
-54.625
10
96.737499999999997
20
-54.624999999999993
42
0.41421356237311585
10
97.487500000000011
20
-53.875
0
LWPOLYLINE
5
147
100
AcDbEntity
8
0
100
AcDbPolyline
90
8
70
1
43
0.0
10
121.58750000000001
20
-41.375
10
121.58750000000001
20
-53.875
42
0.41421356237309503
10
122.33750000000001
20
-54.625000000000021
10
134.83750000000001
20
-54.625
42
0.41421356237309159
10
135.58750000000001
20
-53.875
10
135.58750000000001
20
-41.375
42
0.41421356237309159
10
134.83750000000001
20
-40.625
10
122.33750000000001
20
-40.624999999999993
42
0.41421356237308815
0
LWPOLYLINE
5
148
100
AcDbEntity
8
0
100
AcDbPolyline
90
8
70
1
43
0.0
10
153.88749999999999
20
-40.624999999999993
10
141.38749999999999
20
-40.625000000000007
42
0.41421356237308815
10
140.63750000000002
20
-41.375
10
140.63750000000002
20
-53.875
42
0.41421356237311241
10
141.38749999999999
20
-54.624999999999993
10
153.88749999999999
20
-54.625000000000014
42
0.41421356237308815
10
154.63749999999999
20
-53.875
10
154.63749999999999
20
-41.375
42
0.41421356237307771
0
LWPOLYLINE
5
149
100
AcDbEntity
8
0
100
AcDbPolyline
90
8
70
1
43
0.0
10
115.78749999999999
20
-40.624999999999993
42
-0.41421356237309503
10
116.53750000000001
20
-41.375
10
116.53750000000001
20
-53.875
42
-0.41421356237309159
10
115.78749999999999
20
-54.625
10
103.28749999999999
20
-54.624999999999993
42
-0.41421356237309503
10
102.53749999999999
20
-53.875
10
102.53749999999999
20
-41.375
42
-0.41421356237307771
10
103.28749999999999
20
-40.624999999999993
0
LWPOLYLINE
5
150
100
AcDbEntity
8
0
100
AcDbPolyline
90
8
70
1
43
0.0
10
173.68750000000003
20
-41.375
42
0.41421356237311935
10
172.93749999999991
20
-40.624999999999993
10
160.4375
20
-40.625000000000014
42
0.4142135623730569
10
159.68749999999997
20
-41.375
10
159.6875
20
-53.875
42
0.41421356237312279
10
160.4375
20
-54.624999999999993
10
172.93750000000003
20
-54.625000000000014
42
0.41421356237301876
10
173.68750000000003
20
-53.875
0
LWPOLYLINE
5
151
100
AcDbEntity
8
0
100
AcDbPolyline
90
8
70
1
43
0.0
10
211.78750000000002
20
-53.875
10
211.78750000000002
20
-41.375
42
0.41421356237306733
10
211.03750000000002
20
-40.625
10
198.53750000000002
20
-40.624999999999986
42
0.41421356237307771
10
197.78750000000002
20
-41.375
10
197.78750000000002
20
-53.875
42
0.41421356237306733
10
198.53750000000002
20
-54.625
10
211.03750000000002
20
-54.625000000000021
42
0.41421356237307771
0
LWPOLYLINE
5
152
100
AcDbEntity
8
0
100
AcDbPolyline
90
8
70
1
43
0.0
10
230.83750000000009
20
-41.375
42
0.4142135623730569
10
230.08750000000006
20
-40.625
10
217.58750000000003
20
-40.624999999999993
42
0.41421356237301876
10
216.83750000000003
20
-41.375
10
216.83750000000001
20
-53.875
42
0.41421356237314705
10
217.58750000000006
20
-54.624999999999986
10
230.08750000000006
20
-54.624999999999979
42
0.41421356237312978
10
230.83750000000009
20
-53.875
0
LWPOLYLINE
5
153
100
AcDbEntity
8
0
100
AcDbPolyline
90
8
70
1
43
0.0
10
192.73750000000007
20
-53.875
10
192.73750000000007
20
-41.375
42
0.4142135623730569
10
191.98750000000004
20
-40.624999999999993
10
179.48750000000001
20
-40.624999999999986
42
0.41421356237307771
10
178.73750000000001
20
-41.375
10
178.73750000000001
20
-53.875
42
0.41421356237306733
10
179.48750000000001
20
-54.625
10
191.98750000000001
20
-54.625
42
0.41421356237304302
0
LWPOLYLINE
5
154
100
AcDbEntity
8
0
100
AcDbPolyline
90
8
70
1
43
0.0
10
249.13749999999999
20
-40.625
10
236.63749999999999
20
-40.625
42
0.41421356237309853
10
235.88750000000002
20
-41.375
10
235.88750000000002
20
-53.875
42
0.41421356237309853
10
236.63749999999999
20
-54.625
10
249.13749999999999
20
-54.625
42
0.41421356237309853
10
249.88749999999999
20
-53.875
10
249.88749999999999
20
-41.375
42
0.41421356237309853
0
LWPOLYLINE
5
155
100
AcDbEntity
8
0
100
AcDbPolyline
90
8
70
1
43
0.0
10
268.9375
20
-53.875
10
268.9375
20
-41.375
42
0.41421356237309853
10
268.1875
20
-40.625
10
255.6875
20
-40.625
42
0.41421356237307078
10
254.93750000000009
20
-41.375
10
254.93750000000009
20
-53.875
42
0.41421356237308116
10
255.6875
20
-54.625000000000021
10
268.1875
20
-54.625
42
0.41421356237309853
0
LWPOLYLINE
5
156
100
AcDbEntity
8
0
100
AcDbPolyline
90
8
70
1
43
0.0
10
320.38175000000001
20
-42.375
10
320.38175000000001
20
-55.875
42
0.41421356237309159
10
321.13175000000007
20
-56.625000000000021
10
326.63175000000001
20
-56.625000000000007
42
0.4142135623730846
10
327.38175000000007
20
-55.875
10
327.38175000000007
20
-42.375
42
0.41421356237311935
10
326.63175000000001
20
-41.62500000000005
10
321.13175000000007
20
-41.625
42
0.4142135623730846
0
LWPOLYLINE
5
157
100
AcDbEntity
8
0
100
AcDbPolyline
90
8
70
1
43
0.0
10
287.98750000000001
20
-41.375
10
287.98750000000001
20
-53.875
42
-0.41421356237309853
10
287.23750000000001
20
-54.625
10
274.73750000000001
20
-54.624999999999986
42
-0.41421356237309159
10
273.98750000000001
20
-53.875
10
273.98750000000001
20
-41.375
42
-0.41421356237309853
10
274.73750000000001
20
-40.625
10
287.23750000000001
20
-40.625000000000014
42
-0.41421356237309159
0
LWPOLYLINE
5
158
100
AcDbEntity
8
0
100
AcDbPolyline
90
8
70
1
43
0.0
10
305.69375000000002
20
-54.624999999999986
42
-0.41421356237306384
10
304.94375000000002
20
-53.875
10
304.94375000000002
20
-41.375
42
-0.41421356237306733
10
305.69375000000002
20
-40.625
10
318.19375000000002
20
-40.625000000000014
42
-0.41421356237306384
10
318.94375000000002
20
-41.375
10
318.94375000000002
20
-53.875
42
-0.41421356237306733
10
318.19375000000002
20
-54.625
0
LWPOLYLINE
5
159
100
AcDbEntity
8
0
100
AcDbPolyline
90
8
70
1
43
0.0
10
303.50574999999998
20
-42.375
42
0.41421356237307078
10
302.75574999999998
20
-41.625000000000007
10
297.25574999999998
20
-41.625000000000014
42
0.41421356237309159
10
296.50574999999998
20
-42.375
10
296.50574999999998
20
-55.875
42
0.41421356237315748
10
297.25574999999998
20
-56.625000000000021
10
302.75574999999998
20
-56.625000000000021
42
0.41421356237307771
10
303.50574999999998
20
-55.875
0
LWPOLYLINE
5
160
100
AcDbEntity
8
0
100
AcDbPolyline
90
8
70
1
43
0.0
10
68.162499999999994
20
-92.725000000000023
10
53.28125
20
-92.725000000000051
42
-0.41421356237309503
10
52.531250000000028
20
-91.974999999999994
10
52.531250000000007
20
-79.47499999999998
42
-0.41421356237310197
10
53.28125
20
-78.724999999999994
10
68.162499999999994
20
-78.724999999999994
42
-0.41421356237309853
10
68.912500000000023
20
-79.47499999999998
10
68.91249999999998
20
-91.974999999999994
42
-0.41421356237308815
0
LWPOLYLINE
5
161
100
AcDbEntity
8
0
100
AcDbPolyline
90
9
70
1
43
0.0
10
70.543750000000003
20
-40.624999999999993
42
-0.41421356237309853
10
71.293750000000003
20
-41.375
10
71.293750000000003
20
-53.875
42
-0.41421356237311935
10
70.543750000000003
20
-54.624999999999993
10
53.28125
20
-54.625
42
-0.41421356237309853
10
52.531250000000007
20
-53.875
10
52.531250000000007
20
-41.375
42
-0.41421356237309853
10
53.28125
20
-40.625
10
53.589602784895114
20
-40.625
0
LWPOLYLINE
5
162
100
AcDbEntity
8
0
100
AcDbPolyline
90
8
70
1
43
0.0
10
76.34375
20
-79.47499999999998
42
-0.41421356237309853
10
77.09375
20
-78.724999999999994
10
91.974999999999994
20
-78.725000000000023
42
-0.41421356237310897
10
92.724999999999994
20
-79.47499999999998
10
92.724999999999994
20
-91.974999999999994
42
-0.41421356237308116
10
91.974999999999994
20
-92.724999999999994
10
77.09375
20
-92.725000000000051
42
-0.41421356237310197
10
76.343750000000028
20
-91.974999999999994
0
LWPOLYLINE
5
163
100
AcDbEntity
8
0
100
AcDbPolyline
90
8
70
1
43
0.0
10
100.15625
20
-91.974999999999994
42
0.41421356237310897
10
100.90625000000001
20
-92.724999999999966
10
115.78749999999999
20
-92.724999999999994
42
0.41421356237311585
10
116.53750000000001
20
-91.974999999999994
10
116.53749999999999
20
-79.47499999999998
42
0.41421356237310542
10
115.78749999999999
20
-78.725000000000023
10
100.90625000000001
20
-78.72499999999998
42
0.4142135623730569
10
100.15625
20
-79.47499999999998
0
LWPOLYLINE
5
164
100
AcDbEntity
8
0
100
AcDbPolyline
90
8
70
1
43
0.0
10
136.1000002153778
20
-77.725001632690407
42
-0.41421356237310197
10
136.85000021537778
20
-78.475001632690379
10
136.85000021537778
20
-91.975001632690407
42
-0.41421356237311585
10
136.1000002153778
20
-92.725001632690351
10
125.84375021537781
20
-92.725001632690351
42
-0.41421356237307422
10
125.09375021537785
20
-91.975001632690407
10
125.09375021537785
20
-78.475001632690379
42
-0.4142135623730846
10
125.84375021537781
20
-77.725001632690379
0
LWPOLYLINE
5
165
100
AcDbEntity
8
0
100
AcDbPolyline
90
8
70
1
43
0.0
10
196.75000021537784
20
-78.725001632690365
42
-0.41421356237311935
10
197.50000021537772
20
-79.475001632690379
10
197.50000021537772
20
-91.975001632690407
42
-0.41421356237309503
10
196.75000021537784
20
-92.725001632690436
10
172.34375021537772
20
-92.725001632690422
42
-0.41421356237306034
10
171.59375021537784
20
-91.975001632690407
10
171.59375021537781
20
-79.475001632690379
42
-0.41421356237307078
10
172.34375021537772
20
-78.725001632690379
0
LWPOLYLINE
5
166
100
AcDbEntity
8
0
100
AcDbPolyline
90
13
70
1
43
0.0
10
244.90000021537784
20
-77.725001632690422
10
250.40000021537776
20
-77.725001632690464
42
-0.41421356237314017
10
251.15000021537776
20
-78.475001632690351
10
251.15000021537776
20
-78.725001632690407
10
292.00000021537767
20
-78.725001632690365
42
-0.41421356237307422
10
292.75000021537767
20
-79.475001632690379
10
292.75000021537772
20
-91.975001632690407
42
-0.41421356237316442
10
292.00000021537767
20
-92.725001632690379
10
246.16250021537775
20
-92.725001632690436
10
244.90000021537776
20
-92.725001632690422
42
-0.41421356237307422
10
244.15000021537776
20
-91.975001632690407
10
244.15000021537776
20
-90.975001632690407
10
244.15000021537776
20
-78.475001632690407
42
-0.41421356237313323
0
LWPOLYLINE
5
167
100
AcDbEntity
8
0
100
AcDbPolyline
90
8
70
1
43
0.0
10
225.09375021537775
20
-91.975001632690407
10
225.09375021537772
20
-78.475001632690379
42
-0.41421356237307771
10
225.8437502153777
20
-77.725001632690379
10
231.34375021537772
20
-77.725001632690407
42
-0.41421356237307422
10
232.0937502153777
20
-78.475001632690379
10
232.0937502153777
20
-91.975001632690407
42
-0.41421356237314361
10
231.34375021537775
20
-92.725001632690351
10
225.84375021537772
20
-92.725001632690351
42
-0.41421356237315748
0
LWPOLYLINE
5
168
100
AcDbEntity
8
0
100
AcDbPolyline
90
20
70
1
43
0.0
10
322.76300021537787
20
-16.525001632690383
10
305.88700021537767
20
-16.525001632690383
10
305.88700021537767
20
-17.775001632690387
42
-0.41421356237306817
10
305.13700021537767
20
-18.52500163269038
10
299.63700021537767
20
-18.525001632690355
42
-0.41421356237311241
10
298.88700021537767
20
-17.775001632690387
10
298.88700021537767
20
-16.525001632690387
10
298.55000021537774
20
-16.525001632690408
42
-0.41421356237315837
10
297.80000021537768
20
-15.775001632690396
10
297.80000021537774
20
-3.2750016326903975
42
-0.41421356237304979
10
298.55000021537774
20
-2.5250016326903975
10
330.10000021537786
20
-2.5250016326903713
42
-0.41421356237303608
10
330.85000021537775
20
-3.2750016326903908
10
330.8500002153778
20
-15.775001632690389
42
-0.41421356237315921
10
330.10000021537786
20
-16.525001632690358
10
329.76300021537782
20
-16.525001632690383
10
329.76300021537782
20
-17.775001632690387
42
-0.41421356237316359
10
329.01300021537787
20
-18.525001632690369
10
323.51300021537776
20
-18.525001632690454
42
-0.41421356237316526
10
322.76300021537787
20
-17.775001632690387
0
LWPOLYLINE
5
169
100
AcDbEntity
8
0
100
AcDbPolyline
90
8
70
1
43
0.0
10
102.25000000000001
20
-15.775000000000006
10
102.25000000000001
20
-3.2750000000000012
42
0.41421356237307555
10
101.5
20
-2.5250000000000012
10
89
20
-2.5249999999999959
42
0.41421356237312756
10
88.250000000000014
20
-3.2750000000000012
10
88.250000000000014
20
-15.775000000000006
42
0.41421356237309243
10
88.999999999999986
20
-16.525000000000006
10
101.5
20
-16.524999999999999
42
0.41421356237311585
0
LWPOLYLINE
5
170
100
AcDbEntity
8
0
100
AcDbPolyline
90
8
70
1
43
0.0
10
260.45000000000005
20
-2.5250000000000048
10
272.95000000000005
20
-2.5250000000000283
42
-0.41421356237307339
10
273.69999999999999
20
-3.2750000000000012
10
273.70000000000005
20
-15.775000000000006
42
-0.41421356237313145
10
272.9500000000001
20
-16.525000000000013
10
260.45000000000005
20
-16.524999999999974
42
-0.41421356237308554
10
259.70000000000005
20
-15.775000000000006
10
259.70000000000005
20
-3.2750000000000012
42
-0.41421356237306667
0
LWPOLYLINE
5
171
100
AcDbEntity
8
0
100
AcDbPolyline
90
8
70
1
43
0.0
10
292.75
20
-3.2750000000000012
10
292.75
20
-15.775000000000006
42
-0.41421356237309592
10
292
20
-16.524999999999995
10
279.5
20
-16.524999999999991
42
-0.41421356237305079
10
278.75
20
-15.775000000000006
10
278.75000000000006
20
-3.2750000000000012
42
-0.4142135623731163
10
279.5
20
-2.524999999999995
10
292
20
-2.5249999999999932
42
-0.41421356237307316
0
LWPOLYLINE
5
172
100
AcDbEntity
8
0
100
AcDbPolyline
90
8
70
1
43
0.0
10
235.60000000000005
20
-15.775000000000006
42
-0.41421356237314361
10
234.84999999999999
20
-16.524999999999974
10
222.34999999999999
20
-16.525000000000013
42
-0.41421356237307255
10
221.59999999999999
20
-15.775000000000006
10
221.59999999999999
20
-3.2750000000000012
42
-0.41421356237309531
10
222.34999999999999
20
-2.5250000000000083
10
234.84999999999999
20
-2.525000000000019
42
-0.41421356237304929
10
235.60000000000002
20
-3.2750000000000012
0
LWPOLYLINE
5
173
100
AcDbEntity
8
0
100
AcDbPolyline
90
8
70
1
43
0.0
10
254.65000000000006
20
-15.775000000000006
42
-0.41421356237314538
10
253.90000000000001
20
-16.524999999999974
10
241.40000000000001
20
-16.525000000000013
42
-0.41421356237307255
10
240.65000000000001
20
-15.775000000000006
10
240.65000000000001
20
-3.2750000000000012
42
-0.41421356237309531
10
241.40000000000001
20
-2.5250000000000083
10
253.90000000000001
20
-2.525000000000019
42
-0.41421356237304929
10
254.65000000000003
20
-3.2750000000000012
0
LWPOLYLINE
5
174
100
AcDbEntity
8
0
100
AcDbPolyline
90
8
70
1
43
0.0
10
34.825000000000003
20
-35.57500000000001
42
0.41421356237308815
10
35.57500000000001
20
-34.825000000000003
10
35.575000000000017
20
-22.324999999999999
42
0.41421356237308982
10
34.825000000000003
20
-21.57500000000001
10
22.324999999999999
20
-21.575000000000006
42
0.41421356237309681
10
21.57500000000001
20
-22.324999999999999
10
21.575000000000006
20
-34.825000000000003
42
0.41421356237309331
10
22.324999999999999
20
-35.57500000000001
0
LWPOLYLINE
5
175
100
AcDbEntity
8
0
100
AcDbPolyline
90
8
70
1
43
0.0
10
358.67500000000001
20
-16.52500000000002
10
346.17500000000001
20
-16.525000000000031
42
-0.4142135623730378
10
345.42500000000013
20
-15.775000000000006
10
345.42499999999984
20
-3.2750000000000012
42
-0.41421356237304302
10
346.17500000000001
20
-2.5249999999999906
10
358.67500000000001
20
-2.5249999999999986
42
-0.4142135623730851
10
359.42500000000001
20
-3.2750000000000012
10
359.42500000000001
20
-15.775000000000006
42
-0.41421356237308721
0
LWPOLYLINE
5
176
100
AcDbEntity
8
0
100
AcDbPolyline
90
8
70
1
43
0.0
10
54.912500000000009
20
-22.324999999999999
42
-0.41421356237308293
10
55.662500000000001
20
-21.575000000000003
10
68.162499999999994
20
-21.575000000000003
42
-0.41421356237310375
10
68.912499999999994
20
-22.324999999999999
10
68.912500000000009
20
-34.825000000000003
42
-0.41421356237309331
10
68.162499999999994
20
-35.57500000000001
10
55.662500000000001
20
-35.57500000000001
42
-0.41421356237308293
10
54.912500000000016
20
-34.825000000000003
0
LWPOLYLINE
5
177
100
AcDbEntity
8
0
100
AcDbPolyline
90
8
70
1
43
0.0
10
92.724999999999994
20
-22.324999999999999
42
0.41421356237308116
10
91.974999999999994
20
-21.575000000000006
10
79.47499999999998
20
-21.575000000000003
42
0.41421356237310375
10
78.724999999999994
20
-22.324999999999999
10
78.724999999999994
20
-34.825000000000003
42
0.41421356237308637
10
79.47499999999998
20
-35.575000000000017
10
91.97499999999998
20
-35.575000000000003
42
0.41421356237312623
10
92.724999999999994
20
-34.825000000000003
0
LWPOLYLINE
5
178
100
AcDbEntity
8
0
100
AcDbPolyline
90
8
70
1
43
0.0
10
3.2750000000000012
20
-35.575000000000003
42
-0.41421356237309204
10
2.5249999999999968
20
-34.825000000000003
10
2.524999999999995
20
-22.324999999999999
42
-0.41421356237308982
10
3.2750000000000012
20
-21.575000000000006
10
15.775000000000006
20
-21.575000000000006
42
-0.41421356237310281
10
16.524999999999999
20
-22.324999999999999
10
16.525000000000006
20
-34.825000000000003
42
-0.41421356237309243
10
15.775000000000006
20
-35.57500000000001
0
LWPOLYLINE
5
179
100
AcDbEntity
8
0
100
AcDbPolyline
90
8
70
1
43
0.0
10
98.525000000000034
20
-21.575000000000017
42
0.41421356237310542
10
97.775000000000034
20
-22.324999999999999
10
97.775000000000034
20
-34.825000000000003
42
0.4142135623730846
10
98.525000000000006
20
-35.575000000000017
10
111.02500000000001
20
-35.57500000000001
42
0.41421356237311413
10
111.77500000000003
20
-34.825000000000003
10
111.77500000000002
20
-22.324999999999999
42
0.41421356237308637
10
111.02500000000001
20
-21.57500000000001
0
LWPOLYLINE
5
180
100
AcDbEntity
8
0
100
AcDbPolyline
90
8
70
1
43
0.0
10
173.97500000000005
20
-34.825000000000003
10
173.97500000000005
20
-22.324999999999999
42
-0.41421356237311757
10
174.72499999999999
20
-21.574999999999992
10
187.22499999999999
20
-21.575000000000003
42
-0.41421356237309681
10
187.97499999999999
20
-22.324999999999999
10
187.97499999999999
20
-34.825000000000003
42
-0.41421356237306733
10
187.22499999999999
20
-35.57500000000001
10
174.72499999999999
20
-35.57500000000001
42
-0.41421356237305862
0
LWPOLYLINE
5
181
100
AcDbEntity
8
0
100
AcDbPolyline
90
8
70
1
43
0.0
10
130.07499999999999
20
-35.57500000000001
42
0.41421356237310025
10
130.82499999999999
20
-34.825000000000003
10
130.82499999999999
20
-22.324999999999999
42
0.41421356237308116
10
130.07499999999999
20
-21.575000000000006
10
117.575
20
-21.575000000000017
42
0.41421356237309159
10
116.82500000000005
20
-22.324999999999999
10
116.82500000000003
20
-34.825000000000003
42
0.4142135623730846
10
117.575
20
-35.575000000000017
0
LWPOLYLINE
5
182
100
AcDbEntity
8
0
100
AcDbPolyline
90
8
70
1
43
0.0
10
135.87500000000003
20
-34.825000000000003
10
135.87500000000003
20
-22.324999999999999
42
-0.41421356237310375
10
136.625
20
-21.575000000000006
10
149.125
20
-21.575000000000003
42
-0.41421356237308293
10
149.875
20
-22.324999999999999
10
149.875
20
-34.825000000000003
42
-0.41421356237308293
10
149.125
20
-35.57500000000001
10
136.625
20
-35.575000000000017
42
-0.41421356237311063
0
ENDSEC
0
SECTION
2
OBJECTS
0
DICTIONARY
5
C
100
AcDbDictionary
3
ACAD_GROUP
350
D
3
ACAD_MLINESTYLE
350
17
0
DICTIONARY
5
D
100
AcDbDictionary
0
DICTIONARY
5
1A
330
C
100
AcDbDictionary
0
DICTIONARY
5
17
100
AcDbDictionary
0
ENDSEC
0
EOF
