0
SECTION
2
HEADER
9
$INSUNITS
70
4
9
$ACADVER
1
AC1014
9
$HANDSEED
5
FFFF
0
ENDSEC
0
SECTION
2
TABLES
0
TABLE
2
VPORT
5
8
100
AcDbSymbolTable
0
ENDTAB
0
TABLE
2
LTYPE
5
5
100
AcDbSymbolTable
0
LTYPE
5
14
100
AcDbSymbolTableRecord
100
AcDbLinetypeTableRecord
2
BYBLOCK
70
0
0
LTYPE
5
15
100
AcDbSymbolTableRecord
100
AcDbLinetypeTableRecord
2
BYLAYER
70
0
0
ENDTAB
0
TABLE
2
LAYER
5
2
100
AcDbSymbolTable
70
2
0
LAYER
5
50
100
AcDbSymbolTableRecord
100
AcDbLayerTableRecord
2
0
70
0
6
CONTINUOUS
0
ENDTAB
0
TABLE
2
STYLE
5
3
100
AcDbSymbolTable
70
1
0
STYLE
5
11
100
AcDbSymbolTableRecord
100
AcDbTextStyleTableRecord
2
STANDARD
70
0
0
ENDTAB
0
TABLE
2
VIEW
5
6
100
AcDbSymbolTable
70
0
0
ENDTAB
0
TABLE
2
UCS
5
7
100
AcDbSymbolTable
70
0
0
ENDTAB
0
TABLE
2
APPID
5
9
100
AcDbSymbolTable
70
2
0
APPID
5
12
100
AcDbSymbolTableRecord
100
AcDbRegAppTableRecord
2
ACAD
70
0
0
ENDTAB
0
TABLE
2
DIMSTYLE
5
A
100
AcDbSymbolTable
70
1
0
ENDTAB
0
TABLE
2
BLOCK_RECORD
5
1
100
AcDbSymbolTable
70
1
0
BLOCK_RECORD
5
1F
100
AcDbSymbolTableRecord
100
AcDbBlockTableRecord
2
*MODEL_SPACE
0
BLOCK_RECORD
5
1B
100
AcDbSymbolTableRecord
100
AcDbBlockTableRecord
2
*PAPER_SPACE
0
ENDTAB
0
ENDSEC
0
SECTION
2
BLOCKS
0
BLOCK
5
20
100
AcDbEntity
100
AcDbBlockBegin
2
*MODEL_SPACE
0
ENDBLK
5
21
100
AcDbEntity
100
AcDbBlockEnd
0
BLOCK
5
1C
100
AcDbEntity
100
AcDbBlockBegin
2
*PAPER_SPACE
0
ENDBLK
5
1D
100
AcDbEntity
100
AcDbBlockEnd
0
ENDSEC
0
SECTION
2
ENTITIES
0
LWPOLYLINE
5
100
100
AcDbEntity
8
0
100
AcDbPolyline
90
8
70
1
43
0.0
10
-259.41250000000002
20
41.125
10
-259.41250000000002
20
54.125000000000014
42
-0.41421356237316787
10
-258.91250000000002
20
54.625
10
-245.91250000000002
20
54.625
42
-0.41421356237312623
10
-245.41250000000002
20
54.125000000000014
10
-245.41249999999997
20
41.125
42
-0.41421356237312101
10
-245.91250000000002
20
40.625
10
-258.91250000000002
20
40.624999999999986
42
-0.41421356237310025
0
LWPOLYLINE
5
101
100
AcDbEntity
8
0
100
AcDbPolyline
90
8
70
1
43
0.0
10
-265.84375
20
23.286999999999999
10
-265.84375
20
29.037000000000006
42
0.41421356237314444
10
-266.34375
20
29.537000000000013
10
-281.34375
20
29.53700000000001
42
0.41421356237307161
10
-281.84375000000006
20
29.037000000000006
10
-281.84375000000006
20
23.286999999999999
42
0.41421356237307422
10
-281.34375
20
22.786999999999988
10
-266.34375
20
22.787000000000013
42
0.41421356237312362
0
LWPOLYLINE
5
102
100
AcDbEntity
8
0
100
AcDbPolyline
90
8
70
1
43
0.0
10
-265.84375
20
47.162999999999997
10
-265.84375
20
52.912999999999997
42
0.41421356237314705
10
-266.34375
20
53.413000000000004
10
-281.34375
20
53.413000000000025
42
0.4142135623730846
10
-281.84375000000006
20
52.912999999999997
10
-281.84375
20
47.162999999999997
42
0.41421356237310025
10
-281.34375
20
46.663000000000025
10
-266.34375000000006
20
46.662999999999968
42
0.41421356237310542
0
LWPOLYLINE
5
103
100
AcDbEntity
8
0
100
AcDbPolyline
90
8
70
1
43
0.0
10
-280.34375
20
45.100000000000016
42
0.41421356237310025
10
-280.84375
20
44.600000000000001
10
-280.84375
20
31.600000000000001
42
0.41421356237314444
10
-280.34375
20
31.099999999999994
10
-267.34375
20
31.099999999999994
42
0.41421356237307422
10
-266.84375
20
31.600000000000001
10
-266.84375
20
44.600000000000001
42
0.41421356237310025
10
-267.34375
20
45.099999999999973
0
LWPOLYLINE
5
104
100
AcDbEntity
8
0
100
AcDbPolyline
90
8
70
1
43
0.0
10
-260.86250000000001
20
21.574999999999982
42
-0.41421356237310281
10
-261.36250000000007
20
22.074999999999999
10
-261.36250000000007
20
35.075000000000003
42
-0.41421356237298057
10
-260.86250000000001
20
35.57500000000001
10
-259.86250000000001
20
35.575000000000045
42
-0.4142135623730534
10
-259.36250000000007
20
35.075000000000003
10
-259.36250000000007
20
22.074999999999999
42
-0.41421356237307422
10
-259.86250000000001
20
21.575000000000006
0
LWPOLYLINE
5
105
100
AcDbEntity
8
0
100
AcDbPolyline
90
8
70
1
43
0.0
10
-39.837499999999999
20
59.675000000000004
42
-0.41421356237311324
10
-40.337500000000013
20
60.174999999999997
10
-40.337499999999991
20
73.174999999999983
42
-0.41421356237309243
10
-39.837499999999999
20
73.674999999999983
10
-26.837499999999999
20
73.674999999999983
42
-0.41421356237309764
10
-26.337499999999999
20
73.174999999999983
10
-26.337499999999995
20
60.174999999999997
42
-0.41421356237309764
10
-26.837499999999999
20
59.675000000000004
0
LWPOLYLINE
5
106
100
AcDbEntity
8
0
100
AcDbPolyline
90
8
70
1
43
0.0
10
-18.40625
20
59.675000000000004
42
-0.41421356237309631
10
-18.906250000000004
20
60.174999999999997
10
-18.906250000000004
20
73.174999999999983
42
-0.41421356237309764
10
-18.40625
20
73.674999999999983
10
-5.4062499999999991
20
73.674999999999983
42
-0.41421356237309698
10
-4.90625
20
73.174999999999983
10
-4.9062500000000009
20
60.174999999999997
42
-0.4142135623730957
10
-5.4062499999999991
20
59.675000000000004
0
LWPOLYLINE
5
107
100
AcDbEntity
8
0
100
AcDbPolyline
90
8
70
1
43
0.0
10
-264.08430521274954
20
73.174999999999983
42
-0.41421356237314189
10
-263.58430521274948
20
73.674999999999983
10
-262.58430521274948
20
73.675000000000011
42
-0.41421356237310025
10
-262.08430521274948
20
73.174999999999983
10
-262.08430521274948
20
60.174999999999997
42
-0.4142135623730222
10
-262.58430521274943
20
59.675000000000004
10
-263.58430521274948
20
59.674999999999976
42
-0.41421356237311585
10
-264.08430521274954
20
60.175000000000018
0
LWPOLYLINE
5
108
100
AcDbEntity
8
0
100
AcDbPolyline
90
8
70
1
43
0.0
10
-282.72500000000002
20
59.674999999999983
42
-0.41421356237310025
10
-283.22500000000002
20
60.174999999999997
10
-283.22500000000002
20
73.174999999999983
42
-0.41421356237314189
10
-282.72500000000002
20
73.674999999999983
10
-269.72500000000002
20
73.674999999999983
42
-0.41421356237313145
10
-269.22500000000002
20
73.174999999999983
10
-269.22500000000008
20
60.174999999999997
42
-0.4142135623730222
10
-269.72500000000002
20
59.675000000000004
0
LWPOLYLINE
5
109
100
AcDbEntity
8
0
100
AcDbPolyline
90
8
70
1
43
0.0
10
-78.724999999999994
20
3.0249999999999999
10
-78.724999999999994
20
16.024999999999999
42
0.41421356237307422
10
-79.22499999999998
20
16.524999999999999
10
-92.224999999999994
20
16.524999999999995
42
0.41421356237309764
10
-92.725000000000023
20
16.024999999999999
10
-92.725000000000023
20
3.0249999999999999
42
0.41421356237310347
10
-92.224999999999994
20
2.5249999999999928
10
-79.224999999999994
20
2.5249999999999972
42
0.41421356237309764
0
LWPOLYLINE
5
110
100
AcDbEntity
8
0
100
AcDbPolyline
90
8
70
1
43
0.0
10
-59.675000000000004
20
16.024999999999999
42
0.41421356237308593
10
-60.174999999999983
20
16.524999999999999
10
-73.174999999999983
20
16.525000000000006
42
0.41421356237308982
10
-73.674999999999983
20
16.024999999999999
10
-73.674999999999983
20
3.0249999999999999
42
0.4142135623731048
10
-73.174999999999983
20
2.5250000000000017
10
-60.174999999999997
20
2.524999999999999
42
0.41421356237309664
10
-59.675000000000004
20
3.0249999999999999
0
LWPOLYLINE
5
111
100
AcDbEntity
8
0
100
AcDbPolyline
90
8
70
1
43
0.0
10
-40.625
20
3.0249999999999999
10
-40.625
20
16.024999999999999
42
0.41421356237310802
10
-41.125000000000007
20
16.524999999999999
10
-54.125000000000014
20
16.525000000000002
42
0.41421356237310281
10
-54.625
20
16.024999999999999
10
-54.625000000000014
20
3.0249999999999999
42
0.4142135623731022
10
-54.125000000000021
20
2.5250000000000017
10
-41.125000000000007
20
2.5249999999999972
42
0.41421356237309764
0
LWPOLYLINE
5
112
100
AcDbEntity
8
0
100
AcDbPolyline
90
8
70
1
43
0.0
10
-21.575000000000006
20
3.0249999999999999
10
-21.575000000000006
20
16.024999999999999
42
0.41421356237308854
10
-22.074999999999999
20
16.524999999999999
10
-35.075000000000003
20
16.525000000000006
42
0.4142135623730937
10
-35.57500000000001
20
16.024999999999999
10
-35.57500000000001
20
3.0249999999999999
42
0.41421356237309537
10
-35.075000000000003
20
2.5250000000000017
10
-22.074999999999999
20
2.5250000000000004
42
0.41421356237308787
0
LWPOLYLINE
5
113
100
AcDbEntity
8
0
100
AcDbPolyline
90
8
70
1
43
0.0
10
-2.5249999999999999
20
3.0249999999999999
10
-2.5250000000000004
20
16.024999999999999
42
0.41421356237308399
10
-3.0249999999999844
20
16.525000000000002
10
-16.024999999999999
20
16.525000000000002
42
0.41421356237308982
10
-16.525000000000002
20
16.024999999999999
10
-16.525000000000002
20
3.0249999999999999
42
0.41421356237309859
10
-16.024999999999991
20
2.5249999999999995
10
-3.0249999999999999
20
2.5249999999999999
42
0.41421356237309437
0
LWPOLYLINE
5
114
100
AcDbEntity
8
0
100
AcDbPolyline
90
8
70
1
43
0.0
10
-111.27500000000001
20
2.5249999999999941
42
-0.41421356237309437
10
-111.77500000000002
20
3.0249999999999999
10
-111.77500000000002
20
16.024999999999999
42
-0.41421356237309243
10
-111.27500000000001
20
16.525000000000002
10
-98.275000000000006
20
16.524999999999995
42
-0.41421356237311846
10
-97.77500000000002
20
16.024999999999999
10
-97.77500000000002
20
3.0249999999999999
42
-0.41421356237305762
10
-98.275000000000006
20
2.5249999999999999
0
LWPOLYLINE
5
115
100
AcDbEntity
8
0
100
AcDbPolyline
90
8
70
1
43
0.0
10
-130.32499999999999
20
2.5249999999999941
42
-0.41421356237309437
10
-130.82499999999999
20
3.0249999999999999
10
-130.82499999999999
20
16.024999999999999
42
-0.41421356237309243
10
-130.32499999999999
20
16.525000000000002
10
-117.32500000000002
20
16.524999999999995
42
-0.41421356237311846
10
-116.82500000000003
20
16.024999999999999
10
-116.82500000000003
20
3.0249999999999999
42
-0.41421356237305762
10
-117.32500000000002
20
2.5249999999999999
0
LWPOLYLINE
5
116
100
AcDbEntity
8
0
100
AcDbPolyline
90
8
70
1
43
0.0
10
-149.375
20
2.5249999999999941
42
-0.41421356237309437
10
-149.875
20
3.0249999999999999
10
-149.875
20
16.024999999999999
42
-0.41421356237309243
10
-149.375
20
16.525000000000002
10
-136.375
20
16.525000000000009
42
-0.41421356237307549
10
-135.875
20
16.024999999999999
10
-135.875
20
3.0249999999999999
42
-0.41421356237307128
10
-136.375
20
2.5249999999999999
0
LWPOLYLINE
5
117
100
AcDbEntity
8
0
100
AcDbPolyline
90
8
70
1
43
0.0
10
-168.42500000000001
20
2.5249999999999817
42
-0.41421356237310153
10
-168.92500000000001
20
3.0249999999999999
10
-168.92500000000001
20
16.024999999999999
42
-0.41421356237309892
10
-168.42500000000001
20
16.525000000000002
10
-155.42500000000001
20
16.525000000000009
42
-0.41421356237307549
10
-154.92500000000001
20
16.024999999999999
10
-154.92500000000001
20
3.0249999999999999
42
-0.41421356237307128
10
-155.42500000000001
20
2.5249999999999999
0
LWPOLYLINE
5
118
100
AcDbEntity
8
0
100
AcDbPolyline
90
8
70
1
43
0.0
10
-187.47499999999999
20
2.5249999999999844
42
-0.41421356237309992
10
-187.97499999999999
20
3.0249999999999999
10
-187.97499999999997
20
16.024999999999999
42
-0.41421356237314577
10
-187.47499999999999
20
16.525000000000002
10
-174.47500000000005
20
16.524999999999984
42
-0.41421356237312362
10
-173.97500000000005
20
16.024999999999999
10
-173.97500000000002
20
3.0249999999999999
42
-0.4142135623731204
10
-174.47500000000005
20
2.5249999999999999
0
LWPOLYLINE
5
119
100
AcDbEntity
8
0
100
AcDbPolyline
90
8
70
1
43
0.0
10
-206.52500000000003
20
2.5249999999999817
42
-0.41421356237310153
10
-207.02500000000003
20
3.0249999999999999
10
-207.02500000000003
20
16.024999999999999
42
-0.41421356237309892
10
-206.52500000000003
20
16.525000000000002
10
-193.52500000000006
20
16.524999999999984
42
-0.41421356237312362
10
-193.02500000000006
20
16.024999999999999
10
-193.02500000000003
20
3.0249999999999999
42
-0.4142135623731204
10
-193.52500000000006
20
2.5249999999999999
0
LWPOLYLINE
5
120
100
AcDbEntity
8
0
100
AcDbPolyline
90
8
70
1
43
0.0
10
-225.57500000000002
20
2.5249999999999844
42
-0.41421356237309992
10
-226.07500000000002
20
3.0249999999999999
10
-226.07499999999999
20
16.024999999999999
42
-0.41421356237314577
10
-225.57500000000002
20
16.525000000000002
10
-212.57499999999999
20
16.524999999999984
42
-0.41421356237312362
10
-212.07499999999999
20
16.024999999999999
10
-212.07499999999996
20
3.0249999999999999
42
-0.4142135623731204
10
-212.57499999999999
20
2.5249999999999999
0
LWPOLYLINE
5
121
100
AcDbEntity
8
0
100
AcDbPolyline
90
8
70
1
43
0.0
10
-244.62500000000006
20
2.5249999999999595
42
-0.41421356237305212
10
-245.12500000000003
20
3.0249999999999999
10
-245.125
20
16.024999999999999
42
-0.41421356237308332
10
-244.62500000000006
20
16.525000000000002
10
-231.625
20
16.524999999999984
42
-0.41421356237312362
10
-231.125
20
16.024999999999999
10
-231.12499999999997
20
3.0249999999999999
42
-0.4142135623731204
10
-231.625
20
2.5249999999999999
0
LWPOLYLINE
5
122
100
AcDbEntity
8
0
100
AcDbPolyline
90
8
70
1
43
0.0
10
-20.787499999999994
20
21.575000000000003
42
-0.41421356237311063
10
-21.287500000000001
20
22.074999999999999
10
-21.287500000000005
20
35.075000000000003
42
-0.41421356237309243
10
-20.787500000000001
20
35.57500000000001
10
-7.7874999999999872
20
35.57500000000001
42
-0.41421356237308982
10
-7.2874999999999988
20
35.075000000000003
10
-7.2875000000000165
20
22.074999999999999
42
-0.41421356237309176
10
-7.7874999999999872
20
21.575000000000006
0
LWPOLYLINE
5
123
100
AcDbEntity
8
0
100
AcDbPolyline
90
8
70
1
43
0.0
10
-26.887500000000003
20
22.074999999999999
10
-26.887499999999996
20
35.075000000000003
42
-0.4142135623730846
10
-26.387499999999999
20
35.57500000000001
10
-25.387500000000006
20
35.575000000000003
42
-0.41421356237309243
10
-24.88750000000001
20
35.075000000000003
10
-24.887500000000003
20
22.074999999999999
42
-0.41421356237308982
10
-25.387500000000006
20
21.575000000000006
10
-26.387500000000017
20
21.575000000000006
42
-0.41421356237308982
0
LWPOLYLINE
5
124
100
AcDbEntity
8
0
100
AcDbPolyline
90
8
70
1
43
0.0
10
-3.6875000000000013
20
22.074999999999999
10
-3.687499999999988
20
35.075000000000003
42
-0.4142135623730937
10
-3.1875000000000009
20
35.57500000000001
10
-2.1875
20
35.57500000000001
42
-0.4142135623730957
10
-1.6875000000000009
20
35.075000000000003
10
-1.6874999999999918
20
22.074999999999999
42
-0.41421356237309309
10
-2.1875
20
21.575000000000006
10
-3.1875000000000142
20
21.575000000000006
42
-0.41421356237309243
0
LWPOLYLINE
5
125
100
AcDbEntity
8
0
100
AcDbPolyline
90
8
70
1
43
0.0
10
-112.56250000000001
20
40.625
10
-125.5625
20
40.624999999999993
42
-0.41421356237307422
10
-126.06250000000001
20
41.125
10
-126.06250000000001
20
54.125000000000014
42
-0.4142135623730846
10
-125.5625
20
54.625
10
-112.56250000000001
20
54.625000000000028
42
-0.41421356237310025
10
-112.0625
20
54.125000000000014
10
-112.0625
20
41.125
42
-0.41421356237308982
0
LWPOLYLINE
5
126
100
AcDbEntity
8
0
100
AcDbPolyline
90
8
70
1
43
0.0
10
-145.11250000000001
20
41.125
10
-145.11250000000001
20
54.125000000000014
42
-0.4142135623730846
10
-144.61250000000001
20
54.625
10
-131.61250000000001
20
54.625000000000028
42
-0.41421356237310025
10
-131.11250000000001
20
54.125000000000014
10
-131.11250000000001
20
41.125
42
-0.41421356237308982
10
-131.61250000000001
20
40.625
10
-144.61250000000001
20
40.624999999999993
42
-0.41421356237307422
0
LWPOLYLINE
5
127
100
AcDbEntity
8
0
100
AcDbPolyline
90
8
70
1
43
0.0
10
-163.66250000000005
20
40.624999999999986
42
-0.41421356237310025
10
-164.16250000000005
20
41.125
10
-164.16250000000005
20
54.125000000000014
42
-0.41421356237316787
10
-163.66250000000005
20
54.625
10
-150.66249999999999
20
54.625000000000028
42
-0.41421356237310025
10
-150.16249999999999
20
54.125000000000014
10
-150.16249999999999
20
41.125
42
-0.41421356237308982
10
-150.66249999999999
20
40.625
0
LWPOLYLINE
5
128
100
AcDbEntity
8
0
100
AcDbPolyline
90
8
70
1
43
0.0
10
-182.71250000000009
20
40.625000000000007
42
-0.4142135623730846
10
-183.21250000000003
20
41.125
10
-183.21250000000006
20
54.125000000000014
42
-0.41421356237309503
10
-182.71250000000006
20
54.625
10
-169.71250000000001
20
54.625000000000021
42
-0.41421356237309503
10
-169.21250000000001
20
54.125000000000014
10
-169.21250000000001
20
41.125
42
-0.41421356237313667
10
-169.71250000000001
20
40.625
0
LWPOLYLINE
5
129
100
AcDbEntity
8
0
100
AcDbPolyline
90
8
70
1
43
0.0
10
-201.76249999999999
20
40.624999999999986
42
-0.41421356237310025
10
-202.26249999999999
20
41.125
10
-202.26249999999999
20
54.125000000000014
42
-0.41421356237316787
10
-201.76249999999999
20
54.625
10
-188.76249999999999
20
54.625
42
-0.41421356237312623
10
-188.26249999999999
20
54.125000000000014
10
-188.26249999999993
20
41.125
42
-0.41421356237312101
10
-188.76249999999999
20
40.625
0
LWPOLYLINE
5
130
100
AcDbEntity
8
0
100
AcDbPolyline
90
8
70
1
43
0.0
10
-220.8125
20
40.624999999999986
42
-0.41421356237310025
10
-221.3125
20
41.125
10
-221.3125
20
54.125000000000014
42
-0.41421356237316787
10
-220.8125
20
54.625
10
-207.8125
20
54.62500000000005
42
-0.41421356237304818
10
-207.31250000000003
20
54.125000000000014
10
-207.31250000000006
20
41.125
42
-0.4142135623730846
10
-207.8125
20
40.625
0
LWPOLYLINE
5
131
100
AcDbEntity
8
0
100
AcDbPolyline
90
8
70
1
43
0.0
10
-239.86250000000001
20
40.624999999999986
42
-0.41421356237310025
10
-240.36250000000001
20
41.125
10
-240.36250000000001
20
54.125000000000014
42
-0.41421356237316787
10
-239.86250000000001
20
54.625
10
-226.86250000000001
20
54.62500000000005
42
-0.41421356237304818
10
-226.36250000000004
20
54.125000000000014
10
-226.36250000000007
20
41.125
42
-0.4142135623730846
10
-226.86250000000001
20
40.625
0
LWPOLYLINE
5
132
100
AcDbEntity
8
0
100
AcDbPolyline
90
8
70
1
43
0.0
10
-58.887500000000017
20
59.675000000000004
42
-0.41421356237308982
10
-59.387500000000003
20
60.174999999999997
10
-59.387499999999989
20
73.174999999999983
42
-0.41421356237307944
10
-58.887500000000017
20
73.674999999999983
10
-45.88750000000001
20
73.674999999999983
42
-0.41421356237310542
10
-45.387500000000003
20
73.174999999999983
10
-45.387499999999996
20
60.174999999999997
42
-0.41421356237310542
10
-45.88750000000001
20
59.675000000000004
0
LWPOLYLINE
5
133
100
AcDbEntity
8
0
100
AcDbPolyline
90
8
70
1
43
0.0
10
-77.9375
20
59.675000000000004
42
-0.41421356237311585
10
-78.4375
20
60.174999999999997
10
-78.4375
20
73.174999999999983
42
-0.4142135623730846
10
-77.9375
20
73.674999999999983
10
-64.937499999999986
20
73.674999999999983
42
-0.41421356237307422
10
-64.4375
20
73.174999999999983
10
-64.437500000000014
20
60.174999999999997
42
-0.41421356237307944
10
-64.937499999999986
20
59.675000000000004
0
LWPOLYLINE
5
134
100
AcDbEntity
8
0
100
AcDbPolyline
90
8
70
1
43
0.0
10
-96.987500000000011
20
59.674999999999997
42
-0.41421356237311585
10
-97.487500000000011
20
60.174999999999997
10
-97.487500000000011
20
73.174999999999983
42
-0.41421356237310542
10
-96.987500000000011
20
73.674999999999983
10
-83.987499999999997
20
73.67500000000004
42
-0.414213562373069
10
-83.487499999999983
20
73.174999999999983
10
-83.487499999999983
20
60.174999999999997
42
-0.41421356237310542
10
-83.987499999999983
20
59.675000000000004
0
LWPOLYLINE
5
135
100
AcDbEntity
8
0
100
AcDbPolyline
90
8
70
1
43
0.0
10
-116.03749999999998
20
59.675000000000011
42
-0.41421356237311585
10
-116.53750000000001
20
60.174999999999997
10
-116.53749999999999
20
73.174999999999983
42
-0.41421356237307422
10
-116.03749999999999
20
73.674999999999983
10
-103.03750000000001
20
73.675000000000026
42
-0.41421356237311063
10
-102.53749999999999
20
73.174999999999983
10
-102.53749999999999
20
60.174999999999997
42
-0.41421356237310542
10
-103.03750000000001
20
59.675000000000004
0
LWPOLYLINE
5
136
100
AcDbEntity
8
0
100
AcDbPolyline
90
8
70
1
43
0.0
10
-135.08750000000001
20
59.674999999999997
42
-0.41421356237309503
10
-135.58750000000001
20
60.174999999999997
10
-135.58750000000001
20
73.174999999999983
42
-0.41421356237307422
10
-135.08750000000001
20
73.674999999999983
10
-122.08750000000002
20
73.675000000000026
42
-0.41421356237311063
10
-121.58750000000001
20
73.174999999999983
10
-121.58750000000001
20
60.174999999999997
42
-0.41421356237310542
10
-122.08750000000002
20
59.675000000000004
0
LWPOLYLINE
5
137
100
AcDbEntity
8
0
100
AcDbPolyline
90
8
70
1
43
0.0
10
-154.13749999999999
20
59.675000000000004
42
-0.41421356237308982
10
-154.63750000000005
20
60.174999999999997
10
-154.63750000000005
20
73.174999999999983
42
-0.41421356237308982
10
-154.13749999999999
20
73.674999999999983
10
-141.13749999999999
20
73.675000000000026
42
-0.41421356237311063
10
-140.63749999999999
20
73.174999999999983
10
-140.63749999999999
20
60.174999999999997
42
-0.41421356237310542
10
-141.13749999999999
20
59.675000000000004
0
LWPOLYLINE
5
138
100
AcDbEntity
8
0
100
AcDbPolyline
90
8
70
1
43
0.0
10
-173.1875
20
59.675000000000004
42
-0.41421356237313145
10
-173.68750000000003
20
60.174999999999997
10
-173.6875
20
73.174999999999983
42
-0.4142135623730222
10
-173.1875
20
73.674999999999983
10
-160.1875
20
73.675000000000026
42
-0.41421356237311063
10
-159.6875
20
73.174999999999983
10
-159.6875
20
60.174999999999997
42
-0.41421356237309503
10
-160.1875
20
59.675000000000004
0
LWPOLYLINE
5
139
100
AcDbEntity
8
0
100
AcDbPolyline
90
8
70
1
43
0.0
10
-192.23750000000001
20
59.675000000000018
42
-0.41421356237310025
10
-192.73750000000007
20
60.174999999999997
10
-192.73750000000007
20
73.174999999999983
42
-0.41421356237310025
10
-192.23750000000001
20
73.674999999999983
10
-179.23750000000001
20
73.675000000000026
42
-0.41421356237311063
10
-178.73750000000001
20
73.174999999999983
10
-178.73750000000001
20
60.174999999999997
42
-0.41421356237314189
10
-179.23750000000001
20
59.675000000000004
0
LWPOLYLINE
5
140
100
AcDbEntity
8
0
100
AcDbPolyline
90
8
70
1
43
0.0
10
-211.28749999999999
20
59.674999999999983
42
-0.41421356237310025
10
-211.78750000000002
20
60.174999999999997
10
-211.78750000000002
20
73.174999999999983
42
-0.41421356237314189
10
-211.28749999999999
20
73.674999999999983
10
-198.28749999999999
20
73.675000000000054
42
-0.41421356237306384
10
-197.78750000000002
20
73.174999999999983
10
-197.78750000000005
20
60.174999999999997
42
-0.4142135623730846
10
-198.28749999999999
20
59.675000000000004
0
LWPOLYLINE
5
141
100
AcDbEntity
8
0
100
AcDbPolyline
90
8
70
1
43
0.0
10
-230.33750000000001
20
59.675000000000018
42
-0.41421356237310025
10
-230.83750000000006
20
60.174999999999997
10
-230.83750000000009
20
73.174999999999983
42
-0.41421356237310025
10
-230.33750000000001
20
73.674999999999983
10
-217.33750000000001
20
73.675000000000054
42
-0.41421356237306384
10
-216.83750000000003
20
73.174999999999983
10
-216.83750000000006
20
60.174999999999997
42
-0.4142135623730846
10
-217.33750000000001
20
59.675000000000004
0
LWPOLYLINE
5
142
100
AcDbEntity
8
0
100
AcDbPolyline
90
8
70
1
43
0.0
10
-256.53125
20
59.675000000000018
10
-243.53125000000006
20
59.675000000000018
42
0.41421356237310025
10
-243.03125
20
60.174999999999997
10
-243.03125
20
73.174999999999983
42
0.4142135623730534
10
-243.53125000000006
20
73.67500000000004
10
-256.53125
20
73.674999999999969
42
0.41421356237310025
10
-257.03125000000006
20
73.174999999999983
10
-257.03125
20
60.174999999999997
42
0.41421356237310025
0
LWPOLYLINE
5
143
100
AcDbEntity
8
0
100
AcDbPolyline
90
8
70
1
43
0.0
10
-21.287500000000001
20
79.22499999999998
10
-21.287499999999998
20
92.224999999999994
42
-0.41421356237309764
10
-20.787500000000001
20
92.725000000000023
10
-7.7874999999999872
20
92.725000000000051
42
-0.41421356237310936
10
-7.2874999999999988
20
92.224999999999994
10
-7.2875000000000227
20
79.22499999999998
42
-0.41421356237309631
10
-7.7874999999999872
20
78.724999999999994
10
-20.787499999999994
20
78.724999999999994
42
-0.41421356237308204
0
LWPOLYLINE
5
144
100
AcDbEntity
8
0
100
AcDbPolyline
90
8
70
1
43
0.0
10
-26.387500000000017
20
78.724999999999994
42
-0.41421356237307422
10
-26.887500000000003
20
79.22499999999998
10
-26.887499999999992
20
92.224999999999994
42
-0.41421356237309764
10
-26.387499999999999
20
92.725000000000023
10
-25.387500000000006
20
92.725000000000023
42
-0.41421356237310025
10
-24.88750000000001
20
92.224999999999994
10
-24.887499999999996
20
79.224999999999994
42
-0.41421356237309243
10
-25.387500000000006
20
78.724999999999994
0
LWPOLYLINE
5
145
100
AcDbEntity
8
0
100
AcDbPolyline
90
8
70
1
43
0.0
10
-3.1875000000000142
20
78.724999999999994
42
-0.41421356237307716
10
-3.6875000000000013
20
79.22499999999998
10
-3.6875000000000107
20
92.224999999999994
42
-0.41421356237308626
10
-3.1875000000000009
20
92.725000000000023
10
-2.1875
20
92.725000000000023
42
-0.41421356237310186
10
-1.6875000000000009
20
92.224999999999994
10
-1.6874999999999909
20
79.22499999999998
42
-0.41421356237309098
10
-2.1875
20
78.724999999999994
0
LWPOLYLINE
5
146
100
AcDbEntity
8
0
100
AcDbPolyline
90
8
70
1
43
0.0
10
-45.100000000000009
20
79.22499999999998
10
-45.100000000000009
20
92.224999999999994
42
-0.4142135623730846
10
-44.600000000000001
20
92.725000000000023
10
-31.600000000000001
20
92.725000000000023
42
-0.41421356237309764
10
-31.100000000000001
20
92.224999999999994
10
-31.099999999999994
20
79.22499999999998
42
-0.41421356237308982
10
-31.600000000000001
20
78.724999999999994
10
-44.600000000000009
20
78.724999999999994
42
-0.4142135623730846
0
LWPOLYLINE
5
147
100
AcDbEntity
8
0
100
AcDbPolyline
90
8
70
1
43
0.0
10
-68.412499999999994
20
78.724999999999994
42
-0.41421356237309503
10
-68.912499999999994
20
79.22499999999998
10
-68.91249999999998
20
92.224999999999994
42
-0.41421356237309503
10
-68.412499999999994
20
92.725000000000023
10
-55.412500000000016
20
92.725000000000023
42
-0.41421356237310542
10
-54.912500000000009
20
92.224999999999994
10
-54.912500000000009
20
79.22499999999998
42
-0.41421356237310025
10
-55.412500000000016
20
78.724999999999994
0
LWPOLYLINE
5
148
100
AcDbEntity
8
0
100
AcDbPolyline
90
8
70
1
43
0.0
10
-74.012500000000017
20
78.724999999999994
42
-0.41421356237310025
10
-74.512500000000003
20
79.22499999999998
10
-74.512500000000003
20
92.224999999999994
42
-0.41421356237309503
10
-74.012500000000017
20
92.725000000000023
10
-73.012500000000003
20
92.725000000000023
42
-0.41421356237310025
10
-72.512500000000003
20
92.224999999999994
10
-72.512500000000003
20
79.22499999999998
42
-0.41421356237309503
10
-73.012500000000003
20
78.724999999999994
0
LWPOLYLINE
5
149
100
AcDbEntity
8
0
100
AcDbPolyline
90
8
70
1
43
0.0
10
-51.312500000000014
20
79.22499999999998
10
-51.312500000000021
20
92.224999999999994
42
-0.41421356237308982
10
-50.812500000000007
20
92.725000000000023
10
-49.812499999999993
20
92.725000000000051
42
-0.41421356237311063
10
-49.3125
20
92.224999999999994
10
-49.312499999999993
20
79.22499999999998
42
-0.41421356237309503
10
-49.812499999999993
20
78.724999999999994
10
-50.812500000000007
20
78.724999999999994
42
-0.41421356237307944
0
LWPOLYLINE
5
150
100
AcDbEntity
8
0
100
AcDbPolyline
90
20
70
1
43
0.0
10
-107.79193991247816
20
87.85599089881859
42
-0.41421356237308982
10
-105.79193991247817
20
85.855990898818561
10
-105.79193991247817
20
85.594009101181427
42
-0.41421356237309503
10
-107.79193991247816
20
83.594009101181427
10
-135.875
20
83.594009101181427
10
-135.87500000000003
20
79.22499999999998
42
-0.41421356237308982
10
-136.375
20
78.724999999999994
10
-149.375
20
78.724999999999994
42
-0.41421356237308982
10
-149.875
20
79.22499999999998
10
-149.875
20
83.594009101181427
10
-177.95806008752186
20
83.594009101181413
42
-0.41421356237309764
10
-179.95806008752186
20
85.594009101181427
10
-179.95806008752186
20
85.855990898818561
42
-0.41421356237309764
10
-177.95806008752186
20
87.855990898818575
10
-149.875
20
87.855990898818575
10
-149.875
20
92.224999999999994
42
-0.41421356237311585
10
-149.375
20
92.725000000000023
10
-136.375
20
92.725000000000051
42
-0.41421356237311585
10
-135.875
20
92.224999999999994
10
-135.875
20
87.855990898818575
0
LWPOLYLINE
5
151
100
AcDbEntity
8
0
100
AcDbPolyline
90
8
70
1
43
0.0
10
-230.33750000000001
20
78.724999999999994
42
-0.414213562373069
10
-230.83750000000006
20
79.22499999999998
10
-230.83750000000003
20
92.224999999999994
42
-0.4142135623730534
10
-230.33750000000001
20
92.725000000000023
10
-217.33750000000001
20
92.725000000000051
42
-0.41421356237309503
10
-216.83750000000003
20
92.224999999999994
10
-216.83750000000006
20
79.22499999999998
42
-0.4142135623730846
10
-217.33750000000001
20
78.724999999999994
0
LWPOLYLINE
5
152
100
AcDbEntity
8
0
100
AcDbPolyline
90
8
70
1
43
0.0
10
-236.4375
20
79.22499999999998
10
-236.43749999999997
20
92.224999999999994
42
-0.41421356237300139
10
-235.9375
20
92.725000000000023
10
-234.93750000000006
20
92.725000000000023
42
-0.4142135623730846
10
-234.4375
20
92.224999999999994
10
-234.4375
20
79.22499999999998
42
-0.41421356237311063
10
-234.93750000000006
20
78.724999999999994
10
-235.9375
20
78.725000000000009
42
-0.41421356237312101
0
LWPOLYLINE
5
153
100
AcDbEntity
8
0
100
AcDbPolyline
90
8
70
1
43
0.0
10
-212.73750000000007
20
78.724999999999952
42
-0.41421356237304818
10
-213.23750000000004
20
79.22499999999998
10
-213.23750000000001
20
92.224999999999994
42
-0.41421356237306384
10
-212.73750000000007
20
92.725000000000023
10
-211.73750000000001
20
92.725000000000051
42
-0.41421356237311585
10
-211.23750000000001
20
92.224999999999994
10
-211.23750000000001
20
79.22499999999998
42
-0.41421356237313667
10
-211.73750000000001
20
78.724999999999994
0
LWPOLYLINE
5
154
100
AcDbEntity
8
0
100
AcDbPolyline
90
8
70
1
43
0.0
10
-254.15000000000006
20
78.724999999999952
42
-0.41421356237304818
10
-254.65000000000003
20
79.22499999999998
10
-254.65000000000001
20
92.224999999999994
42
-0.41421356237306384
10
-254.15000000000006
20
92.725000000000023
10
-241.15000000000009
20
92.725000000000023
42
-0.4142135623730846
10
-240.65000000000001
20
92.224999999999994
10
-240.65000000000001
20
79.22499999999998
42
-0.41421356237311063
10
-241.15000000000006
20
78.724999999999994
0
LWPOLYLINE
5
155
100
AcDbEntity
8
0
100
AcDbPolyline
90
8
70
1
43
0.0
10
-277.96249999999998
20
78.724999999999994
42
-0.414213562373069
10
-278.46250000000003
20
79.22499999999998
10
-278.46250000000003
20
92.224999999999994
42
-0.4142135623730534
10
-277.96249999999998
20
92.725000000000023
10
-264.96249999999998
20
92.725000000000051
42
-0.41421356237311585
10
-264.46249999999998
20
92.224999999999994
10
-264.46249999999998
20
79.22499999999998
42
-0.41421356237313667
10
-264.96249999999998
20
78.724999999999994
0
LWPOLYLINE
5
156
100
AcDbEntity
8
0
100
AcDbPolyline
90
8
70
1
43
0.0
10
-283.5625
20
78.724999999999994
42
-0.414213562373069
10
-284.06250000000006
20
79.22499999999998
10
-284.06250000000006
20
92.224999999999994
42
-0.4142135623730534
10
-283.5625
20
92.725000000000023
10
-282.5625
20
92.725000000000009
42
-0.41421356237313667
10
-282.0625
20
92.224999999999994
10
-282.0625
20
79.22499999999998
42
-0.41421356237312101
10
-282.5625
20
78.724999999999994
0
LWPOLYLINE
5
157
100
AcDbEntity
8
0
100
AcDbPolyline
90
8
70
1
43
0.0
10
-260.86250000000001
20
79.22499999999998
10
-260.86250000000001
20
92.224999999999994
42
-0.41421356237300139
10
-260.36250000000001
20
92.725000000000023
10
-259.36250000000001
20
92.725000000000051
42
-0.41421356237309503
10
-258.86250000000007
20
92.224999999999994
10
-258.86250000000007
20
79.22499999999998
42
-0.4142135623730846
10
-259.36250000000001
20
78.724999999999994
10
-260.36250000000001
20
78.725000000000009
42
-0.41421356237312101
0
LWPOLYLINE
5
158
100
AcDbEntity
8
0
100
AcDbPolyline
90
8
70
1
43
0.0
10
-237.53743580380865
20
73.674999999999983
10
-236.53743580380862
20
73.674999999999997
42
-0.41421356237307422
10
-236.03743580380865
20
73.174999999999983
10
-236.03743580380868
20
60.174999999999997
42
-0.4142135623730846
10
-236.53743580380862
20
59.675000000000004
10
-237.53743580380865
20
59.675000000000018
42
-0.41421356237313145
10
-238.03743580380865
20
60.175000000000018
10
-238.03743580380859
20
73.174999999999983
42
-0.4142135623730222
0
LWPOLYLINE
5
159
100
AcDbEntity
8
0
100
AcDbPolyline
90
16
70
1
43
0.0
10
1.9455537860986394
20
94.23403570169414
42
-0.25003001086503562
10
-1.2159642983058692
20
97.395553786098588
42
0.3301169205546105
10
-1.6943094617102261
20
97.749999999999972
10
-284.05569053828981
20
97.75
42
0.33011692055459979
10
-284.53403570169417
20
97.395553786098588
42
-0.25003001086503407
10
-287.69555378609869
20
94.234035701694182
42
0.33011692055460523
10
-288.05000000000001
20
93.755690538289812
10
-288.05000000000007
20
1.2698484809835269
42
0.19891236737965534
10
-287.46421356237312
20
-0.14436508138957499
10
-285.69436508138961
20
-1.9142135623731051
42
0.198912367379661
10
-284.28015151901656
20
-2.5000000000000044
10
-1.4698484809834866
20
-2.5000000000000022
42
0.19891236737965662
10
-0.055634918610401041
20
-1.9142135623730969
10
1.7142135623731032
20
-0.14436508138958415
42
0.19891236737965731
10
2.3000000000000083
20
1.2698484809835087
10
2.3000000000000069
20
93.755690538289755
42
0.33011692055462188
0
LWPOLYLINE
5
160
100
AcDbEntity
8
0
100
AcDbPolyline
90
8
70
1
43
0.0
10
-93.512500000000003
20
40.625
10
-106.51250000000002
20
40.624999999999986
42
-0.41421356237308982
10
-107.01250000000002
20
41.125
10
-107.01250000000002
20
54.125000000000014
42
-0.41421356237311585
10
-106.51250000000003
20
54.625
10
-93.512500000000003
20
54.625000000000021
42
-0.41421356237312623
10
-93.012500000000017
20
54.125000000000014
10
-93.012500000000017
20
41.125
42
-0.41421356237305862
0
LWPOLYLINE
5
161
100
AcDbEntity
8
0
100
AcDbPolyline
90
8
70
1
43
0.0
10
-74.462499999999977
20
40.625
10
-87.462500000000034
20
40.625
42
-0.41421356237312101
10
-87.96250000000002
20
41.125
10
-87.962500000000006
20
54.125000000000014
42
-0.41421356237311585
10
-87.46250000000002
20
54.625
10
-74.462499999999977
20
54.625
42
-0.4142135623730846
10
-73.962500000000006
20
54.125000000000014
10
-73.962500000000034
20
41.125
42
-0.41421356237310025
0
LWPOLYLINE
5
162
100
AcDbEntity
8
0
100
AcDbPolyline
90
8
70
1
43
0.0
10
-55.412500000000016
20
40.625
10
-68.412499999999994
20
40.625
42
-0.41421356237309503
10
-68.912499999999994
20
41.125
10
-68.912500000000009
20
54.125000000000014
42
-0.41421356237307422
10
-68.412499999999994
20
54.625
10
-55.412500000000016
20
54.625
42
-0.41421356237311585
10
-54.912500000000009
20
54.125000000000014
10
-54.912500000000009
20
41.125
42
-0.41421356237310025
0
LWPOLYLINE
5
163
100
AcDbEntity
8
0
100
AcDbPolyline
90
8
70
1
43
0.0
10
-35.86249999999999
20
41.125
42
-0.41421356237310025
10
-36.362499999999997
20
40.625
10
-49.362500000000011
20
40.624999999999993
42
-0.41421356237307422
10
-49.862499999999997
20
41.125
10
-49.86249999999999
20
54.125000000000014
42
-0.41421356237309503
10
-49.362500000000004
20
54.625
10
-36.362499999999997
20
54.625
42
-0.4142135623730846
10
-35.862500000000011
20
54.125000000000014
0
LWPOLYLINE
5
164
100
AcDbEntity
8
0
100
AcDbPolyline
90
8
70
1
43
0.0
10
-29.268750000000004
20
40.625
10
-30.268749999999986
20
40.625
42
-0.41421356237308721
10
-30.768750000000004
20
41.125
10
-30.768749999999983
20
54.125000000000014
42
-0.41421356237308204
10
-30.268750000000001
20
54.625
10
-29.268750000000004
20
54.625
42
-0.41421356237311063
10
-28.768750000000004
20
54.125000000000014
10
-28.768750000000004
20
41.125
42
-0.41421356237309503
0
LWPOLYLINE
5
165
100
AcDbEntity
8
0
100
AcDbPolyline
90
8
70
1
43
0.0
10
-241.15000000000006
20
21.575000000000006
10
-254.15000000000006
20
21.57499999999996
42
-0.41421356237305079
10
-254.65000000000003
20
22.074999999999999
10
-254.65000000000003
20
35.075000000000003
42
-0.4142135623730846
10
-254.15000000000006
20
35.57500000000001
10
-241.15000000000006
20
35.57500000000001
42
-0.41421356237307422
10
-240.65000000000001
20
35.075000000000003
10
-240.65000000000001
20
22.074999999999999
42
-0.41421356237310025
0
LWPOLYLINE
5
166
100
AcDbEntity
8
0
100
AcDbPolyline
90
8
70
1
43
0.0
10
-222.10000000000002
20
21.575000000000006
10
-235.10000000000002
20
21.574999999999989
42
-0.41421356237309764
10
-235.60000000000002
20
22.074999999999999
10
-235.60000000000002
20
35.075000000000003
42
-0.41421356237314444
10
-235.10000000000002
20
35.57500000000001
10
-222.10000000000002
20
35.575000000000017
42
-0.41421356237310025
10
-221.59999999999999
20
35.075000000000003
10
-221.60000000000002
20
22.074999999999999
42
-0.41421356237301959
0
LWPOLYLINE
5
167
100
AcDbEntity
8
0
100
AcDbPolyline
90
8
70
1
43
0.0
10
-203.05000000000007
20
21.575000000000006
10
-216.05000000000004
20
21.574999999999982
42
-0.41421356237310281
10
-216.55000000000004
20
22.074999999999999
10
-216.55000000000004
20
35.075000000000003
42
-0.41421356237310025
10
-216.05000000000004
20
35.57500000000001
10
-203.05000000000007
20
35.575000000000031
42
-0.4142135623730846
10
-202.55000000000001
20
35.075000000000003
10
-202.55000000000001
20
22.074999999999999
42
-0.41421356237310025
0
LWPOLYLINE
5
168
100
AcDbEntity
8
0
100
AcDbPolyline
90
8
70
1
43
0.0
10
-184.00000000000003
20
21.575000000000006
10
-197.00000000000003
20
21.574999999999982
42
-0.41421356237310281
10
-197.50000000000003
20
22.074999999999999
10
-197.50000000000003
20
35.075000000000003
42
-0.41421356237310025
10
-197.00000000000003
20
35.57500000000001
10
-184.00000000000003
20
35.575000000000017
42
-0.41421356237309764
10
-183.5
20
35.075000000000003
10
-183.5
20
22.074999999999999
42
-0.41421356237316265
0
LWPOLYLINE
5
169
100
AcDbEntity
8
0
100
AcDbPolyline
90
8
70
1
43
0.0
10
-164.95000000000005
20
21.575000000000006
10
-177.94999999999999
20
21.574999999999989
42
-0.41421356237309764
10
-178.44999999999999
20
22.074999999999999
10
-178.44999999999999
20
35.075000000000003
42
-0.41421356237314444
10
-177.94999999999999
20
35.57500000000001
10
-164.95000000000005
20
35.575000000000031
42
-0.4142135623730846
10
-164.44999999999999
20
35.075000000000003
10
-164.44999999999999
20
22.074999999999999
42
-0.41421356237310025
0
LWPOLYLINE
5
170
100
AcDbEntity
8
0
100
AcDbPolyline
90
8
70
1
43
0.0
10
-145.90000000000001
20
21.575000000000006
10
-158.90000000000001
20
21.574999999999992
42
-0.41421356237309503
10
-159.40000000000001
20
22.074999999999999
10
-159.40000000000001
20
35.075000000000003
42
-0.41421356237309243
10
-158.90000000000001
20
35.57500000000001
10
-145.90000000000001
20
35.575000000000003
42
-0.41421356237307161
10
-145.40000000000001
20
35.075000000000003
10
-145.40000000000003
20
22.074999999999999
42
-0.41421356237308721
0
LWPOLYLINE
5
171
100
AcDbEntity
8
0
100
AcDbPolyline
90
8
70
1
43
0.0
10
-126.85000000000001
20
21.575000000000006
10
-139.84999999999999
20
21.574999999999992
42
-0.41421356237309503
10
-140.34999999999999
20
22.074999999999999
10
-140.34999999999999
20
35.075000000000003
42
-0.41421356237309243
10
-139.84999999999999
20
35.57500000000001
10
-126.85000000000001
20
35.575000000000003
42
-0.41421356237307161
10
-126.34999999999999
20
35.075000000000003
10
-126.35000000000004
20
22.074999999999999
42
-0.41421356237308721
0
LWPOLYLINE
5
172
100
AcDbEntity
8
0
100
AcDbPolyline
90
8
70
1
43
0.0
10
-107.80000000000001
20
21.575000000000006
10
-120.79999999999998
20
21.574999999999989
42
-0.41421356237308721
10
-121.30000000000001
20
22.074999999999999
10
-121.29999999999997
20
35.075000000000003
42
-0.41421356237309243
10
-120.8
20
35.57500000000001
10
-107.80000000000001
20
35.575000000000003
42
-0.41421356237309243
10
-107.30000000000001
20
35.075000000000003
10
-107.30000000000001
20
22.074999999999999
42
-0.41421356237308721
0
LWPOLYLINE
5
173
100
AcDbEntity
8
0
100
AcDbPolyline
90
8
70
1
43
0.0
10
-88.250000000000014
20
22.074999999999999
42
-0.41421356237305601
10
-88.75
20
21.575000000000006
10
-101.75
20
21.574999999999992
42
-0.41421356237309503
10
-102.25000000000001
20
22.074999999999999
10
-102.25000000000001
20
35.075000000000003
42
-0.41421356237309243
10
-101.75
20
35.57500000000001
10
-88.75
20
35.574999999999996
42
-0.41421356237311846
10
-88.250000000000014
20
35.075000000000003
0
LWPOLYLINE
5
174
100
AcDbEntity
8
0
100
AcDbPolyline
90
8
70
1
43
0.0
10
-69.699999999999989
20
21.575000000000006
10
-82.700000000000031
20
21.575000000000003
42
-0.41421356237312101
10
-83.200000000000017
20
22.074999999999999
10
-83.199999999999989
20
35.075000000000003
42
-0.41421356237309243
10
-82.700000000000017
20
35.57500000000001
10
-69.699999999999989
20
35.57500000000001
42
-0.41421356237308982
10
-69.200000000000003
20
35.075000000000003
10
-69.200000000000017
20
22.074999999999999
42
-0.41421356237308721
0
LWPOLYLINE
5
175
100
AcDbEntity
8
0
100
AcDbPolyline
90
8
70
1
43
0.0
10
-50.650000000000013
20
21.575000000000006
10
-63.65000000000002
20
21.575000000000003
42
-0.41421356237307944
10
-64.150000000000006
20
22.074999999999999
10
-64.149999999999977
20
35.075000000000003
42
-0.41421356237310025
10
-63.65000000000002
20
35.57500000000001
10
-50.650000000000013
20
35.575000000000017
42
-0.41421356237309243
10
-50.150000000000013
20
35.075000000000003
10
-50.15000000000002
20
22.074999999999999
42
-0.41421356237310542
0
LWPOLYLINE
5
176
100
AcDbEntity
8
0
100
AcDbPolyline
90
8
70
1
43
0.0
10
-31.600000000000001
20
21.575000000000006
10
-44.600000000000009
20
21.575000000000006
42
-0.41421356237309243
10
-45.100000000000009
20
22.074999999999999
10
-45.09999999999998
20
35.075000000000003
42
-0.41421356237309764
10
-44.600000000000001
20
35.57500000000001
10
-31.600000000000001
20
35.575000000000003
42
-0.41421356237309243
10
-31.100000000000001
20
35.075000000000003
10
-31.099999999999994
20
22.074999999999999
42
-0.41421356237309764
0
LWPOLYLINE
5
177
100
AcDbEntity
8
0
100
AcDbPolyline
90
8
70
1
43
0.0
10
-4.9062499999999947
20
53.875000000000014
10
-4.9062499999999947
20
41.375000000000014
42
-0.41421356237309503
10
-5.6562499999999964
20
40.625000000000007
10
-22.918750000000003
20
40.625000000000007
42
-0.41421356237309503
10
-23.668750000000003
20
41.375000000000014
10
-23.668750000000003
20
53.875000000000014
42
-0.41421356237309503
10
-22.918750000000003
20
54.625000000000014
10
-5.6562499999999947
20
54.625000000000014
42
-0.41421356237309503
0
LWPOLYLINE
5
178
100
AcDbEntity
8
0
100
AcDbPolyline
90
32
70
1
43
0.0
10
-250.1750000000001
20
3.2750000000000301
42
-0.41421356237309503
10
-250.92500000000007
20
2.5250000000000328
10
-251.26200000000009
20
2.525000000000031
10
-251.26200000000009
20
2.2750000000000328
42
-0.41421356237309498
10
-252.01200000000006
20
1.5250000000000323
10
-257.51200000000006
20
1.5250000000000408
42
-0.41421356237309503
10
-258.26200000000006
20
2.2750000000000337
10
-258.26200000000006
20
2.5250000000000323
10
-275.13800000000009
20
2.5250000000000346
10
-275.13800000000009
20
2.2750000000000359
42
-0.41421356237309503
10
-275.88800000000003
20
1.5250000000000359
10
-281.38800000000009
20
1.5250000000000434
42
-0.41421356237309503
10
-282.13800000000003
20
2.2750000000000363
10
-282.13800000000003
20
2.525000000000035
10
-282.47500000000008
20
2.5250000000000057
42
-0.41421356237309614
10
-283.22500000000014
20
3.2750000000000368
10
-283.22500000000008
20
15.775000000000041
42
-0.41421356237309503
10
-282.47500000000008
20
16.525000000000038
10
-282.13800000000003
20
16.525000000000038
10
-282.13800000000003
20
16.775000000000038
42
-0.41421356237309503
10
-281.38800000000009
20
17.525000000000038
10
-275.88800000000003
20
17.525000000000027
42
-0.41421356237309503
10
-275.13800000000009
20
16.775000000000034
10
-275.13800000000009
20
16.525000000000038
10
-258.26200000000006
20
16.525000000000034
10
-258.26200000000006
20
16.775000000000034
42
-0.41421356237309503
10
-257.51200000000006
20
17.525000000000034
10
-252.01200000000006
20
17.525000000000027
42
-0.41421356237309503
10
-251.26200000000009
20
16.775000000000034
10
-251.26200000000009
20
16.525000000000034
10
-250.92500000000007
20
16.525000000000031
42
-0.41421356237309503
10
-250.1750000000001
20
15.775000000000038
0
ARC
5
179
100
AcDbEntity
8
0
100
AcDbCircle
10
-250.92500000000007
20
15.775000000000038
30
0
40
0.74999999999999289
210
0
220
-0
230
1
100
AcDbArc
50
0
51
90
0
LINE
5
180
100
AcDbEntity
8
0
100
AcDbLine
10
-250.1750000000001
20
3.2750000000000301
30
0
11
-250.1750000000001
21
15.775000000000038
31
0
0
ARC
5
181
100
AcDbEntity
8
0
100
AcDbCircle
10
-250.92500000000007
20
3.2750000000000314
30
0
40
0.74999999999999845
210
0
220
0
230
1
100
AcDbArc
50
270
51
360
0
ARC
5
182
100
AcDbEntity
8
0
100
AcDbCircle
10
-282.47500000000008
20
3.275000000000035
30
0
40
0.75000000000002842
210
0
220
0
230
1
100
AcDbArc
50
180
51
270
0
LINE
5
183
100
AcDbEntity
8
0
100
AcDbLine
10
-283.22500000000014
20
3.2750000000000368
30
0
11
-283.22500000000008
21
15.775000000000041
31
0
0
ARC
5
184
100
AcDbEntity
8
0
100
AcDbCircle
10
-282.47500000000008
20
15.775000000000041
30
0
40
0.74999999999999734
210
0
220
-0
230
1
100
AcDbArc
50
90
51
180
0
LWPOLYLINE
5
185
100
AcDbEntity
8
0
100
AcDbPolyline
90
8
70
1
43
0.0
10
-89.224999999999994
20
93.975000000000023
10
-89.224999999999994
20
78.475000000000023
42
0.41421356237309503
10
-88.474999999999994
20
77.725000000000023
10
-82.974999999999994
20
77.725000000000023
42
0.41421356237309503
10
-82.224999999999994
20
78.475000000000023
10
-82.224999999999994
20
93.975000000000023
42
0.41421356237309503
10
-82.974999999999994
20
94.725000000000023
10
-88.474999999999994
20
94.725000000000023
42
0.41421356237309503
0
LWPOLYLINE
5
186
100
AcDbEntity
8
0
100
AcDbPolyline
90
8
70
1
43
0.0
10
-203.52500000000006
20
93.975000000000051
10
-203.52500000000006
20
78.475000000000037
42
0.41421356237309503
10
-202.77500000000006
20
77.725000000000051
10
-197.27500000000006
20
77.725000000000051
42
0.41421356237309503
10
-196.52500000000006
20
78.475000000000037
10
-196.52500000000006
20
93.975000000000051
42
0.41421356237308815
10
-197.27500000000006
20
94.725000000000023
10
-202.77500000000006
20
94.725000000000023
42
0.41421356237308815
0
ENDSEC
0
SECTION
2
OBJECTS
0
DICTIONARY
5
C
100
AcDbDictionary
3
ACAD_GROUP
350
D
3
ACAD_MLINESTYLE
350
17
0
DICTIONARY
5
D
100
AcDbDictionary
0
DICTIONARY
5
1A
330
C
100
AcDbDictionary
0
DICTIONARY
5
17
100
AcDbDictionary
0
ENDSEC
0
EOF
