0
SECTION
2
HEADER
9
$INSUNITS
70
4
9
$ACADVER
1
AC1014
9
$HANDSEED
5
FFFF
0
ENDSEC
0
SECTION
2
TABLES
0
TABLE
2
VPORT
5
8
100
AcDbSymbolTable
0
ENDTAB
0
TABLE
2
LTYPE
5
5
100
AcDbSymbolTable
0
LTYPE
5
14
100
AcDbSymbolTableRecord
100
AcDbLinetypeTableRecord
2
BYBLOCK
70
0
0
LTYPE
5
15
100
AcDbSymbolTableRecord
100
AcDbLinetypeTableRecord
2
BYLAYER
70
0
0
ENDTAB
0
TABLE
2
LAYER
5
2
100
AcDbSymbolTable
70
2
0
LAYER
5
50
100
AcDbSymbolTableRecord
100
AcDbLayerTableRecord
2
0
70
0
6
CONTINUOUS
0
ENDTAB
0
TABLE
2
STYLE
5
3
100
AcDbSymbolTable
70
1
0
STYLE
5
11
100
AcDbSymbolTableRecord
100
AcDbTextStyleTableRecord
2
STANDARD
70
0
0
ENDTAB
0
TABLE
2
VIEW
5
6
100
AcDbSymbolTable
70
0
0
ENDTAB
0
TABLE
2
UCS
5
7
100
AcDbSymbolTable
70
0
0
ENDTAB
0
TABLE
2
APPID
5
9
100
AcDbSymbolTable
70
2
0
APPID
5
12
100
AcDbSymbolTableRecord
100
AcDbRegAppTableRecord
2
ACAD
70
0
0
ENDTAB
0
TABLE
2
DIMSTYLE
5
A
100
AcDbSymbolTable
70
1
0
ENDTAB
0
TABLE
2
BLOCK_RECORD
5
1
100
AcDbSymbolTable
70
1
0
BLOCK_RECORD
5
1F
100
AcDbSymbolTableRecord
100
AcDbBlockTableRecord
2
*MODEL_SPACE
0
BLOCK_RECORD
5
1B
100
AcDbSymbolTableRecord
100
AcDbBlockTableRecord
2
*PAPER_SPACE
0
ENDTAB
0
ENDSEC
0
SECTION
2
BLOCKS
0
BLOCK
5
20
100
AcDbEntity
100
AcDbBlockBegin
2
*MODEL_SPACE
0
ENDBLK
5
21
100
AcDbEntity
100
AcDbBlockEnd
0
BLOCK
5
1C
100
AcDbEntity
100
AcDbBlockBegin
2
*PAPER_SPACE
0
ENDBLK
5
1D
100
AcDbEntity
100
AcDbBlockEnd
0
ENDSEC
0
SECTION
2
ENTITIES
0
LWPOLYLINE
5
100
100
AcDbEntity
8
0
100
AcDbPolyline
90
8
70
1
43
0.0
10
34.825000000000003
20
-16.524999999999999
10
22.324999999999999
20
-16.525000000000002
42
-0.41421356237309503
10
21.575000000000003
20
-15.775000000000002
10
21.574999999999996
20
-3.2750000000000004
42
-0.41421356237309503
10
22.324999999999999
20
-2.5249999999999999
10
34.825000000000003
20
-2.5249999999999986
42
-0.41421356237309503
10
35.575000000000003
20
-3.2750000000000012
10
35.575000000000003
20
-15.775000000000002
42
-0.41421356237309503
0
LWPOLYLINE
5
101
100
AcDbEntity
8
0
100
AcDbPolyline
90
8
70
1
43
0.0
10
54.625
20
-15.775000000000002
10
54.625
20
-3.2750000000000004
42
0.41421356237309503
10
53.875
20
-2.5249999999999999
10
41.375
20
-2.5249999999999999
42
0.41421356237309503
10
40.625
20
-3.2750000000000012
10
40.625
20
-15.775000000000002
42
0.41421356237309503
10
41.375
20
-16.524999999999999
10
53.875
20
-16.525000000000002
42
0.41421356237309503
0
LWPOLYLINE
5
102
100
AcDbEntity
8
0
100
AcDbPolyline
90
8
70
1
43
0.0
10
91.974999999999994
20
-2.5249999999999999
10
79.474999999999994
20
-2.5249999999999999
42
0.41421356237309503
10
78.724999999999994
20
-3.2750000000000012
10
78.724999999999994
20
-15.775000000000002
42
0.41421356237309503
10
79.474999999999994
20
-16.524999999999999
10
91.974999999999994
20
-16.525000000000002
42
0.41421356237309503
10
92.724999999999994
20
-15.775000000000002
10
92.724999999999994
20
-3.2750000000000004
42
0.41421356237309503
0
LWPOLYLINE
5
103
100
AcDbEntity
8
0
100
AcDbPolyline
90
8
70
1
43
0.0
10
97.77500000000002
20
-15.775000000000002
10
97.77500000000002
20
-3.2750000000000004
42
-0.41421356237309503
10
98.525000000000006
20
-2.5249999999999999
10
111.02500000000001
20
-2.5250000000000075
42
-0.41421356237309503
10
111.77500000000001
20
-3.2750000000000012
10
111.77500000000001
20
-15.775000000000002
42
-0.41421356237309503
10
111.02500000000001
20
-16.525000000000002
10
98.525000000000006
20
-16.524999999999995
42
-0.41421356237309503
0
LWPOLYLINE
5
104
100
AcDbEntity
8
0
100
AcDbPolyline
90
8
70
1
43
0.0
10
16.525000000000002
20
-15.775000000000002
42
-0.41421356237309503
10
15.775000000000002
20
-16.525000000000002
10
3.2750000000000004
20
-16.525000000000002
42
-0.41421356237309503
10
2.5249999999999999
20
-15.775000000000002
10
2.5249999999999999
20
-3.2750000000000004
42
-0.41421356237309503
10
3.2750000000000012
20
-2.5249999999999999
10
15.775000000000002
20
-2.5250000000000004
42
-0.41421356237309503
10
16.525000000000002
20
-3.2750000000000012
0
LWPOLYLINE
5
105
100
AcDbEntity
8
0
100
AcDbPolyline
90
8
70
1
43
0.0
10
116.82500000000002
20
-3.2750000000000004
42
-0.41421356237309503
10
117.575
20
-2.5249999999999999
10
130.07499999999999
20
-2.5250000000000075
42
-0.41421356237309503
10
130.82499999999999
20
-3.2750000000000012
10
130.82499999999999
20
-15.775000000000002
42
-0.41421356237309503
10
130.07499999999999
20
-16.524999999999999
10
117.575
20
-16.524999999999995
42
-0.41421356237309503
10
116.82500000000002
20
-15.775000000000002
0
LWPOLYLINE
5
106
100
AcDbEntity
8
0
100
AcDbPolyline
90
8
70
1
43
0.0
10
60.425000000000004
20
-16.525000000000002
42
-0.41421356237309503
10
59.675000000000004
20
-15.775000000000002
10
59.675000000000004
20
-3.2750000000000004
42
-0.41421356237309503
10
60.425000000000004
20
-2.5249999999999999
10
72.925000000000011
20
-2.5249999999999986
42
-0.41421356237309503
10
73.674999999999997
20
-3.2750000000000012
10
73.675000000000011
20
-15.775000000000002
42
-0.41421356237309503
10
72.925000000000011
20
-16.524999999999999
0
LWPOLYLINE
5
107
100
AcDbEntity
8
0
100
AcDbPolyline
90
8
70
1
43
0.0
10
149.125
20
-2.5249999999999999
10
136.625
20
-2.5249999999999999
42
0.41421356237309503
10
135.875
20
-3.2750000000000012
10
135.87500000000003
20
-15.775000000000002
42
0.41421356237309503
10
136.625
20
-16.524999999999999
10
149.125
20
-16.525000000000002
42
0.41421356237309503
10
149.875
20
-15.775000000000002
10
149.875
20
-3.2750000000000004
42
0.41421356237309503
0
LWPOLYLINE
5
108
100
AcDbEntity
8
0
100
AcDbPolyline
90
8
70
1
43
0.0
10
225.32499999999999
20
-16.524999999999999
10
212.82499999999999
20
-16.524999999999995
42
-0.41421356237309503
10
212.07499999999999
20
-15.775000000000002
10
212.07499999999999
20
-3.2750000000000004
42
-0.41421356237309503
10
212.82499999999999
20
-2.5249999999999999
10
225.32499999999999
20
-2.5250000000000075
42
-0.41421356237309503
10
226.07500000000002
20
-3.2750000000000012
10
226.07499999999999
20
-15.775000000000002
42
-0.41421356237309503
0
ARC
5
109
100
AcDbEntity
8
0
100
AcDbCircle
10
250.92500000000001
20
-3.2750000000000004
30
0
40
0.75000000000000011
210
0
220
-0
230
1
100
AcDbArc
50
90
51
180
0
LWPOLYLINE
5
110
100
AcDbEntity
8
0
100
AcDbPolyline
90
8
70
1
43
0.0
10
193.02500000000003
20
-15.775000000000002
10
193.02500000000003
20
-3.2750000000000004
42
-0.41421356237309503
10
193.77500000000001
20
-2.5249999999999999
10
206.27500000000001
20
-2.5250000000000075
42
-0.41421356237309503
10
207.02500000000001
20
-3.2750000000000012
10
207.02500000000001
20
-15.775000000000002
42
-0.41421356237309503
10
206.27500000000001
20
-16.525000000000002
10
193.77500000000001
20
-16.524999999999995
42
-0.41421356237309503
0
LWPOLYLINE
5
111
100
AcDbEntity
8
0
100
AcDbPolyline
90
8
70
1
43
0.0
10
168.92500000000001
20
-15.775000000000002
10
168.92500000000001
20
-3.2750000000000004
42
0.41421356237309503
10
168.17500000000001
20
-2.5249999999999999
10
155.67500000000001
20
-2.5249999999999999
42
0.41421356237309503
10
154.92500000000001
20
-3.2750000000000012
10
154.92500000000004
20
-15.775000000000002
42
0.41421356237309503
10
155.67500000000001
20
-16.524999999999999
10
168.17500000000001
20
-16.525000000000002
42
0.41421356237309503
0
LWPOLYLINE
5
112
100
AcDbEntity
8
0
100
AcDbPolyline
90
8
70
1
43
0.0
10
245.12500000000003
20
-15.775000000000002
10
245.125
20
-3.2750000000000004
42
0.41421356237309503
10
244.375
20
-2.5249999999999999
10
231.875
20
-2.5249999999999999
42
0.41421356237309503
10
231.125
20
-3.2750000000000012
10
231.125
20
-15.775000000000002
42
0.41421356237309503
10
231.875
20
-16.525000000000002
10
244.375
20
-16.525000000000002
42
0.41421356237309503
0
LWPOLYLINE
5
113
100
AcDbEntity
8
0
100
AcDbPolyline
90
8
70
1
43
0.0
10
174.72499999999999
20
-16.524999999999995
42
-0.41421356237309503
10
173.97500000000002
20
-15.775000000000002
10
173.97500000000002
20
-3.2750000000000004
42
-0.41421356237309503
10
174.72499999999999
20
-2.5249999999999999
10
187.22499999999999
20
-2.5250000000000075
42
-0.41421356237309503
10
187.97499999999999
20
-3.2750000000000012
10
187.97499999999999
20
-15.775000000000002
42
-0.41421356237309503
10
187.22499999999999
20
-16.525000000000002
0
LINE
5
114
100
AcDbEntity
8
0
100
AcDbLine
10
250.17500000000001
20
-3.2750000000000004
30
0
11
250.17500000000001
21
-15.775000000000002
31
0
0
ARC
5
115
100
AcDbEntity
8
0
100
AcDbCircle
10
250.92500000000001
20
-15.775000000000002
30
0
40
0.74999999999999289
210
0
220
0
230
1
100
AcDbArc
50
180
51
270
0
LINE
5
116
100
AcDbEntity
8
0
100
AcDbLine
10
275.88799999999998
20
-1.5250000000000012
30
0
11
281.38799999999998
21
-1.5250000000000012
31
0
0
LINE
5
117
100
AcDbEntity
8
0
100
AcDbLine
10
252.012
20
-1.5250000000000012
30
0
11
257.512
21
-1.5250000000000012
31
0
0
LWPOLYLINE
5
118
100
AcDbEntity
8
0
100
AcDbPolyline
90
8
70
1
43
0.0
10
1.6875000000000007
20
-34.825000000000003
10
1.6874999999999987
20
-22.324999999999999
42
-0.41421356237309503
10
2.4375000000000004
20
-21.575000000000003
10
2.9375000000000009
20
-21.574999999999996
42
-0.41421356237309503
10
3.6875
20
-22.324999999999999
10
3.6875000000000027
20
-34.825000000000003
42
-0.41421356237309503
10
2.9375000000000009
20
-35.575000000000003
10
2.4375000000000004
20
-35.575000000000003
42
-0.41421356237309503
0
ARC
5
119
100
AcDbEntity
8
0
100
AcDbCircle
10
252.012
20
-2.2750000000000012
30
0
40
0.75000000000000011
210
0
220
-0
230
1
100
AcDbArc
50
90
51
180
0
LINE
5
120
100
AcDbEntity
8
0
100
AcDbLine
10
283.22500000000002
20
-3.2750000000000004
30
0
11
283.22500000000002
21
-15.775000000000002
31
0
0
LWPOLYLINE
5
121
100
AcDbEntity
8
0
100
AcDbPolyline
90
8
70
1
43
0.0
10
26.137499999999999
20
-35.575000000000003
10
25.637500000000003
20
-35.575000000000003
42
-0.41421356237309503
10
24.887499999999999
20
-34.825000000000003
10
24.887499999999999
20
-22.324999999999999
42
-0.41421356237309503
10
25.637500000000003
20
-21.574999999999996
10
26.137499999999999
20
-21.574999999999996
42
-0.41421356237309503
10
26.887500000000003
20
-22.324999999999999
10
26.887500000000003
20
-34.825000000000003
42
-0.41421356237309503
0
LWPOLYLINE
5
122
100
AcDbEntity
8
0
100
AcDbPolyline
90
8
70
1
43
0.0
10
21.287500000000001
20
-34.825000000000003
10
21.287500000000005
20
-22.324999999999999
42
0.41421356237309503
10
20.537500000000005
20
-21.574999999999996
10
8.0374999999999996
20
-21.574999999999996
42
0.41421356237309503
10
7.2874999999999996
20
-22.324999999999999
10
7.2874999999999996
20
-34.825000000000003
42
0.41421356237309503
10
8.0374999999999996
20
-35.575000000000003
10
20.537500000000005
20
-35.575000000000003
42
0.41421356237309503
0
LWPOLYLINE
5
123
100
AcDbEntity
8
0
100
AcDbPolyline
90
8
70
1
43
0.0
10
63.399999999999999
20
-35.575000000000003
10
50.899999999999999
20
-35.575000000000003
42
-0.41421356237309503
10
50.149999999999999
20
-34.825000000000003
10
50.149999999999999
20
-22.324999999999999
42
-0.41421356237309503
10
50.899999999999999
20
-21.574999999999996
10
63.399999999999999
20
-21.574999999999996
42
-0.41421356237309503
10
64.150000000000006
20
-22.324999999999999
10
64.150000000000006
20
-34.825000000000003
42
-0.41421356237309503
0
ARC
5
124
100
AcDbEntity
8
0
100
AcDbCircle
10
275.88799999999998
20
-2.2750000000000012
30
0
40
0.75000000000000011
210
0
220
-0
230
1
100
AcDbArc
50
90
51
180
0
LWPOLYLINE
5
125
100
AcDbEntity
8
0
100
AcDbPolyline
90
8
70
1
43
0.0
10
45.100000000000009
20
-34.825000000000003
10
45.100000000000009
20
-22.324999999999999
42
0.41421356237309503
10
44.350000000000009
20
-21.574999999999996
10
31.850000000000005
20
-21.574999999999996
42
0.41421356237309503
10
31.100000000000001
20
-22.324999999999999
10
31.100000000000001
20
-34.825000000000003
42
0.41421356237309503
10
31.850000000000005
20
-35.575000000000003
10
44.350000000000009
20
-35.575000000000003
42
0.41421356237309503
0
ARC
5
126
100
AcDbEntity
8
0
100
AcDbCircle
10
282.47500000000002
20
-3.2750000000000004
30
0
40
0.74999999999999289
210
0
220
0
230
1
100
AcDbArc
50
0
51
90
0
LWPOLYLINE
5
127
100
AcDbEntity
8
0
100
AcDbPolyline
90
8
70
1
43
0.0
10
82.450000000000017
20
-35.575000000000003
10
69.950000000000017
20
-35.575000000000003
42
-0.41421356237309503
10
69.200000000000003
20
-34.825000000000003
10
69.200000000000003
20
-22.324999999999999
42
-0.41421356237309503
10
69.950000000000017
20
-21.575000000000003
10
82.450000000000017
20
-21.575000000000006
42
-0.41421356237309503
10
83.200000000000003
20
-22.324999999999999
10
83.200000000000003
20
-34.825000000000003
42
-0.41421356237309503
0
ARC
5
128
100
AcDbEntity
8
0
100
AcDbCircle
10
257.512
20
-2.2750000000000012
30
0
40
0.74999999999999289
210
0
220
0
230
1
100
AcDbArc
50
0
51
90
0
ARC
5
129
100
AcDbEntity
8
0
100
AcDbCircle
10
282.47500000000002
20
-15.775000000000002
30
0
40
0.74999999999999956
210
0
220
0
230
1
100
AcDbArc
50
-90
51
0
0
ARC
5
130
100
AcDbEntity
8
0
100
AcDbCircle
10
281.38799999999998
20
-2.2750000000000012
30
0
40
0.74999999999999289
210
0
220
0
230
1
100
AcDbArc
50
0
51
90
0
LWPOLYLINE
5
131
100
AcDbEntity
8
0
100
AcDbPolyline
90
8
70
1
43
0.0
10
101.5
20
-21.575000000000003
10
89
20
-21.574999999999996
42
0.41421356237309503
10
88.250000000000014
20
-22.324999999999999
10
88.250000000000014
20
-34.825000000000003
42
0.41421356237309503
10
89
20
-35.575000000000003
10
101.5
20
-35.575000000000003
42
0.41421356237309503
10
102.25
20
-34.825000000000003
10
102.25
20
-22.324999999999999
42
0.41421356237309503
0
LWPOLYLINE
5
132
100
AcDbEntity
8
0
100
AcDbPolyline
90
8
70
1
43
0.0
10
126.34999999999999
20
-34.825000000000003
10
126.35000000000002
20
-22.324999999999999
42
-0.41421356237309503
10
127.10000000000001
20
-21.574999999999996
10
139.60000000000002
20
-21.575000000000006
42
-0.41421356237309503
10
140.34999999999999
20
-22.324999999999999
10
140.34999999999999
20
-34.825000000000003
42
-0.41421356237309503
10
139.60000000000002
20
-35.575000000000003
10
127.10000000000001
20
-35.574999999999996
42
-0.41421356237309503
0
LWPOLYLINE
5
133
100
AcDbEntity
8
0
100
AcDbPolyline
90
8
70
1
43
0.0
10
159.40000000000001
20
-34.825000000000003
10
159.40000000000001
20
-22.324999999999999
42
0.41421356237309503
10
158.65000000000003
20
-21.574999999999996
10
146.15000000000003
20
-21.574999999999996
42
0.41421356237309503
10
145.40000000000001
20
-22.324999999999999
10
145.40000000000003
20
-34.825000000000003
42
0.41421356237309503
10
146.15000000000003
20
-35.575000000000003
10
158.65000000000003
20
-35.575000000000003
42
0.41421356237309503
0
LWPOLYLINE
5
134
100
AcDbEntity
8
0
100
AcDbPolyline
90
8
70
1
43
0.0
10
165.19999999999999
20
-35.574999999999996
42
-0.41421356237309503
10
164.44999999999999
20
-34.825000000000003
10
164.44999999999999
20
-22.324999999999999
42
-0.41421356237309503
10
165.19999999999999
20
-21.574999999999996
10
177.69999999999999
20
-21.575000000000006
42
-0.41421356237309503
10
178.44999999999999
20
-22.324999999999999
10
178.44999999999999
20
-34.825000000000003
42
-0.41421356237309503
10
177.69999999999999
20
-35.575000000000003
0
LWPOLYLINE
5
135
100
AcDbEntity
8
0
100
AcDbPolyline
90
8
70
1
43
0.0
10
196.75
20
-21.575000000000003
10
184.25
20
-21.574999999999996
42
0.41421356237309503
10
183.5
20
-22.324999999999999
10
183.5
20
-34.825000000000003
42
0.41421356237309503
10
184.25
20
-35.575000000000003
10
196.75
20
-35.575000000000003
42
0.41421356237309503
10
197.5
20
-34.825000000000003
10
197.5
20
-22.324999999999999
42
0.41421356237309503
0
LWPOLYLINE
5
136
100
AcDbEntity
8
0
100
AcDbPolyline
90
8
70
1
43
0.0
10
120.55
20
-35.575000000000003
10
108.05
20
-35.574999999999996
42
-0.41421356237309503
10
107.30000000000001
20
-34.825000000000003
10
107.30000000000001
20
-22.324999999999999
42
-0.41421356237309503
10
108.05
20
-21.574999999999996
10
120.55
20
-21.575000000000006
42
-0.41421356237309503
10
121.30000000000001
20
-22.324999999999999
10
121.29999999999998
20
-34.825000000000003
42
-0.41421356237309503
0
LWPOLYLINE
5
137
100
AcDbEntity
8
0
100
AcDbPolyline
90
8
70
1
43
0.0
10
215.80000000000001
20
-35.575000000000003
10
203.30000000000001
20
-35.574999999999996
42
-0.41421356237309503
10
202.55000000000001
20
-34.825000000000003
10
202.55000000000001
20
-22.324999999999999
42
-0.41421356237309503
10
203.30000000000001
20
-21.574999999999996
10
215.80000000000001
20
-21.575000000000006
42
-0.41421356237309503
10
216.55000000000001
20
-22.324999999999999
10
216.55000000000001
20
-34.825000000000003
42
-0.41421356237309503
0
LWPOLYLINE
5
138
100
AcDbEntity
8
0
100
AcDbPolyline
90
8
70
1
43
0.0
10
234.84999999999999
20
-21.575000000000003
10
222.34999999999999
20
-21.574999999999996
42
0.41421356237309503
10
221.59999999999999
20
-22.324999999999999
10
221.59999999999999
20
-34.825000000000003
42
0.41421356237309503
10
222.34999999999999
20
-35.575000000000003
10
234.84999999999999
20
-35.575000000000003
42
0.41421356237309503
10
235.59999999999999
20
-34.825000000000003
10
235.59999999999999
20
-22.324999999999999
42
0.41421356237309503
0
LWPOLYLINE
5
139
100
AcDbEntity
8
0
100
AcDbPolyline
90
8
70
1
43
0.0
10
277.71249999999998
20
-21.575000000000003
10
265.21249999999998
20
-21.574999999999996
42
0.41421356237309503
10
264.46249999999998
20
-22.324999999999999
10
264.46249999999998
20
-34.825000000000003
42
0.41421356237309503
10
265.21249999999998
20
-35.575000000000003
10
277.71249999999998
20
-35.575000000000003
42
0.41421356237309503
10
278.46249999999998
20
-34.825000000000003
10
278.46249999999998
20
-22.324999999999999
42
0.41421356237309503
0
LINE
5
140
100
AcDbEntity
8
0
100
AcDbLine
10
23.668749999999999
20
-41.375
30
0
11
23.668749999999999
21
-53.875
31
0
0
LWPOLYLINE
5
141
100
AcDbEntity
8
0
100
AcDbPolyline
90
8
70
1
43
0.0
10
259.86250000000007
20
-34.825000000000003
10
259.86250000000007
20
-22.324999999999999
42
-0.41421356237309503
10
260.61250000000007
20
-21.574999999999996
10
261.11250000000007
20
-21.575000000000006
42
-0.41421356237309503
10
261.86250000000007
20
-22.324999999999999
10
261.86250000000007
20
-34.825000000000003
42
-0.41421356237309503
10
261.11250000000007
20
-35.575000000000003
10
260.61250000000007
20
-35.574999999999996
42
-0.41421356237309503
0
LWPOLYLINE
5
142
100
AcDbEntity
8
0
100
AcDbPolyline
90
8
70
1
43
0.0
10
253.90000000000001
20
-21.575000000000006
42
-0.41421356237309503
10
254.65000000000001
20
-22.324999999999999
10
254.65000000000001
20
-34.825000000000003
42
-0.41421356237309503
10
253.90000000000001
20
-35.575000000000003
10
241.40000000000001
20
-35.574999999999996
42
-0.41421356237309503
10
240.65000000000001
20
-34.825000000000003
10
240.65000000000001
20
-22.324999999999999
42
-0.41421356237309503
10
241.40000000000001
20
-21.575000000000003
0
LWPOLYLINE
5
143
100
AcDbEntity
8
0
100
AcDbPolyline
90
8
70
1
43
0.0
10
284.0625
20
-34.825000000000003
42
-0.41421356237309503
10
283.3125
20
-35.575000000000003
10
282.8125
20
-35.574999999999996
42
-0.41421356237309503
10
282.0625
20
-34.825000000000003
10
282.0625
20
-22.324999999999999
42
-0.41421356237309503
10
282.8125
20
-21.574999999999996
10
283.3125
20
-21.575000000000006
42
-0.41421356237309503
10
284.0625
20
-22.324999999999999
0
LWPOLYLINE
5
144
100
AcDbEntity
8
0
100
AcDbPolyline
90
8
70
1
43
0.0
10
30.768750000000004
20
-53.875
42
-0.41421356237309503
10
30.018750000000001
20
-54.625
10
29.518750000000004
20
-54.625
42
-0.41421356237309503
10
28.768750000000001
20
-53.875
10
28.768750000000001
20
-41.375
42
-0.41421356237309503
10
29.518750000000004
20
-40.625
10
30.018750000000001
20
-40.625
42
-0.41421356237309503
10
30.768750000000004
20
-41.375
0
LINE
5
145
100
AcDbEntity
8
0
100
AcDbLine
10
4.90625
20
-41.375
30
0
11
4.90625
21
-53.875
31
0
0
ARC
5
146
100
AcDbEntity
8
0
100
AcDbCircle
10
22.918750000000003
20
-41.375
30
0
40
0.75000000000000178
210
0
220
0
230
1
100
AcDbArc
50
0
51
90
0
ARC
5
147
100
AcDbEntity
8
0
100
AcDbCircle
10
22.918750000000003
20
-53.875
30
0
40
0.75000000000000178
210
0
220
0
230
1
100
AcDbArc
50
-90
51
0
0
LWPOLYLINE
5
148
100
AcDbEntity
8
0
100
AcDbPolyline
90
8
70
1
43
0.0
10
126.0625
20
-53.875
42
-0.41421356237309503
10
125.3125
20
-54.625
10
112.8125
20
-54.624999999999993
42
-0.41421356237309503
10
112.0625
20
-53.875
10
112.0625
20
-41.375
42
-0.41421356237309503
10
112.8125
20
-40.625
10
125.3125
20
-40.625000000000007
42
-0.41421356237309503
10
126.06250000000001
20
-41.375
0
LWPOLYLINE
5
149
100
AcDbEntity
8
0
100
AcDbPolyline
90
8
70
1
43
0.0
10
73.962500000000006
20
-41.375
42
-0.41421356237309503
10
74.712500000000006
20
-40.625
10
87.212500000000006
20
-40.625000000000007
42
-0.41421356237309503
10
87.962500000000006
20
-41.375
10
87.962500000000006
20
-53.875
42
-0.41421356237309503
10
87.212500000000006
20
-54.625
10
74.712500000000006
20
-54.625
42
-0.41421356237309503
10
73.962500000000006
20
-53.875
0
LWPOLYLINE
5
150
100
AcDbEntity
8
0
100
AcDbPolyline
90
8
70
1
43
0.0
10
36.612499999999997
20
-54.625
42
-0.41421356237309503
10
35.862499999999997
20
-53.875
10
35.862499999999997
20
-41.375
42
-0.41421356237309503
10
36.612499999999997
20
-40.625
10
49.112499999999997
20
-40.625
42
-0.41421356237309503
10
49.862499999999997
20
-41.375
10
49.862499999999997
20
-53.875
42
-0.41421356237309503
10
49.112499999999997
20
-54.625
0
LWPOLYLINE
5
151
100
AcDbEntity
8
0
100
AcDbPolyline
90
8
70
1
43
0.0
10
144.36250000000001
20
-40.625
10
131.86250000000001
20
-40.625
42
0.41421356237309503
10
131.11250000000001
20
-41.375
10
131.11250000000001
20
-53.875
42
0.41421356237309503
10
131.86250000000001
20
-54.625
10
144.36250000000001
20
-54.625
42
0.41421356237309503
10
145.11250000000001
20
-53.875
10
145.11250000000001
20
-41.375
42
0.41421356237309503
0
LWPOLYLINE
5
152
100
AcDbEntity
8
0
100
AcDbPolyline
90
8
70
1
43
0.0
10
93.762500000000003
20
-54.624999999999993
42
-0.41421356237309503
10
93.012500000000017
20
-53.875
10
93.012499999999989
20
-41.375
42
-0.41421356237309503
10
93.762500000000003
20
-40.625
10
106.2625
20
-40.625000000000007
42
-0.41421356237309503
10
107.0125
20
-41.375
10
107.01250000000002
20
-53.875
42
-0.41421356237309503
10
106.2625
20
-54.625
0
LWPOLYLINE
5
153
100
AcDbEntity
8
0
100
AcDbPolyline
90
8
70
1
43
0.0
10
163.41249999999999
20
-40.625
10
150.91249999999999
20
-40.625
42
0.41421356237309503
10
150.16249999999999
20
-41.375
10
150.16250000000002
20
-53.875
42
0.41421356237309503
10
150.91249999999999
20
-54.625
10
163.41249999999999
20
-54.625
42
0.41421356237309503
10
164.16249999999997
20
-53.875
10
164.16249999999997
20
-41.375
42
0.41421356237309503
0
LWPOLYLINE
5
154
100
AcDbEntity
8
0
100
AcDbPolyline
90
8
70
1
43
0.0
10
68.162499999999994
20
-54.625
10
55.662500000000001
20
-54.625
42
-0.41421356237309503
10
54.912500000000009
20
-53.875
10
54.912500000000001
20
-41.375
42
-0.41421356237309503
10
55.662500000000001
20
-40.625
10
68.162499999999994
20
-40.625
42
-0.41421356237309503
10
68.912500000000009
20
-41.375
10
68.912500000000009
20
-53.875
42
-0.41421356237309503
0
LWPOLYLINE
5
155
100
AcDbEntity
8
0
100
AcDbPolyline
90
8
70
1
43
0.0
10
182.46250000000001
20
-40.625
10
169.96250000000001
20
-40.625
42
0.41421356237309503
10
169.21250000000001
20
-41.375
10
169.21250000000001
20
-53.875
42
0.41421356237309503
10
169.96250000000001
20
-54.625
10
182.46250000000001
20
-54.625
42
0.41421356237309503
10
183.21250000000003
20
-53.875
10
183.21249999999998
20
-41.375
42
0.41421356237309503
0
ARC
5
156
100
AcDbEntity
8
0
100
AcDbCircle
10
5.65625
20
-53.875
30
0
40
0.75000000000000011
210
0
220
0
230
1
100
AcDbArc
50
180
51
270
0
LWPOLYLINE
5
157
100
AcDbEntity
8
0
100
AcDbPolyline
90
8
70
1
43
0.0
10
15.181250000000002
20
-73.675000000000011
42
-0.41421356237309503
10
14.431250000000002
20
-72.925000000000011
10
14.43125
20
-60.425000000000004
42
-0.41421356237309503
10
15.181250000000002
20
-59.675000000000004
10
27.681249999999999
20
-59.675000000000004
42
-0.41421356237309503
10
28.431250000000002
20
-60.425000000000004
10
28.431250000000002
20
-72.925000000000011
42
-0.41421356237309503
10
27.681249999999999
20
-73.675000000000011
0
LWPOLYLINE
5
158
100
AcDbEntity
8
0
100
AcDbPolyline
90
8
70
1
43
0.0
10
271.31875000000002
20
-53.875
10
271.31875000000002
20
-41.375
42
0.41421356237309503
10
270.56875000000002
20
-40.625
10
258.06875000000002
20
-40.625
42
0.41421356237309503
10
257.31875000000008
20
-41.375
10
257.31875000000008
20
-53.875
42
0.41421356237309503
10
258.06875000000002
20
-54.625
10
270.56875000000002
20
-54.625
42
0.41421356237309503
0
LWPOLYLINE
5
159
100
AcDbEntity
8
0
100
AcDbPolyline
90
8
70
1
43
0.0
10
239.61250000000004
20
-40.625
10
227.11250000000004
20
-40.625
42
0.41421356237309503
10
226.36250000000004
20
-41.375
10
226.36250000000004
20
-53.875
42
0.41421356237309503
10
227.11250000000004
20
-54.625
10
239.61250000000004
20
-54.625
42
0.41421356237309503
10
240.36250000000001
20
-53.875
10
240.36250000000001
20
-41.375
42
0.41421356237309503
0
LWPOLYLINE
5
160
100
AcDbEntity
8
0
100
AcDbPolyline
90
8
70
1
43
0.0
10
220.56250000000003
20
-40.625000000000007
42
-0.41421356237309503
10
221.3125
20
-41.375
10
221.3125
20
-53.875
42
-0.41421356237309503
10
220.56250000000003
20
-54.625
10
208.06250000000003
20
-54.624999999999993
42
-0.41421356237309503
10
207.31250000000003
20
-53.875
10
207.31250000000003
20
-41.375
42
-0.41421356237309503
10
208.06250000000003
20
-40.625
0
LWPOLYLINE
5
161
100
AcDbEntity
8
0
100
AcDbPolyline
90
8
70
1
43
0.0
10
188.26250000000002
20
-41.375
42
-0.41421356237309503
10
189.01250000000002
20
-40.625
10
201.51250000000002
20
-40.625000000000007
42
-0.41421356237309503
10
202.26249999999999
20
-41.375
10
202.26249999999999
20
-53.875
42
-0.41421356237309503
10
201.51250000000002
20
-54.625
10
189.01250000000002
20
-54.624999999999993
42
-0.41421356237309503
10
188.26249999999999
20
-53.875
0
LWPOLYLINE
5
162
100
AcDbEntity
8
0
100
AcDbPolyline
90
8
70
1
43
0.0
10
64.4375
20
-72.925000000000011
10
64.4375
20
-60.425000000000004
42
-0.41421356237309503
10
65.1875
20
-59.675000000000004
10
77.6875
20
-59.675000000000004
42
-0.41421356237309503
10
78.437500000000014
20
-60.425000000000004
10
78.437500000000014
20
-72.925000000000011
42
-0.41421356237309503
10
77.6875
20
-73.675000000000011
10
65.1875
20
-73.675000000000011
42
-0.41421356237309503
0
LWPOLYLINE
5
163
100
AcDbEntity
8
0
100
AcDbPolyline
90
8
70
1
43
0.0
10
97.487500000000011
20
-72.925000000000011
10
97.487499999999997
20
-60.425000000000004
42
0.41421356237309503
10
96.737499999999997
20
-59.675000000000004
10
84.237499999999997
20
-59.675000000000004
42
0.41421356237309503
10
83.487500000000011
20
-60.425000000000004
10
83.487500000000011
20
-72.925000000000011
42
0.41421356237309503
10
84.237499999999997
20
-73.674999999999997
10
96.737499999999997
20
-73.675000000000011
42
0.41421356237309503
0
LWPOLYLINE
5
164
100
AcDbEntity
8
0
100
AcDbPolyline
90
8
70
1
43
0.0
10
103.28749999999999
20
-73.674999999999997
42
-0.41421356237309503
10
102.53749999999999
20
-72.925000000000011
10
102.53749999999999
20
-60.425000000000004
42
-0.41421356237309503
10
103.28749999999999
20
-59.675000000000004
10
115.78749999999999
20
-59.675000000000011
42
-0.41421356237309503
10
116.53749999999999
20
-60.425000000000004
10
116.53749999999999
20
-72.925000000000011
42
-0.41421356237309503
10
115.78749999999999
20
-73.675000000000011
0
LWPOLYLINE
5
165
100
AcDbEntity
8
0
100
AcDbPolyline
90
8
70
1
43
0.0
10
58.637500000000003
20
-73.674999999999997
10
46.137500000000003
20
-73.675000000000011
42
-0.41421356237309503
10
45.387500000000003
20
-72.925000000000011
10
45.387500000000003
20
-60.425000000000004
42
-0.41421356237309503
10
46.137500000000003
20
-59.675000000000004
10
58.637500000000003
20
-59.675000000000004
42
-0.41421356237309503
10
59.387500000000003
20
-60.425000000000004
10
59.387500000000003
20
-72.925000000000011
42
-0.41421356237309503
0
LWPOLYLINE
5
166
100
AcDbEntity
8
0
100
AcDbPolyline
90
8
70
1
43
0.0
10
134.83750000000001
20
-59.675000000000004
10
122.33750000000001
20
-59.675000000000004
42
0.41421356237309503
10
121.58750000000001
20
-60.425000000000004
10
121.58750000000001
20
-72.925000000000011
42
0.41421356237309503
10
122.33750000000001
20
-73.674999999999997
10
134.83750000000001
20
-73.675000000000011
42
0.41421356237309503
10
135.58750000000001
20
-72.925000000000011
10
135.58750000000001
20
-60.425000000000004
42
0.41421356237309503
0
LWPOLYLINE
5
167
100
AcDbEntity
8
0
100
AcDbPolyline
90
8
70
1
43
0.0
10
153.88749999999999
20
-73.674999999999997
10
141.38749999999999
20
-73.674999999999997
42
-0.41421356237309503
10
140.63749999999999
20
-72.925000000000011
10
140.63749999999999
20
-60.425000000000004
42
-0.41421356237309503
10
141.38749999999999
20
-59.675000000000004
10
153.88749999999999
20
-59.675000000000011
42
-0.41421356237309503
10
154.63749999999999
20
-60.425000000000004
10
154.63750000000002
20
-72.925000000000011
42
-0.41421356237309503
0
LWPOLYLINE
5
168
100
AcDbEntity
8
0
100
AcDbPolyline
90
8
70
1
43
0.0
10
172.9375
20
-73.674999999999997
10
160.4375
20
-73.674999999999997
42
-0.41421356237309503
10
159.6875
20
-72.925000000000011
10
159.6875
20
-60.425000000000004
42
-0.41421356237309503
10
160.4375
20
-59.675000000000004
10
172.9375
20
-59.675000000000011
42
-0.41421356237309503
10
173.6875
20
-60.425000000000004
10
173.6875
20
-72.925000000000011
42
-0.41421356237309503
0
LWPOLYLINE
5
169
100
AcDbEntity
8
0
100
AcDbPolyline
90
8
70
1
43
0.0
10
211.03750000000002
20
-59.675000000000004
10
198.53750000000002
20
-59.675000000000004
42
0.41421356237309503
10
197.78750000000002
20
-60.425000000000004
10
197.78750000000002
20
-72.925000000000011
42
0.41421356237309503
10
198.53750000000002
20
-73.674999999999997
10
211.03750000000002
20
-73.675000000000011
42
0.41421356237309503
10
211.78750000000002
20
-72.925000000000011
10
211.78750000000002
20
-60.425000000000004
42
0.41421356237309503
0
LWPOLYLINE
5
170
100
AcDbEntity
8
0
100
AcDbPolyline
90
8
70
1
43
0.0
10
243.03125
20
-72.925000000000011
10
243.03125
20
-60.425000000000004
42
-0.41421356237309503
10
243.78125
20
-59.675000000000004
10
256.28125
20
-59.675000000000011
42
-0.41421356237309503
10
257.03125
20
-60.425000000000004
10
257.03125
20
-72.925000000000011
42
-0.41421356237309503
10
256.28125
20
-73.674999999999997
10
243.78125
20
-73.674999999999997
42
-0.41421356237309503
0
LWPOLYLINE
5
171
100
AcDbEntity
8
0
100
AcDbPolyline
90
8
70
1
43
0.0
10
282.47500000000002
20
-59.675000000000011
42
-0.41421356237309503
10
283.22500000000002
20
-60.425000000000004
10
283.22500000000002
20
-72.925000000000011
42
-0.41421356237309503
10
282.47500000000002
20
-73.675000000000011
10
269.97500000000002
20
-73.674999999999997
42
-0.41421356237309503
10
269.22500000000002
20
-72.925000000000011
10
269.22500000000002
20
-60.425000000000004
42
-0.41421356237309503
10
269.97500000000002
20
-59.675000000000004
0
LWPOLYLINE
5
172
100
AcDbEntity
8
0
100
AcDbPolyline
90
8
70
1
43
0.0
10
191.98750000000001
20
-59.675000000000011
42
-0.41421356237309503
10
192.73750000000001
20
-60.425000000000004
10
192.73750000000001
20
-72.925000000000011
42
-0.41421356237309503
10
191.98750000000001
20
-73.674999999999997
10
179.48750000000001
20
-73.674999999999997
42
-0.41421356237309503
10
178.73750000000001
20
-72.925000000000011
10
178.73750000000001
20
-60.425000000000004
42
-0.41421356237309503
10
179.48750000000001
20
-59.675000000000004
0
LWPOLYLINE
5
173
100
AcDbEntity
8
0
100
AcDbPolyline
90
8
70
1
43
0.0
10
230.83750000000003
20
-72.925000000000011
42
-0.41421356237309503
10
230.08750000000003
20
-73.675000000000011
10
217.58750000000003
20
-73.674999999999997
42
-0.41421356237309503
10
216.83750000000003
20
-72.925000000000011
10
216.83750000000003
20
-60.425000000000004
42
-0.41421356237309503
10
217.58750000000003
20
-59.675000000000004
10
230.08750000000003
20
-59.675000000000011
42
-0.41421356237309503
10
230.83750000000003
20
-60.425000000000004
0
LWPOLYLINE
5
174
100
AcDbEntity
8
0
100
AcDbPolyline
90
8
70
1
43
0.0
10
20.537500000000005
20
-78.724999999999994
10
8.0374999999999996
20
-78.724999999999994
42
0.41421356237309503
10
7.2874999999999996
20
-79.474999999999994
10
7.2874999999999996
20
-91.974999999999994
42
0.41421356237309503
10
8.0374999999999996
20
-92.724999999999994
10
20.537500000000005
20
-92.724999999999994
42
0.41421356237309503
10
21.287500000000001
20
-91.974999999999994
10
21.287500000000005
20
-79.474999999999994
42
0.41421356237309503
0
LWPOLYLINE
5
175
100
AcDbEntity
8
0
100
AcDbPolyline
90
8
70
1
43
0.0
10
50.062500000000007
20
-92.725000000000009
42
-0.41421356237309503
10
49.3125
20
-91.974999999999994
10
49.3125
20
-79.474999999999994
42
-0.41421356237309503
10
50.062500000000007
20
-78.724999999999994
10
50.5625
20
-78.724999999999994
42
-0.41421356237309503
10
51.312500000000007
20
-79.474999999999994
10
51.3125
20
-91.974999999999994
42
-0.41421356237309503
10
50.5625
20
-92.724999999999994
0
LWPOLYLINE
5
176
100
AcDbEntity
8
0
100
AcDbPolyline
90
8
70
1
43
0.0
10
31.100000000000001
20
-79.474999999999994
42
-0.41421356237309503
10
31.850000000000005
20
-78.724999999999994
10
44.350000000000009
20
-78.724999999999994
42
-0.41421356237309503
10
45.100000000000009
20
-79.474999999999994
10
45.099999999999994
20
-91.974999999999994
42
-0.41421356237309503
10
44.350000000000009
20
-92.724999999999994
10
31.850000000000005
20
-92.725000000000009
42
-0.41421356237309503
10
31.100000000000001
20
-91.974999999999994
0
LWPOLYLINE
5
177
100
AcDbEntity
8
0
100
AcDbPolyline
90
8
70
1
43
0.0
10
25.637500000000003
20
-92.725000000000009
42
-0.41421356237309503
10
24.887499999999999
20
-91.974999999999994
10
24.887499999999999
20
-79.474999999999994
42
-0.41421356237309503
10
25.637500000000003
20
-78.724999999999994
10
26.137499999999999
20
-78.724999999999994
42
-0.41421356237309503
10
26.887500000000003
20
-79.474999999999994
10
26.887499999999992
20
-91.974999999999994
42
-0.41421356237309503
10
26.137499999999999
20
-92.724999999999994
0
LWPOLYLINE
5
178
100
AcDbEntity
8
0
100
AcDbPolyline
90
8
70
1
43
0.0
10
55.662500000000001
20
-92.725000000000009
42
-0.41421356237309503
10
54.912500000000001
20
-91.974999999999994
10
54.912500000000001
20
-79.474999999999994
42
-0.41421356237309503
10
55.662500000000001
20
-78.724999999999994
10
68.162499999999994
20
-78.724999999999994
42
-0.41421356237309503
10
68.912500000000009
20
-79.474999999999994
10
68.912499999999994
20
-91.974999999999994
42
-0.41421356237309503
10
68.162499999999994
20
-92.724999999999994
0
LWPOLYLINE
5
179
100
AcDbEntity
8
0
100
AcDbPolyline
90
8
70
1
43
0.0
10
73.762500000000003
20
-78.724999999999994
42
-0.41421356237309503
10
74.512500000000003
20
-79.474999999999994
10
74.512500000000003
20
-91.974999999999994
42
-0.41421356237309503
10
73.762500000000003
20
-92.724999999999994
10
73.262500000000003
20
-92.725000000000009
42
-0.41421356237309503
10
72.512500000000003
20
-91.974999999999994
10
72.512500000000003
20
-79.474999999999994
42
-0.41421356237309503
10
73.262500000000003
20
-78.724999999999994
0
LWPOLYLINE
5
180
100
AcDbEntity
8
0
100
AcDbPolyline
90
8
70
1
43
0.0
10
202.77500000000003
20
-94.724999999999994
10
197.27500000000003
20
-94.72499999999998
42
-0.41421356237309503
10
196.52500000000003
20
-93.974999999999994
10
196.52500000000003
20
-78.474999999999994
42
-0.41421356237309503
10
197.27500000000003
20
-77.724999999999994
10
202.77500000000003
20
-77.724999999999994
42
-0.41421356237309503
10
203.52500000000003
20
-78.474999999999994
10
203.52500000000003
20
-93.974999999999994
42
-0.41421356237309503
0
LWPOLYLINE
5
181
100
AcDbEntity
8
0
100
AcDbPolyline
90
8
70
1
43
0.0
10
2.9375000000000009
20
-92.724999999999994
10
2.4375000000000004
20
-92.724999999999994
42
-0.41421356237309503
10
1.6875000000000007
20
-91.974999999999994
10
1.6874999999999987
20
-79.474999999999994
42
-0.41421356237309503
10
2.4375000000000004
20
-78.724999999999994
10
2.9375000000000009
20
-78.724999999999994
42
-0.41421356237309503
10
3.6875000000000009
20
-79.474999999999994
10
3.6874999999999938
20
-91.974999999999994
42
-0.41421356237309503
0
LWPOLYLINE
5
182
100
AcDbEntity
8
0
100
AcDbPolyline
90
8
70
1
43
0.0
10
216.83750000000003
20
-79.474999999999994
42
-0.41421356237309503
10
217.58750000000003
20
-78.724999999999994
10
230.08750000000003
20
-78.725000000000009
42
-0.41421356237309503
10
230.83750000000003
20
-79.474999999999994
10
230.83750000000003
20
-91.974999999999994
42
-0.41421356237309503
10
230.08750000000003
20
-92.724999999999994
10
217.58750000000003
20
-92.724999999999994
42
-0.41421356237309503
10
216.83750000000003
20
-91.974999999999994
0
LWPOLYLINE
5
183
100
AcDbEntity
8
0
100
AcDbPolyline
90
8
70
1
43
0.0
10
253.90000000000001
20
-78.724999999999994
10
241.40000000000001
20
-78.724999999999994
42
0.41421356237309503
10
240.65000000000001
20
-79.474999999999994
10
240.65000000000001
20
-91.974999999999994
42
0.41421356237309503
10
241.40000000000001
20
-92.724999999999994
10
253.90000000000001
20
-92.724999999999994
42
0.41421356237309503
10
254.65000000000003
20
-91.974999999999994
10
254.65000000000001
20
-79.474999999999994
42
0.41421356237309503
0
LWPOLYLINE
5
184
100
AcDbEntity
8
0
100
AcDbPolyline
90
8
70
1
43
0.0
10
88.474999999999994
20
-77.724999999999994
10
82.974999999999994
20
-77.724999999999994
42
0.41421356237309503
10
82.224999999999994
20
-78.474999999999994
10
82.224999999999994
20
-93.974999999999994
42
0.41421356237309503
10
82.974999999999994
20
-94.72499999999998
10
88.474999999999994
20
-94.72499999999998
42
0.41421356237309503
10
89.224999999999994
20
-93.974999999999994
10
89.224999999999994
20
-78.474999999999994
42
0.41421356237309503
0
LWPOLYLINE
5
185
100
AcDbEntity
8
0
100
AcDbPolyline
90
8
70
1
43
0.0
10
277.71249999999998
20
-78.724999999999994
10
265.21249999999998
20
-78.724999999999994
42
0.41421356237309503
10
264.46249999999998
20
-79.474999999999994
10
264.46249999999998
20
-91.974999999999994
42
0.41421356237309503
10
265.21249999999998
20
-92.724999999999994
10
277.71249999999998
20
-92.724999999999994
42
0.41421356237309503
10
278.46249999999998
20
-91.974999999999994
10
278.46249999999998
20
-79.474999999999994
42
0.41421356237309503
0
LWPOLYLINE
5
186
100
AcDbEntity
8
0
100
AcDbPolyline
90
8
70
1
43
0.0
10
282.0625
20
-79.474999999999994
42
-0.41421356237309503
10
282.8125
20
-78.724999999999994
10
283.3125
20
-78.725000000000009
42
-0.41421356237309503
10
284.0625
20
-79.474999999999994
10
284.0625
20
-91.974999999999994
42
-0.41421356237309503
10
283.3125
20
-92.724999999999994
10
282.8125
20
-92.724999999999994
42
-0.41421356237309503
10
282.0625
20
-91.974999999999994
0
LWPOLYLINE
5
187
100
AcDbEntity
8
0
100
AcDbPolyline
90
8
70
1
43
0.0
10
235.1875
20
-92.724999999999994
42
-0.41421356237309503
10
234.4375
20
-91.974999999999994
10
234.4375
20
-79.474999999999994
42
-0.41421356237309503
10
235.1875
20
-78.724999999999994
10
235.6875
20
-78.725000000000009
42
-0.41421356237309503
10
236.4375
20
-79.474999999999994
10
236.4375
20
-91.974999999999994
42
-0.41421356237309503
10
235.6875
20
-92.724999999999994
0
LWPOLYLINE
5
188
100
AcDbEntity
8
0
100
AcDbPolyline
90
8
70
1
43
0.0
10
212.48750000000001
20
-78.724999999999994
10
211.98750000000004
20
-78.724999999999994
42
0.41421356237309503
10
211.23750000000004
20
-79.474999999999994
10
211.23750000000004
20
-91.974999999999994
42
0.41421356237309503
10
211.98750000000004
20
-92.724999999999994
10
212.48750000000001
20
-92.724999999999994
42
0.41421356237309503
10
213.23750000000001
20
-91.974999999999994
10
213.23750000000001
20
-79.474999999999994
42
0.41421356237309503
0
LWPOLYLINE
5
189
100
AcDbEntity
8
0
100
AcDbPolyline
90
8
70
1
43
0.0
10
260.11250000000007
20
-78.724999999999994
10
259.61250000000001
20
-78.724999999999994
42
0.41421356237309503
10
258.86250000000007
20
-79.474999999999994
10
258.86250000000007
20
-91.974999999999994
42
0.41421356237309503
10
259.61250000000001
20
-92.724999999999994
10
260.11250000000007
20
-92.724999999999994
42
0.41421356237309503
10
260.86250000000001
20
-91.974999999999994
10
260.86250000000001
20
-79.474999999999994
42
0.41421356237309503
0
LWPOLYLINE
5
190
100
AcDbEntity
8
0
100
AcDbPolyline
90
16
70
1
43
0.0
10
287.46421356237306
20
0.14436508138963217
10
285.69436508138955
20
1.9142135623731429
42
0.19891236737965548
10
284.2801515190165
20
2.5000000000000555
10
1.4698484809834853
20
2.5000000000000022
42
0.19891236737965648
10
0.055634918610400763
20
1.9142135623730963
10
-1.7142135623731038
20
0.14436508138958276
42
0.19891236737965673
10
-2.3000000000000078
20
-1.2698484809835087
10
-2.2999999999999927
20
-93.755690538289741
42
0.33011692055461955
10
-1.9455537860986281
20
-94.234035701694125
42
-0.25003001086503712
10
1.2159642983058809
20
-97.395553786098574
42
0.33011692055463859
10
1.6943094617102261
20
-97.749999999999972
10
284.05569053828975
20
-97.749999999999929
42
0.33011692055463637
10
284.53403570169422
20
-97.395553786098574
42
-0.25003001086503585
10
287.69555378609857
20
-94.234035701694125
42
0.33011692055455844
10
288.04999999999995
20
-93.755690538289755
10
288.04999999999995
20
-1.2698484809834913
42
0.19891236737965065
0
LINE
5
191
100
AcDbEntity
8
0
100
AcDbLine
10
5.65625
20
-54.625
30
0
11
22.918750000000003
21
-54.625
31
0
0
ARC
5
192
100
AcDbEntity
8
0
100
AcDbCircle
10
5.65625
20
-41.375
30
0
40
0.75000000000000178
210
0
220
-0
230
1
100
AcDbArc
50
90
51
180
0
LINE
5
193
100
AcDbEntity
8
0
100
AcDbLine
10
5.65625
20
-40.625
30
0
11
22.918750000000003
21
-40.625
31
0
0
LWPOLYLINE
5
194
100
AcDbEntity
8
0
100
AcDbPolyline
90
8
70
1
43
0.0
10
6.6182500000000086
20
-58.67499999999999
10
12.36825
20
-58.67499999999999
42
-0.41421356237310542
10
12.868250000000007
20
-59.174999999999997
10
12.868250000000005
20
-74.174999999999969
42
-0.41421356237309503
10
12.368250000000007
20
-74.674999999999969
10
6.6182500000000113
20
-74.674999999999969
42
-0.41421356237309243
10
6.1182500000000086
20
-74.174999999999955
10
6.118250000000014
20
-59.174999999999997
42
-0.41421356237310869
0
LWPOLYLINE
5
195
100
AcDbEntity
8
0
100
AcDbPolyline
90
8
70
1
43
0.0
10
36.244250000000008
20
-74.674999999999969
10
30.494249999999994
20
-74.674999999999969
42
-0.4142135623730846
10
29.994250000000005
20
-74.174999999999955
10
29.994250000000001
20
-59.175000000000004
42
-0.41421356237308721
10
30.494249999999994
20
-58.67499999999999
10
36.244250000000015
20
-58.674999999999997
42
-0.41421356237307422
10
36.744250000000001
20
-59.174999999999976
10
36.744250000000001
20
-74.174999999999969
42
-0.41421356237309764
0
LWPOLYLINE
5
196
100
AcDbEntity
8
0
100
AcDbPolyline
90
8
70
1
43
0.0
10
40.181250000000013
20
-73.674999999999955
10
39.181249999999999
20
-73.674999999999955
42
-0.41421356237309764
10
38.681249999999999
20
-73.174999999999969
10
38.681249999999999
20
-60.174999999999976
42
-0.41421356237308982
10
39.181249999999999
20
-59.674999999999983
10
40.181250000000013
20
-59.674999999999976
42
-0.41421356237310542
10
40.681250000000013
20
-60.174999999999976
10
40.681250000000027
20
-73.174999999999969
42
-0.41421356237307422
0
LWPOLYLINE
5
197
100
AcDbEntity
8
0
100
AcDbPolyline
90
8
70
1
43
0.0
10
2.6812500000000195
20
-59.674999999999997
10
3.6812499999999986
20
-59.674999999999997
42
-0.4142135623730937
10
4.1812500000000075
20
-60.174999999999983
10
4.1812500000000101
20
-73.174999999999969
42
-0.41421356237309731
10
3.6812500000000083
20
-73.674999999999969
10
2.6812500000000212
20
-73.674999999999983
42
-0.41421356237311974
10
2.1812500000000092
20
-73.174999999999969
10
2.1812500000000181
20
-60.174999999999983
42
-0.41421356237309176
0
LWPOLYLINE
5
198
100
AcDbEntity
8
0
100
AcDbPolyline
90
8
70
1
43
0.0
10
237.53743580380859
20
-73.67499999999994
10
236.53743580380859
20
-73.674999999999955
42
-0.41421356237307422
10
236.03743580380862
20
-73.17499999999994
10
236.03743580380865
20
-60.174999999999955
42
-0.4142135623730846
10
236.53743580380859
20
-59.674999999999969
10
237.53743580380859
20
-59.674999999999976
42
-0.41421356237313145
10
238.03743580380859
20
-60.174999999999976
10
238.03743580380856
20
-73.17499999999994
42
-0.4142135623730222
0
LWPOLYLINE
5
199
100
AcDbEntity
8
0
100
AcDbPolyline
90
8
70
1
43
0.0
10
262.58430521274937
20
-59.674999999999955
10
263.58430521274943
20
-59.674999999999926
42
-0.41421356237311585
10
264.08430521274943
20
-60.174999999999969
10
264.08430521274943
20
-73.17499999999994
42
-0.41421356237314189
10
263.58430521274943
20
-73.67499999999994
10
262.58430521274943
20
-73.674999999999955
42
-0.41421356237310025
10
262.08430521274943
20
-73.17499999999994
10
262.08430521274943
20
-60.174999999999947
42
-0.4142135623730222
0
LWPOLYLINE
5
200
100
AcDbEntity
8
0
100
AcDbPolyline
90
8
70
1
43
0.0
10
249.00574999999998
20
-55.124999999999957
10
249.00575000000001
20
-40.124999999999964
42
-0.4142135623730846
10
249.50574999999992
20
-39.624999999999972
10
255.25574999999998
20
-39.624999999999943
42
-0.41421356237310025
10
255.75574999999998
20
-40.124999999999957
10
255.75575000000001
20
-55.124999999999972
42
-0.41421356237311585
10
255.25574999999998
20
-55.624999999999972
10
249.50574999999992
20
-55.625
42
-0.4142135623730534
0
LWPOLYLINE
5
201
100
AcDbEntity
8
0
100
AcDbPolyline
90
8
70
1
43
0.0
10
272.88174999999995
20
-55.124999999999957
10
272.88174999999995
20
-40.124999999999957
42
-0.41421356237316787
10
273.38174999999995
20
-39.624999999999957
10
279.13174999999995
20
-39.624999999999943
42
-0.41421356237310025
10
279.63174999999995
20
-40.124999999999957
10
279.63175000000001
20
-55.124999999999972
42
-0.41421356237311585
10
279.13174999999995
20
-55.624999999999964
10
273.38174999999995
20
-55.624999999999964
42
-0.41421356237309503
0
LWPOLYLINE
5
202
100
AcDbEntity
8
0
100
AcDbPolyline
90
8
70
1
43
0.0
10
283.06874999999997
20
-54.624999999999957
10
282.06874999999997
20
-54.624999999999957
42
-0.41421356237312623
10
281.56874999999997
20
-54.124999999999972
10
281.56874999999991
20
-41.124999999999957
42
-0.41421356237312101
10
282.06874999999997
20
-40.624999999999957
10
283.06874999999997
20
-40.624999999999929
42
-0.4142135623730846
10
283.56875000000002
20
-41.124999999999957
10
283.56875000000002
20
-54.124999999999972
42
-0.41421356237310542
0
LWPOLYLINE
5
203
100
AcDbEntity
8
0
100
AcDbPolyline
90
8
70
1
43
0.0
10
245.56874999999994
20
-40.624999999999964
10
246.56874999999991
20
-40.624999999999986
42
-0.41421356237312101
10
247.06874999999994
20
-41.124999999999964
10
247.06874999999991
20
-54.124999999999979
42
-0.41421356237301177
10
246.56874999999991
20
-54.624999999999972
10
245.56874999999994
20
-54.624999999999986
42
-0.41421356237309503
10
245.06874999999994
20
-54.124999999999979
10
245.06874999999994
20
-41.124999999999964
42
-0.41421356237313667
0
LINE
5
204
100
AcDbEntity
8
0
100
AcDbLine
10
250.92500000000001
20
-2.5249999999999999
30
0
11
251.262
21
-2.5249999999999999
31
0
0
LINE
5
205
100
AcDbEntity
8
0
100
AcDbLine
10
251.262
20
-2.5249999999999999
30
0
11
251.262
21
-2.2750000000000012
31
0
0
LINE
5
206
100
AcDbEntity
8
0
100
AcDbLine
10
258.262
20
-2.2750000000000012
30
0
11
258.262
21
-2.5249999999999999
31
0
0
LINE
5
207
100
AcDbEntity
8
0
100
AcDbLine
10
258.262
20
-2.5249999999999999
30
0
11
275.13799999999998
21
-2.5249999999999999
31
0
0
LINE
5
208
100
AcDbEntity
8
0
100
AcDbLine
10
275.13799999999998
20
-2.5249999999999999
30
0
11
275.13799999999998
21
-2.2750000000000012
31
0
0
LINE
5
209
100
AcDbEntity
8
0
100
AcDbLine
10
282.13799999999998
20
-2.2750000000000012
30
0
11
282.13799999999998
21
-2.5249999999999999
31
0
0
LINE
5
210
100
AcDbEntity
8
0
100
AcDbLine
10
282.13799999999998
20
-2.5249999999999999
30
0
11
282.47500000000002
21
-2.5249999999999999
31
0
0
ARC
5
211
100
AcDbEntity
8
0
100
AcDbCircle
10
275.88799999999998
20
-16.774999999999999
30
0
40
0.74999999999999289
210
0
220
0
230
1
100
AcDbArc
50
180
51
270
0
LINE
5
212
100
AcDbEntity
8
0
100
AcDbLine
10
275.88799999999998
20
-17.524999999999999
30
0
11
281.38799999999998
21
-17.524999999999999
31
0
0
ARC
5
213
100
AcDbEntity
8
0
100
AcDbCircle
10
281.38799999999998
20
-16.774999999999999
30
0
40
0.75000000000000178
210
0
220
0
230
1
100
AcDbArc
50
-90
51
0
0
LINE
5
214
100
AcDbEntity
8
0
100
AcDbLine
10
282.13799999999998
20
-16.774999999999999
30
0
11
282.13799999999998
21
-16.524999999999999
31
0
0
LINE
5
215
100
AcDbEntity
8
0
100
AcDbLine
10
282.13799999999998
20
-16.524999999999999
30
0
11
282.47500000000002
21
-16.524999999999999
31
0
0
ARC
5
216
100
AcDbEntity
8
0
100
AcDbCircle
10
282.47500000000002
20
-15.775000000000002
30
0
40
0.74999999999999734
210
0
220
0
230
1
100
AcDbArc
50
-90
51
0
0
LINE
5
217
100
AcDbEntity
8
0
100
AcDbLine
10
283.22500000000002
20
-15.775000000000002
30
0
11
283.22500000000002
21
-3.274999999999999
31
0
0
ARC
5
218
100
AcDbEntity
8
0
100
AcDbCircle
10
282.47500000000002
20
-3.274999999999999
30
0
40
0.75000000000002842
210
0
220
0
230
1
100
AcDbArc
50
0
51
90
0
ARC
5
219
100
AcDbEntity
8
0
100
AcDbCircle
10
250.92500000000001
20
-3.274999999999999
30
0
40
0.74999999999999734
210
0
220
-0
230
1
100
AcDbArc
50
90
51
180
0
LINE
5
220
100
AcDbEntity
8
0
100
AcDbLine
10
250.17500000000001
20
-15.775000000000002
30
0
11
250.17500000000001
21
-3.274999999999999
31
0
0
ARC
5
221
100
AcDbEntity
8
0
100
AcDbCircle
10
250.92500000000001
20
-15.775000000000002
30
0
40
0.74999999999999289
210
0
220
0
230
1
100
AcDbArc
50
180
51
270
0
LINE
5
222
100
AcDbEntity
8
0
100
AcDbLine
10
250.92500000000001
20
-16.524999999999999
30
0
11
251.262
21
-16.524999999999999
31
0
0
LINE
5
223
100
AcDbEntity
8
0
100
AcDbLine
10
251.262
20
-16.524999999999999
30
0
11
251.262
21
-16.774999999999999
31
0
0
ARC
5
224
100
AcDbEntity
8
0
100
AcDbCircle
10
252.012
20
-16.774999999999999
30
0
40
0.74999999999999289
210
0
220
0
230
1
100
AcDbArc
50
180
51
270
0
LINE
5
225
100
AcDbEntity
8
0
100
AcDbLine
10
252.012
20
-17.524999999999999
30
0
11
257.512
21
-17.524999999999999
31
0
0
ARC
5
226
100
AcDbEntity
8
0
100
AcDbCircle
10
257.512
20
-16.774999999999999
30
0
40
0.75000000000000178
210
0
220
0
230
1
100
AcDbArc
50
-90
51
0
0
LINE
5
227
100
AcDbEntity
8
0
100
AcDbLine
10
258.262
20
-16.774999999999999
30
0
11
258.262
21
-16.524999999999999
31
0
0
LINE
5
228
100
AcDbEntity
8
0
100
AcDbLine
10
275.13799999999998
20
-16.524999999999999
30
0
11
275.13799999999998
21
-16.774999999999999
31
0
0
LINE
5
229
100
AcDbEntity
8
0
100
AcDbLine
10
258.262
20
-16.524999999999999
30
0
11
275.13799999999998
21
-16.524999999999999
31
0
0
LWPOLYLINE
5
230
100
AcDbEntity
8
0
100
AcDbPolyline
90
20
70
1
43
0.0
10
149.37499999999997
20
-78.724999999999952
42
-0.41421356237308982
10
149.875
20
-79.224999999999952
10
149.875
20
-83.594009101181399
10
177.9580600875218
20
-83.594009101181385
42
-0.41421356237309764
10
179.95806008752183
20
-85.594009101181399
10
179.95806008752183
20
-85.855990898818533
42
-0.41421356237309764
10
177.95806008752183
20
-87.855990898818547
10
149.875
20
-87.855990898818547
10
149.87499999999997
20
-92.224999999999966
42
-0.41421356237311585
10
149.37499999999997
20
-92.724999999999994
10
136.375
20
-92.725000000000009
42
-0.41421356237311585
10
135.875
20
-92.224999999999966
10
135.875
20
-87.855990898818547
10
107.79193991247816
20
-87.855990898818561
42
-0.41421356237308982
10
105.79193991247817
20
-85.855990898818533
10
105.79193991247817
20
-85.594009101181399
42
-0.41421356237309243
10
107.79193991247814
20
-83.594009101181399
10
135.875
20
-83.594009101181399
10
135.87500000000003
20
-79.224999999999952
42
-0.41421356237308982
10
136.375
20
-78.724999999999952
0
ENDSEC
0
SECTION
2
OBJECTS
0
DICTIONARY
5
C
100
AcDbDictionary
3
ACAD_GROUP
350
D
3
ACAD_MLINESTYLE
350
17
0
DICTIONARY
5
D
100
AcDbDictionary
0
DICTIONARY
5
1A
330
C
100
AcDbDictionary
0
DICTIONARY
5
17
100
AcDbDictionary
0
ENDSEC
0
EOF
