0
SECTION
2
HEADER
9
$INSUNITS
70
4
9
$ACADVER
1
AC1014
9
$HANDSEED
5
FFFF
0
ENDSEC
0
SECTION
2
TABLES
0
TABLE
2
VPORT
5
8
100
AcDbSymbolTable
0
ENDTAB
0
TABLE
2
LTYPE
5
5
100
AcDbSymbolTable
0
LTYPE
5
14
100
AcDbSymbolTableRecord
100
AcDbLinetypeTableRecord
2
BYBLOCK
70
0
0
LTYPE
5
15
100
AcDbSymbolTableRecord
100
AcDbLinetypeTableRecord
2
BYLAYER
70
0
0
ENDTAB
0
TABLE
2
LAYER
5
2
100
AcDbSymbolTable
70
2
0
LAYER
5
50
100
AcDbSymbolTableRecord
100
AcDbLayerTableRecord
2
0
70
0
6
CONTINUOUS
0
ENDTAB
0
TABLE
2
STYLE
5
3
100
AcDbSymbolTable
70
1
0
STYLE
5
11
100
AcDbSymbolTableRecord
100
AcDbTextStyleTableRecord
2
STANDARD
70
0
0
ENDTAB
0
TABLE
2
VIEW
5
6
100
AcDbSymbolTable
70
0
0
ENDTAB
0
TABLE
2
UCS
5
7
100
AcDbSymbolTable
70
0
0
ENDTAB
0
TABLE
2
APPID
5
9
100
AcDbSymbolTable
70
2
0
APPID
5
12
100
AcDbSymbolTableRecord
100
AcDbRegAppTableRecord
2
ACAD
70
0
0
ENDTAB
0
TABLE
2
DIMSTYLE
5
A
100
AcDbSymbolTable
70
1
0
ENDTAB
0
TABLE
2
BLOCK_RECORD
5
1
100
AcDbSymbolTable
70
1
0
BLOCK_RECORD
5
1F
100
AcDbSymbolTableRecord
100
AcDbBlockTableRecord
2
*MODEL_SPACE
0
BLOCK_RECORD
5
1B
100
AcDbSymbolTableRecord
100
AcDbBlockTableRecord
2
*PAPER_SPACE
0
ENDTAB
0
ENDSEC
0
SECTION
2
BLOCKS
0
BLOCK
5
20
100
AcDbEntity
100
AcDbBlockBegin
2
*MODEL_SPACE
0
ENDBLK
5
21
100
AcDbEntity
100
AcDbBlockEnd
0
BLOCK
5
1C
100
AcDbEntity
100
AcDbBlockBegin
2
*PAPER_SPACE
0
ENDBLK
5
1D
100
AcDbEntity
100
AcDbBlockEnd
0
ENDSEC
0
SECTION
2
ENTITIES
0
LWPOLYLINE
5
100
100
AcDbEntity
8
0
100
AcDbPolyline
90
8
70
1
43
0.0
10
131.11250000000001
20
-53.875
42
0.41421356237309503
10
131.86250000000001
20
-54.624999999999993
10
144.36250000000001
20
-54.625
42
0.41421356237309159
10
145.11250000000001
20
-53.875
10
145.11250000000001
20
-41.375
42
0.41421356237309503
10
144.36250000000001
20
-40.625000000000007
10
131.86250000000001
20
-40.624999999999993
42
0.41421356237308815
10
131.11250000000001
20
-41.375
0
LWPOLYLINE
5
101
100
AcDbEntity
8
0
100
AcDbPolyline
90
8
70
1
43
0.0
10
202.26249999999999
20
-53.875
10
202.26249999999999
20
-41.375
42
0.41421356237303258
10
201.51250000000002
20
-40.625000000000007
10
189.01249999999999
20
-40.624999999999993
42
0.41421356237310197
10
188.26249999999999
20
-41.375
10
188.26250000000002
20
-53.875
42
0.41421356237311585
10
189.01250000000002
20
-54.624999999999993
10
201.51250000000002
20
-54.625
42
0.41421356237309853
0
LWPOLYLINE
5
102
100
AcDbEntity
8
0
100
AcDbPolyline
90
8
70
1
43
0.0
10
126.06250000000001
20
-53.875
10
126.0625
20
-41.375
42
0.41421356237309503
10
125.3125
20
-40.625000000000007
10
112.8125
20
-40.624999999999993
42
0.41421356237308815
10
112.0625
20
-41.375
10
112.0625
20
-53.875
42
0.41421356237309503
10
112.8125
20
-54.624999999999993
10
125.3125
20
-54.625
42
0.41421356237309159
0
LWPOLYLINE
5
103
100
AcDbEntity
8
0
100
AcDbPolyline
90
8
70
1
43
0.0
10
182.46250000000001
20
-54.625
10
169.96250000000001
20
-54.625
42
-0.41421356237309853
10
169.21250000000001
20
-53.875
10
169.21250000000001
20
-41.375
42
-0.41421356237306733
10
169.96250000000001
20
-40.625
10
182.46250000000003
20
-40.624999999999993
42
-0.41421356237310197
10
183.21250000000003
20
-41.375
10
183.21250000000003
20
-53.875
42
-0.4142135623730569
0
LWPOLYLINE
5
104
100
AcDbEntity
8
0
100
AcDbPolyline
90
8
70
1
43
0.0
10
93.012500000000017
20
-41.375
10
93.012500000000017
20
-53.875
42
0.41421356237309503
10
93.762500000000003
20
-54.624999999999993
10
106.26249999999999
20
-54.624999999999986
42
0.41421356237311935
10
107.01250000000002
20
-53.875
10
107.01250000000002
20
-41.375
42
0.41421356237307771
10
106.2625
20
-40.625000000000007
10
93.762500000000003
20
-40.624999999999993
42
0.41421356237308815
0
LWPOLYLINE
5
105
100
AcDbEntity
8
0
100
AcDbPolyline
90
8
70
1
43
0.0
10
150.16250000000008
20
-53.875
42
0.41421356237307078
10
150.91249999999999
20
-54.624999999999993
10
163.41249999999999
20
-54.625
42
0.41421356237309853
10
164.16249999999997
20
-53.875
10
164.16249999999997
20
-41.375
42
0.41421356237303258
10
163.41249999999999
20
-40.625000000000007
10
150.91250000000002
20
-40.625000000000014
42
0.41421356237311241
10
150.16249999999999
20
-41.375
0
LWPOLYLINE
5
106
100
AcDbEntity
8
0
100
AcDbPolyline
90
20
70
1
43
0.0
10
4.90625
20
-72.925000000000026
10
4.9062499999999956
20
-60.425000000000004
42
-0.41421356237308943
10
5.6562499999999982
20
-59.675000000000004
10
39.587500000000013
20
-59.675000000000004
42
-0.41421356237309503
10
40.337500000000013
20
-60.425000000000004
10
40.337500000000013
20
-72.925000000000026
42
-0.41421356237308982
10
39.587500000000013
20
-73.674999999999983
10
36.869249999999987
20
-73.674999999999983
10
36.869250000000001
20
-74.924999999999955
42
-0.41421356237310025
10
36.119250000000001
20
-75.674999999999969
10
30.619250000000005
20
-75.674999999999969
42
-0.41421356237310197
10
29.869249999999994
20
-74.924999999999969
10
29.869249999999994
20
-73.674999999999983
10
12.993249999999998
20
-73.674999999999983
10
12.993249999999998
20
-74.924999999999955
42
-0.41421356237309503
10
12.243250000000005
20
-75.674999999999969
10
6.7432500000000006
20
-75.674999999999969
42
-0.41421356237308943
10
5.9932499999999944
20
-74.924999999999983
10
5.9932499999999642
20
-73.674999999999983
10
5.65625
20
-73.674999999999983
42
-0.41421356237309892
0
LWPOLYLINE
5
107
100
AcDbEntity
8
0
100
AcDbPolyline
90
8
70
1
43
0.0
10
208.06250000000006
20
-54.624999999999993
10
220.56250000000006
20
-54.625000000000021
42
0.41421356237311935
10
221.3125
20
-53.875
10
221.3125
20
-41.375
42
0.41421356237311241
10
220.56250000000006
20
-40.625000000000007
10
208.06250000000006
20
-40.625000000000028
42
0.41421356237312978
10
207.31250000000003
20
-41.375
10
207.31250000000003
20
-53.875
42
0.4142135623730569
0
LWPOLYLINE
5
108
100
AcDbEntity
8
0
100
AcDbPolyline
90
8
70
1
43
0.0
10
58.637500000000003
20
-59.675000000000004
10
46.137500000000003
20
-59.675000000000004
42
0.41421356237308815
10
45.387500000000003
20
-60.425000000000004
10
45.387500000000003
20
-72.925000000000026
42
0.41421356237311585
10
46.137500000000003
20
-73.67500000000004
10
58.637500000000003
20
-73.67500000000004
42
0.41421356237311585
10
59.387500000000003
20
-72.925000000000026
10
59.387499999999996
20
-60.425000000000004
42
0.41421356237311241
0
LWPOLYLINE
5
109
100
AcDbEntity
8
0
100
AcDbPolyline
90
8
70
1
43
0.0
10
227.11250000000007
20
-40.625000000000028
42
0.41421356237312978
10
226.36250000000004
20
-41.375
10
226.36250000000004
20
-53.875
42
0.4142135623730569
10
227.11250000000007
20
-54.624999999999993
10
239.61250000000007
20
-54.625000000000021
42
0.41421356237311935
10
240.36250000000001
20
-53.875
10
240.36250000000001
20
-41.375
42
0.41421356237311241
10
239.61250000000007
20
-40.625000000000007
0
LWPOLYLINE
5
110
100
AcDbEntity
8
0
100
AcDbPolyline
90
8
70
1
43
0.0
10
96.737499999999997
20
-59.675000000000011
10
84.237499999999983
20
-59.675000000000004
42
0.4142135623730846
10
83.487499999999983
20
-60.425000000000004
10
83.487500000000026
20
-72.925000000000026
42
0.41421356237310542
10
84.237499999999983
20
-73.674999999999983
10
96.737499999999997
20
-73.674999999999983
42
0.41421356237308815
10
97.487500000000011
20
-72.925000000000026
10
97.487500000000011
20
-60.425000000000004
42
0.41421356237307422
0
LWPOLYLINE
5
111
100
AcDbEntity
8
0
100
AcDbPolyline
90
8
70
1
43
0.0
10
64.4375
20
-72.925000000000026
42
0.41421356237308815
10
65.1875
20
-73.67500000000004
10
77.6875
20
-73.67500000000004
42
0.41421356237310542
10
78.437500000000014
20
-72.925000000000026
10
78.437500000000014
20
-60.425000000000004
42
0.41421356237309159
10
77.6875
20
-59.675000000000004
10
65.1875
20
-59.675000000000004
42
0.41421356237308116
10
64.4375
20
-60.425000000000004
0
LWPOLYLINE
5
112
100
AcDbEntity
8
0
100
AcDbPolyline
90
41
70
1
43
0.0
10
245.41250000000002
20
-53.875
42
0.41421356237309853
10
246.16250000000002
20
-54.624999999999993
10
248.88075000000003
20
-54.624999999999993
10
248.88075000000003
20
-55.874999999999993
42
0.41421356237309853
10
249.63075000000003
20
-56.624999999999986
10
255.13075000000001
20
-56.625000000000014
42
0.41421356237302914
10
255.88075000000003
20
-55.874999999999993
10
255.88075000000021
20
-54.624999999999993
10
272.75675000000001
20
-54.625000000002395
10
272.75675000000001
20
-55.874999999999993
42
0.41421356237309853
10
273.50675000000001
20
-56.625
10
279.00675000000001
20
-56.625
42
0.41421356237306733
10
279.75675000000001
20
-55.874999999999993
10
279.75675000000001
20
-53.537999999999997
10
281.09375000000006
20
-53.537999999999997
42
0.41421356237310897
10
281.84375
20
-52.788000000000004
10
281.84375
20
-47.287999999999997
42
0.41421356237303958
10
281.09375000000006
20
-46.537999999999997
10
279.75675000000001
20
-46.537999999999997
10
279.75675000000001
20
-45.100000000000016
10
280.09375
20
-45.100000000000016
42
0.41421356237309853
10
280.84375
20
-44.350000000000016
10
280.84375
20
-31.850000000000005
42
0.41421356237303436
10
280.09375
20
-31.100000000000012
10
278.46249999999998
20
-31.100000000000012
10
278.46249999999998
20
-29.662000000000013
10
281.09375000000006
20
-29.662000000000006
42
0.41421356237311413
10
281.84375
20
-28.911999999999999
10
281.84375
20
-23.412000000000006
42
0.41421356237303608
10
281.09375000000006
20
-22.66200000000001
10
278.46249999999998
20
-22.662000000000006
10
278.46249999999998
20
-22.324999999999999
42
0.41421356237307078
10
277.71249999999998
20
-21.574999999999996
10
265.21249999999998
20
-21.574999999999989
42
0.41421356237303258
10
264.46249999999998
20
-22.324999999999999
10
264.46249999999998
20
-34.825000000000003
42
0.414213562373069
10
265.21249999999998
20
-35.575000000000003
10
266.84375
20
-35.575000000000003
10
266.84375
20
-40.624999999999993
10
246.16250000000002
20
-40.625
42
0.41421356237309853
10
245.41250000000002
20
-41.375
0
LWPOLYLINE
5
113
100
AcDbEntity
8
0
100
AcDbPolyline
90
8
70
1
43
0.0
10
103.28749999999999
20
-59.675000000000004
42
0.4142135623730846
10
102.53749999999999
20
-60.425000000000004
10
102.53749999999999
20
-72.925000000000026
42
0.41421356237310542
10
103.28749999999999
20
-73.674999999999983
10
115.78749999999999
20
-73.674999999999983
42
0.4142135623730846
10
116.53750000000001
20
-72.925000000000026
10
116.53749999999999
20
-60.425000000000004
42
0.41421356237309159
10
115.78749999999999
20
-59.675000000000011
0
LWPOLYLINE
5
114
100
AcDbEntity
8
0
100
AcDbPolyline
90
56
70
1
43
0.0
10
40.100000000000009
20
3.0000025947006148
10
40.100000000000009
20
1.5000025947006159
42
0.41421356237309159
10
41.600000000000001
20
2.5947006002113859e-06
10
104.44999999999996
20
2.594700592162269e-06
42
0.41421356237309326
10
105.94999999999997
20
1.5000025947005866
10
105.94999999999999
20
3.0000025947006339
42
-0.99999999999999989
10
109.95000000000005
20
3.0000025947005602
10
109.94999999999987
20
1.5000025947005937
42
0.41421356237310886
10
111.44999999999987
20
2.5947005943827151e-06
10
174.30000000000004
20
2.5947005657944722e-06
42
0.41421356237308365
10
175.79999999999995
20
1.5000025947005644
10
175.79999999999995
20
3.0000025947005993
42
-0.99999999999999989
10
179.79999999999993
20
3.0000025947005304
10
179.79999999999993
20
1.5000025947005713
42
0.41421356237309165
10
181.29999999999995
20
2.5947005732884772e-06
10
244.15000000000003
20
2.5947005438675674e-06
42
0.41421356237308354
10
245.65000000000001
20
1.5000025947005415
10
245.64999999999998
20
3.000002594700578
42
-0.99999999999999989
10
249.65000000000003
20
3.000002594700578
10
249.65000000000003
20
1.5000025947005495
42
0.41421356237311974
10
251.15000000000003
20
2.5947005832804848e-06
10
284.74999999999994
20
2.594700568292474e-06
42
-0.41421356237312318
10
285.74999999999994
20
-0.9999974052994709
10
285.74999999999994
20
-94.249997405299496
42
-0.41421356237310542
10
284.74999999999994
20
-95.249997405299467
10
251.15000000000003
20
-95.24999740529951
42
0.41421356237310197
10
249.64999999999992
20
-96.749997405299496
10
249.65000000000006
20
-98.249997405299453
42
-0.99999999999999989
10
245.64999999999995
20
-98.249997405299411
10
245.65000000000001
20
-96.749997405299496
42
0.41421356237309503
10
244.15000000000003
20
-95.24999740529951
10
181.29999999999993
20
-95.249997405299439
42
0.41421356237308815
10
179.79999999999993
20
-96.749997405299467
10
179.80000000000001
20
-98.249997405299382
42
-0.99999999999999989
10
175.79999999999995
20
-98.249997405299339
10
175.7999999999999
20
-96.749997405299467
42
0.41421356237308116
10
174.30000000000004
20
-95.249997405299496
10
111.44999999999987
20
-95.249997405299467
42
0.41421356237311585
10
109.94999999999987
20
-96.749997405299467
10
109.94999999999996
20
-98.249997405299339
42
-0.99999999999999989
10
105.95
20
-98.249997405299411
10
105.94999999999997
20
-96.749997405299467
42
0.41421356237308116
10
104.44999999999996
20
-95.249997405299467
10
41.599999999999966
20
-95.249997405299425
42
0.41421356237307422
10
40.099999999999973
20
-96.749997405299411
10
40.099999999999973
20
-98.249997405299325
42
-0.99999999999999989
10
36.099999999999966
20
-98.249997405299325
10
36.09999999999998
20
-96.749997405299411
42
0.41421356237308293
10
34.599999999999966
20
-95.249997405299411
10
0.99999999999996991
20
-95.249997405299411
42
-0.41421356237308937
10
-2.4424906541753444e-14
20
-94.249997405299396
10
-1.0130785099704553e-14
20
-0.99999740529938219
42
-0.41421356237309859
10
0.99999999999999645
20
2.5947006340731882e-06
10
34.600000000000001
20
2.5947006143667295e-06
42
0.41421356237309065
10
36.100000000000001
20
1.5000025947006088
10
36.100000000000001
20
3.0000025947006281
42
-0.99999999999999989
0
CIRCLE
5
115
100
AcDbEntity
8
0
100
AcDbCircle
10
107.95000000000002
20
3.000002594700597
30
0
40
1.1999999999999917
210
0
220
0
230
1
0
CIRCLE
5
116
100
AcDbEntity
8
0
100
AcDbCircle
10
177.79999999999998
20
3.0000025947005824
30
0
40
1.1999999999999742
210
0
220
0
230
1
0
CIRCLE
5
117
100
AcDbEntity
8
0
100
AcDbCircle
10
177.79999999999998
20
-98.249997405299396
30
0
40
1.2000000000000095
210
0
220
0
230
1
0
LWPOLYLINE
5
118
100
AcDbEntity
8
0
100
AcDbPolyline
90
8
70
1
43
0.0
10
5.656249999999976
20
-92.724999999999966
10
20.537499999999973
20
-92.724997405299362
42
0.41421356237308116
10
21.287499999999969
20
-91.974997405299362
10
21.287499999999987
20
-79.474997405299362
42
0.41421356237310375
10
20.53749999999998
20
-78.724997405299376
10
5.6562499999999822
20
-78.724999999999966
42
0.41421356237310636
10
4.9062499999999725
20
-79.474999999999966
10
4.9062499999999742
20
-91.97499999999998
42
0.4142135623730846
0
CIRCLE
5
119
100
AcDbEntity
8
0
100
AcDbCircle
10
38.100000000000009
20
3.0000025947006197
30
0
40
1.2000000000000053
210
0
220
0
230
1
0
CIRCLE
5
120
100
AcDbEntity
8
0
100
AcDbCircle
10
247.64999999999992
20
3.0000025947005526
30
0
40
1.2000000000000095
210
0
220
0
230
1
0
CIRCLE
5
121
100
AcDbEntity
8
0
100
AcDbCircle
10
107.94999999999996
20
-98.249997405299354
30
0
40
1.2000000000000095
210
0
220
0
230
1
0
CIRCLE
5
122
100
AcDbEntity
8
0
100
AcDbCircle
10
38.099999999999966
20
-98.249997405299325
30
0
40
1.2000000000000053
210
0
220
0
230
1
0
CIRCLE
5
123
100
AcDbEntity
8
0
100
AcDbCircle
10
247.64999999999992
20
-98.249997405299411
30
0
40
1.2000000000000095
210
0
220
0
230
1
0
LWPOLYLINE
5
124
100
AcDbEntity
8
0
100
AcDbPolyline
90
8
70
1
43
0.0
10
29.468749999999968
20
-92.724999999999966
10
44.34999999999998
20
-92.724997405299348
42
0.41421356237308815
10
45.09999999999998
20
-91.974997405299362
10
45.099999999999973
20
-79.474997405299362
42
0.41421356237309159
10
44.34999999999998
20
-78.724997405299376
10
29.468749999999968
20
-78.724999999999994
42
0.41421356237309503
10
28.718749999999993
20
-79.47499999999998
10
28.718749999999972
20
-91.97499999999998
42
0.41421356237308293
0
LWPOLYLINE
5
125
100
AcDbEntity
8
0
100
AcDbPolyline
90
8
70
1
43
0.0
10
35.57500000000001
20
-3.2750000000000012
10
35.57500000000001
20
-15.775000000000004
42
-0.41421356237309243
10
34.825000000000003
20
-16.525000000000002
10
22.324999999999999
20
-16.525000000000002
42
-0.41421356237309503
10
21.575000000000003
20
-15.775000000000004
10
21.575000000000003
20
-3.2750000000000012
42
-0.41421356237309287
10
22.324999999999999
20
-2.5249999999999999
10
34.825000000000003
20
-2.5249999999999968
42
-0.41421356237309437
0
LWPOLYLINE
5
126
100
AcDbEntity
8
0
100
AcDbPolyline
90
8
70
1
43
0.0
10
15.775000000000004
20
-16.525000000000002
42
0.41421356237309331
10
16.525000000000002
20
-15.775000000000004
10
16.525000000000002
20
-3.2750000000000012
42
0.41421356237309243
10
15.775000000000004
20
-2.5250000000000004
10
3.2750000000000012
20
-2.5249999999999999
42
0.41421356237309465
10
2.5249999999999999
20
-3.2750000000000012
10
2.5249999999999999
20
-15.775000000000002
42
0.41421356237309631
10
3.2750000000000012
20
-16.525000000000002
0
LWPOLYLINE
5
127
100
AcDbEntity
8
0
100
AcDbPolyline
90
8
70
1
43
0.0
10
40.625
20
-15.775000000000004
42
0.41421356237310897
10
41.375
20
-16.525000000000002
10
53.875
20
-16.524999999999991
42
0.41421356237309592
10
54.625
20
-15.775000000000004
10
54.625
20
-3.2750000000000012
42
0.41421356237309437
10
53.875
20
-2.524999999999999
10
41.375
20
-2.5250000000000057
42
0.4142135623730927
10
40.625
20
-3.2750000000000012
0
LWPOLYLINE
5
128
100
AcDbEntity
8
0
100
AcDbPolyline
90
8
70
1
43
0.0
10
79.47499999999998
20
-16.525000000000002
10
91.97499999999998
20
-16.525000000000006
42
0.4142135623730846
10
92.724999999999994
20
-15.775000000000004
10
92.724999999999994
20
-3.2750000000000012
42
0.41421356237309204
10
91.974999999999994
20
-2.5250000000000079
10
79.47499999999998
20
-2.5249999999999932
42
0.41421356237309398
10
78.724999999999994
20
-3.2750000000000012
10
78.724999999999994
20
-15.775000000000004
42
0.41421356237309853
0
LWPOLYLINE
5
129
100
AcDbEntity
8
0
100
AcDbPolyline
90
8
70
1
43
0.0
10
59.675000000000004
20
-3.2750000000000012
42
-0.41421356237308915
10
60.425000000000004
20
-2.5249999999999999
10
72.925000000000026
20
-2.5250000000000057
42
-0.4142135623730927
10
73.67500000000004
20
-3.2750000000000012
10
73.674999999999983
20
-15.775000000000004
42
-0.41421356237309936
10
72.925000000000026
20
-16.525000000000002
10
60.425000000000004
20
-16.524999999999999
42
-0.41421356237309243
10
59.675000000000004
20
-15.775000000000004
0
LWPOLYLINE
5
130
100
AcDbEntity
8
0
100
AcDbPolyline
90
8
70
1
43
0.0
10
111.77500000000002
20
-3.2750000000000012
10
111.77500000000002
20
-15.775000000000004
42
-0.41421356237310281
10
111.02500000000001
20
-16.525000000000002
10
98.525000000000006
20
-16.525000000000002
42
-0.41421356237309076
10
97.775000000000034
20
-15.775000000000004
10
97.775000000000034
20
-3.2750000000000012
42
-0.41421356237310308
10
98.525000000000006
20
-2.5249999999999999
10
111.02500000000001
20
-2.5250000000000012
42
-0.4142135623731048
0
LWPOLYLINE
5
131
100
AcDbEntity
8
0
100
AcDbPolyline
90
8
70
1
43
0.0
10
117.575
20
-2.5250000000000017
42
0.41421356237310442
10
116.82500000000003
20
-3.2750000000000012
10
116.82500000000003
20
-15.775000000000004
42
0.41421356237307422
10
117.575
20
-16.524999999999995
10
130.07499999999999
20
-16.525000000000002
42
0.41421356237308377
10
130.82499999999999
20
-15.775000000000004
10
130.82499999999999
20
-3.2750000000000012
42
0.41421356237309204
10
130.07499999999999
20
-2.5250000000000079
0
LWPOLYLINE
5
132
100
AcDbEntity
8
0
100
AcDbPolyline
90
8
70
1
43
0.0
10
155.67500000000001
20
-2.5249999999999999
10
168.17500000000001
20
-2.5250000000000083
42
-0.41421356237309503
10
168.92500000000001
20
-3.2750000000000012
10
168.92500000000001
20
-15.775000000000004
42
-0.41421356237309592
10
168.17500000000001
20
-16.525000000000002
10
155.67500000000001
20
-16.525000000000002
42
-0.41421356237310458
10
154.92500000000004
20
-15.775000000000004
10
154.92500000000004
20
-3.2750000000000012
42
-0.41421356237309614
0
LWPOLYLINE
5
133
100
AcDbEntity
8
0
100
AcDbPolyline
90
8
70
1
43
0.0
10
173.97500000000005
20
-3.2750000000000012
10
173.97500000000005
20
-15.775000000000004
42
0.41421356237307599
10
174.72499999999999
20
-16.524999999999995
10
187.22499999999999
20
-16.525000000000002
42
0.41421356237309681
10
187.97499999999999
20
-15.775000000000004
10
187.97499999999999
20
-3.2750000000000012
42
0.41421356237306639
10
187.22499999999999
20
-2.5250000000000079
10
174.72499999999999
20
-2.524999999999995
42
0.41421356237311413
0
LWPOLYLINE
5
134
100
AcDbEntity
8
0
100
AcDbPolyline
90
8
70
1
43
0.0
10
206.27500000000001
20
-2.5250000000000079
10
193.77500000000001
20
-2.524999999999995
42
0.41421356237311391
10
193.02500000000006
20
-3.2750000000000012
10
193.02500000000006
20
-15.775000000000004
42
0.41421356237307599
10
193.77500000000001
20
-16.524999999999995
10
206.27500000000001
20
-16.525000000000006
42
0.41421356237309853
10
207.02500000000001
20
-15.775000000000004
10
207.02500000000001
20
-3.2750000000000012
42
0.41421356237306639
0
LWPOLYLINE
5
135
100
AcDbEntity
8
0
100
AcDbPolyline
90
8
70
1
43
0.0
10
135.87500000000003
20
-15.775000000000004
42
0.41421356237307422
10
136.625
20
-16.524999999999995
10
149.125
20
-16.525000000000002
42
0.41421356237308377
10
149.875
20
-15.775000000000004
10
149.875
20
-3.2750000000000012
42
0.41421356237309204
10
149.125
20
-2.5250000000000079
10
136.625
20
-2.5250000000000017
42
0.41421356237310458
10
135.87500000000003
20
-3.2750000000000012
0
LWPOLYLINE
5
136
100
AcDbEntity
8
0
100
AcDbPolyline
90
8
70
1
43
0.0
10
212.07499999999999
20
-15.775000000000004
10
212.07499999999999
20
-3.2750000000000012
42
-0.41421356237309681
10
212.82499999999999
20
-2.5249999999999999
10
225.32499999999999
20
-2.5250000000000297
42
-0.41421356237312817
10
226.07500000000002
20
-3.2750000000000012
10
226.07500000000002
20
-15.775000000000004
42
-0.4142135623730569
10
225.32499999999999
20
-16.525000000000002
10
212.82499999999999
20
-16.524999999999995
42
-0.41421356237309503
0
LWPOLYLINE
5
137
100
AcDbEntity
8
0
100
AcDbPolyline
90
8
70
1
43
0.0
10
231.125
20
-15.775000000000004
10
231.125
20
-3.2750000000000012
42
-0.41421356237309681
10
231.875
20
-2.5249999999999999
10
244.375
20
-2.5250000000000297
42
-0.41421356237312845
10
245.12500000000003
20
-3.2750000000000012
10
245.12500000000003
20
-15.775000000000004
42
-0.4142135623730569
10
244.375
20
-16.525000000000002
10
231.875
20
-16.524999999999995
42
-0.41421356237309503
0
LWPOLYLINE
5
138
100
AcDbEntity
8
0
100
AcDbPolyline
90
8
70
1
43
0.0
10
50.899999999999999
20
-21.575000000000003
10
63.399999999999999
20
-21.575000000000003
42
-0.41421356237309681
10
64.150000000000006
20
-22.324999999999999
10
64.150000000000006
20
-34.825000000000003
42
-0.41421356237309331
10
63.399999999999999
20
-35.57500000000001
10
50.899999999999999
20
-35.575000000000017
42
-0.41421356237308982
10
50.150000000000006
20
-34.825000000000003
10
50.150000000000013
20
-22.324999999999999
42
-0.41421356237310719
0
LWPOLYLINE
5
139
100
AcDbEntity
8
0
100
AcDbPolyline
90
8
70
1
43
0.0
10
83.200000000000003
20
-34.825000000000003
10
83.200000000000003
20
-22.324999999999999
42
0.41421356237310025
10
82.450000000000031
20
-21.57500000000001
10
69.950000000000031
20
-21.575000000000003
42
0.41421356237310025
10
69.200000000000003
20
-22.324999999999999
10
69.200000000000003
20
-34.825000000000003
42
0.41421356237309331
10
69.950000000000017
20
-35.57500000000001
10
82.450000000000031
20
-35.575000000000017
42
0.41421356237308116
0
LWPOLYLINE
5
140
100
AcDbEntity
8
0
100
AcDbPolyline
90
8
70
1
43
0.0
10
7.2874999999999988
20
-34.825000000000003
42
0.41421356237309764
10
8.0374999999999996
20
-35.57500000000001
10
20.537500000000005
20
-35.57500000000001
42
0.41421356237309331
10
21.287500000000005
20
-34.825000000000003
10
21.287500000000001
20
-22.324999999999999
42
0.41421356237309853
10
20.537500000000005
20
-21.575000000000003
10
8.0374999999999979
20
-21.575000000000003
42
0.41421356237308593
10
7.2874999999999988
20
-22.324999999999999
0
LWPOLYLINE
5
141
100
AcDbEntity
8
0
100
AcDbPolyline
90
8
70
1
43
0.0
10
31.850000000000005
20
-35.57500000000001
10
44.350000000000009
20
-35.57500000000001
42
0.41421356237309331
10
45.100000000000009
20
-34.825000000000003
10
45.100000000000016
20
-22.324999999999999
42
0.41421356237310197
10
44.350000000000016
20
-21.575000000000003
10
31.850000000000005
20
-21.575000000000006
42
0.41421356237309853
10
31.100000000000001
20
-22.324999999999999
10
31.100000000000001
20
-34.825000000000003
42
0.41421356237309681
0
LWPOLYLINE
5
142
100
AcDbEntity
8
0
100
AcDbPolyline
90
8
70
1
43
0.0
10
222.34999999999999
20
-21.57500000000001
42
0.41421356237309331
10
221.59999999999999
20
-22.324999999999999
10
221.59999999999999
20
-34.825000000000003
42
0.41421356237309503
10
222.34999999999999
20
-35.575000000000003
10
234.84999999999999
20
-35.57500000000001
42
0.41421356237311413
10
235.60000000000002
20
-34.825000000000003
10
235.60000000000002
20
-22.324999999999999
42
0.41421356237312801
10
234.84999999999999
20
-21.57500000000001
0
LWPOLYLINE
5
143
100
AcDbEntity
8
0
100
AcDbPolyline
90
8
70
1
43
0.0
10
203.30000000000001
20
-21.575000000000006
42
0.41421356237309503
10
202.55000000000001
20
-22.324999999999999
10
202.55000000000001
20
-34.825000000000003
42
0.414213562373069
10
203.30000000000001
20
-35.575000000000003
10
215.80000000000001
20
-35.575000000000003
42
0.41421356237309681
10
216.55000000000001
20
-34.825000000000003
10
216.55000000000001
20
-22.324999999999999
42
0.41421356237308637
10
215.80000000000001
20
-21.57500000000001
0
LWPOLYLINE
5
144
100
AcDbEntity
8
0
100
AcDbPolyline
90
8
70
1
43
0.0
10
89
20
-21.575000000000003
10
101.5
20
-21.57500000000001
42
-0.41421356237311413
10
102.25000000000001
20
-22.324999999999999
10
102.25000000000003
20
-34.825000000000003
42
-0.41421356237310197
10
101.5
20
-35.57500000000001
10
89
20
-35.575000000000003
42
-0.41421356237308293
10
88.250000000000014
20
-34.825000000000003
10
88.250000000000028
20
-22.324999999999999
42
-0.41421356237308637
0
LWPOLYLINE
5
145
100
AcDbEntity
8
0
100
AcDbPolyline
90
8
70
1
43
0.0
10
165.19999999999999
20
-21.575000000000003
10
177.69999999999999
20
-21.575000000000006
42
-0.41421356237309503
10
178.44999999999999
20
-22.324999999999999
10
178.44999999999999
20
-34.825000000000003
42
-0.41421356237306733
10
177.69999999999999
20
-35.57500000000001
10
165.19999999999999
20
-35.575000000000003
42
-0.41421356237309681
10
164.44999999999999
20
-34.825000000000003
10
164.44999999999999
20
-22.324999999999999
42
-0.41421356237306733
0
LWPOLYLINE
5
146
100
AcDbEntity
8
0
100
AcDbPolyline
90
8
70
1
43
0.0
10
121.29999999999998
20
-22.324999999999999
42
0.41421356237308293
10
120.55
20
-21.57500000000001
10
108.05
20
-21.575000000000003
42
0.41421356237308293
10
107.30000000000001
20
-22.324999999999999
10
107.30000000000001
20
-34.825000000000003
42
0.41421356237310025
10
108.05
20
-35.575000000000003
10
120.55
20
-35.575000000000003
42
0.41421356237308293
10
121.29999999999998
20
-34.825000000000003
0
LWPOLYLINE
5
147
100
AcDbEntity
8
0
100
AcDbPolyline
90
8
70
1
43
0.0
10
126.35000000000004
20
-22.324999999999999
10
126.35000000000002
20
-34.825000000000003
42
0.41421356237309681
10
127.10000000000001
20
-35.575000000000003
10
139.60000000000002
20
-35.575000000000017
42
0.41421356237308116
10
140.34999999999999
20
-34.825000000000003
10
140.34999999999999
20
-22.324999999999999
42
0.41421356237310025
10
139.60000000000002
20
-21.57500000000001
10
127.10000000000001
20
-21.575000000000003
42
0.41421356237310375
0
LWPOLYLINE
5
148
100
AcDbEntity
8
0
100
AcDbPolyline
90
8
70
1
43
0.0
10
183.5
20
-34.825000000000003
10
183.5
20
-22.324999999999999
42
-0.41421356237306733
10
184.25
20
-21.575000000000003
10
196.75
20
-21.575000000000003
42
-0.41421356237309681
10
197.5
20
-22.324999999999999
10
197.5
20
-34.825000000000003
42
-0.41421356237306733
10
196.75
20
-35.57500000000001
10
184.25
20
-35.575000000000003
42
-0.41421356237309681
0
LWPOLYLINE
5
149
100
AcDbEntity
8
0
100
AcDbPolyline
90
8
70
1
43
0.0
10
145.40000000000003
20
-22.324999999999999
10
145.40000000000001
20
-34.825000000000003
42
0.41421356237311241
10
146.15000000000003
20
-35.575000000000003
10
158.65000000000003
20
-35.575000000000017
42
0.41421356237308116
10
159.40000000000001
20
-34.825000000000003
10
159.40000000000001
20
-22.324999999999999
42
0.41421356237310025
10
158.65000000000003
20
-21.57500000000001
10
146.15000000000003
20
-21.575000000000003
42
0.41421356237308293
0
LWPOLYLINE
5
150
100
AcDbEntity
8
0
100
AcDbPolyline
90
8
70
1
43
0.0
10
240.65000000000001
20
-22.324999999999999
10
240.65000000000001
20
-34.825000000000003
42
0.41421356237309503
10
241.40000000000001
20
-35.575000000000003
10
253.90000000000001
20
-35.57500000000001
42
0.41421356237311413
10
254.65000000000003
20
-34.825000000000003
10
254.65000000000003
20
-22.324999999999999
42
0.41421356237312801
10
253.90000000000001
20
-21.57500000000001
10
241.40000000000001
20
-21.57500000000001
42
0.41421356237309331
0
LWPOLYLINE
5
151
100
AcDbEntity
8
0
100
AcDbPolyline
90
8
70
1
43
0.0
10
35.862500000000004
20
-41.375000000000014
42
-0.41421356237309681
10
36.612499999999997
20
-40.625
10
49.112499999999997
20
-40.625
42
-0.41421356237311585
10
49.862499999999997
20
-41.375
10
49.862499999999997
20
-53.875
42
-0.41421356237311585
10
49.112499999999997
20
-54.625
10
36.612499999999997
20
-54.625
42
-0.41421356237311063
10
35.862499999999997
20
-53.875
0
LWPOLYLINE
5
152
100
AcDbEntity
8
0
100
AcDbPolyline
90
8
70
1
43
0.0
10
55.662500000000001
20
-40.625
10
68.162499999999994
20
-40.625
42
-0.41421356237310542
10
68.912500000000009
20
-41.375
10
68.912499999999994
20
-53.875
42
-0.41421356237309853
10
68.162499999999994
20
-54.625
10
55.662500000000001
20
-54.625
42
-0.41421356237309853
10
54.912500000000009
20
-53.875
10
54.912500000000009
20
-41.375
42
-0.41421356237309853
0
LWPOLYLINE
5
153
100
AcDbEntity
8
0
100
AcDbPolyline
90
8
70
1
43
0.0
10
87.212500000000006
20
-54.625000000000014
42
0.41421356237308815
10
87.962500000000006
20
-53.875
10
87.962500000000006
20
-41.375
42
0.41421356237309503
10
87.212500000000006
20
-40.625000000000007
10
74.712500000000006
20
-40.625000000000007
42
0.41421356237311241
10
73.962500000000006
20
-41.375
10
73.962500000000006
20
-53.875
42
0.41421356237308815
10
74.712500000000006
20
-54.625
0
LWPOLYLINE
5
154
100
AcDbEntity
8
0
100
AcDbPolyline
90
8
70
1
43
0.0
10
68.912499999999966
20
-79.474997405299376
42
0.41421356237310542
10
68.162499999999952
20
-78.724997405299376
10
53.281249999999964
20
-78.724999999999994
42
0.41421356237310197
10
52.531249999999972
20
-79.47499999999998
10
52.531249999999979
20
-91.974999999999994
42
0.41421356237309503
10
53.281249999999972
20
-92.725000000000023
10
68.162499999999966
20
-92.724997405299348
42
0.41421356237307422
10
68.912499999999966
20
-91.974997405299362
0
LWPOLYLINE
5
155
100
AcDbEntity
8
0
100
AcDbPolyline
90
8
70
1
43
0.0
10
78.218749999999957
20
-92.725000000000023
10
88.474999999999952
20
-92.724997405299433
42
0.41421356237310897
10
89.22499999999998
20
-91.974997405299362
10
89.224999999999923
20
-78.474997405299391
42
0.41421356237308815
10
88.474999999999952
20
-77.724997405299362
10
78.218749999999929
20
-77.72499999999998
42
0.4142135623730846
10
77.468749999999957
20
-78.47499999999998
10
77.468749999999943
20
-91.975000000000037
42
0.41421356237308815
0
LWPOLYLINE
5
156
100
AcDbEntity
8
0
100
AcDbPolyline
90
8
70
1
43
0.0
10
98.481349999999921
20
-84.874900000000068
10
93.081349999999944
20
-84.874900000000068
42
0.41421356237306034
10
92.031350000000018
20
-85.92489999999998
10
92.031349999999975
20
-91.324900000000014
42
0.41421356237310991
10
93.081349999999944
20
-92.374900000000025
10
98.481349999999978
20
-92.374900000000011
42
0.41421356237308021
10
99.531349999999961
20
-91.324900000000042
10
99.531349999999961
20
-85.92489999999998
42
0.41421356237310991
0
LWPOLYLINE
5
157
100
AcDbEntity
8
0
100
AcDbPolyline
90
8
70
1
43
0.0
10
124.71874999999996
20
-92.725000000000023
10
149.12499999999994
20
-92.724997405299433
42
0.41421356237308116
10
149.87499999999994
20
-91.974997405299419
10
149.87499999999994
20
-79.474997405299391
42
0.41421356237310897
10
149.12499999999994
20
-78.724997405299433
10
124.71874999999997
20
-78.725000000000037
42
0.41421356237311935
10
123.96874999999994
20
-79.475000000000023
10
123.96874999999994
20
-91.975000000000037
42
0.41421356237312978
0
LWPOLYLINE
5
158
100
AcDbEntity
8
0
100
AcDbPolyline
90
8
70
1
43
0.0
10
178.21875000000003
20
-92.72500000000008
10
183.71875
20
-92.725000000000051
42
0.41421356237303258
10
184.46875000000003
20
-91.975000000000037
10
184.46875000000003
20
-78.475000000000023
42
0.41421356237311585
10
183.71875
20
-77.725000000000023
10
178.21875000000003
20
-77.725000000000065
42
0.41421356237306733
10
177.46875
20
-78.475000000000023
10
177.46874999999989
20
-91.975000000000037
42
0.41421356237309503
0
LWPOLYLINE
5
159
100
AcDbEntity
8
0
100
AcDbPolyline
90
14
70
1
43
0.0
10
196.15624999999997
20
-92.725000000000065
10
208.65625
20
-92.725000000000065
42
0.41421356237308116
10
209.40625
20
-91.975000000000037
10
209.40625
20
-79.475000000000023
42
0.41421356237309853
10
208.65625
20
-78.725000000000023
10
203.52500000000006
20
-78.725000000000023
10
203.52500000000009
20
-78.474997405299419
42
0.41421356237314705
10
202.77500000000003
20
-77.724997405299447
10
197.27500000000006
20
-77.724997405299405
42
0.41421356237311585
10
196.52500000000003
20
-78.474997405299419
10
196.52500000000003
20
-78.725000000000023
10
196.15625
20
-78.725000000000023
42
0.41421356237307078
10
195.40625000000009
20
-79.475000000000023
10
195.40625000000006
20
-91.975000000000037
42
0.41421356237310897
0
LWPOLYLINE
5
160
100
AcDbEntity
8
0
100
AcDbPolyline
90
8
70
1
43
0.0
10
257.03125
20
-79.475000000000051
42
0.41421356237316787
10
256.28125
20
-78.725000000000051
10
241.39999999999992
20
-78.724997405299447
42
0.41421356237319562
10
240.64999999999995
20
-79.474997405299419
10
240.64999999999998
20
-91.974997405299419
42
0.41421356237303258
10
241.39999999999992
20
-92.724997405299433
10
256.28125
20
-92.725000000000065
42
0.41421356237307422
10
257.03124999999989
20
-91.975000000000051
0
LWPOLYLINE
5
161
100
AcDbEntity
8
0
100
AcDbPolyline
90
8
70
1
43
0.0
10
233.21875000000009
20
-91.975000000000037
10
233.21875000000006
20
-79.475000000000051
42
0.41421356237316787
10
232.46875
20
-78.72500000000008
10
217.58750000000006
20
-78.724997405299476
42
0.41421356237316442
10
216.83750000000003
20
-79.474997405299391
10
216.83750000000003
20
-91.974997405299419
42
0.4142135623730534
10
217.58750000000006
20
-92.724997405299433
10
232.46875000000003
20
-92.725000000000065
42
0.41421356237308116
0
LWPOLYLINE
5
162
100
AcDbEntity
8
0
100
AcDbPolyline
90
8
70
1
43
0.0
10
280.84374999999994
20
-79.475000000000065
42
0.41421356237307078
10
280.09374999999994
20
-78.725000000000065
10
265.21249999999998
20
-78.724997405299419
42
0.41421356237302914
10
264.46249999999992
20
-79.474997405299419
10
264.46249999999992
20
-91.974997405299419
42
0.41421356237312978
10
265.21249999999998
20
-92.724997405299433
10
280.09374999999994
20
-92.725000000000051
42
0.41421356237306733
10
280.84374999999994
20
-91.975000000000051
0
LWPOLYLINE
5
163
100
AcDbEntity
8
0
100
AcDbPolyline
90
14
70
1
43
0.0
10
283.22500000000002
20
-60.425000000000047
42
0.41421356237312978
10
282.47500000000002
20
-59.675000000000075
10
269.97500000000002
20
-59.675000000000047
42
0.41421356237309853
10
269.22500000000002
20
-60.425000000000047
10
269.22500000000002
20
-60.67500000000004
10
268.74425000000002
20
-60.675000000000033
42
0.41421356237307771
10
267.99425000000002
20
-61.425000000000054
10
267.99425000000002
20
-74.925000000000054
42
0.41421356237309853
10
268.74425000000002
20
-75.675000000000068
10
274.24425000000002
20
-75.675000000000068
42
0.41421356237309853
10
274.99425000000002
20
-74.925000000000054
10
274.99425000000002
20
-73.675000000000054
10
282.47500000000002
20
-73.675000000000054
42
0.41421356237311241
10
283.22500000000002
20
-72.925000000000054
0
LWPOLYLINE
5
164
100
AcDbEntity
8
0
100
AcDbPolyline
90
14
70
1
43
0.0
10
265.80624999999998
20
-73.675000000000054
42
0.41421356237311241
10
266.55624999999998
20
-72.925000000000054
10
266.55624999999998
20
-60.425000000000047
42
0.4142135623730569
10
265.80624999999998
20
-59.675000000000047
10
243.78125
20
-59.675000000000047
42
0.41421356237309853
10
243.03125
20
-60.425000000000047
10
243.03125
20
-72.925000000000054
42
0.41421356237307078
10
243.78125
20
-73.675000000000054
10
244.11824999999999
20
-73.675000000000054
10
244.11824999999999
20
-74.925000000000054
42
0.41421356237306733
10
244.86824999999999
20
-75.675000000000068
10
250.36824999999999
20
-75.675000000000068
42
0.41421356237309853
10
251.11824999999999
20
-74.925000000000054
10
251.11824999999999
20
-73.675000000000054
0
LWPOLYLINE
5
165
100
AcDbEntity
8
0
100
AcDbPolyline
90
20
70
1
43
0.0
10
275.13799999999998
20
-16.525000000000048
10
275.13799999999998
20
-17.775000000000048
42
0.41421356237316703
10
275.88799999999998
20
-18.525000000000038
10
281.38799999999998
20
-18.525000000000048
42
0.41421356237309681
10
282.13799999999998
20
-17.775000000000048
10
282.13799999999998
20
-16.525000000000048
10
282.47500000000002
20
-16.525000000000027
42
0.41421356237312884
10
283.22500000000002
20
-15.775000000000052
10
283.22500000000008
20
-3.2750000000000501
42
0.41421356237311241
10
282.47500000000002
20
-2.5250000000000226
10
250.92500000000001
20
-2.5250000000000536
42
0.41421356237309465
10
250.17500000000001
20
-3.2750000000000457
10
250.17500000000001
20
-15.775000000000045
42
0.41421356237309503
10
250.92500000000001
20
-16.525000000000038
10
251.262
20
-16.525000000000045
10
251.262
20
-17.775000000000038
42
0.41421356237309681
10
252.012
20
-18.525000000000034
10
257.512
20
-18.525000000000048
42
0.41421356237309681
10
258.262
20
-17.775000000000048
10
258.262
20
-16.525000000000048
0
LWPOLYLINE
5
166
100
AcDbEntity
8
0
100
AcDbPolyline
90
8
70
1
43
0.0
10
4.9062499999999956
20
-53.875
42
0.41421356237309243
10
5.6562499999999893
20
-54.625
10
22.918749999999992
20
-54.625
42
0.41421356237309503
10
23.668749999999999
20
-53.875
10
23.668749999999996
20
-41.375
42
0.41421356237309503
10
22.918749999999992
20
-40.625
10
5.6562499999999938
20
-40.625
42
0.4142135623730942
10
4.9062499999999911
20
-41.375
0
LWPOLYLINE
5
167
100
AcDbEntity
8
0
100
AcDbPolyline
90
8
70
1
43
0.0
10
178.73750000000001
20
-60.425000000000004
10
178.73750000000001
20
-72.925000000000026
42
0.4142135623730846
10
179.48750000000001
20
-73.674999999999983
10
191.98750000000004
20
-73.67500000000004
42
0.41421356237310197
10
192.73750000000004
20
-72.925000000000026
10
192.73750000000001
20
-60.425000000000004
42
0.41421356237311585
10
191.98750000000001
20
-59.675000000000011
10
179.48750000000001
20
-59.675000000000011
42
0.41421356237309503
0
LWPOLYLINE
5
168
100
AcDbEntity
8
0
100
AcDbPolyline
90
8
70
1
43
0.0
10
140.63750000000002
20
-72.925000000000026
42
0.41421356237310197
10
141.38749999999999
20
-73.674999999999983
10
153.88749999999999
20
-73.67500000000004
42
0.41421356237309503
10
154.63750000000005
20
-72.925000000000026
10
154.63750000000002
20
-60.425000000000004
42
0.41421356237309159
10
153.88749999999999
20
-59.675000000000011
10
141.38750000000002
20
-59.675000000000018
42
0.41421356237310542
10
140.63749999999999
20
-60.425000000000004
0
LWPOLYLINE
5
169
100
AcDbEntity
8
0
100
AcDbPolyline
90
8
70
1
43
0.0
10
121.58750000000001
20
-72.925000000000026
42
0.41421356237310542
10
122.33750000000001
20
-73.674999999999983
10
134.83750000000001
20
-73.67500000000004
42
0.41421356237309159
10
135.58750000000001
20
-72.925000000000026
10
135.58750000000001
20
-60.425000000000004
42
0.41421356237309159
10
134.83750000000001
20
-59.675000000000011
10
122.33750000000001
20
-59.675000000000004
42
0.4142135623730846
10
121.58750000000001
20
-60.425000000000004
0
LWPOLYLINE
5
170
100
AcDbEntity
8
0
100
AcDbPolyline
90
8
70
1
43
0.0
10
160.4375
20
-73.674999999999983
10
172.93749999999994
20
-73.67500000000004
42
0.41421356237311585
10
173.68750000000003
20
-72.925000000000026
10
173.6875
20
-60.425000000000004
42
0.41421356237311585
10
172.9375
20
-59.675000000000011
10
160.4375
20
-59.675000000000004
42
0.41421356237309853
10
159.6875
20
-60.425000000000004
10
159.6875
20
-72.925000000000026
42
0.41421356237307771
0
LWPOLYLINE
5
171
100
AcDbEntity
8
0
100
AcDbPolyline
90
8
70
1
43
0.0
10
197.78750000000002
20
-72.925000000000026
42
0.4142135623730846
10
198.53750000000002
20
-73.674999999999983
10
211.03749999999997
20
-73.674999999999969
42
0.41421356237311585
10
211.78750000000002
20
-72.925000000000026
10
211.78750000000002
20
-60.425000000000004
42
0.41421356237303608
10
211.03750000000002
20
-59.675000000000011
10
198.53750000000002
20
-59.675000000000011
42
0.41421356237309503
10
197.78750000000002
20
-60.425000000000004
0
LWPOLYLINE
5
172
100
AcDbEntity
8
0
100
AcDbPolyline
90
8
70
1
43
0.0
10
216.83750000000003
20
-60.425000000000004
10
216.83750000000003
20
-72.925000000000026
42
0.41421356237306733
10
217.58750000000006
20
-73.674999999999983
10
230.08750000000006
20
-73.675000000000011
42
0.41421356237309159
10
230.83750000000006
20
-72.925000000000026
10
230.83750000000006
20
-60.425000000000004
42
0.41421356237309503
10
230.08750000000006
20
-59.675000000000011
10
217.58750000000006
20
-59.675000000000004
42
0.41421356237311241
0
ENDSEC
0
SECTION
2
OBJECTS
0
DICTIONARY
5
C
100
AcDbDictionary
3
ACAD_GROUP
350
D
3
ACAD_MLINESTYLE
350
17
0
DICTIONARY
5
D
100
AcDbDictionary
0
DICTIONARY
5
1A
330
C
100
AcDbDictionary
0
DICTIONARY
5
17
100
AcDbDictionary
0
ENDSEC
0
EOF
