0
SECTION
2
HEADER
9
$INSUNITS
70
4
9
$ACADVER
1
AC1014
9
$HANDSEED
5
FFFF
0
ENDSEC
0
SECTION
2
TABLES
0
TABLE
2
VPORT
5
8
100
AcDbSymbolTable
0
ENDTAB
0
TABLE
2
LTYPE
5
5
100
AcDbSymbolTable
0
LTYPE
5
14
100
AcDbSymbolTableRecord
100
AcDbLinetypeTableRecord
2
BYBLOCK
70
0
0
LTYPE
5
15
100
AcDbSymbolTableRecord
100
AcDbLinetypeTableRecord
2
BYLAYER
70
0
0
ENDTAB
0
TABLE
2
LAYER
5
2
100
AcDbSymbolTable
70
2
0
LAYER
5
50
100
AcDbSymbolTableRecord
100
AcDbLayerTableRecord
2
0
70
0
6
CONTINUOUS
0
ENDTAB
0
TABLE
2
STYLE
5
3
100
AcDbSymbolTable
70
1
0
STYLE
5
11
100
AcDbSymbolTableRecord
100
AcDbTextStyleTableRecord
2
STANDARD
70
0
0
ENDTAB
0
TABLE
2
VIEW
5
6
100
AcDbSymbolTable
70
0
0
ENDTAB
0
TABLE
2
UCS
5
7
100
AcDbSymbolTable
70
0
0
ENDTAB
0
TABLE
2
APPID
5
9
100
AcDbSymbolTable
70
2
0
APPID
5
12
100
AcDbSymbolTableRecord
100
AcDbRegAppTableRecord
2
ACAD
70
0
0
ENDTAB
0
TABLE
2
DIMSTYLE
5
A
100
AcDbSymbolTable
70
1
0
ENDTAB
0
TABLE
2
BLOCK_RECORD
5
1
100
AcDbSymbolTable
70
1
0
BLOCK_RECORD
5
1F
100
AcDbSymbolTableRecord
100
AcDbBlockTableRecord
2
*MODEL_SPACE
0
BLOCK_RECORD
5
1B
100
AcDbSymbolTableRecord
100
AcDbBlockTableRecord
2
*PAPER_SPACE
0
ENDTAB
0
ENDSEC
0
SECTION
2
BLOCKS
0
BLOCK
5
20
100
AcDbEntity
100
AcDbBlockBegin
2
*MODEL_SPACE
0
ENDBLK
5
21
100
AcDbEntity
100
AcDbBlockEnd
0
BLOCK
5
1C
100
AcDbEntity
100
AcDbBlockBegin
2
*PAPER_SPACE
0
ENDBLK
5
1D
100
AcDbEntity
100
AcDbBlockEnd
0
ENDSEC
0
SECTION
2
ENTITIES
0
ARC
5
100
100
AcDbEntity
8
0
100
AcDbCircle
10
-247.50812627591642
20
123.53750586489537
30
0
40
3.1500000000000128
210
0
220
0
230
1
100
AcDbArc
50
0
51
90.00001999999705
0
LINE
5
101
100
AcDbEntity
8
0
100
AcDbLine
10
-247.50812737547369
20
126.68750586489517
30
0
11
-309.90955938260515
21
126.6874840826892
31
2.7105343775035706e-07
0
ARC
5
102
100
AcDbEntity
8
0
100
AcDbCircle
10
-309.90955887645964
20
125.23748408268926
30
-2.3327979091694607e-06
40
1.4500000000000133
210
7.1744642144163765e-15
220
-2.0553325708048916e-08
230
0.99999999999999989
100
AcDbArc
50
90.000020000001129
51
180
0
LINE
5
103
100
AcDbEntity
8
0
100
AcDbLine
10
-311.35955887645969
20
125.23748408268929
30
2.4125112574324703e-07
11
-311.35955887645963
21
123.45954739518483
31
2.7105343775035706e-07
0
ARC
5
104
100
AcDbEntity
8
0
100
AcDbCircle
10
-313.95955889136081
20
123.45954739518483
30
2.4125111547368405e-07
40
2.6000000149011626
210
0
220
0
230
1
100
AcDbArc
50
-90
51
0
0
LINE
5
105
100
AcDbEntity
8
0
100
AcDbLine
10
-313.95955889136081
20
120.85954738028366
30
2.4125111547368405e-07
11
-315.73750483192885
21
120.85954738028869
31
2.7105343775035706e-07
0
ARC
5
106
100
AcDbEntity
8
0
100
AcDbCircle
10
-315.73750483192885
20
119.40954738028368
30
-2.2130122044757153e-06
40
1.4500000000049875
210
0
220
-2.0553325707979654e-08
230
0.99999999999999989
100
AcDbArc
50
90
51
180
0
LINE
5
107
100
AcDbEntity
8
0
100
AcDbLine
10
-317.18750483193384
20
119.4095473802837
30
2.4125111547368405e-07
11
-317.18750483192912
21
-0.84705725793041253
31
2.7105343775035706e-07
0
ARC
5
108
100
AcDbEntity
8
0
100
AcDbCircle
10
-315.73750483192907
20
-0.84705725793036235
30
-6.2482046595840959e-06
40
1.449999999999996
210
2.0553325708050408e-08
220
7.1210316439643067e-22
230
0.99999999999999978
100
AcDbArc
50
180
51
270
0
LINE
5
109
100
AcDbEntity
8
0
100
AcDbLine
10
-315.73750483192913
20
-2.2970572579303585
30
2.4125111547368405e-07
11
-314.45955869081229
21
-2.2970572579303479
31
2.4125111547368405e-07
0
ARC
5
110
100
AcDbEntity
8
0
100
AcDbCircle
10
-314.45955869081229
20
-4.8970572728315105
30
2.4125111547368405e-07
40
2.6000000149011626
210
0
220
0
230
1
100
AcDbArc
50
0
51
90
0
LINE
5
111
100
AcDbEntity
8
0
100
AcDbLine
10
-311.85955867591116
20
-4.8970572728315105
30
2.4125111547368405e-07
11
-311.8595586759111
21
-6.175001995967575
31
2.4125111547368405e-07
0
ARC
5
112
100
AcDbEntity
8
0
100
AcDbCircle
10
-310.40955867591106
20
-6.175001995967575
30
2.4125111547368405e-07
40
1.4500000000000313
210
0
220
0
230
1
100
AcDbArc
50
180
51
270
0
LINE
5
113
100
AcDbEntity
8
0
100
AcDbLine
10
-310.40955867591106
20
-7.6250019959676063
30
2.4125111547368405e-07
11
-157.59627831564225
21
-7.6250019959675619
31
0
0
ARC
5
114
100
AcDbEntity
8
0
100
AcDbCircle
10
-157.59627831564225
20
-8.8250019959675559
30
0
40
1.1999999999999942
210
0
220
-0
230
1
100
AcDbArc
50
59.214682995367014
51
90
0
ARC
5
115
100
AcDbEntity
8
0
100
AcDbCircle
10
-154.78125331877899
20
-4.1000009979837806
30
0
40
4.3000000149011566
210
0
220
0
230
1
100
AcDbArc
50
239.21468299536659
51
300.7853170046331
0
ARC
5
116
100
AcDbEntity
8
0
100
AcDbCircle
10
-151.96622832191574
20
-8.8250019959675612
30
0
40
1.2000000000000033
210
0
220
0
230
1
100
AcDbArc
50
90.000000000001364
51
120.78531700463404
0
LINE
5
117
100
AcDbEntity
8
0
100
AcDbLine
10
-151.96622832191576
20
-7.6250019959675583
30
0
11
0.76659463850209164
21
-7.6250019959675477
31
2.7105343775035706e-07
0
ARC
5
118
100
AcDbEntity
8
0
100
AcDbCircle
10
0.76659463850208254
20
-6.1750019959675395
30
1.1433428820270312e-07
40
1.4500000000000115
210
-1.2983096367448459e-22
220
2.055332570805019e-08
230
0.99999999999999989
100
AcDbArc
50
-89.999999999999645
51
0
0
LINE
5
119
100
AcDbEntity
8
0
100
AcDbLine
10
2.216594638502094
20
-6.1750019959675306
30
2.4125111547368405e-07
11
2.2165946385020878
21
-4.7991538270983476
31
2.4125111547368405e-07
0
ARC
5
120
100
AcDbEntity
8
0
100
AcDbCircle
10
4.8165946534032491
20
-4.7991538270983476
30
2.4125111547368405e-07
40
2.6000000149011622
210
0
220
-0
230
1
100
AcDbArc
50
90
51
180
0
LINE
5
121
100
AcDbEntity
8
0
100
AcDbLine
10
4.8165946534032491
20
-2.1991538121971859
30
2.4125111547368405e-07
11
6.1749981943717183
21
-2.1991538121971823
31
2.4125111547368405e-07
0
ARC
5
122
100
AcDbEntity
8
0
100
AcDbCircle
10
6.1749981943717209
20
-0.7491538121971888
30
2.4125111547368405e-07
40
1.4499999999999933
210
0
220
0
230
1
100
AcDbArc
50
-90.000000000000099
51
0
0
LINE
5
123
100
AcDbEntity
8
0
100
AcDbLine
10
7.6249981943717149
20
-0.74915381219718857
30
2.4125111547368405e-07
11
7.6249981943717078
21
119.40955544504425
31
2.7105343775035706e-07
0
ARC
5
124
100
AcDbEntity
8
0
100
AcDbCircle
10
6.1749981943717156
20
119.40955544504425
30
1.1433436633813902e-07
40
1.449999999999996
210
-2.0553325708050408e-08
220
0
230
0.99999999999999978
100
AcDbArc
50
0
51
90.000000000000398
0
LINE
5
125
100
AcDbEntity
8
0
100
AcDbLine
10
6.1749981943717023
20
120.85955544504424
30
2.4125111547368405e-07
11
4.3970553720335648
21
120.85955544504424
31
2.4125111547368405e-07
0
ARC
5
126
100
AcDbEntity
8
0
100
AcDbCircle
10
4.3970553720335657
20
123.45955544504423
30
2.4125111547368405e-07
40
2.5999999999999974
210
0
220
0
230
1
100
AcDbArc
50
180
51
270
0
LINE
5
127
100
AcDbEntity
8
0
100
AcDbLine
10
1.797055372033568
20
123.45955544504423
30
2.4125111547368405e-07
11
1.7970553720335578
21
125.23749834039309
31
2.7105343775035706e-07
0
ARC
5
128
100
AcDbEntity
8
0
100
AcDbCircle
10
0.34705537203356929
20
125.23749834039309
30
2.3411797337354951e-07
40
1.4499999999999935
210
-2.0553325708050444e-08
220
0
230
0.99999999999999978
100
AcDbArc
50
0
51
90.000000000000384
0
LINE
5
129
100
AcDbEntity
8
0
100
AcDbLine
10
0.3470553720335548
20
126.68749834039309
30
2.4125111547368405e-07
11
-85.86691090816565
21
126.68749834039305
31
2.7127983581731741e-07
0
ARC
5
130
100
AcDbEntity
8
0
100
AcDbCircle
10
-85.86691090816565
20
123.53749834039262
30
-1.0639121354623454e-05
40
3.1500000000000066
210
0
220
-8.6120582799148216e-08
230
0.99999999999999645
100
AcDbArc
50
90
51
180
0
LINE
5
131
100
AcDbEntity
8
0
100
AcDbLine
10
-89.016910908165642
20
123.53749834039311
30
0
11
-89.016910908165684
21
121.18750000000004
31
2.7105343775035706e-07
0
ARC
5
132
100
AcDbEntity
8
0
100
AcDbCircle
10
-87.46691090816438
20
121.18750000000007
30
-1.5295617349072665e-05
40
1.5500000000000176
210
1.748731856453897e-07
220
-2.0041108345090254e-21
230
0.99999999999998468
100
AcDbArc
50
180
51
270
0
LINE
5
133
100
AcDbEntity
8
0
100
AcDbLine
10
-87.466910908165687
20
119.63750000000003
30
0
11
-0.97500000000000142
21
119.63749999999996
31
2.4125111547368405e-07
0
ARC
5
134
100
AcDbEntity
8
0
100
AcDbCircle
10
-0.97500000000001241
20
118.08749999999996
30
2.4125111547368405e-07
40
1.5500000000000005
210
0
220
0
230
1
100
AcDbArc
50
0
51
89.999999999999588
0
LINE
5
135
100
AcDbEntity
8
0
100
AcDbLine
10
0.57499999999998819
20
118.08749999999996
30
2.4125111547368405e-07
11
0.57499999999999907
21
24.887500000000014
31
-5.5511151231257827e-16
0
ARC
5
136
100
AcDbEntity
8
0
100
AcDbCircle
10
5.5005290569122947
20
24.887500000000017
30
-2.8163349124111199e-08
40
4.9255290569122963
210
-4.8979736641738652e-08
220
0
230
0.99999999999999889
100
AcDbArc
50
180
51
218.97887682262493
0
ARC
5
137
100
AcDbEntity
8
0
100
AcDbCircle
10
-2.1574660050120613
20
18.690851099707963
30
2.4125111547368405e-07
40
4.9255290569122572
210
0
220
0
230
1
100
AcDbArc
50
0
51
38.978876822624954
0
LINE
5
138
100
AcDbEntity
8
0
100
AcDbLine
10
2.7680630519001959
20
18.690851099707963
30
2.4125111547368405e-07
11
2.7680630519001954
21
7.6486839996234686
31
2.4125111880435313e-07
0
SPLINE
5
139
100
AcDbEntity
8
0
100
AcDbSpline
70
0
71
3
72
10
73
6
74
0
42
0.000000001
43
0.0000000001
44
0.0000000001
40
0
40
0
40
0
40
0
40
0.043482356344311163
40
0.043482356344311163
40
0.086964712688622436
40
0.086964712688622436
40
0.086964712688622436
40
0.086964712688622436
10
2.6926485985365023
20
6.7835497939300478
30
2.4125111880435313e-07
10
2.7177273144149119
20
6.9263048496546364
30
2.4125111880435313e-07
10
2.7365868485111795
20
7.0700829017715785
30
2.4125111935946464e-07
10
2.7617606675226836
20
7.3588701427233527
30
2.4125111935946464e-07
10
2.7680630519001954
20
7.5037428118090972
30
2.4125111880435313e-07
10
2.7680630519001954
20
7.6486839996234686
30
2.4125111880435313e-07
0
SPLINE
5
140
100
AcDbEntity
8
0
100
AcDbSpline
70
0
71
3
72
20
73
16
74
0
42
0.000000001
43
0.0000000001
44
0.0000000001
40
-1.323734914009
40
-1.323734914009
40
-1.323734914009
40
-1.323734914009
40
-1.2917205343197231
40
-1.2917205343197231
40
-1.2917205343197231
40
-1.1004265594180749
40
-1.1004265594180749
40
-1.1004265594180749
40
-0.72637711621305245
40
-0.72637711621305245
40
-0.72637711621305245
40
-0.36344673958127216
40
-0.36344673958127216
40
-0.36344673958127216
40
-0.16530409482632893
40
-0.16530409482632893
40
-0.16530409482632893
40
-0.16530409482632893
10
2.6926485985359569
20
6.7835497939269516
30
0
10
2.6699203335051216
20
6.6541741609509248
30
0
10
2.6449729224216698
20
6.5250942171326241
30
0
10
2.617800257355495
20
6.3963629261693269
30
0
10
2.4554142842966673
20
5.6270546564326152
30
0
10
2.2149899104196784
20
4.8768210122997626
30
0
10
1.9005100569452726
20
4.1568592633254609
30
0
10
1.2854977284544566
20
2.7488665198505875
30
0
10
0.39758610400772937
20
1.4791615220242138
30
0
10
-0.70599230399337787
20
0.41779719517168268
30
0
10
-1.7767655253800734
20
-0.61201680906141442
30
0
10
-3.0360816355900355
20
-1.4316239585127235
30
0
10
-4.4186823759960427
20
-1.9903146552435009
30
0
10
-5.1730544108321954
20
-2.2951464301874811
30
0
10
-5.9545543335610631
20
-2.5181097822841125
30
0
10
-6.7507200768143569
20
-2.65787309280614
30
0
0
SPLINE
5
141
100
AcDbEntity
8
0
100
AcDbSpline
70
0
71
3
72
10
73
6
74
0
42
0.000000001
43
0.0000000001
44
0.0000000001
40
0
40
0
40
0
40
0
40
0.043450557753510304
40
0.043450557753510304
40
0.086901115507020565
40
0.086901115507020565
40
0.086901115507020565
40
0.086901115507020565
10
-7.6152281915407896
20
-2.7331775976945738
30
2.4125111491857254e-07
10
-7.4703929990290883
20
-2.7331775976945738
30
2.4125111491857254e-07
10
-7.3256261750211271
20
-2.7268844277976036
30
2.4125111491857254e-07
10
-7.0370485253288635
20
-2.7017473623822919
30
2.4125111491857254e-07
10
-6.8933739208334854
20
-2.6829153326509951
30
2.4125111491857254e-07
10
-6.7507200768142885
20
-2.6578730928061272
30
2.4125111491857254e-07
0
LINE
5
142
100
AcDbEntity
8
0
100
AcDbLine
10
-7.6152281915407896
20
-2.7331775976945738
30
2.4125111491857254e-07
11
-18.655944059647371
21
-2.7331775976945756
31
0
0
ARC
5
143
100
AcDbEntity
8
0
100
AcDbCircle
10
-18.6559440596474
20
2.304639960437747
30
2.4125111547368405e-07
40
5.0378175581323248
210
0
220
0
230
1
100
AcDbArc
50
231.79494468943145
51
270.00000000000034
0
ARC
5
144
100
AcDbEntity
8
0
100
AcDbCircle
10
-24.887499892435372
20
-5.6128172475486036
30
2.4125111547368405e-07
40
5.0378172475485963
210
0
220
-0
230
1
100
AcDbArc
50
51.794943466084824
51
90.000001223347113
0
LINE
5
145
100
AcDbEntity
8
0
100
AcDbLine
10
-24.887499999999999
20
-0.57500000000000462
30
2.4125111547368405e-07
11
-308.58749999999998
21
-0.5750000000000226
31
2.4125111547368405e-07
0
ARC
5
146
100
AcDbEntity
8
0
100
AcDbCircle
10
-308.58749999999998
20
0.97499999999998876
30
2.4125111547368405e-07
40
1.5500000000000114
210
0
220
0
230
1
100
AcDbArc
50
180
51
270
0
LINE
5
147
100
AcDbEntity
8
0
100
AcDbLine
10
-310.13750000000005
20
0.97499999999998876
30
2.4125111547368405e-07
11
-310.13749999999993
21
117.98749999999998
31
2.7105343775035706e-07
0
ARC
5
148
100
AcDbEntity
8
0
100
AcDbCircle
10
-308.4874999999999
20
117.98749999999998
30
2.7105343775035706e-07
40
1.650000000000027
210
0
220
0
230
1
100
AcDbArc
50
90.000000000003965
51
180
0
LINE
5
149
100
AcDbEntity
8
0
100
AcDbLine
10
-308.48750000000001
20
119.63750000000002
30
2.7105343775035706e-07
11
-245.90812627591643
21
119.63750000000005
31
2.7105343775035706e-07
0
ARC
5
150
100
AcDbEntity
8
0
100
AcDbCircle
10
-245.90812627591643
20
121.1874999999982
30
2.119244418540091e-05
40
1.5499999999999998
210
0
220
1.7487318564539169e-07
230
0.99999999999998468
100
AcDbArc
50
270
51
360
0
LINE
5
151
100
AcDbEntity
8
0
100
AcDbLine
10
-244.35812627591645
20
121.1875
30
0
11
-244.35812627591642
21
123.53750586489531
31
0
0
CIRCLE
5
152
100
AcDbEntity
8
0
100
AcDbCircle
10
-154.78125331877899
20
-4.1000009979837806
30
0
40
2.7500000000000036
210
0
220
0
230
1
0
ENDSEC
0
SECTION
2
OBJECTS
0
DICTIONARY
5
C
100
AcDbDictionary
3
ACAD_GROUP
350
D
3
ACAD_MLINESTYLE
350
17
0
DICTIONARY
5
D
100
AcDbDictionary
0
DICTIONARY
5
1A
330
C
100
AcDbDictionary
0
DICTIONARY
5
17
100
AcDbDictionary
0
ENDSEC
0
EOF
