0
SECTION
2
HEADER
9
$INSUNITS
70
4
9
$ACADVER
1
AC1014
9
$HANDSEED
5
FFFF
0
ENDSEC
0
SECTION
2
TABLES
0
TABLE
2
VPORT
5
8
100
AcDbSymbolTable
0
ENDTAB
0
TABLE
2
LTYPE
5
5
100
AcDbSymbolTable
0
LTYPE
5
14
100
AcDbSymbolTableRecord
100
AcDbLinetypeTableRecord
2
BYBLOCK
70
0
0
LTYPE
5
15
100
AcDbSymbolTableRecord
100
AcDbLinetypeTableRecord
2
BYLAYER
70
0
0
ENDTAB
0
TABLE
2
LAYER
5
2
100
AcDbSymbolTable
70
2
0
LAYER
5
50
100
AcDbSymbolTableRecord
100
AcDbLayerTableRecord
2
0
70
0
6
CONTINUOUS
0
ENDTAB
0
TABLE
2
STYLE
5
3
100
AcDbSymbolTable
70
1
0
STYLE
5
11
100
AcDbSymbolTableRecord
100
AcDbTextStyleTableRecord
2
STANDARD
70
0
0
ENDTAB
0
TABLE
2
VIEW
5
6
100
AcDbSymbolTable
70
0
0
ENDTAB
0
TABLE
2
UCS
5
7
100
AcDbSymbolTable
70
0
0
ENDTAB
0
TABLE
2
APPID
5
9
100
AcDbSymbolTable
70
2
0
APPID
5
12
100
AcDbSymbolTableRecord
100
AcDbRegAppTableRecord
2
ACAD
70
0
0
ENDTAB
0
TABLE
2
DIMSTYLE
5
A
100
AcDbSymbolTable
70
1
0
ENDTAB
0
TABLE
2
BLOCK_RECORD
5
1
100
AcDbSymbolTable
70
1
0
BLOCK_RECORD
5
1F
100
AcDbSymbolTableRecord
100
AcDbBlockTableRecord
2
*MODEL_SPACE
0
BLOCK_RECORD
5
1B
100
AcDbSymbolTableRecord
100
AcDbBlockTableRecord
2
*PAPER_SPACE
0
ENDTAB
0
ENDSEC
0
SECTION
2
BLOCKS
0
BLOCK
5
20
100
AcDbEntity
100
AcDbBlockBegin
2
*MODEL_SPACE
0
ENDBLK
5
21
100
AcDbEntity
100
AcDbBlockEnd
0
BLOCK
5
1C
100
AcDbEntity
100
AcDbBlockBegin
2
*PAPER_SPACE
0
ENDBLK
5
1D
100
AcDbEntity
100
AcDbBlockEnd
0
ENDSEC
0
SECTION
2
ENTITIES
0
LWPOLYLINE
5
100
100
AcDbEntity
8
0
100
AcDbPolyline
90
8
70
1
43
0.0
10
-401.50625729533749
20
102.53749915070686
10
-389.00625729533749
20
102.53749915070686
42
0.41421356237309503
10
-388.25625729533755
20
103.28749915070686
10
-388.25625729533755
20
115.78749915070686
42
0.41421356237309503
10
-389.00625729533749
20
116.53749915070685
10
-401.50625729533749
20
116.53749915070688
42
0.41421356237309503
10
-402.25625729533755
20
115.78749915070686
10
-402.25625729533749
20
103.28749915070686
42
0.41421356237309503
0
LWPOLYLINE
5
101
100
AcDbEntity
8
0
100
AcDbPolyline
90
8
70
1
43
0.0
10
-426.35625729533751
20
46.137499150706873
10
-426.35625729533751
20
58.637499150706873
42
0.41421356237309503
10
-427.10625729533751
20
59.387499150706873
10
-439.60625729533751
20
59.387499150706873
42
0.41421356237309503
10
-440.35625729533757
20
58.637499150706873
10
-440.35625729533757
20
46.137499150706873
42
0.41421356237309503
10
-439.60625729533751
20
45.387499150706873
10
-427.10625729533751
20
45.387499150706873
42
0.41421356237309503
0
LWPOLYLINE
5
102
100
AcDbEntity
8
0
100
AcDbPolyline
90
8
70
1
43
0.0
10
-426.35625729533751
20
84.237499150706867
10
-426.35625729533751
20
96.737499150706867
42
0.41421356237309503
10
-427.10625729533751
20
97.487499150706867
10
-439.60625729533751
20
97.487499150706867
42
0.41421356237309503
10
-440.35625729533757
20
96.737499150706867
10
-440.35625729533751
20
84.237499150706867
42
0.41421356237309503
10
-439.60625729533751
20
83.487499150706867
10
-427.10625729533751
20
83.487499150706867
42
0.41421356237309503
0
ARC
5
103
100
AcDbEntity
8
0
100
AcDbCircle
10
-365.92419462796568
20
125.23749834039307
30
4.0169887329585968e-17
40
0.64999998509875923
210
0
220
0
230
1
100
AcDbArc
50
0
51
90.000000000015035
0
LINE
5
104
100
AcDbEntity
8
0
100
AcDbLine
10
-365.92419462796585
20
125.88749832549183
30
4.0169887329585968e-17
11
-443.63831200959595
21
125.88749832549182
31
2.3738684280218961e-16
0
ARC
5
105
100
AcDbEntity
8
0
100
AcDbCircle
10
-443.63831200959595
20
125.23749834039307
30
2.3738684280218961e-16
40
0.64999998509874146
210
0
220
-0
230
1
100
AcDbArc
50
90
51
180
0
LINE
5
106
100
AcDbEntity
8
0
100
AcDbLine
10
-444.28831199469471
20
125.237498340393
30
2.3738684280218961e-16
11
-444.28831199469471
21
123.85955544504399
31
1.5778480268248906e-16
0
ARC
5
107
100
AcDbEntity
8
0
100
AcDbCircle
10
-447.68831200959585
20
123.85955544504399
30
1.8960645303818436e-17
40
3.4000000149011278
210
0
220
0
230
1
100
AcDbArc
50
-90
51
0
0
LINE
5
108
100
AcDbEntity
8
0
100
AcDbLine
10
-447.68831200959585
20
120.45955543014287
30
1.8960645303818436e-17
11
-449.05625483193387
21
120.45955543014288
31
1.289917215808128e-16
0
ARC
5
109
100
AcDbEntity
8
0
100
AcDbCircle
10
-449.05625483193398
20
119.8095554450442
30
1.2899172158080491e-16
40
0.64999998509868817
210
-1.3266731631475696e-42
220
-1.213632189701113e-29
230
1
100
AcDbArc
50
89.999999999989996
51
180
0
LINE
5
110
100
AcDbEntity
8
0
100
AcDbLine
10
-449.70625481703269
20
119.80955544504403
30
1.2899172158080491e-16
11
-449.70625481703257
21
-0.74915382709837885
31
4.938968146112014e-17
0
ARC
5
111
100
AcDbEntity
8
0
100
AcDbCircle
10
-449.05625483193376
20
-0.74915382709840794
30
1.2899172158082858e-16
40
0.64999998509883028
210
-1.2246467991473143e-16
220
5.4908179224885927e-30
230
1
100
AcDbArc
50
180
51
269.99999999999505
0
LINE
5
112
100
AcDbEntity
8
0
100
AcDbLine
10
-449.05625483193381
20
-1.3991538121972382
30
1.2899172158082858e-16
11
-447.69785129096476
21
-1.3991538121972402
31
1.7792420264353006e-17
0
ARC
5
113
100
AcDbEntity
8
0
100
AcDbCircle
10
-447.69785129096476
20
-4.7991538270983503
30
1.7792420264353006e-17
40
3.40000001490111
210
0
220
0
230
1
100
AcDbArc
50
0
51
90
0
LINE
5
114
100
AcDbEntity
8
0
100
AcDbLine
10
-444.29785127606362
20
-4.7991538270983503
30
1.7792420264353006e-17
11
-444.29785127606362
21
-6.1749983614019479
31
1.5661657764302363e-16
0
ARC
5
115
100
AcDbEntity
8
0
100
AcDbCircle
10
-443.64785129096492
20
-6.1749983614019825
30
2.3621861776272418e-16
40
0.64999998509875923
210
-1.2246467991473266e-16
220
6.4843944989396848e-30
230
1
100
AcDbArc
50
180
51
270.00031919421627
0
LINE
5
116
100
AcDbEntity
8
0
100
AcDbLine
10
-443.64784766982149
20
-6.8249983464906547
30
2.3621861776272418e-16
11
-365.83419931233885
21
-6.824998514561706
31
5.1191134851659186e-17
0
ARC
5
117
100
AcDbEntity
8
0
100
AcDbCircle
10
-365.83419794674967
20
-6.1749985294643785
30
5.1191302088096389e-17
40
0.64999998509876267
210
-5.4053556934938033e-28
220
-2.5728683236337978e-22
230
1
100
AcDbArc
50
-90.000120373074807
51
0
0
LINE
5
118
100
AcDbEntity
8
0
100
AcDbLine
10
-365.18419796165091
20
-6.174998529464288
30
5.1191302088096389e-17
11
-365.18419796165091
21
-4.8970572728314901
31
1.3079334220779694e-16
0
ARC
5
119
100
AcDbEntity
8
0
100
AcDbCircle
10
-361.78419794674983
20
-4.8970572728314901
30
-7.9382565698215711e-18
40
3.4000000149011269
210
0
220
-0
230
1
100
AcDbArc
50
90
51
180
0
LINE
5
120
100
AcDbEntity
8
0
100
AcDbLine
10
-361.78419794674983
20
-1.4970572579303636
30
-7.9382565698215711e-18
11
-360.50625180562804
21
-1.497057257930368
31
1.4856500855093122e-16
0
ARC
5
121
100
AcDbEntity
8
0
100
AcDbCircle
10
-360.50625180562804
20
-0.84705727283166821
30
1.4856500855093122e-16
40
0.64999998509869994
210
0
220
0
230
1
100
AcDbArc
50
270
51
360
0
LINE
5
122
100
AcDbEntity
8
0
100
AcDbLine
10
-359.85625182052934
20
-0.84705727283601817
30
1.4856500855093122e-16
11
-359.856251820529
21
119.80955544504408
31
2.2816704867066333e-16
0
ARC
5
123
100
AcDbEntity
8
0
100
AcDbCircle
10
-360.50625180562776
20
119.80955544504411
30
1.4856500855096278e-16
40
0.64999998509875923
210
-1.2246467991473266e-16
220
6.6935685150345124e-30
230
1
100
AcDbArc
50
0
51
90.000000000015035
0
LINE
5
124
100
AcDbEntity
8
0
100
AcDbLine
10
-360.50625180562793
20
120.45955543014287
30
1.4856500855096278e-16
11
-361.87419462796584
21
120.45955543014287
31
-1.8959671328331991e-17
0
ARC
5
125
100
AcDbEntity
8
0
100
AcDbCircle
10
-361.8841977462007
20
123.85954739518502
30
-2.0184700001114864e-17
40
3.400000014901134
210
0
220
0
230
1
100
AcDbArc
50
175.60385096410059
51
270.16856945811878
0
LINE
5
126
100
AcDbEntity
8
0
100
AcDbLine
10
-365.27419464286697
20
124.12016424406688
30
-2.0184700001114864e-17
11
-365.27419464286697
21
125.23749834039305
31
4.0169887329585968e-17
0
LWPOLYLINE
5
127
100
AcDbEntity
8
0
100
AcDbPolyline
90
20
70
1
43
0.0
10
-432.26925729533752
20
102.53749915070686
10
-415.39325729533749
20
102.53749915070686
10
-415.39325729533749
20
101.28749915070688
42
0.41421356237306733
10
-414.64325729533755
20
100.53749915070689
10
-409.14325729533755
20
100.53749915070689
42
0.41421356237309503
10
-408.39325729533755
20
101.28749915070691
10
-408.39325729533755
20
102.53749915070686
10
-408.0562572953375
20
102.53749915070685
42
0.41421356237309503
10
-407.30625729533756
20
103.28749915070686
10
-407.30625729533756
20
115.78749915070686
42
0.41421356237309503
10
-408.0562572953375
20
116.53749915070685
10
-439.60625729533751
20
116.53749915070685
42
0.41421356237309503
10
-440.35625729533757
20
115.78749915070686
10
-440.35625729533751
20
103.28749915070686
42
0.41421356237309503
10
-439.60625729533751
20
102.53749915070686
10
-439.26925729533758
20
102.53749915070686
10
-439.26925729533758
20
101.28749915070688
42
0.41421356237309503
10
-438.51925729533752
20
100.53749915070688
10
-433.01925729533758
20
100.53749915070689
42
0.41421356237309503
10
-432.26925729533752
20
101.28749915070688
0
LWPOLYLINE
5
128
100
AcDbEntity
8
0
100
AcDbPolyline
90
8
70
1
43
0.0
10
-420.5562572953375
20
26.337499150706869
10
-408.0562572953375
20
26.337499150706869
42
0.41421356237309503
10
-407.30625729533756
20
27.087499150706869
10
-407.3062572953375
20
39.587499150706869
42
0.41421356237309503
10
-408.0562572953375
20
40.337499150706869
10
-420.5562572953375
20
40.337499150706869
42
0.41421356237309503
10
-421.30625729533756
20
39.587499150706869
10
-421.30625729533756
20
27.087499150706869
42
0.41421356237309503
0
LWPOLYLINE
5
129
100
AcDbEntity
8
0
100
AcDbPolyline
90
8
70
1
43
0.0
10
-382.45625729533748
20
2.5249991507068663
10
-369.95625729533748
20
2.524999150706865
42
0.41421356237309548
10
-369.20625729533754
20
3.2749991507068676
10
-369.20625729533748
20
15.774999150706869
42
0.41421356237309503
10
-369.95625729533748
20
16.524999150706869
10
-382.45625729533748
20
16.524999150706869
42
0.41421356237309503
10
-383.20625729533754
20
15.774999150706869
10
-383.20625729533754
20
3.2749991507068668
42
0.41421356237309503
0
LWPOLYLINE
5
130
100
AcDbEntity
8
0
100
AcDbPolyline
90
8
70
1
43
0.0
10
-401.50625729533749
20
26.337499150706869
10
-389.00625729533749
20
26.337499150706869
42
0.41421356237309503
10
-388.25625729533755
20
27.087499150706869
10
-388.25625729533749
20
39.587499150706869
42
0.41421356237309503
10
-389.00625729533749
20
40.337499150706869
10
-401.50625729533749
20
40.337499150706869
42
0.41421356237309503
10
-402.25625729533755
20
39.587499150706869
10
-402.25625729533755
20
27.087499150706869
42
0.41421356237309503
0
LWPOLYLINE
5
131
100
AcDbEntity
8
0
100
AcDbPolyline
90
8
70
1
43
0.0
10
-420.5562572953375
20
2.5249991507068663
10
-408.0562572953375
20
2.524999150706865
42
0.41421356237309548
10
-407.30625729533756
20
3.2749991507068676
10
-407.3062572953375
20
15.774999150706869
42
0.41421356237309503
10
-408.0562572953375
20
16.524999150706869
10
-420.5562572953375
20
16.524999150706869
42
0.41421356237309503
10
-421.30625729533756
20
15.774999150706869
10
-421.30625729533756
20
3.2749991507068668
42
0.41421356237309503
0
LWPOLYLINE
5
132
100
AcDbEntity
8
0
100
AcDbPolyline
90
8
70
1
43
0.0
10
-439.60625729533751
20
2.5249991507068663
10
-427.10625729533751
20
2.5249991507068668
42
0.41421356237309548
10
-426.35625729533751
20
3.2749991507068676
10
-426.35625729533751
20
15.774999150706869
42
0.41421356237309503
10
-427.10625729533751
20
16.524999150706869
10
-439.60625729533751
20
16.524999150706869
42
0.41421356237309503
10
-440.35625729533757
20
15.774999150706869
10
-440.35625729533757
20
3.2749991507068668
42
0.41421356237309503
0
LWPOLYLINE
5
133
100
AcDbEntity
8
0
100
AcDbPolyline
90
8
70
1
43
0.0
10
-439.60625729533751
20
26.33749915070684
42
-0.41421356237309503
10
-440.35625729533757
20
27.087499150706869
10
-440.35625729533757
20
39.587499150706869
42
-0.41421356237309503
10
-439.60625729533751
20
40.337499150706869
10
-427.10625729533751
20
40.337499150706897
42
-0.41421356237309503
10
-426.35625729533751
20
39.587499150706869
10
-426.35625729533751
20
27.087499150706869
42
-0.41421356237309503
10
-427.10625729533751
20
26.337499150706869
0
LWPOLYLINE
5
134
100
AcDbEntity
8
0
100
AcDbPolyline
90
8
70
1
43
0.0
10
-401.50625729533749
20
2.5249991507068663
10
-389.00625729533749
20
2.524999150706865
42
0.41421356237309548
10
-388.25625729533755
20
3.2749991507068676
10
-388.25625729533749
20
15.774999150706869
42
0.41421356237309503
10
-389.00625729533749
20
16.524999150706869
10
-401.50625729533749
20
16.524999150706869
42
0.41421356237309503
10
-402.25625729533755
20
15.774999150706869
10
-402.25625729533755
20
3.2749991507068668
42
0.41421356237309503
0
LWPOLYLINE
5
135
100
AcDbEntity
8
0
100
AcDbPolyline
90
8
70
1
43
0.0
10
-420.5562572953375
20
45.387499150706873
10
-408.0562572953375
20
45.387499150706873
42
0.41421356237309503
10
-407.30625729533756
20
46.137499150706873
10
-407.3062572953375
20
58.637499150706873
42
0.41421356237309503
10
-408.0562572953375
20
59.387499150706873
10
-420.5562572953375
20
59.387499150706873
42
0.41421356237309503
10
-421.30625729533756
20
58.637499150706873
10
-421.30625729533756
20
46.137499150706873
42
0.41421356237309503
0
LWPOLYLINE
5
136
100
AcDbEntity
8
0
100
AcDbPolyline
90
8
70
1
43
0.0
10
-382.45625729533748
20
26.337499150706869
10
-369.95625729533748
20
26.337499150706869
42
0.41421356237309503
10
-369.20625729533754
20
27.087499150706869
10
-369.20625729533748
20
39.587499150706869
42
0.41421356237309503
10
-369.95625729533748
20
40.337499150706869
10
-382.45625729533748
20
40.337499150706869
42
0.41421356237309503
10
-383.20625729533754
20
39.587499150706869
10
-383.20625729533754
20
27.087499150706869
42
0.41421356237309503
0
LWPOLYLINE
5
137
100
AcDbEntity
8
0
100
AcDbPolyline
90
8
70
1
43
0.0
10
-426.35625729533751
20
65.18749915070687
42
-0.41421356237309503
10
-427.10625729533751
20
64.43749915070687
10
-439.60625729533751
20
64.437499150706842
42
-0.41421356237309503
10
-440.35625729533757
20
65.18749915070687
10
-440.35625729533757
20
77.68749915070687
42
-0.41421356237309503
10
-439.60625729533751
20
78.43749915070687
10
-427.10625729533751
20
78.437499150706898
42
-0.41421356237309503
10
-426.35625729533751
20
77.68749915070687
0
LWPOLYLINE
5
138
100
AcDbEntity
8
0
100
AcDbPolyline
90
8
70
1
43
0.0
10
-420.5562572953375
20
64.43749915070687
10
-408.0562572953375
20
64.43749915070687
42
0.41421356237309503
10
-407.30625729533756
20
65.18749915070687
10
-407.3062572953375
20
77.68749915070687
42
0.41421356237309503
10
-408.0562572953375
20
78.43749915070687
10
-420.5562572953375
20
78.43749915070687
42
0.41421356237309503
10
-421.30625729533756
20
77.68749915070687
10
-421.30625729533756
20
65.18749915070687
42
0.41421356237309503
0
LWPOLYLINE
5
139
100
AcDbEntity
8
0
100
AcDbPolyline
90
8
70
1
43
0.0
10
-401.50625729533749
20
45.387499150706873
10
-389.00625729533749
20
45.387499150706873
42
0.41421356237309503
10
-388.25625729533755
20
46.137499150706873
10
-388.25625729533749
20
58.637499150706873
42
0.41421356237309503
10
-389.00625729533749
20
59.387499150706873
10
-401.50625729533749
20
59.387499150706873
42
0.41421356237309503
10
-402.25625729533755
20
58.637499150706873
10
-402.25625729533755
20
46.137499150706873
42
0.41421356237309503
0
LWPOLYLINE
5
140
100
AcDbEntity
8
0
100
AcDbPolyline
90
20
70
1
43
0.0
10
-383.20625729533754
20
77.350499150706867
10
-384.45625729533754
20
77.350499150706867
42
0.41421356237309503
10
-385.20625729533754
20
76.600499150706867
10
-385.20625729533754
20
71.100499150706867
42
0.41421356237309503
10
-384.45625729533754
20
70.350499150706867
10
-383.20625729533754
20
70.350499150706867
10
-383.20625729533754
20
53.474499150706869
10
-384.45625729533754
20
53.474499150706869
42
0.41421356237309503
10
-385.20625729533754
20
52.724499150706869
10
-385.20625729533754
20
47.224499150706869
42
0.41421356237309503
10
-384.45625729533754
20
46.474499150706869
10
-383.20625729533754
20
46.474499150706869
10
-383.20625729533754
20
46.137499150706873
42
0.41421356237309503
10
-382.45625729533748
20
45.387499150706873
10
-369.95625729533748
20
45.387499150706873
42
0.41421356237309503
10
-369.20625729533754
20
46.137499150706873
10
-369.20625729533748
20
77.68749915070687
42
0.41421356237309503
10
-369.95625729533748
20
78.43749915070687
10
-382.45625729533748
20
78.43749915070687
42
0.41421356237309503
10
-383.20625729533754
20
77.68749915070687
0
LWPOLYLINE
5
141
100
AcDbEntity
8
0
100
AcDbPolyline
90
8
70
1
43
0.0
10
-401.50625729533749
20
64.437499150706842
42
-0.41421356237309503
10
-402.25625729533755
20
65.18749915070687
10
-402.25625729533755
20
77.68749915070687
42
-0.41421356237309503
10
-401.50625729533749
20
78.43749915070687
10
-389.00625729533749
20
78.437499150706898
42
-0.41421356237309503
10
-388.25625729533749
20
77.68749915070687
10
-388.25625729533749
20
65.18749915070687
42
-0.41421356237309503
10
-389.00625729533749
20
64.43749915070687
0
LWPOLYLINE
5
142
100
AcDbEntity
8
0
100
AcDbPolyline
90
8
70
1
43
0.0
10
-401.50625729533749
20
83.487499150706867
10
-389.00625729533749
20
83.487499150706867
42
0.41421356237309503
10
-388.25625729533755
20
84.237499150706867
10
-388.25625729533755
20
96.737499150706867
42
0.41421356237309503
10
-389.00625729533749
20
97.487499150706867
10
-401.50625729533749
20
97.487499150706867
42
0.41421356237309503
10
-402.25625729533755
20
96.737499150706867
10
-402.25625729533749
20
84.237499150706867
42
0.41421356237309503
0
LWPOLYLINE
5
143
100
AcDbEntity
8
0
100
AcDbPolyline
90
8
70
1
43
0.0
10
-420.5562572953375
20
83.487499150706867
10
-408.0562572953375
20
83.487499150706853
42
0.41421356237309503
10
-407.30625729533756
20
84.237499150706867
10
-407.30625729533756
20
96.737499150706867
42
0.41421356237309503
10
-408.0562572953375
20
97.487499150706867
10
-420.5562572953375
20
97.487499150706867
42
0.41421356237309503
10
-421.30625729533756
20
96.737499150706867
10
-421.30625729533745
20
84.237499150706867
42
0.41421356237309503
0
LWPOLYLINE
5
144
100
AcDbEntity
8
0
100
AcDbPolyline
90
20
70
1
43
0.0
10
-383.20625729533754
20
108.45049915070689
10
-383.20625729533754
20
91.57449915070687
10
-384.45625729533754
20
91.574499150706856
42
0.41421356237309503
10
-385.20625729533754
20
90.824499150706856
10
-385.20625729533748
20
85.32449915070687
42
0.41421356237309503
10
-384.45625729533754
20
84.574499150706885
10
-383.20625729533754
20
84.574499150706856
10
-383.20625729533742
20
84.237499150706867
42
0.41421356237309503
10
-382.45625729533748
20
83.487499150706867
10
-369.95625729533748
20
83.487499150706867
42
0.41421356237309503
10
-369.20625729533754
20
84.237499150706867
10
-369.20625729533754
20
115.78749915070686
42
0.41421356237309503
10
-369.95625729533748
20
116.53749915070685
10
-382.45625729533748
20
116.53749915070688
42
0.41421356237309503
10
-383.20625729533754
20
115.78749915070688
10
-383.20625729533754
20
115.45049915070689
10
-384.45625729533754
20
115.45049915070689
42
0.41421356237309503
10
-385.20625729533754
20
114.70049915070688
10
-385.20625729533748
20
109.20049915070689
42
0.41421356237309503
10
-384.45625729533754
20
108.45049915070689
0
ENDSEC
0
SECTION
2
OBJECTS
0
DICTIONARY
5
C
100
AcDbDictionary
3
ACAD_GROUP
350
D
3
ACAD_MLINESTYLE
350
17
0
DICTIONARY
5
D
100
AcDbDictionary
0
DICTIONARY
5
1A
330
C
100
AcDbDictionary
0
DICTIONARY
5
17
100
AcDbDictionary
0
ENDSEC
0
EOF
