0
SECTION
2
HEADER
9
$INSUNITS
70
4
9
$ACADVER
1
AC1014
9
$HANDSEED
5
FFFF
0
ENDSEC
0
SECTION
2
TABLES
0
TABLE
2
VPORT
5
8
100
AcDbSymbolTable
0
ENDTAB
0
TABLE
2
LTYPE
5
5
100
AcDbSymbolTable
0
LTYPE
5
14
100
AcDbSymbolTableRecord
100
AcDbLinetypeTableRecord
2
BYBLOCK
70
0
0
LTYPE
5
15
100
AcDbSymbolTableRecord
100
AcDbLinetypeTableRecord
2
BYLAYER
70
0
0
ENDTAB
0
TABLE
2
LAYER
5
2
100
AcDbSymbolTable
70
2
0
LAYER
5
50
100
AcDbSymbolTableRecord
100
AcDbLayerTableRecord
2
0
70
0
6
CONTINUOUS
0
ENDTAB
0
TABLE
2
STYLE
5
3
100
AcDbSymbolTable
70
1
0
STYLE
5
11
100
AcDbSymbolTableRecord
100
AcDbTextStyleTableRecord
2
STANDARD
70
0
0
ENDTAB
0
TABLE
2
VIEW
5
6
100
AcDbSymbolTable
70
0
0
ENDTAB
0
TABLE
2
UCS
5
7
100
AcDbSymbolTable
70
0
0
ENDTAB
0
TABLE
2
APPID
5
9
100
AcDbSymbolTable
70
2
0
APPID
5
12
100
AcDbSymbolTableRecord
100
AcDbRegAppTableRecord
2
ACAD
70
0
0
ENDTAB
0
TABLE
2
DIMSTYLE
5
A
100
AcDbSymbolTable
70
1
0
ENDTAB
0
TABLE
2
BLOCK_RECORD
5
1
100
AcDbSymbolTable
70
1
0
BLOCK_RECORD
5
1F
100
AcDbSymbolTableRecord
100
AcDbBlockTableRecord
2
*MODEL_SPACE
0
BLOCK_RECORD
5
1B
100
AcDbSymbolTableRecord
100
AcDbBlockTableRecord
2
*PAPER_SPACE
0
ENDTAB
0
ENDSEC
0
SECTION
2
BLOCKS
0
BLOCK
5
20
100
AcDbEntity
100
AcDbBlockBegin
2
*MODEL_SPACE
0
ENDBLK
5
21
100
AcDbEntity
100
AcDbBlockEnd
0
BLOCK
5
1C
100
AcDbEntity
100
AcDbBlockBegin
2
*PAPER_SPACE
0
ENDBLK
5
1D
100
AcDbEntity
100
AcDbBlockEnd
0
ENDSEC
0
SECTION
2
ENTITIES
0
LWPOLYLINE
5
100
100
AcDbEntity
8
0
100
AcDbPolyline
90
8
70
1
43
0.0
10
-442.30625000000003
20
-0.57499999999998153
10
-367.25625000000002
20
-0.5750000000000004
42
0.41421356237309492
10
-365.60625000000005
20
1.0749999999999993
10
-365.60625000000005
20
117.9875
42
0.41421356237309503
10
-367.25625000000002
20
119.63749999999999
10
-442.30625000000003
20
119.63749999999999
42
0.41421356237309503
10
-443.95625000000001
20
117.9875
10
-443.95625000000001
20
1.0750000000000091
42
0.41421356237309492
0
LWPOLYLINE
5
101
100
AcDbEntity
8
0
100
AcDbPolyline
90
24
70
1
43
0.0
10
-364.47419462796597
20
125.237498340393
10
-364.47419462796597
20
123.85955544504399
42
0.41421356237310708
10
-361.87419462796595
20
121.25955544504406
10
-360.50625180562804
20
121.25955544504401
42
-0.41421356237314533
10
-359.05625180562799
20
119.80955544504403
10
-359.05625180562811
20
-0.74915382709833134
42
-0.4142135623731219
10
-360.50625180562798
20
-2.1991538270983839
10
-361.86465534659703
20
-2.1991538270984012
42
0.4142135623730972
10
-364.46465534659694
20
-4.7991538270983503
10
-364.46465413507326
20
-6.1749983614019026
42
-0.41421429599502629
10
-365.91465897847485
20
-7.6249995729211397
10
-443.72830564449777
20
-7.6249985294610712
42
-0.41421417771449931
10
-445.178308690812
20
-6.174998529464288
10
-445.178308690812
20
-4.8970572728314918
42
0.41421356237309742
10
-447.77830869081197
20
-2.2970572728314909
10
-449.0562548319337
20
-2.297057272831498
42
-0.41421356237223306
10
-450.50625483193357
20
-0.84705727283601817
10
-450.506254831852
20
119.80955544504405
42
-0.41421044867555479
10
-449.05627024665222
20
121.25955544488016
10
-447.6891455450027
20
121.25956997856433
42
0.44139854858310279
10
-445.08831200959605
20
124.0873985581112
10
-445.08831200959605
20
125.23749834039302
42
-0.41421356237311657
10
-443.63831200959601
20
126.68749834039298
10
-365.9241946279659
20
126.68749834039295
42
-0.41421356237312013
0
ENDSEC
0
SECTION
2
OBJECTS
0
DICTIONARY
5
C
100
AcDbDictionary
3
ACAD_GROUP
350
D
3
ACAD_MLINESTYLE
350
17
0
DICTIONARY
5
D
100
AcDbDictionary
0
DICTIONARY
5
1A
330
C
100
AcDbDictionary
0
DICTIONARY
5
17
100
AcDbDictionary
0
ENDSEC
0
EOF
