0
SECTION
2
HEADER
9
$INSUNITS
70
4
9
$ACADVER
1
AC1014
9
$HANDSEED
5
FFFF
0
ENDSEC
0
SECTION
2
TABLES
0
TABLE
2
VPORT
5
8
100
AcDbSymbolTable
0
ENDTAB
0
TABLE
2
LTYPE
5
5
100
AcDbSymbolTable
0
LTYPE
5
14
100
AcDbSymbolTableRecord
100
AcDbLinetypeTableRecord
2
BYBLOCK
70
0
0
LTYPE
5
15
100
AcDbSymbolTableRecord
100
AcDbLinetypeTableRecord
2
BYLAYER
70
0
0
ENDTAB
0
TABLE
2
LAYER
5
2
100
AcDbSymbolTable
70
2
0
LAYER
5
50
100
AcDbSymbolTableRecord
100
AcDbLayerTableRecord
2
0
70
0
6
CONTINUOUS
0
ENDTAB
0
TABLE
2
STYLE
5
3
100
AcDbSymbolTable
70
1
0
STYLE
5
11
100
AcDbSymbolTableRecord
100
AcDbTextStyleTableRecord
2
STANDARD
70
0
0
ENDTAB
0
TABLE
2
VIEW
5
6
100
AcDbSymbolTable
70
0
0
ENDTAB
0
TABLE
2
UCS
5
7
100
AcDbSymbolTable
70
0
0
ENDTAB
0
TABLE
2
APPID
5
9
100
AcDbSymbolTable
70
2
0
APPID
5
12
100
AcDbSymbolTableRecord
100
AcDbRegAppTableRecord
2
ACAD
70
0
0
ENDTAB
0
TABLE
2
DIMSTYLE
5
A
100
AcDbSymbolTable
70
1
0
ENDTAB
0
TABLE
2
BLOCK_RECORD
5
1
100
AcDbSymbolTable
70
1
0
BLOCK_RECORD
5
1F
100
AcDbSymbolTableRecord
100
AcDbBlockTableRecord
2
*MODEL_SPACE
0
BLOCK_RECORD
5
1B
100
AcDbSymbolTableRecord
100
AcDbBlockTableRecord
2
*PAPER_SPACE
0
ENDTAB
0
ENDSEC
0
SECTION
2
BLOCKS
0
BLOCK
5
20
100
AcDbEntity
100
AcDbBlockBegin
2
*MODEL_SPACE
0
ENDBLK
5
21
100
AcDbEntity
100
AcDbBlockEnd
0
BLOCK
5
1C
100
AcDbEntity
100
AcDbBlockBegin
2
*PAPER_SPACE
0
ENDBLK
5
1D
100
AcDbEntity
100
AcDbBlockEnd
0
ENDSEC
0
SECTION
2
ENTITIES
0
LWPOLYLINE
5
100
100
AcDbEntity
8
0
100
AcDbPolyline
90
11
70
1
43
0.0
10
-306.28750000000002
20
83.487499999999955
10
-292.55675000000008
20
83.487499999999983
42
0.41421356237309503
10
-291.80675000000008
20
84.237499999999983
10
-291.80675000000002
20
98.737499999999983
42
0.41421356237309503
10
-292.55675000000002
20
99.487499999999969
10
-298.05675000000002
20
99.487499999999969
42
0.41421356237303958
10
-298.80675000000002
20
98.737499999999983
10
-298.80675000000002
20
97.487499999999983
10
-306.28750000000002
20
97.487499999999983
42
0.41421356237310197
10
-307.03750000000002
20
96.737499999999969
10
-307.03750000000002
20
84.237499999999955
42
0.41421356237309503
0
LWPOLYLINE
5
101
100
AcDbEntity
8
0
100
AcDbPolyline
90
8
70
1
43
0.0
10
-281.88125000000008
20
78.437499999999986
10
-294.38125000000002
20
78.437499999999986
42
0.41421356237306733
10
-295.13125000000002
20
77.687499999999986
10
-295.13125000000002
20
65.187499999999986
42
0.41421356237309503
10
-294.38125000000002
20
64.437499999999986
10
-281.88125000000002
20
64.437499999999972
42
0.41421356237307078
10
-281.13125000000002
20
65.187499999999986
10
-281.13125000000002
20
77.687499999999986
42
0.41421356237311585
0
LWPOLYLINE
5
102
100
AcDbEntity
8
0
100
AcDbPolyline
90
14
70
1
43
0.0
10
-289.61874999999998
20
83.487499999999955
42
-0.41421356237309503
10
-290.36874999999998
20
84.237499999999955
10
-290.36874999999998
20
96.737499999999969
42
-0.41421356237310197
10
-289.61874999999998
20
97.487499999999983
10
-274.93074999999999
20
97.487499999999983
10
-274.93074999999999
20
98.737499999999983
42
-0.41421356237310197
10
-274.18074999999999
20
99.487499999999983
10
-268.68074999999999
20
99.487499999999983
42
-0.41421356237309503
10
-267.93074999999999
20
98.737499999999997
10
-267.93074999999999
20
97.487499999999997
10
-267.59375
20
97.487499999999983
42
-0.41421356237309503
10
-266.84375
20
96.737499999999983
10
-266.84375
20
84.237499999999969
42
-0.41421356237308815
10
-267.59375
20
83.487500000000011
0
LWPOLYLINE
5
103
100
AcDbEntity
8
0
100
AcDbPolyline
90
8
70
1
43
0.0
10
-227.33749999999998
20
115.78749999999998
10
-227.33750000000001
20
101.03750000000034
42
0.41421356237309503
10
-226.58750000000001
20
100.28749999999997
10
-221.08750000000001
20
100.28750000000032
42
0.41421356237309503
10
-220.33750000000001
20
101.03750000000032
10
-220.33750000000001
20
115.78749999999998
42
0.41421356237309503
10
-221.08750000000001
20
116.53749999999997
10
-226.58750000000001
20
116.53749999999999
42
0.4142135623730534
0
LWPOLYLINE
5
104
100
AcDbEntity
8
0
100
AcDbPolyline
90
38
70
1
43
0.0
10
6.8249981943717071
20
119.40955544504402
10
6.8249981943717213
20
-0.74915381219718791
42
-0.4142135623730957
10
6.1749981943717209
20
-1.3991538121971887
10
4.8165946534032491
20
-1.3991538121971909
42
0.41421356237309498
10
1.4165946385020907
20
-4.7991538270983503
10
1.4165946385020842
20
-6.1750019959675564
42
-0.41421356237309342
10
0.76659463850209164
20
-6.8250019959675612
10
-151.13125330387783
20
-6.8250019959675559
42
-0.41421356237309459
10
-151.78125330387783
20
-6.1750019959675617
10
-151.78125330387783
20
-4.1000009979837788
42
0.99999999999999989
10
-157.78125333368018
20
-4.1000009979837797
10
-157.78125333368018
20
-6.1750019959675617
42
-0.41421356237309503
10
-158.43125333368016
20
-6.8250019959675612
10
-310.42558759564594
20
-6.8250019959675559
42
-0.43908485658062257
10
-311.05955867591103
20
-6.1910309157022292
10
-311.05955867591086
20
-4.8970572728316295
42
0.41421356237310697
10
-314.45955869081206
20
-1.4970572579303405
10
-315.73750483192907
20
-1.4970572579303407
42
-0.4142135623731209
10
-316.38750483192905
20
-0.84705725793037701
10
-316.38750483192905
20
119.40954738028401
42
-0.41421356237311907
10
-315.73750483192902
20
120.05954738028402
10
-313.9595588913611
20
120.05954738028396
42
0.41421356237310269
10
-310.55955887645996
20
123.45954739518498
10
-310.55955887646002
20
125.23748408268902
42
-0.41421346013404842
10
-309.90955910335282
20
125.887484082689
10
-247.50812709622085
20
125.88750586489867
42
-0.41421366461212811
10
-245.15812627591603
20
123.53750586489875
10
-245.15812627591606
20
120.98750000000013
42
0.41421356237309931
10
-242.70812627591599
20
118.53749999999998
10
-90.666910908165676
20
118.53749999999999
42
0.41421356237309503
10
-88.216910908165701
20
120.98749999999997
10
-88.216910908165687
20
123.537498340393
42
-0.41421356237309503
10
-85.866910908165707
20
125.88749834039298
10
0.34705537203357584
20
125.88749834039299
42
-0.41421356237310641
10
0.9970553720335571
20
125.237498340393
10
0.99705537203357175
20
123.459555445044
42
0.41421356237309509
10
4.397055372033571
20
120.05955544504401
10
6.17499819437172
20
120.05955544504401
42
-0.41421356237309309
0
LWPOLYLINE
5
105
100
AcDbEntity
8
0
100
AcDbPolyline
90
8
70
1
43
0.0
10
-113.03750000000002
20
115.78749999999998
10
-113.03749999999999
20
101.03749999999997
42
0.41421356237309503
10
-112.28749999999999
20
100.28749999999999
10
-106.78750000000005
20
100.28749999999997
42
0.41421356237309503
10
-106.03750000000004
20
101.03749999999998
10
-106.03750000000005
20
115.78749999999998
42
0.41421356237311585
10
-106.78750000000005
20
116.53749999999999
10
-112.28750000000005
20
116.53749999999999
42
0.41421356237309503
0
LWPOLYLINE
5
106
100
AcDbEntity
8
0
100
AcDbPolyline
90
8
70
1
43
0.0
10
3.8944542035679398e-16
20
24.562500000000007
10
-9.8532293435482643e-15
20
118.3125
42
0.41421356237308421
10
-0.75000000000001066
20
119.0625
10
-18.300000000000004
20
119.0625
42
0.4142135623730846
10
-19.049999999999997
20
118.3125
10
-19.050000000000004
20
24.562500000000011
42
0.41421356237308815
10
-18.300000000000004
20
23.8125
10
-0.74999999999999956
20
23.8125
42
0.41421356237309592
0
LWPOLYLINE
5
107
100
AcDbEntity
8
0
100
AcDbPolyline
90
8
70
1
43
0.0
10
-79.475000000000037
20
116.53750000000001
10
-91.975000000000023
20
116.53749999999999
42
0.41421356237309503
10
-92.724999999999994
20
115.78749999999998
10
-92.724999999999994
20
103.28749999999998
42
0.41421356237310197
10
-91.975000000000051
20
102.53749999999998
10
-79.474999999999994
20
102.53749999999999
42
0.41421356237309159
10
-78.725000000000009
20
103.28749999999999
10
-78.724999999999994
20
115.78749999999999
42
0.41421356237311935
0
LWPOLYLINE
5
108
100
AcDbEntity
8
0
100
AcDbPolyline
90
8
70
1
43
0.0
10
-250.17500000000001
20
3.2749999999999768
42
-0.41421356237309681
10
-250.92500000000001
20
2.5249999999999755
10
-263.42500000000001
20
2.5250000000000044
42
-0.41421356237312817
10
-264.17500000000007
20
3.2749999999999746
10
-264.17500000000007
20
15.774999999999974
42
-0.41421356237305779
10
-263.42500000000001
20
16.524999999999977
10
-250.92500000000001
20
16.52499999999997
42
-0.4142135623730942
10
-250.17500000000001
20
15.774999999999979
0
LWPOLYLINE
5
109
100
AcDbEntity
8
0
100
AcDbPolyline
90
8
70
1
43
0.0
10
-245.12500000000003
20
15.774999999999979
10
-245.12500000000003
20
3.2749999999999773
42
0.41421356237312884
10
-244.375
20
2.5250000000000044
10
-231.875
20
2.5249999999999773
42
0.41421356237309698
10
-231.125
20
3.274999999999979
10
-231.125
20
15.774999999999981
42
0.4142135623730942
10
-231.875
20
16.52499999999997
10
-244.375
20
16.524999999999977
42
0.4142135623730569
0
LWPOLYLINE
5
110
100
AcDbEntity
8
0
100
AcDbPolyline
90
8
70
1
43
0.0
10
-45.100000000000023
20
115.78749999999997
42
-0.41421356237309853
10
-44.350000000000023
20
116.53750000000001
10
-31.850000000000005
20
116.53750000000001
42
-0.41421356237310025
10
-31.100000000000016
20
115.78749999999999
10
-31.100000000000037
20
103.28749999999999
42
-0.41421356237308815
10
-31.850000000000016
20
102.53749999999999
10
-44.349999999999994
20
102.53749999999999
42
-0.41421356237309853
10
-45.100000000000023
20
103.28749999999999
0
LWPOLYLINE
5
111
100
AcDbEntity
8
0
100
AcDbPolyline
90
8
70
1
43
0.0
10
-173.68750000000006
20
115.78749999999998
10
-173.68750000000003
20
103.28749999999998
42
0.41421356237310197
10
-172.93749999999994
20
102.53749999999997
10
-160.4375
20
102.53749999999998
42
0.41421356237306733
10
-159.68750000000003
20
103.28749999999998
10
-159.6875
20
115.78749999999998
42
0.41421356237314361
10
-160.43750000000003
20
116.53749999999999
10
-172.9375
20
116.53749999999999
42
0.4142135623730534
0
LWPOLYLINE
5
112
100
AcDbEntity
8
0
100
AcDbPolyline
90
8
70
1
43
0.0
10
-269.22500000000002
20
3.2749999999999746
10
-269.22500000000002
20
15.774999999999977
42
0.41421356237309503
10
-269.97500000000002
20
16.52499999999997
10
-282.47500000000002
20
16.524999999999949
42
0.41421356237312718
10
-283.22500000000002
20
15.774999999999979
10
-283.22500000000002
20
3.2749999999999742
42
0.41421356237305496
10
-282.47500000000002
20
2.5249999999999808
10
-269.97500000000002
20
2.5249999999999821
42
0.41421356237309481
0
LWPOLYLINE
5
113
100
AcDbEntity
8
0
100
AcDbPolyline
90
8
70
1
43
0.0
10
-293.78750000000002
20
16.524999999999967
10
-306.28750000000002
20
16.524999999999974
42
0.41421356237309592
10
-307.03750000000002
20
15.774999999999974
10
-307.03750000000002
20
3.274999999999971
42
0.4142135623730957
10
-306.28750000000002
20
2.5249999999999768
10
-293.78750000000002
20
2.5249999999999719
42
0.41421356237309659
10
-293.03750000000002
20
3.2749999999999724
10
-293.03750000000002
20
15.774999999999974
42
0.41421356237309503
0
LWPOLYLINE
5
114
100
AcDbEntity
8
0
100
AcDbPolyline
90
8
70
1
43
0.0
10
-182.46250000000001
20
2.5249999999999613
42
-0.41421356237309243
10
-183.21250000000003
20
3.2749999999999835
10
-183.21250000000003
20
15.774999999999986
42
-0.4142135623730569
10
-182.46250000000001
20
16.524999999999984
10
-169.96250000000001
20
16.524999999999984
42
-0.41421356237309681
10
-169.21250000000001
20
15.774999999999988
10
-169.21250000000001
20
3.2749999999999835
42
-0.41421356237306733
10
-169.96250000000001
20
2.5249999999999835
0
LWPOLYLINE
5
115
100
AcDbEntity
8
0
100
AcDbPolyline
90
8
70
1
43
0.0
10
-188.26249999999999
20
3.274999999999983
42
-0.41421356237305629
10
-189.01250000000002
20
2.5249999999999817
10
-201.51250000000002
20
2.5249999999999853
42
-0.41421356237309659
10
-202.26249999999999
20
3.2749999999999813
10
-202.26249999999999
20
15.774999999999984
42
-0.41421356237306733
10
-201.51250000000002
20
16.524999999999984
10
-189.01250000000002
20
16.525000000000006
42
-0.41421356237309243
10
-188.26249999999999
20
15.774999999999986
0
LWPOLYLINE
5
116
100
AcDbEntity
8
0
100
AcDbPolyline
90
8
70
1
43
0.0
10
-225.32499999999999
20
2.5250000000000083
42
-0.41421356237312817
10
-226.07500000000002
20
3.274999999999979
10
-226.07500000000002
20
15.774999999999981
42
-0.4142135623730569
10
-225.32499999999999
20
16.524999999999981
10
-212.82499999999999
20
16.524999999999977
42
-0.41421356237309503
10
-212.07499999999999
20
15.774999999999984
10
-212.07499999999999
20
3.2749999999999813
42
-0.41421356237309698
10
-212.82499999999999
20
2.5249999999999795
0
LWPOLYLINE
5
117
100
AcDbEntity
8
0
100
AcDbPolyline
90
8
70
1
43
0.0
10
-39.587499999999991
20
26.337499999999999
42
-0.41421356237309853
10
-40.337500000000013
20
27.087499999999999
10
-40.33750000000002
20
39.587500000000013
42
-0.41421356237310897
10
-39.58750000000002
20
40.337500000000013
10
-27.087499999999988
20
40.337500000000013
42
-0.41421356237309159
10
-26.337499999999995
20
39.587500000000013
10
-26.337499999999995
20
27.087499999999999
42
-0.41421356237309503
10
-27.087500000000006
20
26.337499999999995
0
LWPOLYLINE
5
118
100
AcDbEntity
8
0
100
AcDbPolyline
90
20
70
1
43
0.0
10
-274.73750000000001
20
40.33749999999997
10
-275.0745
20
40.337499999999984
10
-275.0745
20
41.587499999999984
42
0.41421356237309159
10
-275.8245
20
42.33749999999997
10
-281.3245
20
42.337499999999991
42
0.41421356237307078
10
-282.0745
20
41.587499999999984
10
-282.0745
20
40.337499999999984
10
-298.95049999999998
20
40.337499999999984
10
-298.95050000000015
20
41.587499999999984
42
0.41421356237309159
10
-299.70050000000009
20
42.33749999999997
10
-305.20049999999998
20
42.337499999999991
42
0.4142135623730534
10
-305.95050000000003
20
41.587499999999984
10
-305.95050000000003
20
40.337499999999984
10
-306.28750000000002
20
40.337499999999977
42
0.41421356237309503
10
-307.03750000000002
20
39.587499999999984
10
-307.03750000000002
20
27.08749999999997
42
0.41421356237309503
10
-306.28750000000002
20
26.337499999999977
10
-274.73750000000001
20
26.337499999999974
42
0.41421356237310025
10
-273.98750000000001
20
27.087499999999977
10
-273.98750000000001
20
39.587499999999991
42
0.41421356237308815
0
LWPOLYLINE
5
119
100
AcDbEntity
8
0
100
AcDbPolyline
90
8
70
1
43
0.0
10
-288.27499999999998
20
46.137499999999974
42
-0.41421356237306733
10
-289.02499999999998
20
45.387499999999974
10
-301.52499999999998
20
45.387499999999974
42
-0.41421356237309853
10
-302.27499999999998
20
46.137499999999974
10
-302.27499999999998
20
58.637499999999974
42
-0.41421356237306733
10
-301.52499999999998
20
59.387499999999982
10
-289.02499999999998
20
59.387499999999982
42
-0.41421356237309853
10
-288.27499999999998
20
58.637499999999974
0
LWPOLYLINE
5
120
100
AcDbEntity
8
0
100
AcDbPolyline
90
8
70
1
43
0.0
10
-31.099999999999998
20
46.137500000000003
10
-31.100000000000009
20
58.637500000000003
42
0.41421356237310197
10
-31.849999999999994
20
59.387500000000003
10
-44.350000000000023
20
59.387500000000003
42
0.41421356237311585
10
-45.100000000000023
20
58.637500000000003
10
-45.100000000000023
20
46.137500000000003
42
0.41421356237311241
10
-44.349999999999987
20
45.38750000000001
10
-31.850000000000009
20
45.387500000000003
42
0.41421356237309159
0
LWPOLYLINE
5
121
100
AcDbEntity
8
0
100
AcDbPolyline
90
8
70
1
43
0.0
10
-28.718750000000007
20
65.1875
42
-0.41421356237308815
10
-29.468750000000007
20
64.4375
10
-46.731250000000024
20
64.4375
42
-0.41421356237307771
10
-47.481250000000017
20
65.1875
10
-47.481250000000031
20
77.6875
42
-0.41421356237309503
10
-46.731250000000024
20
78.437500000000014
10
-29.468750000000014
20
78.437500000000014
42
-0.4142135623730846
10
-28.718750000000011
20
77.6875
0
LWPOLYLINE
5
122
100
AcDbEntity
8
0
100
AcDbPolyline
90
8
70
1
43
0.0
10
-302.27499999999998
20
115.78749999999997
10
-302.27499999999998
20
103.28749999999997
42
0.41421356237309503
10
-301.52499999999998
20
102.53749999999997
10
-289.02499999999998
20
102.53749999999997
42
0.41421356237303958
10
-288.27499999999998
20
103.28749999999997
10
-288.27499999999998
20
115.78749999999997
42
0.41421356237311585
10
-289.02500000000003
20
116.53749999999997
10
-301.52499999999998
20
116.53749999999997
42
0.4142135623730534
0
LWPOLYLINE
5
123
100
AcDbEntity
8
0
100
AcDbPolyline
90
8
70
1
43
0.0
10
-63.399999999999999
20
2.5249999999999959
42
-0.41421356237309742
10
-64.150000000000006
20
3.2749999999999946
10
-64.149999999999991
20
15.774999999999997
42
-0.41421356237309853
10
-63.399999999999999
20
16.524999999999995
10
-50.899999999999999
20
16.524999999999999
42
-0.41421356237308721
10
-50.150000000000013
20
15.774999999999999
10
-50.15000000000002
20
3.2749999999999968
42
-0.41421356237310458
10
-50.899999999999999
20
2.524999999999995
0
LWPOLYLINE
5
124
100
AcDbEntity
8
0
100
AcDbPolyline
90
8
70
1
43
0.0
10
-26.337499999999988
20
3.274999999999999
10
-26.337499999999991
20
15.775000000000002
42
0.41421356237308554
10
-27.087499999999984
20
16.525000000000006
10
-39.587500000000013
20
16.524999999999999
42
0.41421356237310114
10
-40.337500000000013
20
15.774999999999999
10
-40.337500000000013
20
3.2749999999999968
42
0.41421356237310086
10
-39.587499999999984
20
2.5249999999999977
10
-27.087500000000002
20
2.5249999999999972
42
0.41421356237309398
0
LWPOLYLINE
5
125
100
AcDbEntity
8
0
100
AcDbPolyline
90
8
70
1
43
0.0
10
-89.000000000000043
20
16.524999999999991
10
-101.5
20
16.524999999999995
42
0.41421356237308554
10
-102.24999999999996
20
15.774999999999997
10
-102.25000000000001
20
3.2749999999999915
42
0.41421356237308116
10
-101.50000000000006
20
2.5249999999999986
10
-89.000000000000043
20
2.524999999999991
42
0.41421356237309309
10
-88.25
20
3.2749999999999924
10
-88.250000000000014
20
15.774999999999995
42
0.41421356237309592
0
LWPOLYLINE
5
126
100
AcDbEntity
8
0
100
AcDbPolyline
90
8
70
1
43
0.0
10
-145.11250000000001
20
15.77499999999999
10
-145.11250000000001
20
3.2749999999999875
42
0.41421356237309076
10
-144.36250000000001
20
2.5249999999999879
10
-131.86250000000001
20
2.524999999999987
42
0.41421356237310153
10
-131.11250000000001
20
3.2749999999999879
10
-131.11250000000001
20
15.77499999999999
42
0.4142135623730846
10
-131.86250000000001
20
16.524999999999991
10
-144.36250000000001
20
16.524999999999991
42
0.41421356237309503
0
LWPOLYLINE
5
127
100
AcDbEntity
8
0
100
AcDbPolyline
90
8
70
1
43
0.0
10
-83.200000000000003
20
15.774999999999995
10
-83.200000000000003
20
3.2749999999999928
42
0.41421356237309076
10
-82.450000000000031
20
2.5249999999999932
10
-69.950000000000017
20
2.5249999999999932
42
0.41421356237310913
10
-69.200000000000017
20
3.2749999999999946
10
-69.200000000000003
20
15.774999999999997
42
0.41421356237309764
10
-69.950000000000017
20
16.524999999999995
10
-82.450000000000031
20
16.524999999999995
42
0.41421356237310281
0
LWPOLYLINE
5
128
100
AcDbEntity
8
0
100
AcDbPolyline
90
8
70
1
43
0.0
10
-108.05
20
16.524999999999995
10
-120.55
20
16.524999999999991
42
0.41421356237308554
10
-121.29999999999998
20
15.774999999999991
10
-121.29999999999998
20
3.2749999999999897
42
0.4142135623730922
10
-120.55
20
2.5250000000000039
10
-108.05
20
2.5249999999999897
42
0.41421356237310153
10
-107.30000000000001
20
3.2749999999999901
10
-107.30000000000001
20
15.774999999999991
42
0.4142135623730846
0
LWPOLYLINE
5
129
100
AcDbEntity
8
0
100
AcDbPolyline
90
8
70
1
43
0.0
10
-164.16249999999997
20
15.774999999999988
10
-164.16249999999997
20
3.2749999999999853
42
0.41421356237309659
10
-163.41249999999999
20
2.5249999999999884
10
-150.91249999999999
20
2.5249999999999857
42
0.41421356237309204
10
-150.16250000000008
20
3.2749999999999879
10
-150.16250000000008
20
15.774999999999988
42
0.41421356237310197
10
-150.91249999999999
20
16.524999999999981
10
-163.41249999999999
20
16.524999999999988
42
0.41421356237306733
0
LWPOLYLINE
5
130
100
AcDbEntity
8
0
100
AcDbPolyline
90
8
70
1
43
0.0
10
-52.243750000000006
20
96.737499999999997
10
-52.243750000000027
20
84.237499999999983
42
0.41421356237310897
10
-51.493749999999999
20
83.487500000000026
10
-38.993749999999999
20
83.487500000000026
42
0.41421356237309159
10
-38.24375000000002
20
84.237499999999983
10
-38.243750000000006
20
96.737499999999997
42
0.41421356237309853
10
-38.993749999999999
20
97.487500000000011
10
-51.493750000000006
20
97.487500000000011
42
0.41421356237311585
0
LWPOLYLINE
5
131
100
AcDbEntity
8
0
100
AcDbPolyline
90
8
70
1
43
0.0
10
-36.80575000000001
20
96.737499999999997
10
-36.805750000000018
20
82.73749999999994
42
0.41421356237309331
10
-36.055750000000039
20
81.987500000000026
10
-30.555750000000014
20
81.987499999999955
42
0.41421356237309681
10
-29.805750000000014
20
82.73749999999994
10
-29.805750000000014
20
96.737500000000011
42
0.41421356237309503
10
-30.555750000000003
20
97.487500000000011
10
-36.055750000000003
20
97.487500000000011
42
0.41421356237309503
0
LWPOLYLINE
5
132
100
AcDbEntity
8
0
100
AcDbPolyline
90
8
70
1
43
0.0
10
-60.681750000000008
20
96.737500000000011
10
-60.681750000000008
20
82.737500000000011
42
0.41421356237309503
10
-59.931750000000022
20
81.98750000000004
10
-54.43174999999998
20
81.987500000000026
42
0.41421356237309503
10
-53.681750000000001
20
82.737500000000011
10
-53.681750000000015
20
96.737500000000011
42
0.41421356237309503
10
-54.431750000000022
20
97.487500000000011
10
-59.931750000000015
20
97.487500000000011
42
0.41421356237309503
0
LWPOLYLINE
5
133
100
AcDbEntity
8
0
100
AcDbPolyline
90
8
70
1
43
0.0
10
-279.69324999999998
20
79.687499999999972
10
-279.69324999999998
20
65.187499999999986
42
0.41421356237309503
10
-278.94324999999998
20
64.4375
10
-273.44324999999998
20
64.437499999999972
42
0.41421356237309503
10
-272.69324999999998
20
65.187499999999986
10
-272.69324999999998
20
79.687499999999972
42
0.41421356237309853
10
-273.44324999999998
20
80.437499999999972
10
-278.94324999999998
20
80.4375
42
0.41421356237304996
0
LWPOLYLINE
5
134
100
AcDbEntity
8
0
100
AcDbPolyline
90
8
70
1
43
0.0
10
-303.56925000000001
20
79.687499999999972
10
-303.56925000000001
20
65.187500000000028
42
0.41421356237309503
10
-302.81925000000007
20
64.4375
10
-297.31925000000012
20
64.437500000000057
42
0.41421356237309503
10
-296.56925000000012
20
65.187500000000085
10
-296.56925000000007
20
79.687499999999972
42
0.41421356237311935
10
-297.31925000000001
20
80.4375
10
-302.81925000000001
20
80.4375
42
0.4142135623730569
0
LWPOLYLINE
5
135
100
AcDbEntity
8
0
100
AcDbPolyline
90
8
70
1
43
0.0
10
-241.40000000000001
20
116.53749999999997
10
-253.90000000000001
20
116.53749999999999
42
0.4142135623730534
10
-254.65000000000003
20
115.78749999999998
10
-254.65000000000003
20
103.28749999999998
42
0.41421356237312279
10
-253.90000000000001
20
102.53750000000002
10
-241.40000000000001
20
102.53749999999998
42
0.41421356237309503
10
-240.65000000000001
20
103.28749999999998
10
-240.65000000000001
20
115.78749999999998
42
0.41421356237309503
0
LWPOLYLINE
5
136
100
AcDbEntity
8
0
100
AcDbPolyline
90
4
70
1
43
0.0
10
-309.91921484439035
20
106.87952916859082
10
-309.91921484439035
20
17.747399419570257
42
0.99999999999999989
10
-308.41921484439035
20
17.747399419570247
10
-308.41921484439024
20
106.87952916859081
42
0.99999999999999989
0
LWPOLYLINE
5
137
100
AcDbEntity
8
0
100
AcDbPolyline
90
44
70
1
43
0.0
10
-272.21250000000003
20
43.862500000000004
42
-0.41421356237309503
10
-271.46250000000003
20
43.112500000000011
10
-271.46250000000003
20
24.562499999999979
42
0.41421356237308116
10
-270.71250000000009
20
23.81249999999995
10
-43.612500000000018
20
23.812499999999996
42
0.41421356237308815
10
-42.862500000000018
20
24.5625
10
-42.862500000000018
20
42.112499999999997
42
0.41421356237310542
10
-43.612500000000011
20
42.862499999999983
10
-51.637500000000003
20
42.862500000000011
42
-0.41421356237308116
10
-52.387500000000003
20
43.61249999999999
10
-52.387500000000017
20
61.162500000000001
42
0.41421356237309159
10
-53.137500000000017
20
61.912499999999994
10
-56.400000000000013
20
61.912499999999994
42
-0.41421356237309853
10
-57.150000000000006
20
62.662499999999994
10
-57.15000000000002
20
79.712499999999821
42
0.41421356237309503
10
-57.90000000000002
20
80.462499999999835
10
-65.92500000000004
20
80.462499999999807
42
-0.41421356237309503
10
-66.675000000000026
20
81.212499999999778
10
-66.675000000000026
20
98.762499999999847
42
0.41421356237309503
10
-67.425000000000026
20
99.512499999999847
10
-104.25322004609666
20
99.512499999999989
42
0.26276988478771873
10
-104.89536002304858
20
99.150000000000063
42
-0.26276988478767682
10
-105.53750000000053
20
98.787500000000136
10
-113.53750000000069
20
98.787500000000193
42
-0.26276988478775493
10
-114.17963997695267
20
99.150000000000134
42
0.26276988478780006
10
-114.8217799539047
20
99.512500000000131
10
-218.55322004609664
20
99.512499999999989
42
0.26276988478771873
10
-219.19536002304855
20
99.150000000000063
42
-0.26276988478767682
10
-219.83750000000055
20
98.787500000000136
10
-227.83750000000069
20
98.787500000000193
42
-0.26276988478775493
10
-228.47963997695268
20
99.150000000000134
42
0.26276988478780006
10
-229.12177995390468
20
99.512500000000131
10
-256.42499999999995
20
99.512499999999989
42
0.41421356237309503
10
-257.17500000000001
20
98.762499999999918
10
-257.17500000000007
20
81.712499999999977
42
-0.41421356237309503
10
-257.92500000000007
20
80.962499999999977
10
-265.95000000000005
20
80.962499999999963
42
0.41421356237309503
10
-266.70000000000005
20
80.212499999999977
10
-266.70000000000005
20
62.66249999999998
42
-0.41421356237309853
10
-267.44999999999999
20
61.912499999999973
10
-280.23750000000001
20
61.912499999999973
42
0.41421356237303608
10
-280.98750000000001
20
61.16249999999998
10
-280.98750000000001
20
44.61249999999999
42
0.41421356237309503
10
-280.23750000000001
20
43.862499999999997
0
CIRCLE
5
138
100
AcDbEntity
8
0
100
AcDbCircle
10
-5.453102762015992
20
13.569705184974485
30
0
40
3.7500000149011607
210
0
220
0
230
1
0
CIRCLE
5
139
100
AcDbEntity
8
0
100
AcDbCircle
10
-13.722348349458446
20
5.3003996488466756
30
0
40
3.7500000149011603
210
0
220
0
230
1
0
CIRCLE
5
140
100
AcDbEntity
8
0
100
AcDbCircle
10
-124.70000000000002
20
109.53750000000001
30
0
40
1.9999999999999929
210
0
220
0
230
1
0
CIRCLE
5
141
100
AcDbEntity
8
0
100
AcDbCircle
10
-148.02500000000003
20
109.53749999999998
30
0
40
1.9999999999999929
210
0
220
0
230
1
0
CIRCLE
5
142
100
AcDbEntity
8
0
100
AcDbCircle
10
-142.19375000000002
20
109.53750000000001
30
0
40
1.9999999999999929
210
0
220
0
230
1
0
CIRCLE
5
143
100
AcDbEntity
8
0
100
AcDbCircle
10
-136.36250000000004
20
109.53750000000001
30
0
40
1.9999999999999929
210
0
220
0
230
1
0
CIRCLE
5
144
100
AcDbEntity
8
0
100
AcDbCircle
10
-208.67500000000004
20
109.53750000000001
30
0
40
1.9999999999999929
210
0
220
0
230
1
0
CIRCLE
5
145
100
AcDbEntity
8
0
100
AcDbCircle
10
-130.53125000000003
20
109.53750000000001
30
0
40
2.0000000000000107
210
0
220
0
230
1
0
CIRCLE
5
146
100
AcDbEntity
8
0
100
AcDbCircle
10
-185.34999999999999
20
109.53749999999998
30
0
40
1.9999999999999929
210
0
220
0
230
1
0
CIRCLE
5
147
100
AcDbEntity
8
0
100
AcDbCircle
10
-191.18125000000003
20
109.53750000000001
30
0
40
1.9999999999999929
210
0
220
0
230
1
0
CIRCLE
5
148
100
AcDbEntity
8
0
100
AcDbCircle
10
-197.01250000000002
20
109.53749999999998
30
0
40
1.9999999999999929
210
0
220
0
230
1
0
CIRCLE
5
149
100
AcDbEntity
8
0
100
AcDbCircle
10
-202.84375
20
109.53750000000001
30
0
40
1.9999999999999929
210
0
220
0
230
1
0
ENDSEC
0
SECTION
2
OBJECTS
0
DICTIONARY
5
C
100
AcDbDictionary
3
ACAD_GROUP
350
D
3
ACAD_MLINESTYLE
350
17
0
DICTIONARY
5
D
100
AcDbDictionary
0
DICTIONARY
5
1A
330
C
100
AcDbDictionary
0
DICTIONARY
5
17
100
AcDbDictionary
0
ENDSEC
0
EOF
